G04 #@! TF.GenerationSoftware,KiCad,Pcbnew,(5.0.1)-3*
G04 #@! TF.CreationDate,2019-05-14T07:32:29-04:00*
G04 #@! TF.ProjectId,mulletpad-pcb,6D756C6C65747061642D7063622E6B69,rev?*
G04 #@! TF.SameCoordinates,Original*
G04 #@! TF.FileFunction,Soldermask,Top*
G04 #@! TF.FilePolarity,Negative*
%FSLAX46Y46*%
G04 Gerber Fmt 4.6, Leading zero omitted, Abs format (unit mm)*
G04 Created by KiCad (PCBNEW (5.0.1)-3) date 5/14/2019 7:32:29 AM*
%MOMM*%
%LPD*%
G01*
G04 APERTURE LIST*
%ADD10C,0.100000*%
G04 APERTURE END LIST*
D10*
G36*
X136871739Y-133756048D02*
X137125702Y-133806564D01*
X137412516Y-133925367D01*
X137670642Y-134097841D01*
X137890159Y-134317358D01*
X138062633Y-134575484D01*
X138181436Y-134862298D01*
X138242000Y-135166778D01*
X138242000Y-135477222D01*
X138181436Y-135781702D01*
X138062633Y-136068516D01*
X137890159Y-136326642D01*
X137670642Y-136546159D01*
X137412516Y-136718633D01*
X137125702Y-136837436D01*
X136871739Y-136887952D01*
X136821223Y-136898000D01*
X136510777Y-136898000D01*
X136460261Y-136887952D01*
X136206298Y-136837436D01*
X135919484Y-136718633D01*
X135661358Y-136546159D01*
X135441841Y-136326642D01*
X135269367Y-136068516D01*
X135150564Y-135781702D01*
X135090000Y-135477222D01*
X135090000Y-135166778D01*
X135150564Y-134862298D01*
X135269367Y-134575484D01*
X135441841Y-134317358D01*
X135661358Y-134097841D01*
X135919484Y-133925367D01*
X136206298Y-133806564D01*
X136460261Y-133756048D01*
X136510777Y-133746000D01*
X136821223Y-133746000D01*
X136871739Y-133756048D01*
X136871739Y-133756048D01*
G37*
G36*
X113071739Y-133756048D02*
X113325702Y-133806564D01*
X113612516Y-133925367D01*
X113870642Y-134097841D01*
X114090159Y-134317358D01*
X114262633Y-134575484D01*
X114381436Y-134862298D01*
X114442000Y-135166778D01*
X114442000Y-135477222D01*
X114381436Y-135781702D01*
X114262633Y-136068516D01*
X114090159Y-136326642D01*
X113870642Y-136546159D01*
X113612516Y-136718633D01*
X113325702Y-136837436D01*
X113071739Y-136887952D01*
X113021223Y-136898000D01*
X112710777Y-136898000D01*
X112660261Y-136887952D01*
X112406298Y-136837436D01*
X112119484Y-136718633D01*
X111861358Y-136546159D01*
X111641841Y-136326642D01*
X111469367Y-136068516D01*
X111350564Y-135781702D01*
X111290000Y-135477222D01*
X111290000Y-135166778D01*
X111350564Y-134862298D01*
X111469367Y-134575484D01*
X111641841Y-134317358D01*
X111861358Y-134097841D01*
X112119484Y-133925367D01*
X112406298Y-133806564D01*
X112660261Y-133756048D01*
X112710777Y-133746000D01*
X113021223Y-133746000D01*
X113071739Y-133756048D01*
X113071739Y-133756048D01*
G37*
G36*
X164824252Y-128799818D02*
X164824254Y-128799819D01*
X164824255Y-128799819D01*
X165197513Y-128954427D01*
X165410668Y-129096853D01*
X165533439Y-129178886D01*
X165819114Y-129464561D01*
X165819116Y-129464564D01*
X166043573Y-129800487D01*
X166198181Y-130173745D01*
X166198182Y-130173748D01*
X166252734Y-130448000D01*
X166277000Y-130569994D01*
X166277000Y-130974006D01*
X166198181Y-131370255D01*
X166043573Y-131743513D01*
X165874761Y-131996157D01*
X165819114Y-132079439D01*
X165533439Y-132365114D01*
X165533436Y-132365116D01*
X165197513Y-132589573D01*
X164824255Y-132744181D01*
X164824254Y-132744181D01*
X164824252Y-132744182D01*
X164428007Y-132823000D01*
X164023993Y-132823000D01*
X163627748Y-132744182D01*
X163627746Y-132744181D01*
X163627745Y-132744181D01*
X163254487Y-132589573D01*
X162918564Y-132365116D01*
X162918561Y-132365114D01*
X162632886Y-132079439D01*
X162577239Y-131996157D01*
X162408427Y-131743513D01*
X162253819Y-131370255D01*
X162175000Y-130974006D01*
X162175000Y-130569994D01*
X162199266Y-130448000D01*
X162253818Y-130173748D01*
X162253819Y-130173745D01*
X162408427Y-129800487D01*
X162632884Y-129464564D01*
X162632886Y-129464561D01*
X162918561Y-129178886D01*
X163041332Y-129096853D01*
X163254487Y-128954427D01*
X163627745Y-128799819D01*
X163627746Y-128799819D01*
X163627748Y-128799818D01*
X164023993Y-128721000D01*
X164428007Y-128721000D01*
X164824252Y-128799818D01*
X164824252Y-128799818D01*
G37*
G36*
X179671739Y-129206048D02*
X179925702Y-129256564D01*
X180212516Y-129375367D01*
X180470642Y-129547841D01*
X180690159Y-129767358D01*
X180862633Y-130025484D01*
X180981436Y-130312298D01*
X181042000Y-130616778D01*
X181042000Y-130927222D01*
X180981436Y-131231702D01*
X180862633Y-131518516D01*
X180690159Y-131776642D01*
X180470642Y-131996159D01*
X180212516Y-132168633D01*
X179925702Y-132287436D01*
X179671739Y-132337952D01*
X179621223Y-132348000D01*
X179310777Y-132348000D01*
X179260261Y-132337952D01*
X179006298Y-132287436D01*
X178719484Y-132168633D01*
X178461358Y-131996159D01*
X178241841Y-131776642D01*
X178069367Y-131518516D01*
X177950564Y-131231702D01*
X177890000Y-130927222D01*
X177890000Y-130616778D01*
X177950564Y-130312298D01*
X178069367Y-130025484D01*
X178241841Y-129767358D01*
X178461358Y-129547841D01*
X178719484Y-129375367D01*
X179006298Y-129256564D01*
X179260261Y-129206048D01*
X179310777Y-129196000D01*
X179621223Y-129196000D01*
X179671739Y-129206048D01*
X179671739Y-129206048D01*
G37*
G36*
X153887252Y-126424818D02*
X153887254Y-126424819D01*
X153887255Y-126424819D01*
X154260513Y-126579427D01*
X154591905Y-126800857D01*
X154596439Y-126803886D01*
X154882114Y-127089561D01*
X154882116Y-127089564D01*
X155106573Y-127425487D01*
X155135780Y-127496000D01*
X155261182Y-127798748D01*
X155340000Y-128194993D01*
X155340000Y-128599007D01*
X155265936Y-128971354D01*
X155261181Y-128995255D01*
X155106573Y-129368513D01*
X154986748Y-129547843D01*
X154882114Y-129704439D01*
X154596439Y-129990114D01*
X154596436Y-129990116D01*
X154260513Y-130214573D01*
X153887255Y-130369181D01*
X153887254Y-130369181D01*
X153887252Y-130369182D01*
X153491007Y-130448000D01*
X153086993Y-130448000D01*
X152690748Y-130369182D01*
X152690746Y-130369181D01*
X152690745Y-130369181D01*
X152317487Y-130214573D01*
X151981564Y-129990116D01*
X151981561Y-129990114D01*
X151695886Y-129704439D01*
X151591252Y-129547843D01*
X151471427Y-129368513D01*
X151316819Y-128995255D01*
X151312065Y-128971354D01*
X151238000Y-128599007D01*
X151238000Y-128194993D01*
X151316818Y-127798748D01*
X151442220Y-127496000D01*
X151471427Y-127425487D01*
X151695884Y-127089564D01*
X151695886Y-127089561D01*
X151981561Y-126803886D01*
X151986095Y-126800857D01*
X152317487Y-126579427D01*
X152690745Y-126424819D01*
X152690746Y-126424819D01*
X152690748Y-126424818D01*
X153086993Y-126346000D01*
X153491007Y-126346000D01*
X153887252Y-126424818D01*
X153887252Y-126424818D01*
G37*
G36*
X125364252Y-126349818D02*
X125364254Y-126349819D01*
X125364255Y-126349819D01*
X125737513Y-126504427D01*
X126068905Y-126725857D01*
X126073439Y-126728886D01*
X126359114Y-127014561D01*
X126359116Y-127014564D01*
X126583573Y-127350487D01*
X126627122Y-127455624D01*
X126738182Y-127723748D01*
X126817000Y-128119993D01*
X126817000Y-128524007D01*
X126742936Y-128896354D01*
X126738181Y-128920255D01*
X126583573Y-129293513D01*
X126533459Y-129368514D01*
X126359114Y-129629439D01*
X126073439Y-129915114D01*
X126073436Y-129915116D01*
X125737513Y-130139573D01*
X125364255Y-130294181D01*
X125364254Y-130294181D01*
X125364252Y-130294182D01*
X124968007Y-130373000D01*
X124563993Y-130373000D01*
X124167748Y-130294182D01*
X124167746Y-130294181D01*
X124167745Y-130294181D01*
X123794487Y-130139573D01*
X123458564Y-129915116D01*
X123458561Y-129915114D01*
X123172886Y-129629439D01*
X122998541Y-129368514D01*
X122948427Y-129293513D01*
X122793819Y-128920255D01*
X122789065Y-128896354D01*
X122715000Y-128524007D01*
X122715000Y-128119993D01*
X122793818Y-127723748D01*
X122904878Y-127455624D01*
X122948427Y-127350487D01*
X123172884Y-127014564D01*
X123172886Y-127014561D01*
X123458561Y-126728886D01*
X123463095Y-126725857D01*
X123794487Y-126504427D01*
X124167745Y-126349819D01*
X124167746Y-126349819D01*
X124167748Y-126349818D01*
X124563993Y-126271000D01*
X124968007Y-126271000D01*
X125364252Y-126349818D01*
X125364252Y-126349818D01*
G37*
G36*
X158631812Y-127530624D02*
X158795784Y-127598544D01*
X158943354Y-127697147D01*
X159068853Y-127822646D01*
X159167456Y-127970216D01*
X159235376Y-128134188D01*
X159270000Y-128308259D01*
X159270000Y-128485741D01*
X159235376Y-128659812D01*
X159167456Y-128823784D01*
X159068853Y-128971354D01*
X158943354Y-129096853D01*
X158795784Y-129195456D01*
X158631812Y-129263376D01*
X158457741Y-129298000D01*
X158280259Y-129298000D01*
X158106188Y-129263376D01*
X157942216Y-129195456D01*
X157794646Y-129096853D01*
X157669147Y-128971354D01*
X157570544Y-128823784D01*
X157502624Y-128659812D01*
X157468000Y-128485741D01*
X157468000Y-128308259D01*
X157502624Y-128134188D01*
X157570544Y-127970216D01*
X157669147Y-127822646D01*
X157794646Y-127697147D01*
X157942216Y-127598544D01*
X158106188Y-127530624D01*
X158280259Y-127496000D01*
X158457741Y-127496000D01*
X158631812Y-127530624D01*
X158631812Y-127530624D01*
G37*
G36*
X148471812Y-127530624D02*
X148635784Y-127598544D01*
X148783354Y-127697147D01*
X148908853Y-127822646D01*
X149007456Y-127970216D01*
X149075376Y-128134188D01*
X149110000Y-128308259D01*
X149110000Y-128485741D01*
X149075376Y-128659812D01*
X149007456Y-128823784D01*
X148908853Y-128971354D01*
X148783354Y-129096853D01*
X148635784Y-129195456D01*
X148471812Y-129263376D01*
X148297741Y-129298000D01*
X148120259Y-129298000D01*
X147946188Y-129263376D01*
X147782216Y-129195456D01*
X147634646Y-129096853D01*
X147509147Y-128971354D01*
X147410544Y-128823784D01*
X147342624Y-128659812D01*
X147308000Y-128485741D01*
X147308000Y-128308259D01*
X147342624Y-128134188D01*
X147410544Y-127970216D01*
X147509147Y-127822646D01*
X147634646Y-127697147D01*
X147782216Y-127598544D01*
X147946188Y-127530624D01*
X148120259Y-127496000D01*
X148297741Y-127496000D01*
X148471812Y-127530624D01*
X148471812Y-127530624D01*
G37*
G36*
X119948812Y-127455624D02*
X120112784Y-127523544D01*
X120260354Y-127622147D01*
X120385853Y-127747646D01*
X120484456Y-127895216D01*
X120552376Y-128059188D01*
X120587000Y-128233259D01*
X120587000Y-128410741D01*
X120552376Y-128584812D01*
X120484456Y-128748784D01*
X120385853Y-128896354D01*
X120260354Y-129021853D01*
X120112784Y-129120456D01*
X119948812Y-129188376D01*
X119774741Y-129223000D01*
X119597259Y-129223000D01*
X119423188Y-129188376D01*
X119259216Y-129120456D01*
X119111646Y-129021853D01*
X118986147Y-128896354D01*
X118887544Y-128748784D01*
X118819624Y-128584812D01*
X118785000Y-128410741D01*
X118785000Y-128233259D01*
X118819624Y-128059188D01*
X118887544Y-127895216D01*
X118986147Y-127747646D01*
X119111646Y-127622147D01*
X119259216Y-127523544D01*
X119423188Y-127455624D01*
X119597259Y-127421000D01*
X119774741Y-127421000D01*
X119948812Y-127455624D01*
X119948812Y-127455624D01*
G37*
G36*
X130108812Y-127455624D02*
X130272784Y-127523544D01*
X130420354Y-127622147D01*
X130545853Y-127747646D01*
X130644456Y-127895216D01*
X130712376Y-128059188D01*
X130747000Y-128233259D01*
X130747000Y-128410741D01*
X130712376Y-128584812D01*
X130644456Y-128748784D01*
X130545853Y-128896354D01*
X130420354Y-129021853D01*
X130272784Y-129120456D01*
X130108812Y-129188376D01*
X129934741Y-129223000D01*
X129757259Y-129223000D01*
X129583188Y-129188376D01*
X129419216Y-129120456D01*
X129271646Y-129021853D01*
X129146147Y-128896354D01*
X129047544Y-128748784D01*
X128979624Y-128584812D01*
X128945000Y-128410741D01*
X128945000Y-128233259D01*
X128979624Y-128059188D01*
X129047544Y-127895216D01*
X129146147Y-127747646D01*
X129271646Y-127622147D01*
X129419216Y-127523544D01*
X129583188Y-127455624D01*
X129757259Y-127421000D01*
X129934741Y-127421000D01*
X130108812Y-127455624D01*
X130108812Y-127455624D01*
G37*
G36*
X149814734Y-124750232D02*
X150024202Y-124836996D01*
X150212723Y-124962962D01*
X150373038Y-125123277D01*
X150499004Y-125311798D01*
X150585768Y-125521266D01*
X150630000Y-125743635D01*
X150630000Y-125970365D01*
X150585768Y-126192734D01*
X150499004Y-126402202D01*
X150373038Y-126590723D01*
X150212723Y-126751038D01*
X150024202Y-126877004D01*
X149814734Y-126963768D01*
X149592365Y-127008000D01*
X149365635Y-127008000D01*
X149143266Y-126963768D01*
X148933798Y-126877004D01*
X148745277Y-126751038D01*
X148584962Y-126590723D01*
X148458996Y-126402202D01*
X148372232Y-126192734D01*
X148328000Y-125970365D01*
X148328000Y-125743635D01*
X148372232Y-125521266D01*
X148458996Y-125311798D01*
X148584962Y-125123277D01*
X148745277Y-124962962D01*
X148933798Y-124836996D01*
X149143266Y-124750232D01*
X149365635Y-124706000D01*
X149592365Y-124706000D01*
X149814734Y-124750232D01*
X149814734Y-124750232D01*
G37*
G36*
X121291734Y-124675232D02*
X121501202Y-124761996D01*
X121689723Y-124887962D01*
X121850038Y-125048277D01*
X121976004Y-125236798D01*
X122062768Y-125446266D01*
X122107000Y-125668635D01*
X122107000Y-125895365D01*
X122062768Y-126117734D01*
X121976004Y-126327202D01*
X121850038Y-126515723D01*
X121689723Y-126676038D01*
X121501202Y-126802004D01*
X121291734Y-126888768D01*
X121069365Y-126933000D01*
X120842635Y-126933000D01*
X120620266Y-126888768D01*
X120410798Y-126802004D01*
X120222277Y-126676038D01*
X120061962Y-126515723D01*
X119935996Y-126327202D01*
X119849232Y-126117734D01*
X119805000Y-125895365D01*
X119805000Y-125668635D01*
X119849232Y-125446266D01*
X119935996Y-125236798D01*
X120061962Y-125048277D01*
X120222277Y-124887962D01*
X120410798Y-124761996D01*
X120620266Y-124675232D01*
X120842635Y-124631000D01*
X121069365Y-124631000D01*
X121291734Y-124675232D01*
X121291734Y-124675232D01*
G37*
G36*
X172728812Y-123085624D02*
X172892784Y-123153544D01*
X173040354Y-123252147D01*
X173165853Y-123377646D01*
X173264456Y-123525216D01*
X173332376Y-123689188D01*
X173367000Y-123863259D01*
X173367000Y-124040741D01*
X173332376Y-124214812D01*
X173264456Y-124378784D01*
X173165853Y-124526354D01*
X173040354Y-124651853D01*
X172892784Y-124750456D01*
X172728812Y-124818376D01*
X172554741Y-124853000D01*
X172377259Y-124853000D01*
X172203188Y-124818376D01*
X172039216Y-124750456D01*
X171891646Y-124651853D01*
X171766147Y-124526354D01*
X171667544Y-124378784D01*
X171599624Y-124214812D01*
X171565000Y-124040741D01*
X171565000Y-123863259D01*
X171599624Y-123689188D01*
X171667544Y-123525216D01*
X171766147Y-123377646D01*
X171891646Y-123252147D01*
X172039216Y-123153544D01*
X172203188Y-123085624D01*
X172377259Y-123051000D01*
X172554741Y-123051000D01*
X172728812Y-123085624D01*
X172728812Y-123085624D01*
G37*
G36*
X156164734Y-122210232D02*
X156374202Y-122296996D01*
X156562723Y-122422962D01*
X156723038Y-122583277D01*
X156849004Y-122771798D01*
X156935768Y-122981266D01*
X156980000Y-123203635D01*
X156980000Y-123430365D01*
X156935768Y-123652734D01*
X156849004Y-123862202D01*
X156723038Y-124050723D01*
X156562723Y-124211038D01*
X156374202Y-124337004D01*
X156164734Y-124423768D01*
X155942365Y-124468000D01*
X155715635Y-124468000D01*
X155493266Y-124423768D01*
X155283798Y-124337004D01*
X155095277Y-124211038D01*
X154934962Y-124050723D01*
X154808996Y-123862202D01*
X154722232Y-123652734D01*
X154678000Y-123430365D01*
X154678000Y-123203635D01*
X154722232Y-122981266D01*
X154808996Y-122771798D01*
X154934962Y-122583277D01*
X155095277Y-122422962D01*
X155283798Y-122296996D01*
X155493266Y-122210232D01*
X155715635Y-122166000D01*
X155942365Y-122166000D01*
X156164734Y-122210232D01*
X156164734Y-122210232D01*
G37*
G36*
X127641734Y-122135232D02*
X127851202Y-122221996D01*
X128039723Y-122347962D01*
X128200038Y-122508277D01*
X128326004Y-122696798D01*
X128412768Y-122906266D01*
X128457000Y-123128635D01*
X128457000Y-123355365D01*
X128412768Y-123577734D01*
X128326004Y-123787202D01*
X128200038Y-123975723D01*
X128039723Y-124136038D01*
X127851202Y-124262004D01*
X127641734Y-124348768D01*
X127419365Y-124393000D01*
X127192635Y-124393000D01*
X126970266Y-124348768D01*
X126760798Y-124262004D01*
X126572277Y-124136038D01*
X126411962Y-123975723D01*
X126285996Y-123787202D01*
X126199232Y-123577734D01*
X126155000Y-123355365D01*
X126155000Y-123128635D01*
X126199232Y-122906266D01*
X126285996Y-122696798D01*
X126411962Y-122508277D01*
X126572277Y-122347962D01*
X126760798Y-122221996D01*
X126970266Y-122135232D01*
X127192635Y-122091000D01*
X127419365Y-122091000D01*
X127641734Y-122135232D01*
X127641734Y-122135232D01*
G37*
G36*
X170261734Y-121575232D02*
X170471202Y-121661996D01*
X170659723Y-121787962D01*
X170820038Y-121948277D01*
X170946004Y-122136798D01*
X171032768Y-122346266D01*
X171077000Y-122568635D01*
X171077000Y-122795365D01*
X171032768Y-123017734D01*
X170946004Y-123227202D01*
X170820038Y-123415723D01*
X170659723Y-123576038D01*
X170471202Y-123702004D01*
X170261734Y-123788768D01*
X170039365Y-123833000D01*
X169812635Y-123833000D01*
X169590266Y-123788768D01*
X169380798Y-123702004D01*
X169192277Y-123576038D01*
X169031962Y-123415723D01*
X168905996Y-123227202D01*
X168819232Y-123017734D01*
X168775000Y-122795365D01*
X168775000Y-122568635D01*
X168819232Y-122346266D01*
X168905996Y-122136798D01*
X169031962Y-121948277D01*
X169192277Y-121787962D01*
X169380798Y-121661996D01*
X169590266Y-121575232D01*
X169812635Y-121531000D01*
X170039365Y-121531000D01*
X170261734Y-121575232D01*
X170261734Y-121575232D01*
G37*
G36*
X137264252Y-118109818D02*
X137264254Y-118109819D01*
X137264255Y-118109819D01*
X137637513Y-118264427D01*
X137968905Y-118485857D01*
X137973439Y-118488886D01*
X138259114Y-118774561D01*
X138259116Y-118774564D01*
X138483573Y-119110487D01*
X138632592Y-119470252D01*
X138638182Y-119483748D01*
X138717000Y-119879993D01*
X138717000Y-120284007D01*
X138680976Y-120465114D01*
X138638181Y-120680255D01*
X138483573Y-121053513D01*
X138483572Y-121053514D01*
X138259114Y-121389439D01*
X137973439Y-121675114D01*
X137973436Y-121675116D01*
X137637513Y-121899573D01*
X137264255Y-122054181D01*
X137264254Y-122054181D01*
X137264252Y-122054182D01*
X136868007Y-122133000D01*
X136463993Y-122133000D01*
X136067748Y-122054182D01*
X136067746Y-122054181D01*
X136067745Y-122054181D01*
X135694487Y-121899573D01*
X135358564Y-121675116D01*
X135358561Y-121675114D01*
X135072886Y-121389439D01*
X134848428Y-121053514D01*
X134848427Y-121053513D01*
X134693819Y-120680255D01*
X134651025Y-120465114D01*
X134615000Y-120284007D01*
X134615000Y-119879993D01*
X134693818Y-119483748D01*
X134699408Y-119470252D01*
X134848427Y-119110487D01*
X135072884Y-118774564D01*
X135072886Y-118774561D01*
X135358561Y-118488886D01*
X135363095Y-118485857D01*
X135694487Y-118264427D01*
X136067745Y-118109819D01*
X136067746Y-118109819D01*
X136067748Y-118109818D01*
X136463993Y-118031000D01*
X136868007Y-118031000D01*
X137264252Y-118109818D01*
X137264252Y-118109818D01*
G37*
G36*
X113464252Y-118109818D02*
X113464254Y-118109819D01*
X113464255Y-118109819D01*
X113837513Y-118264427D01*
X114168905Y-118485857D01*
X114173439Y-118488886D01*
X114459114Y-118774561D01*
X114459116Y-118774564D01*
X114683573Y-119110487D01*
X114832592Y-119470252D01*
X114838182Y-119483748D01*
X114917000Y-119879993D01*
X114917000Y-120284007D01*
X114880976Y-120465114D01*
X114838181Y-120680255D01*
X114683573Y-121053513D01*
X114683572Y-121053514D01*
X114459114Y-121389439D01*
X114173439Y-121675114D01*
X114173436Y-121675116D01*
X113837513Y-121899573D01*
X113464255Y-122054181D01*
X113464254Y-122054181D01*
X113464252Y-122054182D01*
X113068007Y-122133000D01*
X112663993Y-122133000D01*
X112267748Y-122054182D01*
X112267746Y-122054181D01*
X112267745Y-122054181D01*
X111894487Y-121899573D01*
X111558564Y-121675116D01*
X111558561Y-121675114D01*
X111272886Y-121389439D01*
X111048428Y-121053514D01*
X111048427Y-121053513D01*
X110893819Y-120680255D01*
X110851025Y-120465114D01*
X110815000Y-120284007D01*
X110815000Y-119879993D01*
X110893818Y-119483748D01*
X110899408Y-119470252D01*
X111048427Y-119110487D01*
X111272884Y-118774564D01*
X111272886Y-118774561D01*
X111558561Y-118488886D01*
X111563095Y-118485857D01*
X111894487Y-118264427D01*
X112267745Y-118109819D01*
X112267746Y-118109819D01*
X112267748Y-118109818D01*
X112663993Y-118031000D01*
X113068007Y-118031000D01*
X113464252Y-118109818D01*
X113464252Y-118109818D01*
G37*
G36*
X173064252Y-116899818D02*
X173064254Y-116899819D01*
X173064255Y-116899819D01*
X173437513Y-117054427D01*
X173768905Y-117275857D01*
X173773439Y-117278886D01*
X174059114Y-117564561D01*
X174059116Y-117564564D01*
X174283573Y-117900487D01*
X174434321Y-118264427D01*
X174438182Y-118273748D01*
X174517000Y-118669993D01*
X174517000Y-119074007D01*
X174509744Y-119110487D01*
X174438181Y-119470255D01*
X174283573Y-119843513D01*
X174283572Y-119843514D01*
X174059114Y-120179439D01*
X173773439Y-120465114D01*
X173773436Y-120465116D01*
X173437513Y-120689573D01*
X173064255Y-120844181D01*
X173064254Y-120844181D01*
X173064252Y-120844182D01*
X172668007Y-120923000D01*
X172263993Y-120923000D01*
X171867748Y-120844182D01*
X171867746Y-120844181D01*
X171867745Y-120844181D01*
X171494487Y-120689573D01*
X171158564Y-120465116D01*
X171158561Y-120465114D01*
X170872886Y-120179439D01*
X170648428Y-119843514D01*
X170648427Y-119843513D01*
X170493819Y-119470255D01*
X170422257Y-119110487D01*
X170415000Y-119074007D01*
X170415000Y-118669993D01*
X170493818Y-118273748D01*
X170497679Y-118264427D01*
X170648427Y-117900487D01*
X170872884Y-117564564D01*
X170872886Y-117564561D01*
X171158561Y-117278886D01*
X171163095Y-117275857D01*
X171494487Y-117054427D01*
X171867745Y-116899819D01*
X171867746Y-116899819D01*
X171867748Y-116899818D01*
X172263993Y-116821000D01*
X172668007Y-116821000D01*
X173064252Y-116899818D01*
X173064252Y-116899818D01*
G37*
G36*
X167721734Y-115225232D02*
X167931202Y-115311996D01*
X168119723Y-115437962D01*
X168280038Y-115598277D01*
X168406004Y-115786798D01*
X168492768Y-115996266D01*
X168537000Y-116218635D01*
X168537000Y-116445365D01*
X168492768Y-116667734D01*
X168406004Y-116877202D01*
X168280038Y-117065723D01*
X168119723Y-117226038D01*
X167931202Y-117352004D01*
X167721734Y-117438768D01*
X167499365Y-117483000D01*
X167272635Y-117483000D01*
X167050266Y-117438768D01*
X166840798Y-117352004D01*
X166652277Y-117226038D01*
X166491962Y-117065723D01*
X166365996Y-116877202D01*
X166279232Y-116667734D01*
X166235000Y-116445365D01*
X166235000Y-116218635D01*
X166279232Y-115996266D01*
X166365996Y-115786798D01*
X166491962Y-115598277D01*
X166652277Y-115437962D01*
X166840798Y-115311996D01*
X167050266Y-115225232D01*
X167272635Y-115181000D01*
X167499365Y-115181000D01*
X167721734Y-115225232D01*
X167721734Y-115225232D01*
G37*
G36*
X172728812Y-112925624D02*
X172892784Y-112993544D01*
X173040354Y-113092147D01*
X173165853Y-113217646D01*
X173264456Y-113365216D01*
X173332376Y-113529188D01*
X173367000Y-113703259D01*
X173367000Y-113880741D01*
X173332376Y-114054812D01*
X173264456Y-114218784D01*
X173165853Y-114366354D01*
X173040354Y-114491853D01*
X172892784Y-114590456D01*
X172728812Y-114658376D01*
X172554741Y-114693000D01*
X172377259Y-114693000D01*
X172203188Y-114658376D01*
X172039216Y-114590456D01*
X171891646Y-114491853D01*
X171766147Y-114366354D01*
X171667544Y-114218784D01*
X171599624Y-114054812D01*
X171565000Y-113880741D01*
X171565000Y-113703259D01*
X171599624Y-113529188D01*
X171667544Y-113365216D01*
X171766147Y-113217646D01*
X171891646Y-113092147D01*
X172039216Y-112993544D01*
X172203188Y-112925624D01*
X172377259Y-112891000D01*
X172554741Y-112891000D01*
X172728812Y-112925624D01*
X172728812Y-112925624D01*
G37*
G36*
X153887252Y-107374818D02*
X153887254Y-107374819D01*
X153887255Y-107374819D01*
X154260513Y-107529427D01*
X154543501Y-107718514D01*
X154596439Y-107753886D01*
X154882114Y-108039561D01*
X154882116Y-108039564D01*
X155106573Y-108375487D01*
X155219098Y-108647147D01*
X155261182Y-108748748D01*
X155340000Y-109144993D01*
X155340000Y-109549007D01*
X155265936Y-109921354D01*
X155261181Y-109945255D01*
X155106573Y-110318513D01*
X155106572Y-110318514D01*
X154882114Y-110654439D01*
X154596439Y-110940114D01*
X154596436Y-110940116D01*
X154260513Y-111164573D01*
X153887255Y-111319181D01*
X153887254Y-111319181D01*
X153887252Y-111319182D01*
X153491007Y-111398000D01*
X153086993Y-111398000D01*
X152690748Y-111319182D01*
X152690746Y-111319181D01*
X152690745Y-111319181D01*
X152317487Y-111164573D01*
X151981564Y-110940116D01*
X151981561Y-110940114D01*
X151695886Y-110654439D01*
X151471428Y-110318514D01*
X151471427Y-110318513D01*
X151316819Y-109945255D01*
X151312065Y-109921354D01*
X151238000Y-109549007D01*
X151238000Y-109144993D01*
X151316818Y-108748748D01*
X151358902Y-108647147D01*
X151471427Y-108375487D01*
X151695884Y-108039564D01*
X151695886Y-108039561D01*
X151981561Y-107753886D01*
X152034499Y-107718514D01*
X152317487Y-107529427D01*
X152690745Y-107374819D01*
X152690746Y-107374819D01*
X152690748Y-107374818D01*
X153086993Y-107296000D01*
X153491007Y-107296000D01*
X153887252Y-107374818D01*
X153887252Y-107374818D01*
G37*
G36*
X115787252Y-107374818D02*
X115787254Y-107374819D01*
X115787255Y-107374819D01*
X116160513Y-107529427D01*
X116443501Y-107718514D01*
X116496439Y-107753886D01*
X116782114Y-108039561D01*
X116782116Y-108039564D01*
X117006573Y-108375487D01*
X117119098Y-108647147D01*
X117161182Y-108748748D01*
X117240000Y-109144993D01*
X117240000Y-109549007D01*
X117165936Y-109921354D01*
X117161181Y-109945255D01*
X117006573Y-110318513D01*
X117006572Y-110318514D01*
X116782114Y-110654439D01*
X116496439Y-110940114D01*
X116496436Y-110940116D01*
X116160513Y-111164573D01*
X115787255Y-111319181D01*
X115787254Y-111319181D01*
X115787252Y-111319182D01*
X115391007Y-111398000D01*
X114986993Y-111398000D01*
X114590748Y-111319182D01*
X114590746Y-111319181D01*
X114590745Y-111319181D01*
X114217487Y-111164573D01*
X113881564Y-110940116D01*
X113881561Y-110940114D01*
X113595886Y-110654439D01*
X113371428Y-110318514D01*
X113371427Y-110318513D01*
X113216819Y-109945255D01*
X113212065Y-109921354D01*
X113138000Y-109549007D01*
X113138000Y-109144993D01*
X113216818Y-108748748D01*
X113258902Y-108647147D01*
X113371427Y-108375487D01*
X113595884Y-108039564D01*
X113595886Y-108039561D01*
X113881561Y-107753886D01*
X113934499Y-107718514D01*
X114217487Y-107529427D01*
X114590745Y-107374819D01*
X114590746Y-107374819D01*
X114590748Y-107374818D01*
X114986993Y-107296000D01*
X115391007Y-107296000D01*
X115787252Y-107374818D01*
X115787252Y-107374818D01*
G37*
G36*
X134837252Y-107374818D02*
X134837254Y-107374819D01*
X134837255Y-107374819D01*
X135210513Y-107529427D01*
X135493501Y-107718514D01*
X135546439Y-107753886D01*
X135832114Y-108039561D01*
X135832116Y-108039564D01*
X136056573Y-108375487D01*
X136169098Y-108647147D01*
X136211182Y-108748748D01*
X136290000Y-109144993D01*
X136290000Y-109549007D01*
X136215936Y-109921354D01*
X136211181Y-109945255D01*
X136056573Y-110318513D01*
X136056572Y-110318514D01*
X135832114Y-110654439D01*
X135546439Y-110940114D01*
X135546436Y-110940116D01*
X135210513Y-111164573D01*
X134837255Y-111319181D01*
X134837254Y-111319181D01*
X134837252Y-111319182D01*
X134441007Y-111398000D01*
X134036993Y-111398000D01*
X133640748Y-111319182D01*
X133640746Y-111319181D01*
X133640745Y-111319181D01*
X133267487Y-111164573D01*
X132931564Y-110940116D01*
X132931561Y-110940114D01*
X132645886Y-110654439D01*
X132421428Y-110318514D01*
X132421427Y-110318513D01*
X132266819Y-109945255D01*
X132262065Y-109921354D01*
X132188000Y-109549007D01*
X132188000Y-109144993D01*
X132266818Y-108748748D01*
X132308902Y-108647147D01*
X132421427Y-108375487D01*
X132645884Y-108039564D01*
X132645886Y-108039561D01*
X132931561Y-107753886D01*
X132984499Y-107718514D01*
X133267487Y-107529427D01*
X133640745Y-107374819D01*
X133640746Y-107374819D01*
X133640748Y-107374818D01*
X134036993Y-107296000D01*
X134441007Y-107296000D01*
X134837252Y-107374818D01*
X134837252Y-107374818D01*
G37*
G36*
X110371812Y-108480624D02*
X110535784Y-108548544D01*
X110683354Y-108647147D01*
X110808853Y-108772646D01*
X110907456Y-108920216D01*
X110975376Y-109084188D01*
X111010000Y-109258259D01*
X111010000Y-109435741D01*
X110975376Y-109609812D01*
X110907456Y-109773784D01*
X110808853Y-109921354D01*
X110683354Y-110046853D01*
X110535784Y-110145456D01*
X110371812Y-110213376D01*
X110197741Y-110248000D01*
X110020259Y-110248000D01*
X109846188Y-110213376D01*
X109682216Y-110145456D01*
X109534646Y-110046853D01*
X109409147Y-109921354D01*
X109310544Y-109773784D01*
X109242624Y-109609812D01*
X109208000Y-109435741D01*
X109208000Y-109258259D01*
X109242624Y-109084188D01*
X109310544Y-108920216D01*
X109409147Y-108772646D01*
X109534646Y-108647147D01*
X109682216Y-108548544D01*
X109846188Y-108480624D01*
X110020259Y-108446000D01*
X110197741Y-108446000D01*
X110371812Y-108480624D01*
X110371812Y-108480624D01*
G37*
G36*
X120531812Y-108480624D02*
X120695784Y-108548544D01*
X120843354Y-108647147D01*
X120968853Y-108772646D01*
X121067456Y-108920216D01*
X121135376Y-109084188D01*
X121170000Y-109258259D01*
X121170000Y-109435741D01*
X121135376Y-109609812D01*
X121067456Y-109773784D01*
X120968853Y-109921354D01*
X120843354Y-110046853D01*
X120695784Y-110145456D01*
X120531812Y-110213376D01*
X120357741Y-110248000D01*
X120180259Y-110248000D01*
X120006188Y-110213376D01*
X119842216Y-110145456D01*
X119694646Y-110046853D01*
X119569147Y-109921354D01*
X119470544Y-109773784D01*
X119402624Y-109609812D01*
X119368000Y-109435741D01*
X119368000Y-109258259D01*
X119402624Y-109084188D01*
X119470544Y-108920216D01*
X119569147Y-108772646D01*
X119694646Y-108647147D01*
X119842216Y-108548544D01*
X120006188Y-108480624D01*
X120180259Y-108446000D01*
X120357741Y-108446000D01*
X120531812Y-108480624D01*
X120531812Y-108480624D01*
G37*
G36*
X139581812Y-108480624D02*
X139745784Y-108548544D01*
X139893354Y-108647147D01*
X140018853Y-108772646D01*
X140117456Y-108920216D01*
X140185376Y-109084188D01*
X140220000Y-109258259D01*
X140220000Y-109435741D01*
X140185376Y-109609812D01*
X140117456Y-109773784D01*
X140018853Y-109921354D01*
X139893354Y-110046853D01*
X139745784Y-110145456D01*
X139581812Y-110213376D01*
X139407741Y-110248000D01*
X139230259Y-110248000D01*
X139056188Y-110213376D01*
X138892216Y-110145456D01*
X138744646Y-110046853D01*
X138619147Y-109921354D01*
X138520544Y-109773784D01*
X138452624Y-109609812D01*
X138418000Y-109435741D01*
X138418000Y-109258259D01*
X138452624Y-109084188D01*
X138520544Y-108920216D01*
X138619147Y-108772646D01*
X138744646Y-108647147D01*
X138892216Y-108548544D01*
X139056188Y-108480624D01*
X139230259Y-108446000D01*
X139407741Y-108446000D01*
X139581812Y-108480624D01*
X139581812Y-108480624D01*
G37*
G36*
X148471812Y-108480624D02*
X148635784Y-108548544D01*
X148783354Y-108647147D01*
X148908853Y-108772646D01*
X149007456Y-108920216D01*
X149075376Y-109084188D01*
X149110000Y-109258259D01*
X149110000Y-109435741D01*
X149075376Y-109609812D01*
X149007456Y-109773784D01*
X148908853Y-109921354D01*
X148783354Y-110046853D01*
X148635784Y-110145456D01*
X148471812Y-110213376D01*
X148297741Y-110248000D01*
X148120259Y-110248000D01*
X147946188Y-110213376D01*
X147782216Y-110145456D01*
X147634646Y-110046853D01*
X147509147Y-109921354D01*
X147410544Y-109773784D01*
X147342624Y-109609812D01*
X147308000Y-109435741D01*
X147308000Y-109258259D01*
X147342624Y-109084188D01*
X147410544Y-108920216D01*
X147509147Y-108772646D01*
X147634646Y-108647147D01*
X147782216Y-108548544D01*
X147946188Y-108480624D01*
X148120259Y-108446000D01*
X148297741Y-108446000D01*
X148471812Y-108480624D01*
X148471812Y-108480624D01*
G37*
G36*
X158631812Y-108480624D02*
X158795784Y-108548544D01*
X158943354Y-108647147D01*
X159068853Y-108772646D01*
X159167456Y-108920216D01*
X159235376Y-109084188D01*
X159270000Y-109258259D01*
X159270000Y-109435741D01*
X159235376Y-109609812D01*
X159167456Y-109773784D01*
X159068853Y-109921354D01*
X158943354Y-110046853D01*
X158795784Y-110145456D01*
X158631812Y-110213376D01*
X158457741Y-110248000D01*
X158280259Y-110248000D01*
X158106188Y-110213376D01*
X157942216Y-110145456D01*
X157794646Y-110046853D01*
X157669147Y-109921354D01*
X157570544Y-109773784D01*
X157502624Y-109609812D01*
X157468000Y-109435741D01*
X157468000Y-109258259D01*
X157502624Y-109084188D01*
X157570544Y-108920216D01*
X157669147Y-108772646D01*
X157794646Y-108647147D01*
X157942216Y-108548544D01*
X158106188Y-108480624D01*
X158280259Y-108446000D01*
X158457741Y-108446000D01*
X158631812Y-108480624D01*
X158631812Y-108480624D01*
G37*
G36*
X129421812Y-108480624D02*
X129585784Y-108548544D01*
X129733354Y-108647147D01*
X129858853Y-108772646D01*
X129957456Y-108920216D01*
X130025376Y-109084188D01*
X130060000Y-109258259D01*
X130060000Y-109435741D01*
X130025376Y-109609812D01*
X129957456Y-109773784D01*
X129858853Y-109921354D01*
X129733354Y-110046853D01*
X129585784Y-110145456D01*
X129421812Y-110213376D01*
X129247741Y-110248000D01*
X129070259Y-110248000D01*
X128896188Y-110213376D01*
X128732216Y-110145456D01*
X128584646Y-110046853D01*
X128459147Y-109921354D01*
X128360544Y-109773784D01*
X128292624Y-109609812D01*
X128258000Y-109435741D01*
X128258000Y-109258259D01*
X128292624Y-109084188D01*
X128360544Y-108920216D01*
X128459147Y-108772646D01*
X128584646Y-108647147D01*
X128732216Y-108548544D01*
X128896188Y-108480624D01*
X129070259Y-108446000D01*
X129247741Y-108446000D01*
X129421812Y-108480624D01*
X129421812Y-108480624D01*
G37*
G36*
X164824252Y-104999818D02*
X164824254Y-104999819D01*
X164824255Y-104999819D01*
X165197513Y-105154427D01*
X165395928Y-105287004D01*
X165533439Y-105378886D01*
X165819114Y-105664561D01*
X165819116Y-105664564D01*
X166043573Y-106000487D01*
X166151811Y-106261798D01*
X166198182Y-106373748D01*
X166277000Y-106769993D01*
X166277000Y-107174007D01*
X166204056Y-107540723D01*
X166198181Y-107570255D01*
X166043573Y-107943513D01*
X165874761Y-108196157D01*
X165819114Y-108279439D01*
X165533439Y-108565114D01*
X165533436Y-108565116D01*
X165197513Y-108789573D01*
X164824255Y-108944181D01*
X164824254Y-108944181D01*
X164824252Y-108944182D01*
X164428007Y-109023000D01*
X164023993Y-109023000D01*
X163627748Y-108944182D01*
X163627746Y-108944181D01*
X163627745Y-108944181D01*
X163254487Y-108789573D01*
X162918564Y-108565116D01*
X162918561Y-108565114D01*
X162632886Y-108279439D01*
X162577239Y-108196157D01*
X162408427Y-107943513D01*
X162253819Y-107570255D01*
X162247945Y-107540723D01*
X162175000Y-107174007D01*
X162175000Y-106769993D01*
X162253818Y-106373748D01*
X162300189Y-106261798D01*
X162408427Y-106000487D01*
X162632884Y-105664564D01*
X162632886Y-105664561D01*
X162918561Y-105378886D01*
X163056072Y-105287004D01*
X163254487Y-105154427D01*
X163627745Y-104999819D01*
X163627746Y-104999819D01*
X163627748Y-104999818D01*
X164023993Y-104921000D01*
X164428007Y-104921000D01*
X164824252Y-104999818D01*
X164824252Y-104999818D01*
G37*
G36*
X179671739Y-105406048D02*
X179925702Y-105456564D01*
X180212516Y-105575367D01*
X180470642Y-105747841D01*
X180690159Y-105967358D01*
X180862633Y-106225484D01*
X180981436Y-106512298D01*
X181042000Y-106816778D01*
X181042000Y-107127222D01*
X180981436Y-107431702D01*
X180862633Y-107718516D01*
X180690159Y-107976642D01*
X180470642Y-108196159D01*
X180212516Y-108368633D01*
X179925702Y-108487436D01*
X179671739Y-108537952D01*
X179621223Y-108548000D01*
X179310777Y-108548000D01*
X179260261Y-108537952D01*
X179006298Y-108487436D01*
X178719484Y-108368633D01*
X178461358Y-108196159D01*
X178241841Y-107976642D01*
X178069367Y-107718516D01*
X177950564Y-107431702D01*
X177890000Y-107127222D01*
X177890000Y-106816778D01*
X177950564Y-106512298D01*
X178069367Y-106225484D01*
X178241841Y-105967358D01*
X178461358Y-105747841D01*
X178719484Y-105575367D01*
X179006298Y-105456564D01*
X179260261Y-105406048D01*
X179310777Y-105396000D01*
X179621223Y-105396000D01*
X179671739Y-105406048D01*
X179671739Y-105406048D01*
G37*
G36*
X130764734Y-105700232D02*
X130974202Y-105786996D01*
X131162723Y-105912962D01*
X131323038Y-106073277D01*
X131449004Y-106261798D01*
X131535768Y-106471266D01*
X131580000Y-106693635D01*
X131580000Y-106920365D01*
X131535768Y-107142734D01*
X131449004Y-107352202D01*
X131323038Y-107540723D01*
X131162723Y-107701038D01*
X130974202Y-107827004D01*
X130764734Y-107913768D01*
X130542365Y-107958000D01*
X130315635Y-107958000D01*
X130093266Y-107913768D01*
X129883798Y-107827004D01*
X129695277Y-107701038D01*
X129534962Y-107540723D01*
X129408996Y-107352202D01*
X129322232Y-107142734D01*
X129278000Y-106920365D01*
X129278000Y-106693635D01*
X129322232Y-106471266D01*
X129408996Y-106261798D01*
X129534962Y-106073277D01*
X129695277Y-105912962D01*
X129883798Y-105786996D01*
X130093266Y-105700232D01*
X130315635Y-105656000D01*
X130542365Y-105656000D01*
X130764734Y-105700232D01*
X130764734Y-105700232D01*
G37*
G36*
X111714734Y-105700232D02*
X111924202Y-105786996D01*
X112112723Y-105912962D01*
X112273038Y-106073277D01*
X112399004Y-106261798D01*
X112485768Y-106471266D01*
X112530000Y-106693635D01*
X112530000Y-106920365D01*
X112485768Y-107142734D01*
X112399004Y-107352202D01*
X112273038Y-107540723D01*
X112112723Y-107701038D01*
X111924202Y-107827004D01*
X111714734Y-107913768D01*
X111492365Y-107958000D01*
X111265635Y-107958000D01*
X111043266Y-107913768D01*
X110833798Y-107827004D01*
X110645277Y-107701038D01*
X110484962Y-107540723D01*
X110358996Y-107352202D01*
X110272232Y-107142734D01*
X110228000Y-106920365D01*
X110228000Y-106693635D01*
X110272232Y-106471266D01*
X110358996Y-106261798D01*
X110484962Y-106073277D01*
X110645277Y-105912962D01*
X110833798Y-105786996D01*
X111043266Y-105700232D01*
X111265635Y-105656000D01*
X111492365Y-105656000D01*
X111714734Y-105700232D01*
X111714734Y-105700232D01*
G37*
G36*
X149814734Y-105700232D02*
X150024202Y-105786996D01*
X150212723Y-105912962D01*
X150373038Y-106073277D01*
X150499004Y-106261798D01*
X150585768Y-106471266D01*
X150630000Y-106693635D01*
X150630000Y-106920365D01*
X150585768Y-107142734D01*
X150499004Y-107352202D01*
X150373038Y-107540723D01*
X150212723Y-107701038D01*
X150024202Y-107827004D01*
X149814734Y-107913768D01*
X149592365Y-107958000D01*
X149365635Y-107958000D01*
X149143266Y-107913768D01*
X148933798Y-107827004D01*
X148745277Y-107701038D01*
X148584962Y-107540723D01*
X148458996Y-107352202D01*
X148372232Y-107142734D01*
X148328000Y-106920365D01*
X148328000Y-106693635D01*
X148372232Y-106471266D01*
X148458996Y-106261798D01*
X148584962Y-106073277D01*
X148745277Y-105912962D01*
X148933798Y-105786996D01*
X149143266Y-105700232D01*
X149365635Y-105656000D01*
X149592365Y-105656000D01*
X149814734Y-105700232D01*
X149814734Y-105700232D01*
G37*
G36*
X118064734Y-103160232D02*
X118274202Y-103246996D01*
X118462723Y-103372962D01*
X118623038Y-103533277D01*
X118749004Y-103721798D01*
X118835768Y-103931266D01*
X118880000Y-104153635D01*
X118880000Y-104380365D01*
X118835768Y-104602734D01*
X118749004Y-104812202D01*
X118623038Y-105000723D01*
X118462723Y-105161038D01*
X118274202Y-105287004D01*
X118064734Y-105373768D01*
X117842365Y-105418000D01*
X117615635Y-105418000D01*
X117393266Y-105373768D01*
X117183798Y-105287004D01*
X116995277Y-105161038D01*
X116834962Y-105000723D01*
X116708996Y-104812202D01*
X116622232Y-104602734D01*
X116578000Y-104380365D01*
X116578000Y-104153635D01*
X116622232Y-103931266D01*
X116708996Y-103721798D01*
X116834962Y-103533277D01*
X116995277Y-103372962D01*
X117183798Y-103246996D01*
X117393266Y-103160232D01*
X117615635Y-103116000D01*
X117842365Y-103116000D01*
X118064734Y-103160232D01*
X118064734Y-103160232D01*
G37*
G36*
X137114734Y-103160232D02*
X137324202Y-103246996D01*
X137512723Y-103372962D01*
X137673038Y-103533277D01*
X137799004Y-103721798D01*
X137885768Y-103931266D01*
X137930000Y-104153635D01*
X137930000Y-104380365D01*
X137885768Y-104602734D01*
X137799004Y-104812202D01*
X137673038Y-105000723D01*
X137512723Y-105161038D01*
X137324202Y-105287004D01*
X137114734Y-105373768D01*
X136892365Y-105418000D01*
X136665635Y-105418000D01*
X136443266Y-105373768D01*
X136233798Y-105287004D01*
X136045277Y-105161038D01*
X135884962Y-105000723D01*
X135758996Y-104812202D01*
X135672232Y-104602734D01*
X135628000Y-104380365D01*
X135628000Y-104153635D01*
X135672232Y-103931266D01*
X135758996Y-103721798D01*
X135884962Y-103533277D01*
X136045277Y-103372962D01*
X136233798Y-103246996D01*
X136443266Y-103160232D01*
X136665635Y-103116000D01*
X136892365Y-103116000D01*
X137114734Y-103160232D01*
X137114734Y-103160232D01*
G37*
G36*
X156164734Y-103160232D02*
X156374202Y-103246996D01*
X156562723Y-103372962D01*
X156723038Y-103533277D01*
X156849004Y-103721798D01*
X156935768Y-103931266D01*
X156980000Y-104153635D01*
X156980000Y-104380365D01*
X156935768Y-104602734D01*
X156849004Y-104812202D01*
X156723038Y-105000723D01*
X156562723Y-105161038D01*
X156374202Y-105287004D01*
X156164734Y-105373768D01*
X155942365Y-105418000D01*
X155715635Y-105418000D01*
X155493266Y-105373768D01*
X155283798Y-105287004D01*
X155095277Y-105161038D01*
X154934962Y-105000723D01*
X154808996Y-104812202D01*
X154722232Y-104602734D01*
X154678000Y-104380365D01*
X154678000Y-104153635D01*
X154722232Y-103931266D01*
X154808996Y-103721798D01*
X154934962Y-103533277D01*
X155095277Y-103372962D01*
X155283798Y-103246996D01*
X155493266Y-103160232D01*
X155715635Y-103116000D01*
X155942365Y-103116000D01*
X156164734Y-103160232D01*
X156164734Y-103160232D01*
G37*
G36*
X164824252Y-90699818D02*
X164824254Y-90699819D01*
X164824255Y-90699819D01*
X165197513Y-90854427D01*
X165410668Y-90996853D01*
X165533439Y-91078886D01*
X165819114Y-91364561D01*
X165819116Y-91364564D01*
X166043573Y-91700487D01*
X166136769Y-91925484D01*
X166198182Y-92073748D01*
X166225741Y-92212298D01*
X166277000Y-92469994D01*
X166277000Y-92874006D01*
X166198181Y-93270255D01*
X166043573Y-93643513D01*
X165874761Y-93896157D01*
X165819114Y-93979439D01*
X165533439Y-94265114D01*
X165533436Y-94265116D01*
X165197513Y-94489573D01*
X164824255Y-94644181D01*
X164824254Y-94644181D01*
X164824252Y-94644182D01*
X164428007Y-94723000D01*
X164023993Y-94723000D01*
X163627748Y-94644182D01*
X163627746Y-94644181D01*
X163627745Y-94644181D01*
X163254487Y-94489573D01*
X162918564Y-94265116D01*
X162918561Y-94265114D01*
X162632886Y-93979439D01*
X162577239Y-93896157D01*
X162408427Y-93643513D01*
X162253819Y-93270255D01*
X162175000Y-92874006D01*
X162175000Y-92469994D01*
X162226259Y-92212298D01*
X162253818Y-92073748D01*
X162315231Y-91925484D01*
X162408427Y-91700487D01*
X162632884Y-91364564D01*
X162632886Y-91364561D01*
X162918561Y-91078886D01*
X163041332Y-90996853D01*
X163254487Y-90854427D01*
X163627745Y-90699819D01*
X163627746Y-90699819D01*
X163627748Y-90699818D01*
X164023993Y-90621000D01*
X164428007Y-90621000D01*
X164824252Y-90699818D01*
X164824252Y-90699818D01*
G37*
G36*
X179671739Y-91106048D02*
X179925702Y-91156564D01*
X180212516Y-91275367D01*
X180470642Y-91447841D01*
X180690159Y-91667358D01*
X180862633Y-91925484D01*
X180981436Y-92212298D01*
X181042000Y-92516778D01*
X181042000Y-92827222D01*
X180981436Y-93131702D01*
X180862633Y-93418516D01*
X180690159Y-93676642D01*
X180470642Y-93896159D01*
X180212516Y-94068633D01*
X179925702Y-94187436D01*
X179671739Y-94237952D01*
X179621223Y-94248000D01*
X179310777Y-94248000D01*
X179260261Y-94237952D01*
X179006298Y-94187436D01*
X178719484Y-94068633D01*
X178461358Y-93896159D01*
X178241841Y-93676642D01*
X178069367Y-93418516D01*
X177950564Y-93131702D01*
X177890000Y-92827222D01*
X177890000Y-92516778D01*
X177950564Y-92212298D01*
X178069367Y-91925484D01*
X178241841Y-91667358D01*
X178461358Y-91447841D01*
X178719484Y-91275367D01*
X179006298Y-91156564D01*
X179260261Y-91106048D01*
X179310777Y-91096000D01*
X179621223Y-91096000D01*
X179671739Y-91106048D01*
X179671739Y-91106048D01*
G37*
G36*
X153887252Y-88324818D02*
X153887254Y-88324819D01*
X153887255Y-88324819D01*
X154260513Y-88479427D01*
X154591905Y-88700857D01*
X154596439Y-88703886D01*
X154882114Y-88989561D01*
X154882116Y-88989564D01*
X155106573Y-89325487D01*
X155135780Y-89396000D01*
X155261182Y-89698748D01*
X155340000Y-90094993D01*
X155340000Y-90499007D01*
X155265936Y-90871354D01*
X155261181Y-90895255D01*
X155106573Y-91268513D01*
X154986748Y-91447843D01*
X154882114Y-91604439D01*
X154596439Y-91890114D01*
X154596436Y-91890116D01*
X154260513Y-92114573D01*
X153887255Y-92269181D01*
X153887254Y-92269181D01*
X153887252Y-92269182D01*
X153491007Y-92348000D01*
X153086993Y-92348000D01*
X152690748Y-92269182D01*
X152690746Y-92269181D01*
X152690745Y-92269181D01*
X152317487Y-92114573D01*
X151981564Y-91890116D01*
X151981561Y-91890114D01*
X151695886Y-91604439D01*
X151591252Y-91447843D01*
X151471427Y-91268513D01*
X151316819Y-90895255D01*
X151312065Y-90871354D01*
X151238000Y-90499007D01*
X151238000Y-90094993D01*
X151316818Y-89698748D01*
X151442220Y-89396000D01*
X151471427Y-89325487D01*
X151695884Y-88989564D01*
X151695886Y-88989561D01*
X151981561Y-88703886D01*
X151986095Y-88700857D01*
X152317487Y-88479427D01*
X152690745Y-88324819D01*
X152690746Y-88324819D01*
X152690748Y-88324818D01*
X153086993Y-88246000D01*
X153491007Y-88246000D01*
X153887252Y-88324818D01*
X153887252Y-88324818D01*
G37*
G36*
X134837252Y-88324818D02*
X134837254Y-88324819D01*
X134837255Y-88324819D01*
X135210513Y-88479427D01*
X135541905Y-88700857D01*
X135546439Y-88703886D01*
X135832114Y-88989561D01*
X135832116Y-88989564D01*
X136056573Y-89325487D01*
X136085780Y-89396000D01*
X136211182Y-89698748D01*
X136290000Y-90094993D01*
X136290000Y-90499007D01*
X136215936Y-90871354D01*
X136211181Y-90895255D01*
X136056573Y-91268513D01*
X135936748Y-91447843D01*
X135832114Y-91604439D01*
X135546439Y-91890114D01*
X135546436Y-91890116D01*
X135210513Y-92114573D01*
X134837255Y-92269181D01*
X134837254Y-92269181D01*
X134837252Y-92269182D01*
X134441007Y-92348000D01*
X134036993Y-92348000D01*
X133640748Y-92269182D01*
X133640746Y-92269181D01*
X133640745Y-92269181D01*
X133267487Y-92114573D01*
X132931564Y-91890116D01*
X132931561Y-91890114D01*
X132645886Y-91604439D01*
X132541252Y-91447843D01*
X132421427Y-91268513D01*
X132266819Y-90895255D01*
X132262065Y-90871354D01*
X132188000Y-90499007D01*
X132188000Y-90094993D01*
X132266818Y-89698748D01*
X132392220Y-89396000D01*
X132421427Y-89325487D01*
X132645884Y-88989564D01*
X132645886Y-88989561D01*
X132931561Y-88703886D01*
X132936095Y-88700857D01*
X133267487Y-88479427D01*
X133640745Y-88324819D01*
X133640746Y-88324819D01*
X133640748Y-88324818D01*
X134036993Y-88246000D01*
X134441007Y-88246000D01*
X134837252Y-88324818D01*
X134837252Y-88324818D01*
G37*
G36*
X115787252Y-88324818D02*
X115787254Y-88324819D01*
X115787255Y-88324819D01*
X116160513Y-88479427D01*
X116491905Y-88700857D01*
X116496439Y-88703886D01*
X116782114Y-88989561D01*
X116782116Y-88989564D01*
X117006573Y-89325487D01*
X117035780Y-89396000D01*
X117161182Y-89698748D01*
X117240000Y-90094993D01*
X117240000Y-90499007D01*
X117165936Y-90871354D01*
X117161181Y-90895255D01*
X117006573Y-91268513D01*
X116886748Y-91447843D01*
X116782114Y-91604439D01*
X116496439Y-91890114D01*
X116496436Y-91890116D01*
X116160513Y-92114573D01*
X115787255Y-92269181D01*
X115787254Y-92269181D01*
X115787252Y-92269182D01*
X115391007Y-92348000D01*
X114986993Y-92348000D01*
X114590748Y-92269182D01*
X114590746Y-92269181D01*
X114590745Y-92269181D01*
X114217487Y-92114573D01*
X113881564Y-91890116D01*
X113881561Y-91890114D01*
X113595886Y-91604439D01*
X113491252Y-91447843D01*
X113371427Y-91268513D01*
X113216819Y-90895255D01*
X113212065Y-90871354D01*
X113138000Y-90499007D01*
X113138000Y-90094993D01*
X113216818Y-89698748D01*
X113342220Y-89396000D01*
X113371427Y-89325487D01*
X113595884Y-88989564D01*
X113595886Y-88989561D01*
X113881561Y-88703886D01*
X113886095Y-88700857D01*
X114217487Y-88479427D01*
X114590745Y-88324819D01*
X114590746Y-88324819D01*
X114590748Y-88324818D01*
X114986993Y-88246000D01*
X115391007Y-88246000D01*
X115787252Y-88324818D01*
X115787252Y-88324818D01*
G37*
G36*
X110371812Y-89430624D02*
X110535784Y-89498544D01*
X110683354Y-89597147D01*
X110808853Y-89722646D01*
X110907456Y-89870216D01*
X110975376Y-90034188D01*
X111010000Y-90208259D01*
X111010000Y-90385741D01*
X110975376Y-90559812D01*
X110907456Y-90723784D01*
X110808853Y-90871354D01*
X110683354Y-90996853D01*
X110535784Y-91095456D01*
X110371812Y-91163376D01*
X110197741Y-91198000D01*
X110020259Y-91198000D01*
X109846188Y-91163376D01*
X109682216Y-91095456D01*
X109534646Y-90996853D01*
X109409147Y-90871354D01*
X109310544Y-90723784D01*
X109242624Y-90559812D01*
X109208000Y-90385741D01*
X109208000Y-90208259D01*
X109242624Y-90034188D01*
X109310544Y-89870216D01*
X109409147Y-89722646D01*
X109534646Y-89597147D01*
X109682216Y-89498544D01*
X109846188Y-89430624D01*
X110020259Y-89396000D01*
X110197741Y-89396000D01*
X110371812Y-89430624D01*
X110371812Y-89430624D01*
G37*
G36*
X120531812Y-89430624D02*
X120695784Y-89498544D01*
X120843354Y-89597147D01*
X120968853Y-89722646D01*
X121067456Y-89870216D01*
X121135376Y-90034188D01*
X121170000Y-90208259D01*
X121170000Y-90385741D01*
X121135376Y-90559812D01*
X121067456Y-90723784D01*
X120968853Y-90871354D01*
X120843354Y-90996853D01*
X120695784Y-91095456D01*
X120531812Y-91163376D01*
X120357741Y-91198000D01*
X120180259Y-91198000D01*
X120006188Y-91163376D01*
X119842216Y-91095456D01*
X119694646Y-90996853D01*
X119569147Y-90871354D01*
X119470544Y-90723784D01*
X119402624Y-90559812D01*
X119368000Y-90385741D01*
X119368000Y-90208259D01*
X119402624Y-90034188D01*
X119470544Y-89870216D01*
X119569147Y-89722646D01*
X119694646Y-89597147D01*
X119842216Y-89498544D01*
X120006188Y-89430624D01*
X120180259Y-89396000D01*
X120357741Y-89396000D01*
X120531812Y-89430624D01*
X120531812Y-89430624D01*
G37*
G36*
X139581812Y-89430624D02*
X139745784Y-89498544D01*
X139893354Y-89597147D01*
X140018853Y-89722646D01*
X140117456Y-89870216D01*
X140185376Y-90034188D01*
X140220000Y-90208259D01*
X140220000Y-90385741D01*
X140185376Y-90559812D01*
X140117456Y-90723784D01*
X140018853Y-90871354D01*
X139893354Y-90996853D01*
X139745784Y-91095456D01*
X139581812Y-91163376D01*
X139407741Y-91198000D01*
X139230259Y-91198000D01*
X139056188Y-91163376D01*
X138892216Y-91095456D01*
X138744646Y-90996853D01*
X138619147Y-90871354D01*
X138520544Y-90723784D01*
X138452624Y-90559812D01*
X138418000Y-90385741D01*
X138418000Y-90208259D01*
X138452624Y-90034188D01*
X138520544Y-89870216D01*
X138619147Y-89722646D01*
X138744646Y-89597147D01*
X138892216Y-89498544D01*
X139056188Y-89430624D01*
X139230259Y-89396000D01*
X139407741Y-89396000D01*
X139581812Y-89430624D01*
X139581812Y-89430624D01*
G37*
G36*
X129421812Y-89430624D02*
X129585784Y-89498544D01*
X129733354Y-89597147D01*
X129858853Y-89722646D01*
X129957456Y-89870216D01*
X130025376Y-90034188D01*
X130060000Y-90208259D01*
X130060000Y-90385741D01*
X130025376Y-90559812D01*
X129957456Y-90723784D01*
X129858853Y-90871354D01*
X129733354Y-90996853D01*
X129585784Y-91095456D01*
X129421812Y-91163376D01*
X129247741Y-91198000D01*
X129070259Y-91198000D01*
X128896188Y-91163376D01*
X128732216Y-91095456D01*
X128584646Y-90996853D01*
X128459147Y-90871354D01*
X128360544Y-90723784D01*
X128292624Y-90559812D01*
X128258000Y-90385741D01*
X128258000Y-90208259D01*
X128292624Y-90034188D01*
X128360544Y-89870216D01*
X128459147Y-89722646D01*
X128584646Y-89597147D01*
X128732216Y-89498544D01*
X128896188Y-89430624D01*
X129070259Y-89396000D01*
X129247741Y-89396000D01*
X129421812Y-89430624D01*
X129421812Y-89430624D01*
G37*
G36*
X148471812Y-89430624D02*
X148635784Y-89498544D01*
X148783354Y-89597147D01*
X148908853Y-89722646D01*
X149007456Y-89870216D01*
X149075376Y-90034188D01*
X149110000Y-90208259D01*
X149110000Y-90385741D01*
X149075376Y-90559812D01*
X149007456Y-90723784D01*
X148908853Y-90871354D01*
X148783354Y-90996853D01*
X148635784Y-91095456D01*
X148471812Y-91163376D01*
X148297741Y-91198000D01*
X148120259Y-91198000D01*
X147946188Y-91163376D01*
X147782216Y-91095456D01*
X147634646Y-90996853D01*
X147509147Y-90871354D01*
X147410544Y-90723784D01*
X147342624Y-90559812D01*
X147308000Y-90385741D01*
X147308000Y-90208259D01*
X147342624Y-90034188D01*
X147410544Y-89870216D01*
X147509147Y-89722646D01*
X147634646Y-89597147D01*
X147782216Y-89498544D01*
X147946188Y-89430624D01*
X148120259Y-89396000D01*
X148297741Y-89396000D01*
X148471812Y-89430624D01*
X148471812Y-89430624D01*
G37*
G36*
X158631812Y-89430624D02*
X158795784Y-89498544D01*
X158943354Y-89597147D01*
X159068853Y-89722646D01*
X159167456Y-89870216D01*
X159235376Y-90034188D01*
X159270000Y-90208259D01*
X159270000Y-90385741D01*
X159235376Y-90559812D01*
X159167456Y-90723784D01*
X159068853Y-90871354D01*
X158943354Y-90996853D01*
X158795784Y-91095456D01*
X158631812Y-91163376D01*
X158457741Y-91198000D01*
X158280259Y-91198000D01*
X158106188Y-91163376D01*
X157942216Y-91095456D01*
X157794646Y-90996853D01*
X157669147Y-90871354D01*
X157570544Y-90723784D01*
X157502624Y-90559812D01*
X157468000Y-90385741D01*
X157468000Y-90208259D01*
X157502624Y-90034188D01*
X157570544Y-89870216D01*
X157669147Y-89722646D01*
X157794646Y-89597147D01*
X157942216Y-89498544D01*
X158106188Y-89430624D01*
X158280259Y-89396000D01*
X158457741Y-89396000D01*
X158631812Y-89430624D01*
X158631812Y-89430624D01*
G37*
G36*
X149814734Y-86650232D02*
X150024202Y-86736996D01*
X150212723Y-86862962D01*
X150373038Y-87023277D01*
X150499004Y-87211798D01*
X150585768Y-87421266D01*
X150630000Y-87643635D01*
X150630000Y-87870365D01*
X150585768Y-88092734D01*
X150499004Y-88302202D01*
X150373038Y-88490723D01*
X150212723Y-88651038D01*
X150024202Y-88777004D01*
X149814734Y-88863768D01*
X149592365Y-88908000D01*
X149365635Y-88908000D01*
X149143266Y-88863768D01*
X148933798Y-88777004D01*
X148745277Y-88651038D01*
X148584962Y-88490723D01*
X148458996Y-88302202D01*
X148372232Y-88092734D01*
X148328000Y-87870365D01*
X148328000Y-87643635D01*
X148372232Y-87421266D01*
X148458996Y-87211798D01*
X148584962Y-87023277D01*
X148745277Y-86862962D01*
X148933798Y-86736996D01*
X149143266Y-86650232D01*
X149365635Y-86606000D01*
X149592365Y-86606000D01*
X149814734Y-86650232D01*
X149814734Y-86650232D01*
G37*
G36*
X130764734Y-86650232D02*
X130974202Y-86736996D01*
X131162723Y-86862962D01*
X131323038Y-87023277D01*
X131449004Y-87211798D01*
X131535768Y-87421266D01*
X131580000Y-87643635D01*
X131580000Y-87870365D01*
X131535768Y-88092734D01*
X131449004Y-88302202D01*
X131323038Y-88490723D01*
X131162723Y-88651038D01*
X130974202Y-88777004D01*
X130764734Y-88863768D01*
X130542365Y-88908000D01*
X130315635Y-88908000D01*
X130093266Y-88863768D01*
X129883798Y-88777004D01*
X129695277Y-88651038D01*
X129534962Y-88490723D01*
X129408996Y-88302202D01*
X129322232Y-88092734D01*
X129278000Y-87870365D01*
X129278000Y-87643635D01*
X129322232Y-87421266D01*
X129408996Y-87211798D01*
X129534962Y-87023277D01*
X129695277Y-86862962D01*
X129883798Y-86736996D01*
X130093266Y-86650232D01*
X130315635Y-86606000D01*
X130542365Y-86606000D01*
X130764734Y-86650232D01*
X130764734Y-86650232D01*
G37*
G36*
X111714734Y-86650232D02*
X111924202Y-86736996D01*
X112112723Y-86862962D01*
X112273038Y-87023277D01*
X112399004Y-87211798D01*
X112485768Y-87421266D01*
X112530000Y-87643635D01*
X112530000Y-87870365D01*
X112485768Y-88092734D01*
X112399004Y-88302202D01*
X112273038Y-88490723D01*
X112112723Y-88651038D01*
X111924202Y-88777004D01*
X111714734Y-88863768D01*
X111492365Y-88908000D01*
X111265635Y-88908000D01*
X111043266Y-88863768D01*
X110833798Y-88777004D01*
X110645277Y-88651038D01*
X110484962Y-88490723D01*
X110358996Y-88302202D01*
X110272232Y-88092734D01*
X110228000Y-87870365D01*
X110228000Y-87643635D01*
X110272232Y-87421266D01*
X110358996Y-87211798D01*
X110484962Y-87023277D01*
X110645277Y-86862962D01*
X110833798Y-86736996D01*
X111043266Y-86650232D01*
X111265635Y-86606000D01*
X111492365Y-86606000D01*
X111714734Y-86650232D01*
X111714734Y-86650232D01*
G37*
G36*
X172728812Y-84985624D02*
X172892784Y-85053544D01*
X173040354Y-85152147D01*
X173165853Y-85277646D01*
X173264456Y-85425216D01*
X173332376Y-85589188D01*
X173367000Y-85763259D01*
X173367000Y-85940741D01*
X173332376Y-86114812D01*
X173264456Y-86278784D01*
X173165853Y-86426354D01*
X173040354Y-86551853D01*
X172892784Y-86650456D01*
X172728812Y-86718376D01*
X172554741Y-86753000D01*
X172377259Y-86753000D01*
X172203188Y-86718376D01*
X172039216Y-86650456D01*
X171891646Y-86551853D01*
X171766147Y-86426354D01*
X171667544Y-86278784D01*
X171599624Y-86114812D01*
X171565000Y-85940741D01*
X171565000Y-85763259D01*
X171599624Y-85589188D01*
X171667544Y-85425216D01*
X171766147Y-85277646D01*
X171891646Y-85152147D01*
X172039216Y-85053544D01*
X172203188Y-84985624D01*
X172377259Y-84951000D01*
X172554741Y-84951000D01*
X172728812Y-84985624D01*
X172728812Y-84985624D01*
G37*
G36*
X118064734Y-84110232D02*
X118274202Y-84196996D01*
X118462723Y-84322962D01*
X118623038Y-84483277D01*
X118749004Y-84671798D01*
X118835768Y-84881266D01*
X118880000Y-85103635D01*
X118880000Y-85330365D01*
X118835768Y-85552734D01*
X118749004Y-85762202D01*
X118623038Y-85950723D01*
X118462723Y-86111038D01*
X118274202Y-86237004D01*
X118064734Y-86323768D01*
X117842365Y-86368000D01*
X117615635Y-86368000D01*
X117393266Y-86323768D01*
X117183798Y-86237004D01*
X116995277Y-86111038D01*
X116834962Y-85950723D01*
X116708996Y-85762202D01*
X116622232Y-85552734D01*
X116578000Y-85330365D01*
X116578000Y-85103635D01*
X116622232Y-84881266D01*
X116708996Y-84671798D01*
X116834962Y-84483277D01*
X116995277Y-84322962D01*
X117183798Y-84196996D01*
X117393266Y-84110232D01*
X117615635Y-84066000D01*
X117842365Y-84066000D01*
X118064734Y-84110232D01*
X118064734Y-84110232D01*
G37*
G36*
X156164734Y-84110232D02*
X156374202Y-84196996D01*
X156562723Y-84322962D01*
X156723038Y-84483277D01*
X156849004Y-84671798D01*
X156935768Y-84881266D01*
X156980000Y-85103635D01*
X156980000Y-85330365D01*
X156935768Y-85552734D01*
X156849004Y-85762202D01*
X156723038Y-85950723D01*
X156562723Y-86111038D01*
X156374202Y-86237004D01*
X156164734Y-86323768D01*
X155942365Y-86368000D01*
X155715635Y-86368000D01*
X155493266Y-86323768D01*
X155283798Y-86237004D01*
X155095277Y-86111038D01*
X154934962Y-85950723D01*
X154808996Y-85762202D01*
X154722232Y-85552734D01*
X154678000Y-85330365D01*
X154678000Y-85103635D01*
X154722232Y-84881266D01*
X154808996Y-84671798D01*
X154934962Y-84483277D01*
X155095277Y-84322962D01*
X155283798Y-84196996D01*
X155493266Y-84110232D01*
X155715635Y-84066000D01*
X155942365Y-84066000D01*
X156164734Y-84110232D01*
X156164734Y-84110232D01*
G37*
G36*
X137114734Y-84110232D02*
X137324202Y-84196996D01*
X137512723Y-84322962D01*
X137673038Y-84483277D01*
X137799004Y-84671798D01*
X137885768Y-84881266D01*
X137930000Y-85103635D01*
X137930000Y-85330365D01*
X137885768Y-85552734D01*
X137799004Y-85762202D01*
X137673038Y-85950723D01*
X137512723Y-86111038D01*
X137324202Y-86237004D01*
X137114734Y-86323768D01*
X136892365Y-86368000D01*
X136665635Y-86368000D01*
X136443266Y-86323768D01*
X136233798Y-86237004D01*
X136045277Y-86111038D01*
X135884962Y-85950723D01*
X135758996Y-85762202D01*
X135672232Y-85552734D01*
X135628000Y-85330365D01*
X135628000Y-85103635D01*
X135672232Y-84881266D01*
X135758996Y-84671798D01*
X135884962Y-84483277D01*
X136045277Y-84322962D01*
X136233798Y-84196996D01*
X136443266Y-84110232D01*
X136665635Y-84066000D01*
X136892365Y-84066000D01*
X137114734Y-84110232D01*
X137114734Y-84110232D01*
G37*
G36*
X170261734Y-83475232D02*
X170471202Y-83561996D01*
X170659723Y-83687962D01*
X170820038Y-83848277D01*
X170946004Y-84036798D01*
X171032768Y-84246266D01*
X171077000Y-84468635D01*
X171077000Y-84695365D01*
X171032768Y-84917734D01*
X170946004Y-85127202D01*
X170820038Y-85315723D01*
X170659723Y-85476038D01*
X170471202Y-85602004D01*
X170261734Y-85688768D01*
X170039365Y-85733000D01*
X169812635Y-85733000D01*
X169590266Y-85688768D01*
X169380798Y-85602004D01*
X169192277Y-85476038D01*
X169031962Y-85315723D01*
X168905996Y-85127202D01*
X168819232Y-84917734D01*
X168775000Y-84695365D01*
X168775000Y-84468635D01*
X168819232Y-84246266D01*
X168905996Y-84036798D01*
X169031962Y-83848277D01*
X169192277Y-83687962D01*
X169380798Y-83561996D01*
X169590266Y-83475232D01*
X169812635Y-83431000D01*
X170039365Y-83431000D01*
X170261734Y-83475232D01*
X170261734Y-83475232D01*
G37*
G36*
X173064252Y-78799818D02*
X173064254Y-78799819D01*
X173064255Y-78799819D01*
X173437513Y-78954427D01*
X173768905Y-79175857D01*
X173773439Y-79178886D01*
X174059114Y-79464561D01*
X174059116Y-79464564D01*
X174283573Y-79800487D01*
X174438181Y-80173745D01*
X174517000Y-80569994D01*
X174517000Y-80974006D01*
X174438181Y-81370255D01*
X174283573Y-81743513D01*
X174283572Y-81743514D01*
X174059114Y-82079439D01*
X173773439Y-82365114D01*
X173773436Y-82365116D01*
X173437513Y-82589573D01*
X173064255Y-82744181D01*
X173064254Y-82744181D01*
X173064252Y-82744182D01*
X172668007Y-82823000D01*
X172263993Y-82823000D01*
X171867748Y-82744182D01*
X171867746Y-82744181D01*
X171867745Y-82744181D01*
X171494487Y-82589573D01*
X171158564Y-82365116D01*
X171158561Y-82365114D01*
X170872886Y-82079439D01*
X170648428Y-81743514D01*
X170648427Y-81743513D01*
X170493819Y-81370255D01*
X170415000Y-80974006D01*
X170415000Y-80569994D01*
X170493819Y-80173745D01*
X170648427Y-79800487D01*
X170872884Y-79464564D01*
X170872886Y-79464561D01*
X171158561Y-79178886D01*
X171163095Y-79175857D01*
X171494487Y-78954427D01*
X171867745Y-78799819D01*
X171867746Y-78799819D01*
X171867748Y-78799818D01*
X172263993Y-78721000D01*
X172668007Y-78721000D01*
X173064252Y-78799818D01*
X173064252Y-78799818D01*
G37*
G36*
X167721734Y-77125232D02*
X167931202Y-77211996D01*
X168119723Y-77337962D01*
X168280038Y-77498277D01*
X168406004Y-77686798D01*
X168492768Y-77896266D01*
X168537000Y-78118635D01*
X168537000Y-78345365D01*
X168492768Y-78567734D01*
X168406004Y-78777202D01*
X168280038Y-78965723D01*
X168119723Y-79126038D01*
X167931202Y-79252004D01*
X167721734Y-79338768D01*
X167499365Y-79383000D01*
X167272635Y-79383000D01*
X167050266Y-79338768D01*
X166840798Y-79252004D01*
X166652277Y-79126038D01*
X166491962Y-78965723D01*
X166365996Y-78777202D01*
X166279232Y-78567734D01*
X166235000Y-78345365D01*
X166235000Y-78118635D01*
X166279232Y-77896266D01*
X166365996Y-77686798D01*
X166491962Y-77498277D01*
X166652277Y-77337962D01*
X166840798Y-77211996D01*
X167050266Y-77125232D01*
X167272635Y-77081000D01*
X167499365Y-77081000D01*
X167721734Y-77125232D01*
X167721734Y-77125232D01*
G37*
G36*
X172728812Y-74825624D02*
X172892784Y-74893544D01*
X173040354Y-74992147D01*
X173165853Y-75117646D01*
X173264456Y-75265216D01*
X173332376Y-75429188D01*
X173367000Y-75603259D01*
X173367000Y-75780741D01*
X173332376Y-75954812D01*
X173264456Y-76118784D01*
X173165853Y-76266354D01*
X173040354Y-76391853D01*
X172892784Y-76490456D01*
X172728812Y-76558376D01*
X172554741Y-76593000D01*
X172377259Y-76593000D01*
X172203188Y-76558376D01*
X172039216Y-76490456D01*
X171891646Y-76391853D01*
X171766147Y-76266354D01*
X171667544Y-76118784D01*
X171599624Y-75954812D01*
X171565000Y-75780741D01*
X171565000Y-75603259D01*
X171599624Y-75429188D01*
X171667544Y-75265216D01*
X171766147Y-75117646D01*
X171891646Y-74992147D01*
X172039216Y-74893544D01*
X172203188Y-74825624D01*
X172377259Y-74791000D01*
X172554741Y-74791000D01*
X172728812Y-74825624D01*
X172728812Y-74825624D01*
G37*
G36*
X153887252Y-69274818D02*
X153887254Y-69274819D01*
X153887255Y-69274819D01*
X154260513Y-69429427D01*
X154543501Y-69618514D01*
X154596439Y-69653886D01*
X154882114Y-69939561D01*
X154882116Y-69939564D01*
X155106573Y-70275487D01*
X155219098Y-70547147D01*
X155261182Y-70648748D01*
X155340000Y-71044993D01*
X155340000Y-71449007D01*
X155265936Y-71821354D01*
X155261181Y-71845255D01*
X155106573Y-72218513D01*
X155106572Y-72218514D01*
X154882114Y-72554439D01*
X154596439Y-72840114D01*
X154596436Y-72840116D01*
X154260513Y-73064573D01*
X153887255Y-73219181D01*
X153887254Y-73219181D01*
X153887252Y-73219182D01*
X153491007Y-73298000D01*
X153086993Y-73298000D01*
X152690748Y-73219182D01*
X152690746Y-73219181D01*
X152690745Y-73219181D01*
X152317487Y-73064573D01*
X151981564Y-72840116D01*
X151981561Y-72840114D01*
X151695886Y-72554439D01*
X151471428Y-72218514D01*
X151471427Y-72218513D01*
X151316819Y-71845255D01*
X151312065Y-71821354D01*
X151238000Y-71449007D01*
X151238000Y-71044993D01*
X151316818Y-70648748D01*
X151358902Y-70547147D01*
X151471427Y-70275487D01*
X151695884Y-69939564D01*
X151695886Y-69939561D01*
X151981561Y-69653886D01*
X152034499Y-69618514D01*
X152317487Y-69429427D01*
X152690745Y-69274819D01*
X152690746Y-69274819D01*
X152690748Y-69274818D01*
X153086993Y-69196000D01*
X153491007Y-69196000D01*
X153887252Y-69274818D01*
X153887252Y-69274818D01*
G37*
G36*
X134837252Y-69274818D02*
X134837254Y-69274819D01*
X134837255Y-69274819D01*
X135210513Y-69429427D01*
X135493501Y-69618514D01*
X135546439Y-69653886D01*
X135832114Y-69939561D01*
X135832116Y-69939564D01*
X136056573Y-70275487D01*
X136169098Y-70547147D01*
X136211182Y-70648748D01*
X136290000Y-71044993D01*
X136290000Y-71449007D01*
X136215936Y-71821354D01*
X136211181Y-71845255D01*
X136056573Y-72218513D01*
X136056572Y-72218514D01*
X135832114Y-72554439D01*
X135546439Y-72840114D01*
X135546436Y-72840116D01*
X135210513Y-73064573D01*
X134837255Y-73219181D01*
X134837254Y-73219181D01*
X134837252Y-73219182D01*
X134441007Y-73298000D01*
X134036993Y-73298000D01*
X133640748Y-73219182D01*
X133640746Y-73219181D01*
X133640745Y-73219181D01*
X133267487Y-73064573D01*
X132931564Y-72840116D01*
X132931561Y-72840114D01*
X132645886Y-72554439D01*
X132421428Y-72218514D01*
X132421427Y-72218513D01*
X132266819Y-71845255D01*
X132262065Y-71821354D01*
X132188000Y-71449007D01*
X132188000Y-71044993D01*
X132266818Y-70648748D01*
X132308902Y-70547147D01*
X132421427Y-70275487D01*
X132645884Y-69939564D01*
X132645886Y-69939561D01*
X132931561Y-69653886D01*
X132984499Y-69618514D01*
X133267487Y-69429427D01*
X133640745Y-69274819D01*
X133640746Y-69274819D01*
X133640748Y-69274818D01*
X134036993Y-69196000D01*
X134441007Y-69196000D01*
X134837252Y-69274818D01*
X134837252Y-69274818D01*
G37*
G36*
X115787252Y-69274818D02*
X115787254Y-69274819D01*
X115787255Y-69274819D01*
X116160513Y-69429427D01*
X116443501Y-69618514D01*
X116496439Y-69653886D01*
X116782114Y-69939561D01*
X116782116Y-69939564D01*
X117006573Y-70275487D01*
X117119098Y-70547147D01*
X117161182Y-70648748D01*
X117240000Y-71044993D01*
X117240000Y-71449007D01*
X117165936Y-71821354D01*
X117161181Y-71845255D01*
X117006573Y-72218513D01*
X117006572Y-72218514D01*
X116782114Y-72554439D01*
X116496439Y-72840114D01*
X116496436Y-72840116D01*
X116160513Y-73064573D01*
X115787255Y-73219181D01*
X115787254Y-73219181D01*
X115787252Y-73219182D01*
X115391007Y-73298000D01*
X114986993Y-73298000D01*
X114590748Y-73219182D01*
X114590746Y-73219181D01*
X114590745Y-73219181D01*
X114217487Y-73064573D01*
X113881564Y-72840116D01*
X113881561Y-72840114D01*
X113595886Y-72554439D01*
X113371428Y-72218514D01*
X113371427Y-72218513D01*
X113216819Y-71845255D01*
X113212065Y-71821354D01*
X113138000Y-71449007D01*
X113138000Y-71044993D01*
X113216818Y-70648748D01*
X113258902Y-70547147D01*
X113371427Y-70275487D01*
X113595884Y-69939564D01*
X113595886Y-69939561D01*
X113881561Y-69653886D01*
X113934499Y-69618514D01*
X114217487Y-69429427D01*
X114590745Y-69274819D01*
X114590746Y-69274819D01*
X114590748Y-69274818D01*
X114986993Y-69196000D01*
X115391007Y-69196000D01*
X115787252Y-69274818D01*
X115787252Y-69274818D01*
G37*
G36*
X158631812Y-70380624D02*
X158795784Y-70448544D01*
X158943354Y-70547147D01*
X159068853Y-70672646D01*
X159167456Y-70820216D01*
X159235376Y-70984188D01*
X159270000Y-71158259D01*
X159270000Y-71335741D01*
X159235376Y-71509812D01*
X159167456Y-71673784D01*
X159068853Y-71821354D01*
X158943354Y-71946853D01*
X158795784Y-72045456D01*
X158631812Y-72113376D01*
X158457741Y-72148000D01*
X158280259Y-72148000D01*
X158106188Y-72113376D01*
X157942216Y-72045456D01*
X157794646Y-71946853D01*
X157669147Y-71821354D01*
X157570544Y-71673784D01*
X157502624Y-71509812D01*
X157468000Y-71335741D01*
X157468000Y-71158259D01*
X157502624Y-70984188D01*
X157570544Y-70820216D01*
X157669147Y-70672646D01*
X157794646Y-70547147D01*
X157942216Y-70448544D01*
X158106188Y-70380624D01*
X158280259Y-70346000D01*
X158457741Y-70346000D01*
X158631812Y-70380624D01*
X158631812Y-70380624D01*
G37*
G36*
X110371812Y-70380624D02*
X110535784Y-70448544D01*
X110683354Y-70547147D01*
X110808853Y-70672646D01*
X110907456Y-70820216D01*
X110975376Y-70984188D01*
X111010000Y-71158259D01*
X111010000Y-71335741D01*
X110975376Y-71509812D01*
X110907456Y-71673784D01*
X110808853Y-71821354D01*
X110683354Y-71946853D01*
X110535784Y-72045456D01*
X110371812Y-72113376D01*
X110197741Y-72148000D01*
X110020259Y-72148000D01*
X109846188Y-72113376D01*
X109682216Y-72045456D01*
X109534646Y-71946853D01*
X109409147Y-71821354D01*
X109310544Y-71673784D01*
X109242624Y-71509812D01*
X109208000Y-71335741D01*
X109208000Y-71158259D01*
X109242624Y-70984188D01*
X109310544Y-70820216D01*
X109409147Y-70672646D01*
X109534646Y-70547147D01*
X109682216Y-70448544D01*
X109846188Y-70380624D01*
X110020259Y-70346000D01*
X110197741Y-70346000D01*
X110371812Y-70380624D01*
X110371812Y-70380624D01*
G37*
G36*
X120531812Y-70380624D02*
X120695784Y-70448544D01*
X120843354Y-70547147D01*
X120968853Y-70672646D01*
X121067456Y-70820216D01*
X121135376Y-70984188D01*
X121170000Y-71158259D01*
X121170000Y-71335741D01*
X121135376Y-71509812D01*
X121067456Y-71673784D01*
X120968853Y-71821354D01*
X120843354Y-71946853D01*
X120695784Y-72045456D01*
X120531812Y-72113376D01*
X120357741Y-72148000D01*
X120180259Y-72148000D01*
X120006188Y-72113376D01*
X119842216Y-72045456D01*
X119694646Y-71946853D01*
X119569147Y-71821354D01*
X119470544Y-71673784D01*
X119402624Y-71509812D01*
X119368000Y-71335741D01*
X119368000Y-71158259D01*
X119402624Y-70984188D01*
X119470544Y-70820216D01*
X119569147Y-70672646D01*
X119694646Y-70547147D01*
X119842216Y-70448544D01*
X120006188Y-70380624D01*
X120180259Y-70346000D01*
X120357741Y-70346000D01*
X120531812Y-70380624D01*
X120531812Y-70380624D01*
G37*
G36*
X139581812Y-70380624D02*
X139745784Y-70448544D01*
X139893354Y-70547147D01*
X140018853Y-70672646D01*
X140117456Y-70820216D01*
X140185376Y-70984188D01*
X140220000Y-71158259D01*
X140220000Y-71335741D01*
X140185376Y-71509812D01*
X140117456Y-71673784D01*
X140018853Y-71821354D01*
X139893354Y-71946853D01*
X139745784Y-72045456D01*
X139581812Y-72113376D01*
X139407741Y-72148000D01*
X139230259Y-72148000D01*
X139056188Y-72113376D01*
X138892216Y-72045456D01*
X138744646Y-71946853D01*
X138619147Y-71821354D01*
X138520544Y-71673784D01*
X138452624Y-71509812D01*
X138418000Y-71335741D01*
X138418000Y-71158259D01*
X138452624Y-70984188D01*
X138520544Y-70820216D01*
X138619147Y-70672646D01*
X138744646Y-70547147D01*
X138892216Y-70448544D01*
X139056188Y-70380624D01*
X139230259Y-70346000D01*
X139407741Y-70346000D01*
X139581812Y-70380624D01*
X139581812Y-70380624D01*
G37*
G36*
X129421812Y-70380624D02*
X129585784Y-70448544D01*
X129733354Y-70547147D01*
X129858853Y-70672646D01*
X129957456Y-70820216D01*
X130025376Y-70984188D01*
X130060000Y-71158259D01*
X130060000Y-71335741D01*
X130025376Y-71509812D01*
X129957456Y-71673784D01*
X129858853Y-71821354D01*
X129733354Y-71946853D01*
X129585784Y-72045456D01*
X129421812Y-72113376D01*
X129247741Y-72148000D01*
X129070259Y-72148000D01*
X128896188Y-72113376D01*
X128732216Y-72045456D01*
X128584646Y-71946853D01*
X128459147Y-71821354D01*
X128360544Y-71673784D01*
X128292624Y-71509812D01*
X128258000Y-71335741D01*
X128258000Y-71158259D01*
X128292624Y-70984188D01*
X128360544Y-70820216D01*
X128459147Y-70672646D01*
X128584646Y-70547147D01*
X128732216Y-70448544D01*
X128896188Y-70380624D01*
X129070259Y-70346000D01*
X129247741Y-70346000D01*
X129421812Y-70380624D01*
X129421812Y-70380624D01*
G37*
G36*
X148471812Y-70380624D02*
X148635784Y-70448544D01*
X148783354Y-70547147D01*
X148908853Y-70672646D01*
X149007456Y-70820216D01*
X149075376Y-70984188D01*
X149110000Y-71158259D01*
X149110000Y-71335741D01*
X149075376Y-71509812D01*
X149007456Y-71673784D01*
X148908853Y-71821354D01*
X148783354Y-71946853D01*
X148635784Y-72045456D01*
X148471812Y-72113376D01*
X148297741Y-72148000D01*
X148120259Y-72148000D01*
X147946188Y-72113376D01*
X147782216Y-72045456D01*
X147634646Y-71946853D01*
X147509147Y-71821354D01*
X147410544Y-71673784D01*
X147342624Y-71509812D01*
X147308000Y-71335741D01*
X147308000Y-71158259D01*
X147342624Y-70984188D01*
X147410544Y-70820216D01*
X147509147Y-70672646D01*
X147634646Y-70547147D01*
X147782216Y-70448544D01*
X147946188Y-70380624D01*
X148120259Y-70346000D01*
X148297741Y-70346000D01*
X148471812Y-70380624D01*
X148471812Y-70380624D01*
G37*
G36*
X164824252Y-66899818D02*
X164824254Y-66899819D01*
X164824255Y-66899819D01*
X165197513Y-67054427D01*
X165395928Y-67187004D01*
X165533439Y-67278886D01*
X165819114Y-67564561D01*
X165819116Y-67564564D01*
X166043573Y-67900487D01*
X166151811Y-68161798D01*
X166198182Y-68273748D01*
X166277000Y-68669993D01*
X166277000Y-69074007D01*
X166204056Y-69440723D01*
X166198181Y-69470255D01*
X166043573Y-69843513D01*
X165874761Y-70096157D01*
X165819114Y-70179439D01*
X165533439Y-70465114D01*
X165533436Y-70465116D01*
X165197513Y-70689573D01*
X164824255Y-70844181D01*
X164824254Y-70844181D01*
X164824252Y-70844182D01*
X164428007Y-70923000D01*
X164023993Y-70923000D01*
X163627748Y-70844182D01*
X163627746Y-70844181D01*
X163627745Y-70844181D01*
X163254487Y-70689573D01*
X162918564Y-70465116D01*
X162918561Y-70465114D01*
X162632886Y-70179439D01*
X162577239Y-70096157D01*
X162408427Y-69843513D01*
X162253819Y-69470255D01*
X162247945Y-69440723D01*
X162175000Y-69074007D01*
X162175000Y-68669993D01*
X162253818Y-68273748D01*
X162300189Y-68161798D01*
X162408427Y-67900487D01*
X162632884Y-67564564D01*
X162632886Y-67564561D01*
X162918561Y-67278886D01*
X163056072Y-67187004D01*
X163254487Y-67054427D01*
X163627745Y-66899819D01*
X163627746Y-66899819D01*
X163627748Y-66899818D01*
X164023993Y-66821000D01*
X164428007Y-66821000D01*
X164824252Y-66899818D01*
X164824252Y-66899818D01*
G37*
G36*
X179671739Y-67306048D02*
X179925702Y-67356564D01*
X180212516Y-67475367D01*
X180470642Y-67647841D01*
X180690159Y-67867358D01*
X180862633Y-68125484D01*
X180981436Y-68412298D01*
X181042000Y-68716778D01*
X181042000Y-69027222D01*
X180981436Y-69331702D01*
X180862633Y-69618516D01*
X180690159Y-69876642D01*
X180470642Y-70096159D01*
X180212516Y-70268633D01*
X179925702Y-70387436D01*
X179671739Y-70437952D01*
X179621223Y-70448000D01*
X179310777Y-70448000D01*
X179260261Y-70437952D01*
X179006298Y-70387436D01*
X178719484Y-70268633D01*
X178461358Y-70096159D01*
X178241841Y-69876642D01*
X178069367Y-69618516D01*
X177950564Y-69331702D01*
X177890000Y-69027222D01*
X177890000Y-68716778D01*
X177950564Y-68412298D01*
X178069367Y-68125484D01*
X178241841Y-67867358D01*
X178461358Y-67647841D01*
X178719484Y-67475367D01*
X179006298Y-67356564D01*
X179260261Y-67306048D01*
X179310777Y-67296000D01*
X179621223Y-67296000D01*
X179671739Y-67306048D01*
X179671739Y-67306048D01*
G37*
G36*
X149814734Y-67600232D02*
X150024202Y-67686996D01*
X150212723Y-67812962D01*
X150373038Y-67973277D01*
X150499004Y-68161798D01*
X150585768Y-68371266D01*
X150630000Y-68593635D01*
X150630000Y-68820365D01*
X150585768Y-69042734D01*
X150499004Y-69252202D01*
X150373038Y-69440723D01*
X150212723Y-69601038D01*
X150024202Y-69727004D01*
X149814734Y-69813768D01*
X149592365Y-69858000D01*
X149365635Y-69858000D01*
X149143266Y-69813768D01*
X148933798Y-69727004D01*
X148745277Y-69601038D01*
X148584962Y-69440723D01*
X148458996Y-69252202D01*
X148372232Y-69042734D01*
X148328000Y-68820365D01*
X148328000Y-68593635D01*
X148372232Y-68371266D01*
X148458996Y-68161798D01*
X148584962Y-67973277D01*
X148745277Y-67812962D01*
X148933798Y-67686996D01*
X149143266Y-67600232D01*
X149365635Y-67556000D01*
X149592365Y-67556000D01*
X149814734Y-67600232D01*
X149814734Y-67600232D01*
G37*
G36*
X111714734Y-67600232D02*
X111924202Y-67686996D01*
X112112723Y-67812962D01*
X112273038Y-67973277D01*
X112399004Y-68161798D01*
X112485768Y-68371266D01*
X112530000Y-68593635D01*
X112530000Y-68820365D01*
X112485768Y-69042734D01*
X112399004Y-69252202D01*
X112273038Y-69440723D01*
X112112723Y-69601038D01*
X111924202Y-69727004D01*
X111714734Y-69813768D01*
X111492365Y-69858000D01*
X111265635Y-69858000D01*
X111043266Y-69813768D01*
X110833798Y-69727004D01*
X110645277Y-69601038D01*
X110484962Y-69440723D01*
X110358996Y-69252202D01*
X110272232Y-69042734D01*
X110228000Y-68820365D01*
X110228000Y-68593635D01*
X110272232Y-68371266D01*
X110358996Y-68161798D01*
X110484962Y-67973277D01*
X110645277Y-67812962D01*
X110833798Y-67686996D01*
X111043266Y-67600232D01*
X111265635Y-67556000D01*
X111492365Y-67556000D01*
X111714734Y-67600232D01*
X111714734Y-67600232D01*
G37*
G36*
X130764734Y-67600232D02*
X130974202Y-67686996D01*
X131162723Y-67812962D01*
X131323038Y-67973277D01*
X131449004Y-68161798D01*
X131535768Y-68371266D01*
X131580000Y-68593635D01*
X131580000Y-68820365D01*
X131535768Y-69042734D01*
X131449004Y-69252202D01*
X131323038Y-69440723D01*
X131162723Y-69601038D01*
X130974202Y-69727004D01*
X130764734Y-69813768D01*
X130542365Y-69858000D01*
X130315635Y-69858000D01*
X130093266Y-69813768D01*
X129883798Y-69727004D01*
X129695277Y-69601038D01*
X129534962Y-69440723D01*
X129408996Y-69252202D01*
X129322232Y-69042734D01*
X129278000Y-68820365D01*
X129278000Y-68593635D01*
X129322232Y-68371266D01*
X129408996Y-68161798D01*
X129534962Y-67973277D01*
X129695277Y-67812962D01*
X129883798Y-67686996D01*
X130093266Y-67600232D01*
X130315635Y-67556000D01*
X130542365Y-67556000D01*
X130764734Y-67600232D01*
X130764734Y-67600232D01*
G37*
G36*
X118064734Y-65060232D02*
X118274202Y-65146996D01*
X118462723Y-65272962D01*
X118623038Y-65433277D01*
X118749004Y-65621798D01*
X118835768Y-65831266D01*
X118880000Y-66053635D01*
X118880000Y-66280365D01*
X118835768Y-66502734D01*
X118749004Y-66712202D01*
X118623038Y-66900723D01*
X118462723Y-67061038D01*
X118274202Y-67187004D01*
X118064734Y-67273768D01*
X117842365Y-67318000D01*
X117615635Y-67318000D01*
X117393266Y-67273768D01*
X117183798Y-67187004D01*
X116995277Y-67061038D01*
X116834962Y-66900723D01*
X116708996Y-66712202D01*
X116622232Y-66502734D01*
X116578000Y-66280365D01*
X116578000Y-66053635D01*
X116622232Y-65831266D01*
X116708996Y-65621798D01*
X116834962Y-65433277D01*
X116995277Y-65272962D01*
X117183798Y-65146996D01*
X117393266Y-65060232D01*
X117615635Y-65016000D01*
X117842365Y-65016000D01*
X118064734Y-65060232D01*
X118064734Y-65060232D01*
G37*
G36*
X156164734Y-65060232D02*
X156374202Y-65146996D01*
X156562723Y-65272962D01*
X156723038Y-65433277D01*
X156849004Y-65621798D01*
X156935768Y-65831266D01*
X156980000Y-66053635D01*
X156980000Y-66280365D01*
X156935768Y-66502734D01*
X156849004Y-66712202D01*
X156723038Y-66900723D01*
X156562723Y-67061038D01*
X156374202Y-67187004D01*
X156164734Y-67273768D01*
X155942365Y-67318000D01*
X155715635Y-67318000D01*
X155493266Y-67273768D01*
X155283798Y-67187004D01*
X155095277Y-67061038D01*
X154934962Y-66900723D01*
X154808996Y-66712202D01*
X154722232Y-66502734D01*
X154678000Y-66280365D01*
X154678000Y-66053635D01*
X154722232Y-65831266D01*
X154808996Y-65621798D01*
X154934962Y-65433277D01*
X155095277Y-65272962D01*
X155283798Y-65146996D01*
X155493266Y-65060232D01*
X155715635Y-65016000D01*
X155942365Y-65016000D01*
X156164734Y-65060232D01*
X156164734Y-65060232D01*
G37*
G36*
X137114734Y-65060232D02*
X137324202Y-65146996D01*
X137512723Y-65272962D01*
X137673038Y-65433277D01*
X137799004Y-65621798D01*
X137885768Y-65831266D01*
X137930000Y-66053635D01*
X137930000Y-66280365D01*
X137885768Y-66502734D01*
X137799004Y-66712202D01*
X137673038Y-66900723D01*
X137512723Y-67061038D01*
X137324202Y-67187004D01*
X137114734Y-67273768D01*
X136892365Y-67318000D01*
X136665635Y-67318000D01*
X136443266Y-67273768D01*
X136233798Y-67187004D01*
X136045277Y-67061038D01*
X135884962Y-66900723D01*
X135758996Y-66712202D01*
X135672232Y-66502734D01*
X135628000Y-66280365D01*
X135628000Y-66053635D01*
X135672232Y-65831266D01*
X135758996Y-65621798D01*
X135884962Y-65433277D01*
X136045277Y-65272962D01*
X136233798Y-65146996D01*
X136443266Y-65060232D01*
X136665635Y-65016000D01*
X136892365Y-65016000D01*
X137114734Y-65060232D01*
X137114734Y-65060232D01*
G37*
G36*
X172937252Y-50224818D02*
X172937254Y-50224819D01*
X172937255Y-50224819D01*
X173310513Y-50379427D01*
X173641905Y-50600857D01*
X173646439Y-50603886D01*
X173932114Y-50889561D01*
X173932116Y-50889564D01*
X174156573Y-51225487D01*
X174185780Y-51296000D01*
X174311182Y-51598748D01*
X174390000Y-51994993D01*
X174390000Y-52399007D01*
X174315936Y-52771354D01*
X174311181Y-52795255D01*
X174156573Y-53168513D01*
X174156572Y-53168514D01*
X173932114Y-53504439D01*
X173646439Y-53790114D01*
X173646436Y-53790116D01*
X173310513Y-54014573D01*
X172937255Y-54169181D01*
X172937254Y-54169181D01*
X172937252Y-54169182D01*
X172541007Y-54248000D01*
X172136993Y-54248000D01*
X171740748Y-54169182D01*
X171740746Y-54169181D01*
X171740745Y-54169181D01*
X171367487Y-54014573D01*
X171031564Y-53790116D01*
X171031561Y-53790114D01*
X170745886Y-53504439D01*
X170521428Y-53168514D01*
X170521427Y-53168513D01*
X170366819Y-52795255D01*
X170362065Y-52771354D01*
X170288000Y-52399007D01*
X170288000Y-51994993D01*
X170366818Y-51598748D01*
X170492220Y-51296000D01*
X170521427Y-51225487D01*
X170745884Y-50889564D01*
X170745886Y-50889561D01*
X171031561Y-50603886D01*
X171036095Y-50600857D01*
X171367487Y-50379427D01*
X171740745Y-50224819D01*
X171740746Y-50224819D01*
X171740748Y-50224818D01*
X172136993Y-50146000D01*
X172541007Y-50146000D01*
X172937252Y-50224818D01*
X172937252Y-50224818D01*
G37*
G36*
X115787252Y-50224818D02*
X115787254Y-50224819D01*
X115787255Y-50224819D01*
X116160513Y-50379427D01*
X116491905Y-50600857D01*
X116496439Y-50603886D01*
X116782114Y-50889561D01*
X116782116Y-50889564D01*
X117006573Y-51225487D01*
X117035780Y-51296000D01*
X117161182Y-51598748D01*
X117240000Y-51994993D01*
X117240000Y-52399007D01*
X117165936Y-52771354D01*
X117161181Y-52795255D01*
X117006573Y-53168513D01*
X117006572Y-53168514D01*
X116782114Y-53504439D01*
X116496439Y-53790114D01*
X116496436Y-53790116D01*
X116160513Y-54014573D01*
X115787255Y-54169181D01*
X115787254Y-54169181D01*
X115787252Y-54169182D01*
X115391007Y-54248000D01*
X114986993Y-54248000D01*
X114590748Y-54169182D01*
X114590746Y-54169181D01*
X114590745Y-54169181D01*
X114217487Y-54014573D01*
X113881564Y-53790116D01*
X113881561Y-53790114D01*
X113595886Y-53504439D01*
X113371428Y-53168514D01*
X113371427Y-53168513D01*
X113216819Y-52795255D01*
X113212065Y-52771354D01*
X113138000Y-52399007D01*
X113138000Y-51994993D01*
X113216818Y-51598748D01*
X113342220Y-51296000D01*
X113371427Y-51225487D01*
X113595884Y-50889564D01*
X113595886Y-50889561D01*
X113881561Y-50603886D01*
X113886095Y-50600857D01*
X114217487Y-50379427D01*
X114590745Y-50224819D01*
X114590746Y-50224819D01*
X114590748Y-50224818D01*
X114986993Y-50146000D01*
X115391007Y-50146000D01*
X115787252Y-50224818D01*
X115787252Y-50224818D01*
G37*
G36*
X153887252Y-50224818D02*
X153887254Y-50224819D01*
X153887255Y-50224819D01*
X154260513Y-50379427D01*
X154591905Y-50600857D01*
X154596439Y-50603886D01*
X154882114Y-50889561D01*
X154882116Y-50889564D01*
X155106573Y-51225487D01*
X155135780Y-51296000D01*
X155261182Y-51598748D01*
X155340000Y-51994993D01*
X155340000Y-52399007D01*
X155265936Y-52771354D01*
X155261181Y-52795255D01*
X155106573Y-53168513D01*
X155106572Y-53168514D01*
X154882114Y-53504439D01*
X154596439Y-53790114D01*
X154596436Y-53790116D01*
X154260513Y-54014573D01*
X153887255Y-54169181D01*
X153887254Y-54169181D01*
X153887252Y-54169182D01*
X153491007Y-54248000D01*
X153086993Y-54248000D01*
X152690748Y-54169182D01*
X152690746Y-54169181D01*
X152690745Y-54169181D01*
X152317487Y-54014573D01*
X151981564Y-53790116D01*
X151981561Y-53790114D01*
X151695886Y-53504439D01*
X151471428Y-53168514D01*
X151471427Y-53168513D01*
X151316819Y-52795255D01*
X151312065Y-52771354D01*
X151238000Y-52399007D01*
X151238000Y-51994993D01*
X151316818Y-51598748D01*
X151442220Y-51296000D01*
X151471427Y-51225487D01*
X151695884Y-50889564D01*
X151695886Y-50889561D01*
X151981561Y-50603886D01*
X151986095Y-50600857D01*
X152317487Y-50379427D01*
X152690745Y-50224819D01*
X152690746Y-50224819D01*
X152690748Y-50224818D01*
X153086993Y-50146000D01*
X153491007Y-50146000D01*
X153887252Y-50224818D01*
X153887252Y-50224818D01*
G37*
G36*
X134837252Y-50224818D02*
X134837254Y-50224819D01*
X134837255Y-50224819D01*
X135210513Y-50379427D01*
X135541905Y-50600857D01*
X135546439Y-50603886D01*
X135832114Y-50889561D01*
X135832116Y-50889564D01*
X136056573Y-51225487D01*
X136085780Y-51296000D01*
X136211182Y-51598748D01*
X136290000Y-51994993D01*
X136290000Y-52399007D01*
X136215936Y-52771354D01*
X136211181Y-52795255D01*
X136056573Y-53168513D01*
X136056572Y-53168514D01*
X135832114Y-53504439D01*
X135546439Y-53790114D01*
X135546436Y-53790116D01*
X135210513Y-54014573D01*
X134837255Y-54169181D01*
X134837254Y-54169181D01*
X134837252Y-54169182D01*
X134441007Y-54248000D01*
X134036993Y-54248000D01*
X133640748Y-54169182D01*
X133640746Y-54169181D01*
X133640745Y-54169181D01*
X133267487Y-54014573D01*
X132931564Y-53790116D01*
X132931561Y-53790114D01*
X132645886Y-53504439D01*
X132421428Y-53168514D01*
X132421427Y-53168513D01*
X132266819Y-52795255D01*
X132262065Y-52771354D01*
X132188000Y-52399007D01*
X132188000Y-51994993D01*
X132266818Y-51598748D01*
X132392220Y-51296000D01*
X132421427Y-51225487D01*
X132645884Y-50889564D01*
X132645886Y-50889561D01*
X132931561Y-50603886D01*
X132936095Y-50600857D01*
X133267487Y-50379427D01*
X133640745Y-50224819D01*
X133640746Y-50224819D01*
X133640748Y-50224818D01*
X134036993Y-50146000D01*
X134441007Y-50146000D01*
X134837252Y-50224818D01*
X134837252Y-50224818D01*
G37*
G36*
X110371812Y-51330624D02*
X110535784Y-51398544D01*
X110683354Y-51497147D01*
X110808853Y-51622646D01*
X110907456Y-51770216D01*
X110975376Y-51934188D01*
X111010000Y-52108259D01*
X111010000Y-52285741D01*
X110975376Y-52459812D01*
X110907456Y-52623784D01*
X110808853Y-52771354D01*
X110683354Y-52896853D01*
X110535784Y-52995456D01*
X110371812Y-53063376D01*
X110197741Y-53098000D01*
X110020259Y-53098000D01*
X109846188Y-53063376D01*
X109682216Y-52995456D01*
X109534646Y-52896853D01*
X109409147Y-52771354D01*
X109310544Y-52623784D01*
X109242624Y-52459812D01*
X109208000Y-52285741D01*
X109208000Y-52108259D01*
X109242624Y-51934188D01*
X109310544Y-51770216D01*
X109409147Y-51622646D01*
X109534646Y-51497147D01*
X109682216Y-51398544D01*
X109846188Y-51330624D01*
X110020259Y-51296000D01*
X110197741Y-51296000D01*
X110371812Y-51330624D01*
X110371812Y-51330624D01*
G37*
G36*
X177681812Y-51330624D02*
X177845784Y-51398544D01*
X177993354Y-51497147D01*
X178118853Y-51622646D01*
X178217456Y-51770216D01*
X178285376Y-51934188D01*
X178320000Y-52108259D01*
X178320000Y-52285741D01*
X178285376Y-52459812D01*
X178217456Y-52623784D01*
X178118853Y-52771354D01*
X177993354Y-52896853D01*
X177845784Y-52995456D01*
X177681812Y-53063376D01*
X177507741Y-53098000D01*
X177330259Y-53098000D01*
X177156188Y-53063376D01*
X176992216Y-52995456D01*
X176844646Y-52896853D01*
X176719147Y-52771354D01*
X176620544Y-52623784D01*
X176552624Y-52459812D01*
X176518000Y-52285741D01*
X176518000Y-52108259D01*
X176552624Y-51934188D01*
X176620544Y-51770216D01*
X176719147Y-51622646D01*
X176844646Y-51497147D01*
X176992216Y-51398544D01*
X177156188Y-51330624D01*
X177330259Y-51296000D01*
X177507741Y-51296000D01*
X177681812Y-51330624D01*
X177681812Y-51330624D01*
G37*
G36*
X120531812Y-51330624D02*
X120695784Y-51398544D01*
X120843354Y-51497147D01*
X120968853Y-51622646D01*
X121067456Y-51770216D01*
X121135376Y-51934188D01*
X121170000Y-52108259D01*
X121170000Y-52285741D01*
X121135376Y-52459812D01*
X121067456Y-52623784D01*
X120968853Y-52771354D01*
X120843354Y-52896853D01*
X120695784Y-52995456D01*
X120531812Y-53063376D01*
X120357741Y-53098000D01*
X120180259Y-53098000D01*
X120006188Y-53063376D01*
X119842216Y-52995456D01*
X119694646Y-52896853D01*
X119569147Y-52771354D01*
X119470544Y-52623784D01*
X119402624Y-52459812D01*
X119368000Y-52285741D01*
X119368000Y-52108259D01*
X119402624Y-51934188D01*
X119470544Y-51770216D01*
X119569147Y-51622646D01*
X119694646Y-51497147D01*
X119842216Y-51398544D01*
X120006188Y-51330624D01*
X120180259Y-51296000D01*
X120357741Y-51296000D01*
X120531812Y-51330624D01*
X120531812Y-51330624D01*
G37*
G36*
X129421812Y-51330624D02*
X129585784Y-51398544D01*
X129733354Y-51497147D01*
X129858853Y-51622646D01*
X129957456Y-51770216D01*
X130025376Y-51934188D01*
X130060000Y-52108259D01*
X130060000Y-52285741D01*
X130025376Y-52459812D01*
X129957456Y-52623784D01*
X129858853Y-52771354D01*
X129733354Y-52896853D01*
X129585784Y-52995456D01*
X129421812Y-53063376D01*
X129247741Y-53098000D01*
X129070259Y-53098000D01*
X128896188Y-53063376D01*
X128732216Y-52995456D01*
X128584646Y-52896853D01*
X128459147Y-52771354D01*
X128360544Y-52623784D01*
X128292624Y-52459812D01*
X128258000Y-52285741D01*
X128258000Y-52108259D01*
X128292624Y-51934188D01*
X128360544Y-51770216D01*
X128459147Y-51622646D01*
X128584646Y-51497147D01*
X128732216Y-51398544D01*
X128896188Y-51330624D01*
X129070259Y-51296000D01*
X129247741Y-51296000D01*
X129421812Y-51330624D01*
X129421812Y-51330624D01*
G37*
G36*
X167521812Y-51330624D02*
X167685784Y-51398544D01*
X167833354Y-51497147D01*
X167958853Y-51622646D01*
X168057456Y-51770216D01*
X168125376Y-51934188D01*
X168160000Y-52108259D01*
X168160000Y-52285741D01*
X168125376Y-52459812D01*
X168057456Y-52623784D01*
X167958853Y-52771354D01*
X167833354Y-52896853D01*
X167685784Y-52995456D01*
X167521812Y-53063376D01*
X167347741Y-53098000D01*
X167170259Y-53098000D01*
X166996188Y-53063376D01*
X166832216Y-52995456D01*
X166684646Y-52896853D01*
X166559147Y-52771354D01*
X166460544Y-52623784D01*
X166392624Y-52459812D01*
X166358000Y-52285741D01*
X166358000Y-52108259D01*
X166392624Y-51934188D01*
X166460544Y-51770216D01*
X166559147Y-51622646D01*
X166684646Y-51497147D01*
X166832216Y-51398544D01*
X166996188Y-51330624D01*
X167170259Y-51296000D01*
X167347741Y-51296000D01*
X167521812Y-51330624D01*
X167521812Y-51330624D01*
G37*
G36*
X139581812Y-51330624D02*
X139745784Y-51398544D01*
X139893354Y-51497147D01*
X140018853Y-51622646D01*
X140117456Y-51770216D01*
X140185376Y-51934188D01*
X140220000Y-52108259D01*
X140220000Y-52285741D01*
X140185376Y-52459812D01*
X140117456Y-52623784D01*
X140018853Y-52771354D01*
X139893354Y-52896853D01*
X139745784Y-52995456D01*
X139581812Y-53063376D01*
X139407741Y-53098000D01*
X139230259Y-53098000D01*
X139056188Y-53063376D01*
X138892216Y-52995456D01*
X138744646Y-52896853D01*
X138619147Y-52771354D01*
X138520544Y-52623784D01*
X138452624Y-52459812D01*
X138418000Y-52285741D01*
X138418000Y-52108259D01*
X138452624Y-51934188D01*
X138520544Y-51770216D01*
X138619147Y-51622646D01*
X138744646Y-51497147D01*
X138892216Y-51398544D01*
X139056188Y-51330624D01*
X139230259Y-51296000D01*
X139407741Y-51296000D01*
X139581812Y-51330624D01*
X139581812Y-51330624D01*
G37*
G36*
X158631812Y-51330624D02*
X158795784Y-51398544D01*
X158943354Y-51497147D01*
X159068853Y-51622646D01*
X159167456Y-51770216D01*
X159235376Y-51934188D01*
X159270000Y-52108259D01*
X159270000Y-52285741D01*
X159235376Y-52459812D01*
X159167456Y-52623784D01*
X159068853Y-52771354D01*
X158943354Y-52896853D01*
X158795784Y-52995456D01*
X158631812Y-53063376D01*
X158457741Y-53098000D01*
X158280259Y-53098000D01*
X158106188Y-53063376D01*
X157942216Y-52995456D01*
X157794646Y-52896853D01*
X157669147Y-52771354D01*
X157570544Y-52623784D01*
X157502624Y-52459812D01*
X157468000Y-52285741D01*
X157468000Y-52108259D01*
X157502624Y-51934188D01*
X157570544Y-51770216D01*
X157669147Y-51622646D01*
X157794646Y-51497147D01*
X157942216Y-51398544D01*
X158106188Y-51330624D01*
X158280259Y-51296000D01*
X158457741Y-51296000D01*
X158631812Y-51330624D01*
X158631812Y-51330624D01*
G37*
G36*
X148471812Y-51330624D02*
X148635784Y-51398544D01*
X148783354Y-51497147D01*
X148908853Y-51622646D01*
X149007456Y-51770216D01*
X149075376Y-51934188D01*
X149110000Y-52108259D01*
X149110000Y-52285741D01*
X149075376Y-52459812D01*
X149007456Y-52623784D01*
X148908853Y-52771354D01*
X148783354Y-52896853D01*
X148635784Y-52995456D01*
X148471812Y-53063376D01*
X148297741Y-53098000D01*
X148120259Y-53098000D01*
X147946188Y-53063376D01*
X147782216Y-52995456D01*
X147634646Y-52896853D01*
X147509147Y-52771354D01*
X147410544Y-52623784D01*
X147342624Y-52459812D01*
X147308000Y-52285741D01*
X147308000Y-52108259D01*
X147342624Y-51934188D01*
X147410544Y-51770216D01*
X147509147Y-51622646D01*
X147634646Y-51497147D01*
X147782216Y-51398544D01*
X147946188Y-51330624D01*
X148120259Y-51296000D01*
X148297741Y-51296000D01*
X148471812Y-51330624D01*
X148471812Y-51330624D01*
G37*
G36*
X149814734Y-48550232D02*
X150024202Y-48636996D01*
X150212723Y-48762962D01*
X150373038Y-48923277D01*
X150499004Y-49111798D01*
X150585768Y-49321266D01*
X150630000Y-49543635D01*
X150630000Y-49770365D01*
X150585768Y-49992734D01*
X150499004Y-50202202D01*
X150373038Y-50390723D01*
X150212723Y-50551038D01*
X150024202Y-50677004D01*
X149814734Y-50763768D01*
X149592365Y-50808000D01*
X149365635Y-50808000D01*
X149143266Y-50763768D01*
X148933798Y-50677004D01*
X148745277Y-50551038D01*
X148584962Y-50390723D01*
X148458996Y-50202202D01*
X148372232Y-49992734D01*
X148328000Y-49770365D01*
X148328000Y-49543635D01*
X148372232Y-49321266D01*
X148458996Y-49111798D01*
X148584962Y-48923277D01*
X148745277Y-48762962D01*
X148933798Y-48636996D01*
X149143266Y-48550232D01*
X149365635Y-48506000D01*
X149592365Y-48506000D01*
X149814734Y-48550232D01*
X149814734Y-48550232D01*
G37*
G36*
X130764734Y-48550232D02*
X130974202Y-48636996D01*
X131162723Y-48762962D01*
X131323038Y-48923277D01*
X131449004Y-49111798D01*
X131535768Y-49321266D01*
X131580000Y-49543635D01*
X131580000Y-49770365D01*
X131535768Y-49992734D01*
X131449004Y-50202202D01*
X131323038Y-50390723D01*
X131162723Y-50551038D01*
X130974202Y-50677004D01*
X130764734Y-50763768D01*
X130542365Y-50808000D01*
X130315635Y-50808000D01*
X130093266Y-50763768D01*
X129883798Y-50677004D01*
X129695277Y-50551038D01*
X129534962Y-50390723D01*
X129408996Y-50202202D01*
X129322232Y-49992734D01*
X129278000Y-49770365D01*
X129278000Y-49543635D01*
X129322232Y-49321266D01*
X129408996Y-49111798D01*
X129534962Y-48923277D01*
X129695277Y-48762962D01*
X129883798Y-48636996D01*
X130093266Y-48550232D01*
X130315635Y-48506000D01*
X130542365Y-48506000D01*
X130764734Y-48550232D01*
X130764734Y-48550232D01*
G37*
G36*
X111714734Y-48550232D02*
X111924202Y-48636996D01*
X112112723Y-48762962D01*
X112273038Y-48923277D01*
X112399004Y-49111798D01*
X112485768Y-49321266D01*
X112530000Y-49543635D01*
X112530000Y-49770365D01*
X112485768Y-49992734D01*
X112399004Y-50202202D01*
X112273038Y-50390723D01*
X112112723Y-50551038D01*
X111924202Y-50677004D01*
X111714734Y-50763768D01*
X111492365Y-50808000D01*
X111265635Y-50808000D01*
X111043266Y-50763768D01*
X110833798Y-50677004D01*
X110645277Y-50551038D01*
X110484962Y-50390723D01*
X110358996Y-50202202D01*
X110272232Y-49992734D01*
X110228000Y-49770365D01*
X110228000Y-49543635D01*
X110272232Y-49321266D01*
X110358996Y-49111798D01*
X110484962Y-48923277D01*
X110645277Y-48762962D01*
X110833798Y-48636996D01*
X111043266Y-48550232D01*
X111265635Y-48506000D01*
X111492365Y-48506000D01*
X111714734Y-48550232D01*
X111714734Y-48550232D01*
G37*
G36*
X168864734Y-48550232D02*
X169074202Y-48636996D01*
X169262723Y-48762962D01*
X169423038Y-48923277D01*
X169549004Y-49111798D01*
X169635768Y-49321266D01*
X169680000Y-49543635D01*
X169680000Y-49770365D01*
X169635768Y-49992734D01*
X169549004Y-50202202D01*
X169423038Y-50390723D01*
X169262723Y-50551038D01*
X169074202Y-50677004D01*
X168864734Y-50763768D01*
X168642365Y-50808000D01*
X168415635Y-50808000D01*
X168193266Y-50763768D01*
X167983798Y-50677004D01*
X167795277Y-50551038D01*
X167634962Y-50390723D01*
X167508996Y-50202202D01*
X167422232Y-49992734D01*
X167378000Y-49770365D01*
X167378000Y-49543635D01*
X167422232Y-49321266D01*
X167508996Y-49111798D01*
X167634962Y-48923277D01*
X167795277Y-48762962D01*
X167983798Y-48636996D01*
X168193266Y-48550232D01*
X168415635Y-48506000D01*
X168642365Y-48506000D01*
X168864734Y-48550232D01*
X168864734Y-48550232D01*
G37*
G36*
X175214734Y-46010232D02*
X175424202Y-46096996D01*
X175612723Y-46222962D01*
X175773038Y-46383277D01*
X175899004Y-46571798D01*
X175985768Y-46781266D01*
X176030000Y-47003635D01*
X176030000Y-47230365D01*
X175985768Y-47452734D01*
X175899004Y-47662202D01*
X175773038Y-47850723D01*
X175612723Y-48011038D01*
X175424202Y-48137004D01*
X175214734Y-48223768D01*
X174992365Y-48268000D01*
X174765635Y-48268000D01*
X174543266Y-48223768D01*
X174333798Y-48137004D01*
X174145277Y-48011038D01*
X173984962Y-47850723D01*
X173858996Y-47662202D01*
X173772232Y-47452734D01*
X173728000Y-47230365D01*
X173728000Y-47003635D01*
X173772232Y-46781266D01*
X173858996Y-46571798D01*
X173984962Y-46383277D01*
X174145277Y-46222962D01*
X174333798Y-46096996D01*
X174543266Y-46010232D01*
X174765635Y-45966000D01*
X174992365Y-45966000D01*
X175214734Y-46010232D01*
X175214734Y-46010232D01*
G37*
G36*
X156164734Y-46010232D02*
X156374202Y-46096996D01*
X156562723Y-46222962D01*
X156723038Y-46383277D01*
X156849004Y-46571798D01*
X156935768Y-46781266D01*
X156980000Y-47003635D01*
X156980000Y-47230365D01*
X156935768Y-47452734D01*
X156849004Y-47662202D01*
X156723038Y-47850723D01*
X156562723Y-48011038D01*
X156374202Y-48137004D01*
X156164734Y-48223768D01*
X155942365Y-48268000D01*
X155715635Y-48268000D01*
X155493266Y-48223768D01*
X155283798Y-48137004D01*
X155095277Y-48011038D01*
X154934962Y-47850723D01*
X154808996Y-47662202D01*
X154722232Y-47452734D01*
X154678000Y-47230365D01*
X154678000Y-47003635D01*
X154722232Y-46781266D01*
X154808996Y-46571798D01*
X154934962Y-46383277D01*
X155095277Y-46222962D01*
X155283798Y-46096996D01*
X155493266Y-46010232D01*
X155715635Y-45966000D01*
X155942365Y-45966000D01*
X156164734Y-46010232D01*
X156164734Y-46010232D01*
G37*
G36*
X137114734Y-46010232D02*
X137324202Y-46096996D01*
X137512723Y-46222962D01*
X137673038Y-46383277D01*
X137799004Y-46571798D01*
X137885768Y-46781266D01*
X137930000Y-47003635D01*
X137930000Y-47230365D01*
X137885768Y-47452734D01*
X137799004Y-47662202D01*
X137673038Y-47850723D01*
X137512723Y-48011038D01*
X137324202Y-48137004D01*
X137114734Y-48223768D01*
X136892365Y-48268000D01*
X136665635Y-48268000D01*
X136443266Y-48223768D01*
X136233798Y-48137004D01*
X136045277Y-48011038D01*
X135884962Y-47850723D01*
X135758996Y-47662202D01*
X135672232Y-47452734D01*
X135628000Y-47230365D01*
X135628000Y-47003635D01*
X135672232Y-46781266D01*
X135758996Y-46571798D01*
X135884962Y-46383277D01*
X136045277Y-46222962D01*
X136233798Y-46096996D01*
X136443266Y-46010232D01*
X136665635Y-45966000D01*
X136892365Y-45966000D01*
X137114734Y-46010232D01*
X137114734Y-46010232D01*
G37*
G36*
X118064734Y-46010232D02*
X118274202Y-46096996D01*
X118462723Y-46222962D01*
X118623038Y-46383277D01*
X118749004Y-46571798D01*
X118835768Y-46781266D01*
X118880000Y-47003635D01*
X118880000Y-47230365D01*
X118835768Y-47452734D01*
X118749004Y-47662202D01*
X118623038Y-47850723D01*
X118462723Y-48011038D01*
X118274202Y-48137004D01*
X118064734Y-48223768D01*
X117842365Y-48268000D01*
X117615635Y-48268000D01*
X117393266Y-48223768D01*
X117183798Y-48137004D01*
X116995277Y-48011038D01*
X116834962Y-47850723D01*
X116708996Y-47662202D01*
X116622232Y-47452734D01*
X116578000Y-47230365D01*
X116578000Y-47003635D01*
X116622232Y-46781266D01*
X116708996Y-46571798D01*
X116834962Y-46383277D01*
X116995277Y-46222962D01*
X117183798Y-46096996D01*
X117393266Y-46010232D01*
X117615635Y-45966000D01*
X117842365Y-45966000D01*
X118064734Y-46010232D01*
X118064734Y-46010232D01*
G37*
G36*
X157719563Y-42618292D02*
X157823427Y-42649798D01*
X157919149Y-42700963D01*
X158003050Y-42769818D01*
X158071905Y-42853719D01*
X158123070Y-42949440D01*
X158154576Y-43053304D01*
X158162549Y-43134252D01*
X158162549Y-44288386D01*
X158154576Y-44369334D01*
X158123070Y-44473198D01*
X158071905Y-44568919D01*
X158003050Y-44652820D01*
X157919149Y-44721675D01*
X157823428Y-44772840D01*
X157719564Y-44804346D01*
X157611549Y-44814985D01*
X157503535Y-44804346D01*
X157399671Y-44772840D01*
X157303950Y-44721675D01*
X157220049Y-44652820D01*
X157151194Y-44568919D01*
X157100029Y-44473198D01*
X157068523Y-44369334D01*
X157060550Y-44288386D01*
X157060549Y-43134253D01*
X157068522Y-43053305D01*
X157100028Y-42949441D01*
X157151193Y-42853719D01*
X157220048Y-42769818D01*
X157303949Y-42700963D01*
X157399670Y-42649798D01*
X157503534Y-42618292D01*
X157611549Y-42607653D01*
X157719563Y-42618292D01*
X157719563Y-42618292D01*
G37*
G36*
X166359563Y-42618292D02*
X166463427Y-42649798D01*
X166559149Y-42700963D01*
X166643050Y-42769818D01*
X166711905Y-42853719D01*
X166763070Y-42949440D01*
X166794576Y-43053304D01*
X166802549Y-43134252D01*
X166802549Y-44288386D01*
X166794576Y-44369334D01*
X166763070Y-44473198D01*
X166711905Y-44568919D01*
X166643050Y-44652820D01*
X166559149Y-44721675D01*
X166463428Y-44772840D01*
X166359564Y-44804346D01*
X166251549Y-44814985D01*
X166143535Y-44804346D01*
X166039671Y-44772840D01*
X165943950Y-44721675D01*
X165860049Y-44652820D01*
X165791194Y-44568919D01*
X165740029Y-44473198D01*
X165708523Y-44369334D01*
X165700550Y-44288386D01*
X165700549Y-43134253D01*
X165708522Y-43053305D01*
X165740028Y-42949441D01*
X165791193Y-42853719D01*
X165860048Y-42769818D01*
X165943949Y-42700963D01*
X166039670Y-42649798D01*
X166143534Y-42618292D01*
X166251549Y-42607653D01*
X166359563Y-42618292D01*
X166359563Y-42618292D01*
G37*
G36*
X159151221Y-42819768D02*
X159151223Y-42819769D01*
X159151224Y-42819769D01*
X159219652Y-42848112D01*
X159280958Y-42889076D01*
X159281238Y-42889263D01*
X159333605Y-42941630D01*
X159333607Y-42941633D01*
X159374756Y-43003216D01*
X159403099Y-43071644D01*
X159403100Y-43071647D01*
X159417549Y-43144285D01*
X159417549Y-43218352D01*
X159403099Y-43290994D01*
X159374756Y-43359422D01*
X159333792Y-43420728D01*
X159333605Y-43421008D01*
X159281238Y-43473375D01*
X159281235Y-43473377D01*
X159219652Y-43514526D01*
X159151224Y-43542869D01*
X159151223Y-43542869D01*
X159151221Y-43542870D01*
X159078583Y-43557319D01*
X159004515Y-43557319D01*
X158931877Y-43542870D01*
X158931875Y-43542869D01*
X158931874Y-43542869D01*
X158863446Y-43514526D01*
X158801863Y-43473377D01*
X158801860Y-43473375D01*
X158749493Y-43421008D01*
X158749306Y-43420728D01*
X158708342Y-43359422D01*
X158679999Y-43290994D01*
X158665549Y-43218352D01*
X158665549Y-43144285D01*
X158679998Y-43071647D01*
X158679999Y-43071644D01*
X158708342Y-43003216D01*
X158749491Y-42941633D01*
X158749493Y-42941630D01*
X158801860Y-42889263D01*
X158802140Y-42889076D01*
X158863446Y-42848112D01*
X158931874Y-42819769D01*
X158931875Y-42819769D01*
X158931877Y-42819768D01*
X159004515Y-42805319D01*
X159078583Y-42805319D01*
X159151221Y-42819768D01*
X159151221Y-42819768D01*
G37*
G36*
X164931221Y-42819768D02*
X164931223Y-42819769D01*
X164931224Y-42819769D01*
X164999652Y-42848112D01*
X165060958Y-42889076D01*
X165061238Y-42889263D01*
X165113605Y-42941630D01*
X165113607Y-42941633D01*
X165154756Y-43003216D01*
X165183099Y-43071644D01*
X165183100Y-43071647D01*
X165197549Y-43144285D01*
X165197549Y-43218352D01*
X165183099Y-43290994D01*
X165154756Y-43359422D01*
X165113792Y-43420728D01*
X165113605Y-43421008D01*
X165061238Y-43473375D01*
X165061235Y-43473377D01*
X164999652Y-43514526D01*
X164931224Y-43542869D01*
X164931223Y-43542869D01*
X164931221Y-43542870D01*
X164858583Y-43557319D01*
X164784515Y-43557319D01*
X164711877Y-43542870D01*
X164711875Y-43542869D01*
X164711874Y-43542869D01*
X164643446Y-43514526D01*
X164581863Y-43473377D01*
X164581860Y-43473375D01*
X164529493Y-43421008D01*
X164529306Y-43420728D01*
X164488342Y-43359422D01*
X164459999Y-43290994D01*
X164445549Y-43218352D01*
X164445549Y-43144285D01*
X164459998Y-43071647D01*
X164459999Y-43071644D01*
X164488342Y-43003216D01*
X164529491Y-42941633D01*
X164529493Y-42941630D01*
X164581860Y-42889263D01*
X164582140Y-42889076D01*
X164643446Y-42848112D01*
X164711874Y-42819769D01*
X164711875Y-42819769D01*
X164711877Y-42819768D01*
X164784515Y-42805319D01*
X164858583Y-42805319D01*
X164931221Y-42819768D01*
X164931221Y-42819768D01*
G37*
G36*
X157719563Y-38688292D02*
X157823427Y-38719798D01*
X157919149Y-38770963D01*
X158003050Y-38839818D01*
X158071905Y-38923719D01*
X158123070Y-39019440D01*
X158154576Y-39123304D01*
X158162549Y-39204252D01*
X158162549Y-39858386D01*
X158154576Y-39939334D01*
X158123070Y-40043198D01*
X158071905Y-40138919D01*
X158003050Y-40222820D01*
X157919149Y-40291675D01*
X157823428Y-40342840D01*
X157719564Y-40374346D01*
X157611549Y-40384985D01*
X157503535Y-40374346D01*
X157399671Y-40342840D01*
X157303950Y-40291675D01*
X157220049Y-40222820D01*
X157151194Y-40138919D01*
X157100029Y-40043198D01*
X157068522Y-39939334D01*
X157060549Y-39858386D01*
X157060549Y-39204253D01*
X157068522Y-39123305D01*
X157100028Y-39019441D01*
X157151193Y-38923719D01*
X157220048Y-38839818D01*
X157303949Y-38770963D01*
X157399670Y-38719798D01*
X157503534Y-38688292D01*
X157611549Y-38677653D01*
X157719563Y-38688292D01*
X157719563Y-38688292D01*
G37*
G36*
X166359563Y-38688292D02*
X166463427Y-38719798D01*
X166559149Y-38770963D01*
X166643050Y-38839818D01*
X166711905Y-38923719D01*
X166763070Y-39019440D01*
X166794576Y-39123304D01*
X166802549Y-39204252D01*
X166802549Y-39858386D01*
X166794576Y-39939334D01*
X166763070Y-40043198D01*
X166711905Y-40138919D01*
X166643050Y-40222820D01*
X166559149Y-40291675D01*
X166463428Y-40342840D01*
X166359564Y-40374346D01*
X166251549Y-40384985D01*
X166143535Y-40374346D01*
X166039671Y-40342840D01*
X165943950Y-40291675D01*
X165860049Y-40222820D01*
X165791194Y-40138919D01*
X165740029Y-40043198D01*
X165708522Y-39939334D01*
X165700549Y-39858386D01*
X165700549Y-39204253D01*
X165708522Y-39123305D01*
X165740028Y-39019441D01*
X165791193Y-38923719D01*
X165860048Y-38839818D01*
X165943949Y-38770963D01*
X166039670Y-38719798D01*
X166143534Y-38688292D01*
X166251549Y-38677653D01*
X166359563Y-38688292D01*
X166359563Y-38688292D01*
G37*
M02*
