G04 #@! TF.GenerationSoftware,KiCad,Pcbnew,(5.0.1)-3*
G04 #@! TF.CreationDate,2019-05-14T07:32:29-04:00*
G04 #@! TF.ProjectId,mulletpad-pcb,6D756C6C65747061642D7063622E6B69,rev?*
G04 #@! TF.SameCoordinates,Original*
G04 #@! TF.FileFunction,Paste,Bot*
G04 #@! TF.FilePolarity,Positive*
%FSLAX46Y46*%
G04 Gerber Fmt 4.6, Leading zero omitted, Abs format (unit mm)*
G04 Created by KiCad (PCBNEW (5.0.1)-3) date 5/14/2019 7:32:29 AM*
%MOMM*%
%LPD*%
G01*
G04 APERTURE LIST*
%ADD10C,0.100000*%
%ADD11C,0.875000*%
%ADD12R,0.700000X0.600000*%
%ADD13R,0.700000X1.000000*%
%ADD14R,1.200000X0.900000*%
%ADD15R,1.700000X1.000000*%
%ADD16R,1.400000X1.200000*%
%ADD17C,1.050000*%
%ADD18C,0.250000*%
%ADD19R,0.300000X2.450000*%
%ADD20R,0.600000X2.450000*%
%ADD21C,0.975000*%
G04 APERTURE END LIST*
D10*
G04 #@! TO.C,C2*
G36*
X171719829Y-56466071D02*
X171741064Y-56469221D01*
X171761888Y-56474437D01*
X171782100Y-56481669D01*
X171801506Y-56490848D01*
X171819919Y-56501884D01*
X171837162Y-56514672D01*
X171853068Y-56529088D01*
X171867484Y-56544994D01*
X171880272Y-56562237D01*
X171891308Y-56580650D01*
X171900487Y-56600056D01*
X171907719Y-56620268D01*
X171912935Y-56641092D01*
X171916085Y-56662327D01*
X171917138Y-56683768D01*
X171917138Y-57121268D01*
X171916085Y-57142709D01*
X171912935Y-57163944D01*
X171907719Y-57184768D01*
X171900487Y-57204980D01*
X171891308Y-57224386D01*
X171880272Y-57242799D01*
X171867484Y-57260042D01*
X171853068Y-57275948D01*
X171837162Y-57290364D01*
X171819919Y-57303152D01*
X171801506Y-57314188D01*
X171782100Y-57323367D01*
X171761888Y-57330599D01*
X171741064Y-57335815D01*
X171719829Y-57338965D01*
X171698388Y-57340018D01*
X171185888Y-57340018D01*
X171164447Y-57338965D01*
X171143212Y-57335815D01*
X171122388Y-57330599D01*
X171102176Y-57323367D01*
X171082770Y-57314188D01*
X171064357Y-57303152D01*
X171047114Y-57290364D01*
X171031208Y-57275948D01*
X171016792Y-57260042D01*
X171004004Y-57242799D01*
X170992968Y-57224386D01*
X170983789Y-57204980D01*
X170976557Y-57184768D01*
X170971341Y-57163944D01*
X170968191Y-57142709D01*
X170967138Y-57121268D01*
X170967138Y-56683768D01*
X170968191Y-56662327D01*
X170971341Y-56641092D01*
X170976557Y-56620268D01*
X170983789Y-56600056D01*
X170992968Y-56580650D01*
X171004004Y-56562237D01*
X171016792Y-56544994D01*
X171031208Y-56529088D01*
X171047114Y-56514672D01*
X171064357Y-56501884D01*
X171082770Y-56490848D01*
X171102176Y-56481669D01*
X171122388Y-56474437D01*
X171143212Y-56469221D01*
X171164447Y-56466071D01*
X171185888Y-56465018D01*
X171698388Y-56465018D01*
X171719829Y-56466071D01*
X171719829Y-56466071D01*
G37*
D11*
X171442138Y-56902518D03*
D10*
G36*
X171719829Y-54891069D02*
X171741064Y-54894219D01*
X171761888Y-54899435D01*
X171782100Y-54906667D01*
X171801506Y-54915846D01*
X171819919Y-54926882D01*
X171837162Y-54939670D01*
X171853068Y-54954086D01*
X171867484Y-54969992D01*
X171880272Y-54987235D01*
X171891308Y-55005648D01*
X171900487Y-55025054D01*
X171907719Y-55045266D01*
X171912935Y-55066090D01*
X171916085Y-55087325D01*
X171917138Y-55108766D01*
X171917138Y-55546266D01*
X171916085Y-55567707D01*
X171912935Y-55588942D01*
X171907719Y-55609766D01*
X171900487Y-55629978D01*
X171891308Y-55649384D01*
X171880272Y-55667797D01*
X171867484Y-55685040D01*
X171853068Y-55700946D01*
X171837162Y-55715362D01*
X171819919Y-55728150D01*
X171801506Y-55739186D01*
X171782100Y-55748365D01*
X171761888Y-55755597D01*
X171741064Y-55760813D01*
X171719829Y-55763963D01*
X171698388Y-55765016D01*
X171185888Y-55765016D01*
X171164447Y-55763963D01*
X171143212Y-55760813D01*
X171122388Y-55755597D01*
X171102176Y-55748365D01*
X171082770Y-55739186D01*
X171064357Y-55728150D01*
X171047114Y-55715362D01*
X171031208Y-55700946D01*
X171016792Y-55685040D01*
X171004004Y-55667797D01*
X170992968Y-55649384D01*
X170983789Y-55629978D01*
X170976557Y-55609766D01*
X170971341Y-55588942D01*
X170968191Y-55567707D01*
X170967138Y-55546266D01*
X170967138Y-55108766D01*
X170968191Y-55087325D01*
X170971341Y-55066090D01*
X170976557Y-55045266D01*
X170983789Y-55025054D01*
X170992968Y-55005648D01*
X171004004Y-54987235D01*
X171016792Y-54969992D01*
X171031208Y-54954086D01*
X171047114Y-54939670D01*
X171064357Y-54926882D01*
X171082770Y-54915846D01*
X171102176Y-54906667D01*
X171122388Y-54899435D01*
X171143212Y-54894219D01*
X171164447Y-54891069D01*
X171185888Y-54890016D01*
X171698388Y-54890016D01*
X171719829Y-54891069D01*
X171719829Y-54891069D01*
G37*
D11*
X171442138Y-55327516D03*
G04 #@! TD*
D12*
G04 #@! TO.C,U2*
X161465835Y-51185801D03*
X163465835Y-51185801D03*
X161465835Y-49285801D03*
D13*
X163465835Y-49485801D03*
G04 #@! TD*
D14*
G04 #@! TO.C,D1*
X112066000Y-59106500D03*
X112066000Y-55806500D03*
G04 #@! TD*
G04 #@! TO.C,D2*
X123253564Y-72200592D03*
X123253564Y-68900592D03*
G04 #@! TD*
G04 #@! TO.C,D3*
X111812000Y-97588500D03*
X111812000Y-94288500D03*
G04 #@! TD*
G04 #@! TO.C,D4*
X112066000Y-112448000D03*
X112066000Y-115748000D03*
G04 #@! TD*
G04 #@! TO.C,D5*
X121521295Y-134929727D03*
X121521295Y-131629727D03*
G04 #@! TD*
G04 #@! TO.C,D6*
X131116000Y-55806500D03*
X131116000Y-59106500D03*
G04 #@! TD*
G04 #@! TO.C,D7*
X142361016Y-69058071D03*
X142361016Y-72358071D03*
G04 #@! TD*
G04 #@! TO.C,D8*
X131370000Y-94414500D03*
X131370000Y-97714500D03*
G04 #@! TD*
G04 #@! TO.C,D9*
X131116000Y-116002000D03*
X131116000Y-112702000D03*
G04 #@! TD*
G04 #@! TO.C,D10*
X150166000Y-59106500D03*
X150166000Y-55806500D03*
G04 #@! TD*
G04 #@! TO.C,D11*
X145353117Y-69110564D03*
X145353117Y-72410564D03*
G04 #@! TD*
G04 #@! TO.C,D12*
X150166000Y-97714500D03*
X150166000Y-94414500D03*
G04 #@! TD*
G04 #@! TO.C,D13*
X150166000Y-112702000D03*
X150166000Y-116002000D03*
G04 #@! TD*
G04 #@! TO.C,D14*
X149912000Y-134798000D03*
X149912000Y-131498000D03*
G04 #@! TD*
G04 #@! TO.C,D15*
X178106493Y-46408493D03*
X178106493Y-49708493D03*
G04 #@! TD*
G04 #@! TO.C,D16*
X176074493Y-91618493D03*
X176074493Y-88318493D03*
G04 #@! TD*
G04 #@! TO.C,D17*
X177216368Y-122233480D03*
X177216368Y-125533480D03*
G04 #@! TD*
D10*
G04 #@! TO.C,R1*
G36*
X158911537Y-48119473D02*
X158932772Y-48122623D01*
X158953596Y-48127839D01*
X158973808Y-48135071D01*
X158993214Y-48144250D01*
X159011627Y-48155286D01*
X159028870Y-48168074D01*
X159044776Y-48182490D01*
X159059192Y-48198396D01*
X159071980Y-48215639D01*
X159083016Y-48234052D01*
X159092195Y-48253458D01*
X159099427Y-48273670D01*
X159104643Y-48294494D01*
X159107793Y-48315729D01*
X159108846Y-48337170D01*
X159108846Y-48774670D01*
X159107793Y-48796111D01*
X159104643Y-48817346D01*
X159099427Y-48838170D01*
X159092195Y-48858382D01*
X159083016Y-48877788D01*
X159071980Y-48896201D01*
X159059192Y-48913444D01*
X159044776Y-48929350D01*
X159028870Y-48943766D01*
X159011627Y-48956554D01*
X158993214Y-48967590D01*
X158973808Y-48976769D01*
X158953596Y-48984001D01*
X158932772Y-48989217D01*
X158911537Y-48992367D01*
X158890096Y-48993420D01*
X158377596Y-48993420D01*
X158356155Y-48992367D01*
X158334920Y-48989217D01*
X158314096Y-48984001D01*
X158293884Y-48976769D01*
X158274478Y-48967590D01*
X158256065Y-48956554D01*
X158238822Y-48943766D01*
X158222916Y-48929350D01*
X158208500Y-48913444D01*
X158195712Y-48896201D01*
X158184676Y-48877788D01*
X158175497Y-48858382D01*
X158168265Y-48838170D01*
X158163049Y-48817346D01*
X158159899Y-48796111D01*
X158158846Y-48774670D01*
X158158846Y-48337170D01*
X158159899Y-48315729D01*
X158163049Y-48294494D01*
X158168265Y-48273670D01*
X158175497Y-48253458D01*
X158184676Y-48234052D01*
X158195712Y-48215639D01*
X158208500Y-48198396D01*
X158222916Y-48182490D01*
X158238822Y-48168074D01*
X158256065Y-48155286D01*
X158274478Y-48144250D01*
X158293884Y-48135071D01*
X158314096Y-48127839D01*
X158334920Y-48122623D01*
X158356155Y-48119473D01*
X158377596Y-48118420D01*
X158890096Y-48118420D01*
X158911537Y-48119473D01*
X158911537Y-48119473D01*
G37*
D11*
X158633846Y-48555920D03*
D10*
G36*
X158911537Y-49694473D02*
X158932772Y-49697623D01*
X158953596Y-49702839D01*
X158973808Y-49710071D01*
X158993214Y-49719250D01*
X159011627Y-49730286D01*
X159028870Y-49743074D01*
X159044776Y-49757490D01*
X159059192Y-49773396D01*
X159071980Y-49790639D01*
X159083016Y-49809052D01*
X159092195Y-49828458D01*
X159099427Y-49848670D01*
X159104643Y-49869494D01*
X159107793Y-49890729D01*
X159108846Y-49912170D01*
X159108846Y-50349670D01*
X159107793Y-50371111D01*
X159104643Y-50392346D01*
X159099427Y-50413170D01*
X159092195Y-50433382D01*
X159083016Y-50452788D01*
X159071980Y-50471201D01*
X159059192Y-50488444D01*
X159044776Y-50504350D01*
X159028870Y-50518766D01*
X159011627Y-50531554D01*
X158993214Y-50542590D01*
X158973808Y-50551769D01*
X158953596Y-50559001D01*
X158932772Y-50564217D01*
X158911537Y-50567367D01*
X158890096Y-50568420D01*
X158377596Y-50568420D01*
X158356155Y-50567367D01*
X158334920Y-50564217D01*
X158314096Y-50559001D01*
X158293884Y-50551769D01*
X158274478Y-50542590D01*
X158256065Y-50531554D01*
X158238822Y-50518766D01*
X158222916Y-50504350D01*
X158208500Y-50488444D01*
X158195712Y-50471201D01*
X158184676Y-50452788D01*
X158175497Y-50433382D01*
X158168265Y-50413170D01*
X158163049Y-50392346D01*
X158159899Y-50371111D01*
X158158846Y-50349670D01*
X158158846Y-49912170D01*
X158159899Y-49890729D01*
X158163049Y-49869494D01*
X158168265Y-49848670D01*
X158175497Y-49828458D01*
X158184676Y-49809052D01*
X158195712Y-49790639D01*
X158208500Y-49773396D01*
X158222916Y-49757490D01*
X158238822Y-49743074D01*
X158256065Y-49730286D01*
X158274478Y-49719250D01*
X158293884Y-49710071D01*
X158314096Y-49702839D01*
X158334920Y-49697623D01*
X158356155Y-49694473D01*
X158377596Y-49693420D01*
X158890096Y-49693420D01*
X158911537Y-49694473D01*
X158911537Y-49694473D01*
G37*
D11*
X158633846Y-50130920D03*
G04 #@! TD*
D10*
G04 #@! TO.C,R2*
G36*
X165788120Y-49694473D02*
X165809355Y-49697623D01*
X165830179Y-49702839D01*
X165850391Y-49710071D01*
X165869797Y-49719250D01*
X165888210Y-49730286D01*
X165905453Y-49743074D01*
X165921359Y-49757490D01*
X165935775Y-49773396D01*
X165948563Y-49790639D01*
X165959599Y-49809052D01*
X165968778Y-49828458D01*
X165976010Y-49848670D01*
X165981226Y-49869494D01*
X165984376Y-49890729D01*
X165985429Y-49912170D01*
X165985429Y-50349670D01*
X165984376Y-50371111D01*
X165981226Y-50392346D01*
X165976010Y-50413170D01*
X165968778Y-50433382D01*
X165959599Y-50452788D01*
X165948563Y-50471201D01*
X165935775Y-50488444D01*
X165921359Y-50504350D01*
X165905453Y-50518766D01*
X165888210Y-50531554D01*
X165869797Y-50542590D01*
X165850391Y-50551769D01*
X165830179Y-50559001D01*
X165809355Y-50564217D01*
X165788120Y-50567367D01*
X165766679Y-50568420D01*
X165254179Y-50568420D01*
X165232738Y-50567367D01*
X165211503Y-50564217D01*
X165190679Y-50559001D01*
X165170467Y-50551769D01*
X165151061Y-50542590D01*
X165132648Y-50531554D01*
X165115405Y-50518766D01*
X165099499Y-50504350D01*
X165085083Y-50488444D01*
X165072295Y-50471201D01*
X165061259Y-50452788D01*
X165052080Y-50433382D01*
X165044848Y-50413170D01*
X165039632Y-50392346D01*
X165036482Y-50371111D01*
X165035429Y-50349670D01*
X165035429Y-49912170D01*
X165036482Y-49890729D01*
X165039632Y-49869494D01*
X165044848Y-49848670D01*
X165052080Y-49828458D01*
X165061259Y-49809052D01*
X165072295Y-49790639D01*
X165085083Y-49773396D01*
X165099499Y-49757490D01*
X165115405Y-49743074D01*
X165132648Y-49730286D01*
X165151061Y-49719250D01*
X165170467Y-49710071D01*
X165190679Y-49702839D01*
X165211503Y-49697623D01*
X165232738Y-49694473D01*
X165254179Y-49693420D01*
X165766679Y-49693420D01*
X165788120Y-49694473D01*
X165788120Y-49694473D01*
G37*
D11*
X165510429Y-50130920D03*
D10*
G36*
X165788120Y-48119473D02*
X165809355Y-48122623D01*
X165830179Y-48127839D01*
X165850391Y-48135071D01*
X165869797Y-48144250D01*
X165888210Y-48155286D01*
X165905453Y-48168074D01*
X165921359Y-48182490D01*
X165935775Y-48198396D01*
X165948563Y-48215639D01*
X165959599Y-48234052D01*
X165968778Y-48253458D01*
X165976010Y-48273670D01*
X165981226Y-48294494D01*
X165984376Y-48315729D01*
X165985429Y-48337170D01*
X165985429Y-48774670D01*
X165984376Y-48796111D01*
X165981226Y-48817346D01*
X165976010Y-48838170D01*
X165968778Y-48858382D01*
X165959599Y-48877788D01*
X165948563Y-48896201D01*
X165935775Y-48913444D01*
X165921359Y-48929350D01*
X165905453Y-48943766D01*
X165888210Y-48956554D01*
X165869797Y-48967590D01*
X165850391Y-48976769D01*
X165830179Y-48984001D01*
X165809355Y-48989217D01*
X165788120Y-48992367D01*
X165766679Y-48993420D01*
X165254179Y-48993420D01*
X165232738Y-48992367D01*
X165211503Y-48989217D01*
X165190679Y-48984001D01*
X165170467Y-48976769D01*
X165151061Y-48967590D01*
X165132648Y-48956554D01*
X165115405Y-48943766D01*
X165099499Y-48929350D01*
X165085083Y-48913444D01*
X165072295Y-48896201D01*
X165061259Y-48877788D01*
X165052080Y-48858382D01*
X165044848Y-48838170D01*
X165039632Y-48817346D01*
X165036482Y-48796111D01*
X165035429Y-48774670D01*
X165035429Y-48337170D01*
X165036482Y-48315729D01*
X165039632Y-48294494D01*
X165044848Y-48273670D01*
X165052080Y-48253458D01*
X165061259Y-48234052D01*
X165072295Y-48215639D01*
X165085083Y-48198396D01*
X165099499Y-48182490D01*
X165115405Y-48168074D01*
X165132648Y-48155286D01*
X165151061Y-48144250D01*
X165170467Y-48135071D01*
X165190679Y-48127839D01*
X165211503Y-48122623D01*
X165232738Y-48119473D01*
X165254179Y-48118420D01*
X165766679Y-48118420D01*
X165788120Y-48119473D01*
X165788120Y-48119473D01*
G37*
D11*
X165510429Y-48555920D03*
G04 #@! TD*
D15*
G04 #@! TO.C,RESET1*
X169551970Y-103578941D03*
X175851970Y-103578941D03*
X169551970Y-99778941D03*
X175851970Y-99778941D03*
G04 #@! TD*
D16*
G04 #@! TO.C,X1*
X173654183Y-57122496D03*
X176054183Y-57122496D03*
X173654183Y-55422496D03*
X176054183Y-55422496D03*
G04 #@! TD*
D10*
G04 #@! TO.C,U1*
G36*
X171313940Y-65205199D02*
X171338208Y-65208799D01*
X171362007Y-65214760D01*
X171385106Y-65223025D01*
X171407285Y-65233515D01*
X171428328Y-65246127D01*
X171448034Y-65260742D01*
X171466212Y-65277218D01*
X171482688Y-65295396D01*
X171497303Y-65315102D01*
X171509915Y-65336145D01*
X171520405Y-65358324D01*
X171528670Y-65381423D01*
X171534631Y-65405222D01*
X171538231Y-65429490D01*
X171539435Y-65453994D01*
X171539435Y-66003996D01*
X171538231Y-66028500D01*
X171534631Y-66052768D01*
X171528670Y-66076567D01*
X171520405Y-66099666D01*
X171509915Y-66121845D01*
X171497303Y-66142888D01*
X171482688Y-66162594D01*
X171466212Y-66180772D01*
X171448034Y-66197248D01*
X171428328Y-66211863D01*
X171407285Y-66224475D01*
X171385106Y-66234965D01*
X171362007Y-66243230D01*
X171338208Y-66249191D01*
X171313940Y-66252791D01*
X171289436Y-66253995D01*
X170739434Y-66253995D01*
X170714930Y-66252791D01*
X170690662Y-66249191D01*
X170666863Y-66243230D01*
X170643764Y-66234965D01*
X170621585Y-66224475D01*
X170600542Y-66211863D01*
X170580836Y-66197248D01*
X170562658Y-66180772D01*
X170546182Y-66162594D01*
X170531567Y-66142888D01*
X170518955Y-66121845D01*
X170508465Y-66099666D01*
X170500200Y-66076567D01*
X170494239Y-66052768D01*
X170490639Y-66028500D01*
X170489435Y-66003996D01*
X170489435Y-65453994D01*
X170490639Y-65429490D01*
X170494239Y-65405222D01*
X170500200Y-65381423D01*
X170508465Y-65358324D01*
X170518955Y-65336145D01*
X170531567Y-65315102D01*
X170546182Y-65295396D01*
X170562658Y-65277218D01*
X170580836Y-65260742D01*
X170600542Y-65246127D01*
X170621585Y-65233515D01*
X170643764Y-65223025D01*
X170666863Y-65214760D01*
X170690662Y-65208799D01*
X170714930Y-65205199D01*
X170739434Y-65203995D01*
X171289436Y-65203995D01*
X171313940Y-65205199D01*
X171313940Y-65205199D01*
G37*
D17*
X171014435Y-65728995D03*
D10*
G36*
X171313940Y-63905199D02*
X171338208Y-63908799D01*
X171362007Y-63914760D01*
X171385106Y-63923025D01*
X171407285Y-63933515D01*
X171428328Y-63946127D01*
X171448034Y-63960742D01*
X171466212Y-63977218D01*
X171482688Y-63995396D01*
X171497303Y-64015102D01*
X171509915Y-64036145D01*
X171520405Y-64058324D01*
X171528670Y-64081423D01*
X171534631Y-64105222D01*
X171538231Y-64129490D01*
X171539435Y-64153994D01*
X171539435Y-64703996D01*
X171538231Y-64728500D01*
X171534631Y-64752768D01*
X171528670Y-64776567D01*
X171520405Y-64799666D01*
X171509915Y-64821845D01*
X171497303Y-64842888D01*
X171482688Y-64862594D01*
X171466212Y-64880772D01*
X171448034Y-64897248D01*
X171428328Y-64911863D01*
X171407285Y-64924475D01*
X171385106Y-64934965D01*
X171362007Y-64943230D01*
X171338208Y-64949191D01*
X171313940Y-64952791D01*
X171289436Y-64953995D01*
X170739434Y-64953995D01*
X170714930Y-64952791D01*
X170690662Y-64949191D01*
X170666863Y-64943230D01*
X170643764Y-64934965D01*
X170621585Y-64924475D01*
X170600542Y-64911863D01*
X170580836Y-64897248D01*
X170562658Y-64880772D01*
X170546182Y-64862594D01*
X170531567Y-64842888D01*
X170518955Y-64821845D01*
X170508465Y-64799666D01*
X170500200Y-64776567D01*
X170494239Y-64752768D01*
X170490639Y-64728500D01*
X170489435Y-64703996D01*
X170489435Y-64153994D01*
X170490639Y-64129490D01*
X170494239Y-64105222D01*
X170500200Y-64081423D01*
X170508465Y-64058324D01*
X170518955Y-64036145D01*
X170531567Y-64015102D01*
X170546182Y-63995396D01*
X170562658Y-63977218D01*
X170580836Y-63960742D01*
X170600542Y-63946127D01*
X170621585Y-63933515D01*
X170643764Y-63923025D01*
X170666863Y-63914760D01*
X170690662Y-63908799D01*
X170714930Y-63905199D01*
X170739434Y-63903995D01*
X171289436Y-63903995D01*
X171313940Y-63905199D01*
X171313940Y-63905199D01*
G37*
D17*
X171014435Y-64428995D03*
D10*
G36*
X171313940Y-62605199D02*
X171338208Y-62608799D01*
X171362007Y-62614760D01*
X171385106Y-62623025D01*
X171407285Y-62633515D01*
X171428328Y-62646127D01*
X171448034Y-62660742D01*
X171466212Y-62677218D01*
X171482688Y-62695396D01*
X171497303Y-62715102D01*
X171509915Y-62736145D01*
X171520405Y-62758324D01*
X171528670Y-62781423D01*
X171534631Y-62805222D01*
X171538231Y-62829490D01*
X171539435Y-62853994D01*
X171539435Y-63403996D01*
X171538231Y-63428500D01*
X171534631Y-63452768D01*
X171528670Y-63476567D01*
X171520405Y-63499666D01*
X171509915Y-63521845D01*
X171497303Y-63542888D01*
X171482688Y-63562594D01*
X171466212Y-63580772D01*
X171448034Y-63597248D01*
X171428328Y-63611863D01*
X171407285Y-63624475D01*
X171385106Y-63634965D01*
X171362007Y-63643230D01*
X171338208Y-63649191D01*
X171313940Y-63652791D01*
X171289436Y-63653995D01*
X170739434Y-63653995D01*
X170714930Y-63652791D01*
X170690662Y-63649191D01*
X170666863Y-63643230D01*
X170643764Y-63634965D01*
X170621585Y-63624475D01*
X170600542Y-63611863D01*
X170580836Y-63597248D01*
X170562658Y-63580772D01*
X170546182Y-63562594D01*
X170531567Y-63542888D01*
X170518955Y-63521845D01*
X170508465Y-63499666D01*
X170500200Y-63476567D01*
X170494239Y-63452768D01*
X170490639Y-63428500D01*
X170489435Y-63403996D01*
X170489435Y-62853994D01*
X170490639Y-62829490D01*
X170494239Y-62805222D01*
X170500200Y-62781423D01*
X170508465Y-62758324D01*
X170518955Y-62736145D01*
X170531567Y-62715102D01*
X170546182Y-62695396D01*
X170562658Y-62677218D01*
X170580836Y-62660742D01*
X170600542Y-62646127D01*
X170621585Y-62633515D01*
X170643764Y-62623025D01*
X170666863Y-62614760D01*
X170690662Y-62608799D01*
X170714930Y-62605199D01*
X170739434Y-62603995D01*
X171289436Y-62603995D01*
X171313940Y-62605199D01*
X171313940Y-62605199D01*
G37*
D17*
X171014435Y-63128995D03*
D10*
G36*
X171313940Y-61305199D02*
X171338208Y-61308799D01*
X171362007Y-61314760D01*
X171385106Y-61323025D01*
X171407285Y-61333515D01*
X171428328Y-61346127D01*
X171448034Y-61360742D01*
X171466212Y-61377218D01*
X171482688Y-61395396D01*
X171497303Y-61415102D01*
X171509915Y-61436145D01*
X171520405Y-61458324D01*
X171528670Y-61481423D01*
X171534631Y-61505222D01*
X171538231Y-61529490D01*
X171539435Y-61553994D01*
X171539435Y-62103996D01*
X171538231Y-62128500D01*
X171534631Y-62152768D01*
X171528670Y-62176567D01*
X171520405Y-62199666D01*
X171509915Y-62221845D01*
X171497303Y-62242888D01*
X171482688Y-62262594D01*
X171466212Y-62280772D01*
X171448034Y-62297248D01*
X171428328Y-62311863D01*
X171407285Y-62324475D01*
X171385106Y-62334965D01*
X171362007Y-62343230D01*
X171338208Y-62349191D01*
X171313940Y-62352791D01*
X171289436Y-62353995D01*
X170739434Y-62353995D01*
X170714930Y-62352791D01*
X170690662Y-62349191D01*
X170666863Y-62343230D01*
X170643764Y-62334965D01*
X170621585Y-62324475D01*
X170600542Y-62311863D01*
X170580836Y-62297248D01*
X170562658Y-62280772D01*
X170546182Y-62262594D01*
X170531567Y-62242888D01*
X170518955Y-62221845D01*
X170508465Y-62199666D01*
X170500200Y-62176567D01*
X170494239Y-62152768D01*
X170490639Y-62128500D01*
X170489435Y-62103996D01*
X170489435Y-61553994D01*
X170490639Y-61529490D01*
X170494239Y-61505222D01*
X170500200Y-61481423D01*
X170508465Y-61458324D01*
X170518955Y-61436145D01*
X170531567Y-61415102D01*
X170546182Y-61395396D01*
X170562658Y-61377218D01*
X170580836Y-61360742D01*
X170600542Y-61346127D01*
X170621585Y-61333515D01*
X170643764Y-61323025D01*
X170666863Y-61314760D01*
X170690662Y-61308799D01*
X170714930Y-61305199D01*
X170739434Y-61303995D01*
X171289436Y-61303995D01*
X171313940Y-61305199D01*
X171313940Y-61305199D01*
G37*
D17*
X171014435Y-61828995D03*
D10*
G36*
X172613940Y-65205199D02*
X172638208Y-65208799D01*
X172662007Y-65214760D01*
X172685106Y-65223025D01*
X172707285Y-65233515D01*
X172728328Y-65246127D01*
X172748034Y-65260742D01*
X172766212Y-65277218D01*
X172782688Y-65295396D01*
X172797303Y-65315102D01*
X172809915Y-65336145D01*
X172820405Y-65358324D01*
X172828670Y-65381423D01*
X172834631Y-65405222D01*
X172838231Y-65429490D01*
X172839435Y-65453994D01*
X172839435Y-66003996D01*
X172838231Y-66028500D01*
X172834631Y-66052768D01*
X172828670Y-66076567D01*
X172820405Y-66099666D01*
X172809915Y-66121845D01*
X172797303Y-66142888D01*
X172782688Y-66162594D01*
X172766212Y-66180772D01*
X172748034Y-66197248D01*
X172728328Y-66211863D01*
X172707285Y-66224475D01*
X172685106Y-66234965D01*
X172662007Y-66243230D01*
X172638208Y-66249191D01*
X172613940Y-66252791D01*
X172589436Y-66253995D01*
X172039434Y-66253995D01*
X172014930Y-66252791D01*
X171990662Y-66249191D01*
X171966863Y-66243230D01*
X171943764Y-66234965D01*
X171921585Y-66224475D01*
X171900542Y-66211863D01*
X171880836Y-66197248D01*
X171862658Y-66180772D01*
X171846182Y-66162594D01*
X171831567Y-66142888D01*
X171818955Y-66121845D01*
X171808465Y-66099666D01*
X171800200Y-66076567D01*
X171794239Y-66052768D01*
X171790639Y-66028500D01*
X171789435Y-66003996D01*
X171789435Y-65453994D01*
X171790639Y-65429490D01*
X171794239Y-65405222D01*
X171800200Y-65381423D01*
X171808465Y-65358324D01*
X171818955Y-65336145D01*
X171831567Y-65315102D01*
X171846182Y-65295396D01*
X171862658Y-65277218D01*
X171880836Y-65260742D01*
X171900542Y-65246127D01*
X171921585Y-65233515D01*
X171943764Y-65223025D01*
X171966863Y-65214760D01*
X171990662Y-65208799D01*
X172014930Y-65205199D01*
X172039434Y-65203995D01*
X172589436Y-65203995D01*
X172613940Y-65205199D01*
X172613940Y-65205199D01*
G37*
D17*
X172314435Y-65728995D03*
D10*
G36*
X172613940Y-63905199D02*
X172638208Y-63908799D01*
X172662007Y-63914760D01*
X172685106Y-63923025D01*
X172707285Y-63933515D01*
X172728328Y-63946127D01*
X172748034Y-63960742D01*
X172766212Y-63977218D01*
X172782688Y-63995396D01*
X172797303Y-64015102D01*
X172809915Y-64036145D01*
X172820405Y-64058324D01*
X172828670Y-64081423D01*
X172834631Y-64105222D01*
X172838231Y-64129490D01*
X172839435Y-64153994D01*
X172839435Y-64703996D01*
X172838231Y-64728500D01*
X172834631Y-64752768D01*
X172828670Y-64776567D01*
X172820405Y-64799666D01*
X172809915Y-64821845D01*
X172797303Y-64842888D01*
X172782688Y-64862594D01*
X172766212Y-64880772D01*
X172748034Y-64897248D01*
X172728328Y-64911863D01*
X172707285Y-64924475D01*
X172685106Y-64934965D01*
X172662007Y-64943230D01*
X172638208Y-64949191D01*
X172613940Y-64952791D01*
X172589436Y-64953995D01*
X172039434Y-64953995D01*
X172014930Y-64952791D01*
X171990662Y-64949191D01*
X171966863Y-64943230D01*
X171943764Y-64934965D01*
X171921585Y-64924475D01*
X171900542Y-64911863D01*
X171880836Y-64897248D01*
X171862658Y-64880772D01*
X171846182Y-64862594D01*
X171831567Y-64842888D01*
X171818955Y-64821845D01*
X171808465Y-64799666D01*
X171800200Y-64776567D01*
X171794239Y-64752768D01*
X171790639Y-64728500D01*
X171789435Y-64703996D01*
X171789435Y-64153994D01*
X171790639Y-64129490D01*
X171794239Y-64105222D01*
X171800200Y-64081423D01*
X171808465Y-64058324D01*
X171818955Y-64036145D01*
X171831567Y-64015102D01*
X171846182Y-63995396D01*
X171862658Y-63977218D01*
X171880836Y-63960742D01*
X171900542Y-63946127D01*
X171921585Y-63933515D01*
X171943764Y-63923025D01*
X171966863Y-63914760D01*
X171990662Y-63908799D01*
X172014930Y-63905199D01*
X172039434Y-63903995D01*
X172589436Y-63903995D01*
X172613940Y-63905199D01*
X172613940Y-63905199D01*
G37*
D17*
X172314435Y-64428995D03*
D10*
G36*
X172613940Y-62605199D02*
X172638208Y-62608799D01*
X172662007Y-62614760D01*
X172685106Y-62623025D01*
X172707285Y-62633515D01*
X172728328Y-62646127D01*
X172748034Y-62660742D01*
X172766212Y-62677218D01*
X172782688Y-62695396D01*
X172797303Y-62715102D01*
X172809915Y-62736145D01*
X172820405Y-62758324D01*
X172828670Y-62781423D01*
X172834631Y-62805222D01*
X172838231Y-62829490D01*
X172839435Y-62853994D01*
X172839435Y-63403996D01*
X172838231Y-63428500D01*
X172834631Y-63452768D01*
X172828670Y-63476567D01*
X172820405Y-63499666D01*
X172809915Y-63521845D01*
X172797303Y-63542888D01*
X172782688Y-63562594D01*
X172766212Y-63580772D01*
X172748034Y-63597248D01*
X172728328Y-63611863D01*
X172707285Y-63624475D01*
X172685106Y-63634965D01*
X172662007Y-63643230D01*
X172638208Y-63649191D01*
X172613940Y-63652791D01*
X172589436Y-63653995D01*
X172039434Y-63653995D01*
X172014930Y-63652791D01*
X171990662Y-63649191D01*
X171966863Y-63643230D01*
X171943764Y-63634965D01*
X171921585Y-63624475D01*
X171900542Y-63611863D01*
X171880836Y-63597248D01*
X171862658Y-63580772D01*
X171846182Y-63562594D01*
X171831567Y-63542888D01*
X171818955Y-63521845D01*
X171808465Y-63499666D01*
X171800200Y-63476567D01*
X171794239Y-63452768D01*
X171790639Y-63428500D01*
X171789435Y-63403996D01*
X171789435Y-62853994D01*
X171790639Y-62829490D01*
X171794239Y-62805222D01*
X171800200Y-62781423D01*
X171808465Y-62758324D01*
X171818955Y-62736145D01*
X171831567Y-62715102D01*
X171846182Y-62695396D01*
X171862658Y-62677218D01*
X171880836Y-62660742D01*
X171900542Y-62646127D01*
X171921585Y-62633515D01*
X171943764Y-62623025D01*
X171966863Y-62614760D01*
X171990662Y-62608799D01*
X172014930Y-62605199D01*
X172039434Y-62603995D01*
X172589436Y-62603995D01*
X172613940Y-62605199D01*
X172613940Y-62605199D01*
G37*
D17*
X172314435Y-63128995D03*
D10*
G36*
X172613940Y-61305199D02*
X172638208Y-61308799D01*
X172662007Y-61314760D01*
X172685106Y-61323025D01*
X172707285Y-61333515D01*
X172728328Y-61346127D01*
X172748034Y-61360742D01*
X172766212Y-61377218D01*
X172782688Y-61395396D01*
X172797303Y-61415102D01*
X172809915Y-61436145D01*
X172820405Y-61458324D01*
X172828670Y-61481423D01*
X172834631Y-61505222D01*
X172838231Y-61529490D01*
X172839435Y-61553994D01*
X172839435Y-62103996D01*
X172838231Y-62128500D01*
X172834631Y-62152768D01*
X172828670Y-62176567D01*
X172820405Y-62199666D01*
X172809915Y-62221845D01*
X172797303Y-62242888D01*
X172782688Y-62262594D01*
X172766212Y-62280772D01*
X172748034Y-62297248D01*
X172728328Y-62311863D01*
X172707285Y-62324475D01*
X172685106Y-62334965D01*
X172662007Y-62343230D01*
X172638208Y-62349191D01*
X172613940Y-62352791D01*
X172589436Y-62353995D01*
X172039434Y-62353995D01*
X172014930Y-62352791D01*
X171990662Y-62349191D01*
X171966863Y-62343230D01*
X171943764Y-62334965D01*
X171921585Y-62324475D01*
X171900542Y-62311863D01*
X171880836Y-62297248D01*
X171862658Y-62280772D01*
X171846182Y-62262594D01*
X171831567Y-62242888D01*
X171818955Y-62221845D01*
X171808465Y-62199666D01*
X171800200Y-62176567D01*
X171794239Y-62152768D01*
X171790639Y-62128500D01*
X171789435Y-62103996D01*
X171789435Y-61553994D01*
X171790639Y-61529490D01*
X171794239Y-61505222D01*
X171800200Y-61481423D01*
X171808465Y-61458324D01*
X171818955Y-61436145D01*
X171831567Y-61415102D01*
X171846182Y-61395396D01*
X171862658Y-61377218D01*
X171880836Y-61360742D01*
X171900542Y-61346127D01*
X171921585Y-61333515D01*
X171943764Y-61323025D01*
X171966863Y-61314760D01*
X171990662Y-61308799D01*
X172014930Y-61305199D01*
X172039434Y-61303995D01*
X172589436Y-61303995D01*
X172613940Y-61305199D01*
X172613940Y-61305199D01*
G37*
D17*
X172314435Y-61828995D03*
D10*
G36*
X173913940Y-65205199D02*
X173938208Y-65208799D01*
X173962007Y-65214760D01*
X173985106Y-65223025D01*
X174007285Y-65233515D01*
X174028328Y-65246127D01*
X174048034Y-65260742D01*
X174066212Y-65277218D01*
X174082688Y-65295396D01*
X174097303Y-65315102D01*
X174109915Y-65336145D01*
X174120405Y-65358324D01*
X174128670Y-65381423D01*
X174134631Y-65405222D01*
X174138231Y-65429490D01*
X174139435Y-65453994D01*
X174139435Y-66003996D01*
X174138231Y-66028500D01*
X174134631Y-66052768D01*
X174128670Y-66076567D01*
X174120405Y-66099666D01*
X174109915Y-66121845D01*
X174097303Y-66142888D01*
X174082688Y-66162594D01*
X174066212Y-66180772D01*
X174048034Y-66197248D01*
X174028328Y-66211863D01*
X174007285Y-66224475D01*
X173985106Y-66234965D01*
X173962007Y-66243230D01*
X173938208Y-66249191D01*
X173913940Y-66252791D01*
X173889436Y-66253995D01*
X173339434Y-66253995D01*
X173314930Y-66252791D01*
X173290662Y-66249191D01*
X173266863Y-66243230D01*
X173243764Y-66234965D01*
X173221585Y-66224475D01*
X173200542Y-66211863D01*
X173180836Y-66197248D01*
X173162658Y-66180772D01*
X173146182Y-66162594D01*
X173131567Y-66142888D01*
X173118955Y-66121845D01*
X173108465Y-66099666D01*
X173100200Y-66076567D01*
X173094239Y-66052768D01*
X173090639Y-66028500D01*
X173089435Y-66003996D01*
X173089435Y-65453994D01*
X173090639Y-65429490D01*
X173094239Y-65405222D01*
X173100200Y-65381423D01*
X173108465Y-65358324D01*
X173118955Y-65336145D01*
X173131567Y-65315102D01*
X173146182Y-65295396D01*
X173162658Y-65277218D01*
X173180836Y-65260742D01*
X173200542Y-65246127D01*
X173221585Y-65233515D01*
X173243764Y-65223025D01*
X173266863Y-65214760D01*
X173290662Y-65208799D01*
X173314930Y-65205199D01*
X173339434Y-65203995D01*
X173889436Y-65203995D01*
X173913940Y-65205199D01*
X173913940Y-65205199D01*
G37*
D17*
X173614435Y-65728995D03*
D10*
G36*
X173913940Y-63905199D02*
X173938208Y-63908799D01*
X173962007Y-63914760D01*
X173985106Y-63923025D01*
X174007285Y-63933515D01*
X174028328Y-63946127D01*
X174048034Y-63960742D01*
X174066212Y-63977218D01*
X174082688Y-63995396D01*
X174097303Y-64015102D01*
X174109915Y-64036145D01*
X174120405Y-64058324D01*
X174128670Y-64081423D01*
X174134631Y-64105222D01*
X174138231Y-64129490D01*
X174139435Y-64153994D01*
X174139435Y-64703996D01*
X174138231Y-64728500D01*
X174134631Y-64752768D01*
X174128670Y-64776567D01*
X174120405Y-64799666D01*
X174109915Y-64821845D01*
X174097303Y-64842888D01*
X174082688Y-64862594D01*
X174066212Y-64880772D01*
X174048034Y-64897248D01*
X174028328Y-64911863D01*
X174007285Y-64924475D01*
X173985106Y-64934965D01*
X173962007Y-64943230D01*
X173938208Y-64949191D01*
X173913940Y-64952791D01*
X173889436Y-64953995D01*
X173339434Y-64953995D01*
X173314930Y-64952791D01*
X173290662Y-64949191D01*
X173266863Y-64943230D01*
X173243764Y-64934965D01*
X173221585Y-64924475D01*
X173200542Y-64911863D01*
X173180836Y-64897248D01*
X173162658Y-64880772D01*
X173146182Y-64862594D01*
X173131567Y-64842888D01*
X173118955Y-64821845D01*
X173108465Y-64799666D01*
X173100200Y-64776567D01*
X173094239Y-64752768D01*
X173090639Y-64728500D01*
X173089435Y-64703996D01*
X173089435Y-64153994D01*
X173090639Y-64129490D01*
X173094239Y-64105222D01*
X173100200Y-64081423D01*
X173108465Y-64058324D01*
X173118955Y-64036145D01*
X173131567Y-64015102D01*
X173146182Y-63995396D01*
X173162658Y-63977218D01*
X173180836Y-63960742D01*
X173200542Y-63946127D01*
X173221585Y-63933515D01*
X173243764Y-63923025D01*
X173266863Y-63914760D01*
X173290662Y-63908799D01*
X173314930Y-63905199D01*
X173339434Y-63903995D01*
X173889436Y-63903995D01*
X173913940Y-63905199D01*
X173913940Y-63905199D01*
G37*
D17*
X173614435Y-64428995D03*
D10*
G36*
X173913940Y-62605199D02*
X173938208Y-62608799D01*
X173962007Y-62614760D01*
X173985106Y-62623025D01*
X174007285Y-62633515D01*
X174028328Y-62646127D01*
X174048034Y-62660742D01*
X174066212Y-62677218D01*
X174082688Y-62695396D01*
X174097303Y-62715102D01*
X174109915Y-62736145D01*
X174120405Y-62758324D01*
X174128670Y-62781423D01*
X174134631Y-62805222D01*
X174138231Y-62829490D01*
X174139435Y-62853994D01*
X174139435Y-63403996D01*
X174138231Y-63428500D01*
X174134631Y-63452768D01*
X174128670Y-63476567D01*
X174120405Y-63499666D01*
X174109915Y-63521845D01*
X174097303Y-63542888D01*
X174082688Y-63562594D01*
X174066212Y-63580772D01*
X174048034Y-63597248D01*
X174028328Y-63611863D01*
X174007285Y-63624475D01*
X173985106Y-63634965D01*
X173962007Y-63643230D01*
X173938208Y-63649191D01*
X173913940Y-63652791D01*
X173889436Y-63653995D01*
X173339434Y-63653995D01*
X173314930Y-63652791D01*
X173290662Y-63649191D01*
X173266863Y-63643230D01*
X173243764Y-63634965D01*
X173221585Y-63624475D01*
X173200542Y-63611863D01*
X173180836Y-63597248D01*
X173162658Y-63580772D01*
X173146182Y-63562594D01*
X173131567Y-63542888D01*
X173118955Y-63521845D01*
X173108465Y-63499666D01*
X173100200Y-63476567D01*
X173094239Y-63452768D01*
X173090639Y-63428500D01*
X173089435Y-63403996D01*
X173089435Y-62853994D01*
X173090639Y-62829490D01*
X173094239Y-62805222D01*
X173100200Y-62781423D01*
X173108465Y-62758324D01*
X173118955Y-62736145D01*
X173131567Y-62715102D01*
X173146182Y-62695396D01*
X173162658Y-62677218D01*
X173180836Y-62660742D01*
X173200542Y-62646127D01*
X173221585Y-62633515D01*
X173243764Y-62623025D01*
X173266863Y-62614760D01*
X173290662Y-62608799D01*
X173314930Y-62605199D01*
X173339434Y-62603995D01*
X173889436Y-62603995D01*
X173913940Y-62605199D01*
X173913940Y-62605199D01*
G37*
D17*
X173614435Y-63128995D03*
D10*
G36*
X173913940Y-61305199D02*
X173938208Y-61308799D01*
X173962007Y-61314760D01*
X173985106Y-61323025D01*
X174007285Y-61333515D01*
X174028328Y-61346127D01*
X174048034Y-61360742D01*
X174066212Y-61377218D01*
X174082688Y-61395396D01*
X174097303Y-61415102D01*
X174109915Y-61436145D01*
X174120405Y-61458324D01*
X174128670Y-61481423D01*
X174134631Y-61505222D01*
X174138231Y-61529490D01*
X174139435Y-61553994D01*
X174139435Y-62103996D01*
X174138231Y-62128500D01*
X174134631Y-62152768D01*
X174128670Y-62176567D01*
X174120405Y-62199666D01*
X174109915Y-62221845D01*
X174097303Y-62242888D01*
X174082688Y-62262594D01*
X174066212Y-62280772D01*
X174048034Y-62297248D01*
X174028328Y-62311863D01*
X174007285Y-62324475D01*
X173985106Y-62334965D01*
X173962007Y-62343230D01*
X173938208Y-62349191D01*
X173913940Y-62352791D01*
X173889436Y-62353995D01*
X173339434Y-62353995D01*
X173314930Y-62352791D01*
X173290662Y-62349191D01*
X173266863Y-62343230D01*
X173243764Y-62334965D01*
X173221585Y-62324475D01*
X173200542Y-62311863D01*
X173180836Y-62297248D01*
X173162658Y-62280772D01*
X173146182Y-62262594D01*
X173131567Y-62242888D01*
X173118955Y-62221845D01*
X173108465Y-62199666D01*
X173100200Y-62176567D01*
X173094239Y-62152768D01*
X173090639Y-62128500D01*
X173089435Y-62103996D01*
X173089435Y-61553994D01*
X173090639Y-61529490D01*
X173094239Y-61505222D01*
X173100200Y-61481423D01*
X173108465Y-61458324D01*
X173118955Y-61436145D01*
X173131567Y-61415102D01*
X173146182Y-61395396D01*
X173162658Y-61377218D01*
X173180836Y-61360742D01*
X173200542Y-61346127D01*
X173221585Y-61333515D01*
X173243764Y-61323025D01*
X173266863Y-61314760D01*
X173290662Y-61308799D01*
X173314930Y-61305199D01*
X173339434Y-61303995D01*
X173889436Y-61303995D01*
X173913940Y-61305199D01*
X173913940Y-61305199D01*
G37*
D17*
X173614435Y-61828995D03*
D10*
G36*
X175213940Y-65205199D02*
X175238208Y-65208799D01*
X175262007Y-65214760D01*
X175285106Y-65223025D01*
X175307285Y-65233515D01*
X175328328Y-65246127D01*
X175348034Y-65260742D01*
X175366212Y-65277218D01*
X175382688Y-65295396D01*
X175397303Y-65315102D01*
X175409915Y-65336145D01*
X175420405Y-65358324D01*
X175428670Y-65381423D01*
X175434631Y-65405222D01*
X175438231Y-65429490D01*
X175439435Y-65453994D01*
X175439435Y-66003996D01*
X175438231Y-66028500D01*
X175434631Y-66052768D01*
X175428670Y-66076567D01*
X175420405Y-66099666D01*
X175409915Y-66121845D01*
X175397303Y-66142888D01*
X175382688Y-66162594D01*
X175366212Y-66180772D01*
X175348034Y-66197248D01*
X175328328Y-66211863D01*
X175307285Y-66224475D01*
X175285106Y-66234965D01*
X175262007Y-66243230D01*
X175238208Y-66249191D01*
X175213940Y-66252791D01*
X175189436Y-66253995D01*
X174639434Y-66253995D01*
X174614930Y-66252791D01*
X174590662Y-66249191D01*
X174566863Y-66243230D01*
X174543764Y-66234965D01*
X174521585Y-66224475D01*
X174500542Y-66211863D01*
X174480836Y-66197248D01*
X174462658Y-66180772D01*
X174446182Y-66162594D01*
X174431567Y-66142888D01*
X174418955Y-66121845D01*
X174408465Y-66099666D01*
X174400200Y-66076567D01*
X174394239Y-66052768D01*
X174390639Y-66028500D01*
X174389435Y-66003996D01*
X174389435Y-65453994D01*
X174390639Y-65429490D01*
X174394239Y-65405222D01*
X174400200Y-65381423D01*
X174408465Y-65358324D01*
X174418955Y-65336145D01*
X174431567Y-65315102D01*
X174446182Y-65295396D01*
X174462658Y-65277218D01*
X174480836Y-65260742D01*
X174500542Y-65246127D01*
X174521585Y-65233515D01*
X174543764Y-65223025D01*
X174566863Y-65214760D01*
X174590662Y-65208799D01*
X174614930Y-65205199D01*
X174639434Y-65203995D01*
X175189436Y-65203995D01*
X175213940Y-65205199D01*
X175213940Y-65205199D01*
G37*
D17*
X174914435Y-65728995D03*
D10*
G36*
X175213940Y-63905199D02*
X175238208Y-63908799D01*
X175262007Y-63914760D01*
X175285106Y-63923025D01*
X175307285Y-63933515D01*
X175328328Y-63946127D01*
X175348034Y-63960742D01*
X175366212Y-63977218D01*
X175382688Y-63995396D01*
X175397303Y-64015102D01*
X175409915Y-64036145D01*
X175420405Y-64058324D01*
X175428670Y-64081423D01*
X175434631Y-64105222D01*
X175438231Y-64129490D01*
X175439435Y-64153994D01*
X175439435Y-64703996D01*
X175438231Y-64728500D01*
X175434631Y-64752768D01*
X175428670Y-64776567D01*
X175420405Y-64799666D01*
X175409915Y-64821845D01*
X175397303Y-64842888D01*
X175382688Y-64862594D01*
X175366212Y-64880772D01*
X175348034Y-64897248D01*
X175328328Y-64911863D01*
X175307285Y-64924475D01*
X175285106Y-64934965D01*
X175262007Y-64943230D01*
X175238208Y-64949191D01*
X175213940Y-64952791D01*
X175189436Y-64953995D01*
X174639434Y-64953995D01*
X174614930Y-64952791D01*
X174590662Y-64949191D01*
X174566863Y-64943230D01*
X174543764Y-64934965D01*
X174521585Y-64924475D01*
X174500542Y-64911863D01*
X174480836Y-64897248D01*
X174462658Y-64880772D01*
X174446182Y-64862594D01*
X174431567Y-64842888D01*
X174418955Y-64821845D01*
X174408465Y-64799666D01*
X174400200Y-64776567D01*
X174394239Y-64752768D01*
X174390639Y-64728500D01*
X174389435Y-64703996D01*
X174389435Y-64153994D01*
X174390639Y-64129490D01*
X174394239Y-64105222D01*
X174400200Y-64081423D01*
X174408465Y-64058324D01*
X174418955Y-64036145D01*
X174431567Y-64015102D01*
X174446182Y-63995396D01*
X174462658Y-63977218D01*
X174480836Y-63960742D01*
X174500542Y-63946127D01*
X174521585Y-63933515D01*
X174543764Y-63923025D01*
X174566863Y-63914760D01*
X174590662Y-63908799D01*
X174614930Y-63905199D01*
X174639434Y-63903995D01*
X175189436Y-63903995D01*
X175213940Y-63905199D01*
X175213940Y-63905199D01*
G37*
D17*
X174914435Y-64428995D03*
D10*
G36*
X175213940Y-62605199D02*
X175238208Y-62608799D01*
X175262007Y-62614760D01*
X175285106Y-62623025D01*
X175307285Y-62633515D01*
X175328328Y-62646127D01*
X175348034Y-62660742D01*
X175366212Y-62677218D01*
X175382688Y-62695396D01*
X175397303Y-62715102D01*
X175409915Y-62736145D01*
X175420405Y-62758324D01*
X175428670Y-62781423D01*
X175434631Y-62805222D01*
X175438231Y-62829490D01*
X175439435Y-62853994D01*
X175439435Y-63403996D01*
X175438231Y-63428500D01*
X175434631Y-63452768D01*
X175428670Y-63476567D01*
X175420405Y-63499666D01*
X175409915Y-63521845D01*
X175397303Y-63542888D01*
X175382688Y-63562594D01*
X175366212Y-63580772D01*
X175348034Y-63597248D01*
X175328328Y-63611863D01*
X175307285Y-63624475D01*
X175285106Y-63634965D01*
X175262007Y-63643230D01*
X175238208Y-63649191D01*
X175213940Y-63652791D01*
X175189436Y-63653995D01*
X174639434Y-63653995D01*
X174614930Y-63652791D01*
X174590662Y-63649191D01*
X174566863Y-63643230D01*
X174543764Y-63634965D01*
X174521585Y-63624475D01*
X174500542Y-63611863D01*
X174480836Y-63597248D01*
X174462658Y-63580772D01*
X174446182Y-63562594D01*
X174431567Y-63542888D01*
X174418955Y-63521845D01*
X174408465Y-63499666D01*
X174400200Y-63476567D01*
X174394239Y-63452768D01*
X174390639Y-63428500D01*
X174389435Y-63403996D01*
X174389435Y-62853994D01*
X174390639Y-62829490D01*
X174394239Y-62805222D01*
X174400200Y-62781423D01*
X174408465Y-62758324D01*
X174418955Y-62736145D01*
X174431567Y-62715102D01*
X174446182Y-62695396D01*
X174462658Y-62677218D01*
X174480836Y-62660742D01*
X174500542Y-62646127D01*
X174521585Y-62633515D01*
X174543764Y-62623025D01*
X174566863Y-62614760D01*
X174590662Y-62608799D01*
X174614930Y-62605199D01*
X174639434Y-62603995D01*
X175189436Y-62603995D01*
X175213940Y-62605199D01*
X175213940Y-62605199D01*
G37*
D17*
X174914435Y-63128995D03*
D10*
G36*
X175213940Y-61305199D02*
X175238208Y-61308799D01*
X175262007Y-61314760D01*
X175285106Y-61323025D01*
X175307285Y-61333515D01*
X175328328Y-61346127D01*
X175348034Y-61360742D01*
X175366212Y-61377218D01*
X175382688Y-61395396D01*
X175397303Y-61415102D01*
X175409915Y-61436145D01*
X175420405Y-61458324D01*
X175428670Y-61481423D01*
X175434631Y-61505222D01*
X175438231Y-61529490D01*
X175439435Y-61553994D01*
X175439435Y-62103996D01*
X175438231Y-62128500D01*
X175434631Y-62152768D01*
X175428670Y-62176567D01*
X175420405Y-62199666D01*
X175409915Y-62221845D01*
X175397303Y-62242888D01*
X175382688Y-62262594D01*
X175366212Y-62280772D01*
X175348034Y-62297248D01*
X175328328Y-62311863D01*
X175307285Y-62324475D01*
X175285106Y-62334965D01*
X175262007Y-62343230D01*
X175238208Y-62349191D01*
X175213940Y-62352791D01*
X175189436Y-62353995D01*
X174639434Y-62353995D01*
X174614930Y-62352791D01*
X174590662Y-62349191D01*
X174566863Y-62343230D01*
X174543764Y-62334965D01*
X174521585Y-62324475D01*
X174500542Y-62311863D01*
X174480836Y-62297248D01*
X174462658Y-62280772D01*
X174446182Y-62262594D01*
X174431567Y-62242888D01*
X174418955Y-62221845D01*
X174408465Y-62199666D01*
X174400200Y-62176567D01*
X174394239Y-62152768D01*
X174390639Y-62128500D01*
X174389435Y-62103996D01*
X174389435Y-61553994D01*
X174390639Y-61529490D01*
X174394239Y-61505222D01*
X174400200Y-61481423D01*
X174408465Y-61458324D01*
X174418955Y-61436145D01*
X174431567Y-61415102D01*
X174446182Y-61395396D01*
X174462658Y-61377218D01*
X174480836Y-61360742D01*
X174500542Y-61346127D01*
X174521585Y-61333515D01*
X174543764Y-61323025D01*
X174566863Y-61314760D01*
X174590662Y-61308799D01*
X174614930Y-61305199D01*
X174639434Y-61303995D01*
X175189436Y-61303995D01*
X175213940Y-61305199D01*
X175213940Y-61305199D01*
G37*
D17*
X174914435Y-61828995D03*
D10*
G36*
X170083061Y-66154296D02*
X170089128Y-66155196D01*
X170095078Y-66156686D01*
X170100853Y-66158753D01*
X170106397Y-66161375D01*
X170111658Y-66164528D01*
X170116585Y-66168182D01*
X170121129Y-66172301D01*
X170125248Y-66176845D01*
X170128902Y-66181772D01*
X170132055Y-66187033D01*
X170134677Y-66192577D01*
X170136744Y-66198352D01*
X170138234Y-66204302D01*
X170139134Y-66210369D01*
X170139435Y-66216495D01*
X170139435Y-66341495D01*
X170139134Y-66347621D01*
X170138234Y-66353688D01*
X170136744Y-66359638D01*
X170134677Y-66365413D01*
X170132055Y-66370957D01*
X170128902Y-66376218D01*
X170125248Y-66381145D01*
X170121129Y-66385689D01*
X170116585Y-66389808D01*
X170111658Y-66393462D01*
X170106397Y-66396615D01*
X170100853Y-66399237D01*
X170095078Y-66401304D01*
X170089128Y-66402794D01*
X170083061Y-66403694D01*
X170076935Y-66403995D01*
X169151935Y-66403995D01*
X169145809Y-66403694D01*
X169139742Y-66402794D01*
X169133792Y-66401304D01*
X169128017Y-66399237D01*
X169122473Y-66396615D01*
X169117212Y-66393462D01*
X169112285Y-66389808D01*
X169107741Y-66385689D01*
X169103622Y-66381145D01*
X169099968Y-66376218D01*
X169096815Y-66370957D01*
X169094193Y-66365413D01*
X169092126Y-66359638D01*
X169090636Y-66353688D01*
X169089736Y-66347621D01*
X169089435Y-66341495D01*
X169089435Y-66216495D01*
X169089736Y-66210369D01*
X169090636Y-66204302D01*
X169092126Y-66198352D01*
X169094193Y-66192577D01*
X169096815Y-66187033D01*
X169099968Y-66181772D01*
X169103622Y-66176845D01*
X169107741Y-66172301D01*
X169112285Y-66168182D01*
X169117212Y-66164528D01*
X169122473Y-66161375D01*
X169128017Y-66158753D01*
X169133792Y-66156686D01*
X169139742Y-66155196D01*
X169145809Y-66154296D01*
X169151935Y-66153995D01*
X170076935Y-66153995D01*
X170083061Y-66154296D01*
X170083061Y-66154296D01*
G37*
D18*
X169614435Y-66278995D03*
D10*
G36*
X170083061Y-65654296D02*
X170089128Y-65655196D01*
X170095078Y-65656686D01*
X170100853Y-65658753D01*
X170106397Y-65661375D01*
X170111658Y-65664528D01*
X170116585Y-65668182D01*
X170121129Y-65672301D01*
X170125248Y-65676845D01*
X170128902Y-65681772D01*
X170132055Y-65687033D01*
X170134677Y-65692577D01*
X170136744Y-65698352D01*
X170138234Y-65704302D01*
X170139134Y-65710369D01*
X170139435Y-65716495D01*
X170139435Y-65841495D01*
X170139134Y-65847621D01*
X170138234Y-65853688D01*
X170136744Y-65859638D01*
X170134677Y-65865413D01*
X170132055Y-65870957D01*
X170128902Y-65876218D01*
X170125248Y-65881145D01*
X170121129Y-65885689D01*
X170116585Y-65889808D01*
X170111658Y-65893462D01*
X170106397Y-65896615D01*
X170100853Y-65899237D01*
X170095078Y-65901304D01*
X170089128Y-65902794D01*
X170083061Y-65903694D01*
X170076935Y-65903995D01*
X169151935Y-65903995D01*
X169145809Y-65903694D01*
X169139742Y-65902794D01*
X169133792Y-65901304D01*
X169128017Y-65899237D01*
X169122473Y-65896615D01*
X169117212Y-65893462D01*
X169112285Y-65889808D01*
X169107741Y-65885689D01*
X169103622Y-65881145D01*
X169099968Y-65876218D01*
X169096815Y-65870957D01*
X169094193Y-65865413D01*
X169092126Y-65859638D01*
X169090636Y-65853688D01*
X169089736Y-65847621D01*
X169089435Y-65841495D01*
X169089435Y-65716495D01*
X169089736Y-65710369D01*
X169090636Y-65704302D01*
X169092126Y-65698352D01*
X169094193Y-65692577D01*
X169096815Y-65687033D01*
X169099968Y-65681772D01*
X169103622Y-65676845D01*
X169107741Y-65672301D01*
X169112285Y-65668182D01*
X169117212Y-65664528D01*
X169122473Y-65661375D01*
X169128017Y-65658753D01*
X169133792Y-65656686D01*
X169139742Y-65655196D01*
X169145809Y-65654296D01*
X169151935Y-65653995D01*
X170076935Y-65653995D01*
X170083061Y-65654296D01*
X170083061Y-65654296D01*
G37*
D18*
X169614435Y-65778995D03*
D10*
G36*
X170083061Y-65154296D02*
X170089128Y-65155196D01*
X170095078Y-65156686D01*
X170100853Y-65158753D01*
X170106397Y-65161375D01*
X170111658Y-65164528D01*
X170116585Y-65168182D01*
X170121129Y-65172301D01*
X170125248Y-65176845D01*
X170128902Y-65181772D01*
X170132055Y-65187033D01*
X170134677Y-65192577D01*
X170136744Y-65198352D01*
X170138234Y-65204302D01*
X170139134Y-65210369D01*
X170139435Y-65216495D01*
X170139435Y-65341495D01*
X170139134Y-65347621D01*
X170138234Y-65353688D01*
X170136744Y-65359638D01*
X170134677Y-65365413D01*
X170132055Y-65370957D01*
X170128902Y-65376218D01*
X170125248Y-65381145D01*
X170121129Y-65385689D01*
X170116585Y-65389808D01*
X170111658Y-65393462D01*
X170106397Y-65396615D01*
X170100853Y-65399237D01*
X170095078Y-65401304D01*
X170089128Y-65402794D01*
X170083061Y-65403694D01*
X170076935Y-65403995D01*
X169151935Y-65403995D01*
X169145809Y-65403694D01*
X169139742Y-65402794D01*
X169133792Y-65401304D01*
X169128017Y-65399237D01*
X169122473Y-65396615D01*
X169117212Y-65393462D01*
X169112285Y-65389808D01*
X169107741Y-65385689D01*
X169103622Y-65381145D01*
X169099968Y-65376218D01*
X169096815Y-65370957D01*
X169094193Y-65365413D01*
X169092126Y-65359638D01*
X169090636Y-65353688D01*
X169089736Y-65347621D01*
X169089435Y-65341495D01*
X169089435Y-65216495D01*
X169089736Y-65210369D01*
X169090636Y-65204302D01*
X169092126Y-65198352D01*
X169094193Y-65192577D01*
X169096815Y-65187033D01*
X169099968Y-65181772D01*
X169103622Y-65176845D01*
X169107741Y-65172301D01*
X169112285Y-65168182D01*
X169117212Y-65164528D01*
X169122473Y-65161375D01*
X169128017Y-65158753D01*
X169133792Y-65156686D01*
X169139742Y-65155196D01*
X169145809Y-65154296D01*
X169151935Y-65153995D01*
X170076935Y-65153995D01*
X170083061Y-65154296D01*
X170083061Y-65154296D01*
G37*
D18*
X169614435Y-65278995D03*
D10*
G36*
X170083061Y-64654296D02*
X170089128Y-64655196D01*
X170095078Y-64656686D01*
X170100853Y-64658753D01*
X170106397Y-64661375D01*
X170111658Y-64664528D01*
X170116585Y-64668182D01*
X170121129Y-64672301D01*
X170125248Y-64676845D01*
X170128902Y-64681772D01*
X170132055Y-64687033D01*
X170134677Y-64692577D01*
X170136744Y-64698352D01*
X170138234Y-64704302D01*
X170139134Y-64710369D01*
X170139435Y-64716495D01*
X170139435Y-64841495D01*
X170139134Y-64847621D01*
X170138234Y-64853688D01*
X170136744Y-64859638D01*
X170134677Y-64865413D01*
X170132055Y-64870957D01*
X170128902Y-64876218D01*
X170125248Y-64881145D01*
X170121129Y-64885689D01*
X170116585Y-64889808D01*
X170111658Y-64893462D01*
X170106397Y-64896615D01*
X170100853Y-64899237D01*
X170095078Y-64901304D01*
X170089128Y-64902794D01*
X170083061Y-64903694D01*
X170076935Y-64903995D01*
X169151935Y-64903995D01*
X169145809Y-64903694D01*
X169139742Y-64902794D01*
X169133792Y-64901304D01*
X169128017Y-64899237D01*
X169122473Y-64896615D01*
X169117212Y-64893462D01*
X169112285Y-64889808D01*
X169107741Y-64885689D01*
X169103622Y-64881145D01*
X169099968Y-64876218D01*
X169096815Y-64870957D01*
X169094193Y-64865413D01*
X169092126Y-64859638D01*
X169090636Y-64853688D01*
X169089736Y-64847621D01*
X169089435Y-64841495D01*
X169089435Y-64716495D01*
X169089736Y-64710369D01*
X169090636Y-64704302D01*
X169092126Y-64698352D01*
X169094193Y-64692577D01*
X169096815Y-64687033D01*
X169099968Y-64681772D01*
X169103622Y-64676845D01*
X169107741Y-64672301D01*
X169112285Y-64668182D01*
X169117212Y-64664528D01*
X169122473Y-64661375D01*
X169128017Y-64658753D01*
X169133792Y-64656686D01*
X169139742Y-64655196D01*
X169145809Y-64654296D01*
X169151935Y-64653995D01*
X170076935Y-64653995D01*
X170083061Y-64654296D01*
X170083061Y-64654296D01*
G37*
D18*
X169614435Y-64778995D03*
D10*
G36*
X170083061Y-64154296D02*
X170089128Y-64155196D01*
X170095078Y-64156686D01*
X170100853Y-64158753D01*
X170106397Y-64161375D01*
X170111658Y-64164528D01*
X170116585Y-64168182D01*
X170121129Y-64172301D01*
X170125248Y-64176845D01*
X170128902Y-64181772D01*
X170132055Y-64187033D01*
X170134677Y-64192577D01*
X170136744Y-64198352D01*
X170138234Y-64204302D01*
X170139134Y-64210369D01*
X170139435Y-64216495D01*
X170139435Y-64341495D01*
X170139134Y-64347621D01*
X170138234Y-64353688D01*
X170136744Y-64359638D01*
X170134677Y-64365413D01*
X170132055Y-64370957D01*
X170128902Y-64376218D01*
X170125248Y-64381145D01*
X170121129Y-64385689D01*
X170116585Y-64389808D01*
X170111658Y-64393462D01*
X170106397Y-64396615D01*
X170100853Y-64399237D01*
X170095078Y-64401304D01*
X170089128Y-64402794D01*
X170083061Y-64403694D01*
X170076935Y-64403995D01*
X169151935Y-64403995D01*
X169145809Y-64403694D01*
X169139742Y-64402794D01*
X169133792Y-64401304D01*
X169128017Y-64399237D01*
X169122473Y-64396615D01*
X169117212Y-64393462D01*
X169112285Y-64389808D01*
X169107741Y-64385689D01*
X169103622Y-64381145D01*
X169099968Y-64376218D01*
X169096815Y-64370957D01*
X169094193Y-64365413D01*
X169092126Y-64359638D01*
X169090636Y-64353688D01*
X169089736Y-64347621D01*
X169089435Y-64341495D01*
X169089435Y-64216495D01*
X169089736Y-64210369D01*
X169090636Y-64204302D01*
X169092126Y-64198352D01*
X169094193Y-64192577D01*
X169096815Y-64187033D01*
X169099968Y-64181772D01*
X169103622Y-64176845D01*
X169107741Y-64172301D01*
X169112285Y-64168182D01*
X169117212Y-64164528D01*
X169122473Y-64161375D01*
X169128017Y-64158753D01*
X169133792Y-64156686D01*
X169139742Y-64155196D01*
X169145809Y-64154296D01*
X169151935Y-64153995D01*
X170076935Y-64153995D01*
X170083061Y-64154296D01*
X170083061Y-64154296D01*
G37*
D18*
X169614435Y-64278995D03*
D10*
G36*
X170083061Y-63654296D02*
X170089128Y-63655196D01*
X170095078Y-63656686D01*
X170100853Y-63658753D01*
X170106397Y-63661375D01*
X170111658Y-63664528D01*
X170116585Y-63668182D01*
X170121129Y-63672301D01*
X170125248Y-63676845D01*
X170128902Y-63681772D01*
X170132055Y-63687033D01*
X170134677Y-63692577D01*
X170136744Y-63698352D01*
X170138234Y-63704302D01*
X170139134Y-63710369D01*
X170139435Y-63716495D01*
X170139435Y-63841495D01*
X170139134Y-63847621D01*
X170138234Y-63853688D01*
X170136744Y-63859638D01*
X170134677Y-63865413D01*
X170132055Y-63870957D01*
X170128902Y-63876218D01*
X170125248Y-63881145D01*
X170121129Y-63885689D01*
X170116585Y-63889808D01*
X170111658Y-63893462D01*
X170106397Y-63896615D01*
X170100853Y-63899237D01*
X170095078Y-63901304D01*
X170089128Y-63902794D01*
X170083061Y-63903694D01*
X170076935Y-63903995D01*
X169151935Y-63903995D01*
X169145809Y-63903694D01*
X169139742Y-63902794D01*
X169133792Y-63901304D01*
X169128017Y-63899237D01*
X169122473Y-63896615D01*
X169117212Y-63893462D01*
X169112285Y-63889808D01*
X169107741Y-63885689D01*
X169103622Y-63881145D01*
X169099968Y-63876218D01*
X169096815Y-63870957D01*
X169094193Y-63865413D01*
X169092126Y-63859638D01*
X169090636Y-63853688D01*
X169089736Y-63847621D01*
X169089435Y-63841495D01*
X169089435Y-63716495D01*
X169089736Y-63710369D01*
X169090636Y-63704302D01*
X169092126Y-63698352D01*
X169094193Y-63692577D01*
X169096815Y-63687033D01*
X169099968Y-63681772D01*
X169103622Y-63676845D01*
X169107741Y-63672301D01*
X169112285Y-63668182D01*
X169117212Y-63664528D01*
X169122473Y-63661375D01*
X169128017Y-63658753D01*
X169133792Y-63656686D01*
X169139742Y-63655196D01*
X169145809Y-63654296D01*
X169151935Y-63653995D01*
X170076935Y-63653995D01*
X170083061Y-63654296D01*
X170083061Y-63654296D01*
G37*
D18*
X169614435Y-63778995D03*
D10*
G36*
X170083061Y-63154296D02*
X170089128Y-63155196D01*
X170095078Y-63156686D01*
X170100853Y-63158753D01*
X170106397Y-63161375D01*
X170111658Y-63164528D01*
X170116585Y-63168182D01*
X170121129Y-63172301D01*
X170125248Y-63176845D01*
X170128902Y-63181772D01*
X170132055Y-63187033D01*
X170134677Y-63192577D01*
X170136744Y-63198352D01*
X170138234Y-63204302D01*
X170139134Y-63210369D01*
X170139435Y-63216495D01*
X170139435Y-63341495D01*
X170139134Y-63347621D01*
X170138234Y-63353688D01*
X170136744Y-63359638D01*
X170134677Y-63365413D01*
X170132055Y-63370957D01*
X170128902Y-63376218D01*
X170125248Y-63381145D01*
X170121129Y-63385689D01*
X170116585Y-63389808D01*
X170111658Y-63393462D01*
X170106397Y-63396615D01*
X170100853Y-63399237D01*
X170095078Y-63401304D01*
X170089128Y-63402794D01*
X170083061Y-63403694D01*
X170076935Y-63403995D01*
X169151935Y-63403995D01*
X169145809Y-63403694D01*
X169139742Y-63402794D01*
X169133792Y-63401304D01*
X169128017Y-63399237D01*
X169122473Y-63396615D01*
X169117212Y-63393462D01*
X169112285Y-63389808D01*
X169107741Y-63385689D01*
X169103622Y-63381145D01*
X169099968Y-63376218D01*
X169096815Y-63370957D01*
X169094193Y-63365413D01*
X169092126Y-63359638D01*
X169090636Y-63353688D01*
X169089736Y-63347621D01*
X169089435Y-63341495D01*
X169089435Y-63216495D01*
X169089736Y-63210369D01*
X169090636Y-63204302D01*
X169092126Y-63198352D01*
X169094193Y-63192577D01*
X169096815Y-63187033D01*
X169099968Y-63181772D01*
X169103622Y-63176845D01*
X169107741Y-63172301D01*
X169112285Y-63168182D01*
X169117212Y-63164528D01*
X169122473Y-63161375D01*
X169128017Y-63158753D01*
X169133792Y-63156686D01*
X169139742Y-63155196D01*
X169145809Y-63154296D01*
X169151935Y-63153995D01*
X170076935Y-63153995D01*
X170083061Y-63154296D01*
X170083061Y-63154296D01*
G37*
D18*
X169614435Y-63278995D03*
D10*
G36*
X170083061Y-62654296D02*
X170089128Y-62655196D01*
X170095078Y-62656686D01*
X170100853Y-62658753D01*
X170106397Y-62661375D01*
X170111658Y-62664528D01*
X170116585Y-62668182D01*
X170121129Y-62672301D01*
X170125248Y-62676845D01*
X170128902Y-62681772D01*
X170132055Y-62687033D01*
X170134677Y-62692577D01*
X170136744Y-62698352D01*
X170138234Y-62704302D01*
X170139134Y-62710369D01*
X170139435Y-62716495D01*
X170139435Y-62841495D01*
X170139134Y-62847621D01*
X170138234Y-62853688D01*
X170136744Y-62859638D01*
X170134677Y-62865413D01*
X170132055Y-62870957D01*
X170128902Y-62876218D01*
X170125248Y-62881145D01*
X170121129Y-62885689D01*
X170116585Y-62889808D01*
X170111658Y-62893462D01*
X170106397Y-62896615D01*
X170100853Y-62899237D01*
X170095078Y-62901304D01*
X170089128Y-62902794D01*
X170083061Y-62903694D01*
X170076935Y-62903995D01*
X169151935Y-62903995D01*
X169145809Y-62903694D01*
X169139742Y-62902794D01*
X169133792Y-62901304D01*
X169128017Y-62899237D01*
X169122473Y-62896615D01*
X169117212Y-62893462D01*
X169112285Y-62889808D01*
X169107741Y-62885689D01*
X169103622Y-62881145D01*
X169099968Y-62876218D01*
X169096815Y-62870957D01*
X169094193Y-62865413D01*
X169092126Y-62859638D01*
X169090636Y-62853688D01*
X169089736Y-62847621D01*
X169089435Y-62841495D01*
X169089435Y-62716495D01*
X169089736Y-62710369D01*
X169090636Y-62704302D01*
X169092126Y-62698352D01*
X169094193Y-62692577D01*
X169096815Y-62687033D01*
X169099968Y-62681772D01*
X169103622Y-62676845D01*
X169107741Y-62672301D01*
X169112285Y-62668182D01*
X169117212Y-62664528D01*
X169122473Y-62661375D01*
X169128017Y-62658753D01*
X169133792Y-62656686D01*
X169139742Y-62655196D01*
X169145809Y-62654296D01*
X169151935Y-62653995D01*
X170076935Y-62653995D01*
X170083061Y-62654296D01*
X170083061Y-62654296D01*
G37*
D18*
X169614435Y-62778995D03*
D10*
G36*
X170083061Y-62154296D02*
X170089128Y-62155196D01*
X170095078Y-62156686D01*
X170100853Y-62158753D01*
X170106397Y-62161375D01*
X170111658Y-62164528D01*
X170116585Y-62168182D01*
X170121129Y-62172301D01*
X170125248Y-62176845D01*
X170128902Y-62181772D01*
X170132055Y-62187033D01*
X170134677Y-62192577D01*
X170136744Y-62198352D01*
X170138234Y-62204302D01*
X170139134Y-62210369D01*
X170139435Y-62216495D01*
X170139435Y-62341495D01*
X170139134Y-62347621D01*
X170138234Y-62353688D01*
X170136744Y-62359638D01*
X170134677Y-62365413D01*
X170132055Y-62370957D01*
X170128902Y-62376218D01*
X170125248Y-62381145D01*
X170121129Y-62385689D01*
X170116585Y-62389808D01*
X170111658Y-62393462D01*
X170106397Y-62396615D01*
X170100853Y-62399237D01*
X170095078Y-62401304D01*
X170089128Y-62402794D01*
X170083061Y-62403694D01*
X170076935Y-62403995D01*
X169151935Y-62403995D01*
X169145809Y-62403694D01*
X169139742Y-62402794D01*
X169133792Y-62401304D01*
X169128017Y-62399237D01*
X169122473Y-62396615D01*
X169117212Y-62393462D01*
X169112285Y-62389808D01*
X169107741Y-62385689D01*
X169103622Y-62381145D01*
X169099968Y-62376218D01*
X169096815Y-62370957D01*
X169094193Y-62365413D01*
X169092126Y-62359638D01*
X169090636Y-62353688D01*
X169089736Y-62347621D01*
X169089435Y-62341495D01*
X169089435Y-62216495D01*
X169089736Y-62210369D01*
X169090636Y-62204302D01*
X169092126Y-62198352D01*
X169094193Y-62192577D01*
X169096815Y-62187033D01*
X169099968Y-62181772D01*
X169103622Y-62176845D01*
X169107741Y-62172301D01*
X169112285Y-62168182D01*
X169117212Y-62164528D01*
X169122473Y-62161375D01*
X169128017Y-62158753D01*
X169133792Y-62156686D01*
X169139742Y-62155196D01*
X169145809Y-62154296D01*
X169151935Y-62153995D01*
X170076935Y-62153995D01*
X170083061Y-62154296D01*
X170083061Y-62154296D01*
G37*
D18*
X169614435Y-62278995D03*
D10*
G36*
X170083061Y-61654296D02*
X170089128Y-61655196D01*
X170095078Y-61656686D01*
X170100853Y-61658753D01*
X170106397Y-61661375D01*
X170111658Y-61664528D01*
X170116585Y-61668182D01*
X170121129Y-61672301D01*
X170125248Y-61676845D01*
X170128902Y-61681772D01*
X170132055Y-61687033D01*
X170134677Y-61692577D01*
X170136744Y-61698352D01*
X170138234Y-61704302D01*
X170139134Y-61710369D01*
X170139435Y-61716495D01*
X170139435Y-61841495D01*
X170139134Y-61847621D01*
X170138234Y-61853688D01*
X170136744Y-61859638D01*
X170134677Y-61865413D01*
X170132055Y-61870957D01*
X170128902Y-61876218D01*
X170125248Y-61881145D01*
X170121129Y-61885689D01*
X170116585Y-61889808D01*
X170111658Y-61893462D01*
X170106397Y-61896615D01*
X170100853Y-61899237D01*
X170095078Y-61901304D01*
X170089128Y-61902794D01*
X170083061Y-61903694D01*
X170076935Y-61903995D01*
X169151935Y-61903995D01*
X169145809Y-61903694D01*
X169139742Y-61902794D01*
X169133792Y-61901304D01*
X169128017Y-61899237D01*
X169122473Y-61896615D01*
X169117212Y-61893462D01*
X169112285Y-61889808D01*
X169107741Y-61885689D01*
X169103622Y-61881145D01*
X169099968Y-61876218D01*
X169096815Y-61870957D01*
X169094193Y-61865413D01*
X169092126Y-61859638D01*
X169090636Y-61853688D01*
X169089736Y-61847621D01*
X169089435Y-61841495D01*
X169089435Y-61716495D01*
X169089736Y-61710369D01*
X169090636Y-61704302D01*
X169092126Y-61698352D01*
X169094193Y-61692577D01*
X169096815Y-61687033D01*
X169099968Y-61681772D01*
X169103622Y-61676845D01*
X169107741Y-61672301D01*
X169112285Y-61668182D01*
X169117212Y-61664528D01*
X169122473Y-61661375D01*
X169128017Y-61658753D01*
X169133792Y-61656686D01*
X169139742Y-61655196D01*
X169145809Y-61654296D01*
X169151935Y-61653995D01*
X170076935Y-61653995D01*
X170083061Y-61654296D01*
X170083061Y-61654296D01*
G37*
D18*
X169614435Y-61778995D03*
D10*
G36*
X170083061Y-61154296D02*
X170089128Y-61155196D01*
X170095078Y-61156686D01*
X170100853Y-61158753D01*
X170106397Y-61161375D01*
X170111658Y-61164528D01*
X170116585Y-61168182D01*
X170121129Y-61172301D01*
X170125248Y-61176845D01*
X170128902Y-61181772D01*
X170132055Y-61187033D01*
X170134677Y-61192577D01*
X170136744Y-61198352D01*
X170138234Y-61204302D01*
X170139134Y-61210369D01*
X170139435Y-61216495D01*
X170139435Y-61341495D01*
X170139134Y-61347621D01*
X170138234Y-61353688D01*
X170136744Y-61359638D01*
X170134677Y-61365413D01*
X170132055Y-61370957D01*
X170128902Y-61376218D01*
X170125248Y-61381145D01*
X170121129Y-61385689D01*
X170116585Y-61389808D01*
X170111658Y-61393462D01*
X170106397Y-61396615D01*
X170100853Y-61399237D01*
X170095078Y-61401304D01*
X170089128Y-61402794D01*
X170083061Y-61403694D01*
X170076935Y-61403995D01*
X169151935Y-61403995D01*
X169145809Y-61403694D01*
X169139742Y-61402794D01*
X169133792Y-61401304D01*
X169128017Y-61399237D01*
X169122473Y-61396615D01*
X169117212Y-61393462D01*
X169112285Y-61389808D01*
X169107741Y-61385689D01*
X169103622Y-61381145D01*
X169099968Y-61376218D01*
X169096815Y-61370957D01*
X169094193Y-61365413D01*
X169092126Y-61359638D01*
X169090636Y-61353688D01*
X169089736Y-61347621D01*
X169089435Y-61341495D01*
X169089435Y-61216495D01*
X169089736Y-61210369D01*
X169090636Y-61204302D01*
X169092126Y-61198352D01*
X169094193Y-61192577D01*
X169096815Y-61187033D01*
X169099968Y-61181772D01*
X169103622Y-61176845D01*
X169107741Y-61172301D01*
X169112285Y-61168182D01*
X169117212Y-61164528D01*
X169122473Y-61161375D01*
X169128017Y-61158753D01*
X169133792Y-61156686D01*
X169139742Y-61155196D01*
X169145809Y-61154296D01*
X169151935Y-61153995D01*
X170076935Y-61153995D01*
X170083061Y-61154296D01*
X170083061Y-61154296D01*
G37*
D18*
X169614435Y-61278995D03*
D10*
G36*
X170533061Y-59904296D02*
X170539128Y-59905196D01*
X170545078Y-59906686D01*
X170550853Y-59908753D01*
X170556397Y-59911375D01*
X170561658Y-59914528D01*
X170566585Y-59918182D01*
X170571129Y-59922301D01*
X170575248Y-59926845D01*
X170578902Y-59931772D01*
X170582055Y-59937033D01*
X170584677Y-59942577D01*
X170586744Y-59948352D01*
X170588234Y-59954302D01*
X170589134Y-59960369D01*
X170589435Y-59966495D01*
X170589435Y-60891495D01*
X170589134Y-60897621D01*
X170588234Y-60903688D01*
X170586744Y-60909638D01*
X170584677Y-60915413D01*
X170582055Y-60920957D01*
X170578902Y-60926218D01*
X170575248Y-60931145D01*
X170571129Y-60935689D01*
X170566585Y-60939808D01*
X170561658Y-60943462D01*
X170556397Y-60946615D01*
X170550853Y-60949237D01*
X170545078Y-60951304D01*
X170539128Y-60952794D01*
X170533061Y-60953694D01*
X170526935Y-60953995D01*
X170401935Y-60953995D01*
X170395809Y-60953694D01*
X170389742Y-60952794D01*
X170383792Y-60951304D01*
X170378017Y-60949237D01*
X170372473Y-60946615D01*
X170367212Y-60943462D01*
X170362285Y-60939808D01*
X170357741Y-60935689D01*
X170353622Y-60931145D01*
X170349968Y-60926218D01*
X170346815Y-60920957D01*
X170344193Y-60915413D01*
X170342126Y-60909638D01*
X170340636Y-60903688D01*
X170339736Y-60897621D01*
X170339435Y-60891495D01*
X170339435Y-59966495D01*
X170339736Y-59960369D01*
X170340636Y-59954302D01*
X170342126Y-59948352D01*
X170344193Y-59942577D01*
X170346815Y-59937033D01*
X170349968Y-59931772D01*
X170353622Y-59926845D01*
X170357741Y-59922301D01*
X170362285Y-59918182D01*
X170367212Y-59914528D01*
X170372473Y-59911375D01*
X170378017Y-59908753D01*
X170383792Y-59906686D01*
X170389742Y-59905196D01*
X170395809Y-59904296D01*
X170401935Y-59903995D01*
X170526935Y-59903995D01*
X170533061Y-59904296D01*
X170533061Y-59904296D01*
G37*
D18*
X170464435Y-60428995D03*
D10*
G36*
X171033061Y-59904296D02*
X171039128Y-59905196D01*
X171045078Y-59906686D01*
X171050853Y-59908753D01*
X171056397Y-59911375D01*
X171061658Y-59914528D01*
X171066585Y-59918182D01*
X171071129Y-59922301D01*
X171075248Y-59926845D01*
X171078902Y-59931772D01*
X171082055Y-59937033D01*
X171084677Y-59942577D01*
X171086744Y-59948352D01*
X171088234Y-59954302D01*
X171089134Y-59960369D01*
X171089435Y-59966495D01*
X171089435Y-60891495D01*
X171089134Y-60897621D01*
X171088234Y-60903688D01*
X171086744Y-60909638D01*
X171084677Y-60915413D01*
X171082055Y-60920957D01*
X171078902Y-60926218D01*
X171075248Y-60931145D01*
X171071129Y-60935689D01*
X171066585Y-60939808D01*
X171061658Y-60943462D01*
X171056397Y-60946615D01*
X171050853Y-60949237D01*
X171045078Y-60951304D01*
X171039128Y-60952794D01*
X171033061Y-60953694D01*
X171026935Y-60953995D01*
X170901935Y-60953995D01*
X170895809Y-60953694D01*
X170889742Y-60952794D01*
X170883792Y-60951304D01*
X170878017Y-60949237D01*
X170872473Y-60946615D01*
X170867212Y-60943462D01*
X170862285Y-60939808D01*
X170857741Y-60935689D01*
X170853622Y-60931145D01*
X170849968Y-60926218D01*
X170846815Y-60920957D01*
X170844193Y-60915413D01*
X170842126Y-60909638D01*
X170840636Y-60903688D01*
X170839736Y-60897621D01*
X170839435Y-60891495D01*
X170839435Y-59966495D01*
X170839736Y-59960369D01*
X170840636Y-59954302D01*
X170842126Y-59948352D01*
X170844193Y-59942577D01*
X170846815Y-59937033D01*
X170849968Y-59931772D01*
X170853622Y-59926845D01*
X170857741Y-59922301D01*
X170862285Y-59918182D01*
X170867212Y-59914528D01*
X170872473Y-59911375D01*
X170878017Y-59908753D01*
X170883792Y-59906686D01*
X170889742Y-59905196D01*
X170895809Y-59904296D01*
X170901935Y-59903995D01*
X171026935Y-59903995D01*
X171033061Y-59904296D01*
X171033061Y-59904296D01*
G37*
D18*
X170964435Y-60428995D03*
D10*
G36*
X171533061Y-59904296D02*
X171539128Y-59905196D01*
X171545078Y-59906686D01*
X171550853Y-59908753D01*
X171556397Y-59911375D01*
X171561658Y-59914528D01*
X171566585Y-59918182D01*
X171571129Y-59922301D01*
X171575248Y-59926845D01*
X171578902Y-59931772D01*
X171582055Y-59937033D01*
X171584677Y-59942577D01*
X171586744Y-59948352D01*
X171588234Y-59954302D01*
X171589134Y-59960369D01*
X171589435Y-59966495D01*
X171589435Y-60891495D01*
X171589134Y-60897621D01*
X171588234Y-60903688D01*
X171586744Y-60909638D01*
X171584677Y-60915413D01*
X171582055Y-60920957D01*
X171578902Y-60926218D01*
X171575248Y-60931145D01*
X171571129Y-60935689D01*
X171566585Y-60939808D01*
X171561658Y-60943462D01*
X171556397Y-60946615D01*
X171550853Y-60949237D01*
X171545078Y-60951304D01*
X171539128Y-60952794D01*
X171533061Y-60953694D01*
X171526935Y-60953995D01*
X171401935Y-60953995D01*
X171395809Y-60953694D01*
X171389742Y-60952794D01*
X171383792Y-60951304D01*
X171378017Y-60949237D01*
X171372473Y-60946615D01*
X171367212Y-60943462D01*
X171362285Y-60939808D01*
X171357741Y-60935689D01*
X171353622Y-60931145D01*
X171349968Y-60926218D01*
X171346815Y-60920957D01*
X171344193Y-60915413D01*
X171342126Y-60909638D01*
X171340636Y-60903688D01*
X171339736Y-60897621D01*
X171339435Y-60891495D01*
X171339435Y-59966495D01*
X171339736Y-59960369D01*
X171340636Y-59954302D01*
X171342126Y-59948352D01*
X171344193Y-59942577D01*
X171346815Y-59937033D01*
X171349968Y-59931772D01*
X171353622Y-59926845D01*
X171357741Y-59922301D01*
X171362285Y-59918182D01*
X171367212Y-59914528D01*
X171372473Y-59911375D01*
X171378017Y-59908753D01*
X171383792Y-59906686D01*
X171389742Y-59905196D01*
X171395809Y-59904296D01*
X171401935Y-59903995D01*
X171526935Y-59903995D01*
X171533061Y-59904296D01*
X171533061Y-59904296D01*
G37*
D18*
X171464435Y-60428995D03*
D10*
G36*
X172033061Y-59904296D02*
X172039128Y-59905196D01*
X172045078Y-59906686D01*
X172050853Y-59908753D01*
X172056397Y-59911375D01*
X172061658Y-59914528D01*
X172066585Y-59918182D01*
X172071129Y-59922301D01*
X172075248Y-59926845D01*
X172078902Y-59931772D01*
X172082055Y-59937033D01*
X172084677Y-59942577D01*
X172086744Y-59948352D01*
X172088234Y-59954302D01*
X172089134Y-59960369D01*
X172089435Y-59966495D01*
X172089435Y-60891495D01*
X172089134Y-60897621D01*
X172088234Y-60903688D01*
X172086744Y-60909638D01*
X172084677Y-60915413D01*
X172082055Y-60920957D01*
X172078902Y-60926218D01*
X172075248Y-60931145D01*
X172071129Y-60935689D01*
X172066585Y-60939808D01*
X172061658Y-60943462D01*
X172056397Y-60946615D01*
X172050853Y-60949237D01*
X172045078Y-60951304D01*
X172039128Y-60952794D01*
X172033061Y-60953694D01*
X172026935Y-60953995D01*
X171901935Y-60953995D01*
X171895809Y-60953694D01*
X171889742Y-60952794D01*
X171883792Y-60951304D01*
X171878017Y-60949237D01*
X171872473Y-60946615D01*
X171867212Y-60943462D01*
X171862285Y-60939808D01*
X171857741Y-60935689D01*
X171853622Y-60931145D01*
X171849968Y-60926218D01*
X171846815Y-60920957D01*
X171844193Y-60915413D01*
X171842126Y-60909638D01*
X171840636Y-60903688D01*
X171839736Y-60897621D01*
X171839435Y-60891495D01*
X171839435Y-59966495D01*
X171839736Y-59960369D01*
X171840636Y-59954302D01*
X171842126Y-59948352D01*
X171844193Y-59942577D01*
X171846815Y-59937033D01*
X171849968Y-59931772D01*
X171853622Y-59926845D01*
X171857741Y-59922301D01*
X171862285Y-59918182D01*
X171867212Y-59914528D01*
X171872473Y-59911375D01*
X171878017Y-59908753D01*
X171883792Y-59906686D01*
X171889742Y-59905196D01*
X171895809Y-59904296D01*
X171901935Y-59903995D01*
X172026935Y-59903995D01*
X172033061Y-59904296D01*
X172033061Y-59904296D01*
G37*
D18*
X171964435Y-60428995D03*
D10*
G36*
X172533061Y-59904296D02*
X172539128Y-59905196D01*
X172545078Y-59906686D01*
X172550853Y-59908753D01*
X172556397Y-59911375D01*
X172561658Y-59914528D01*
X172566585Y-59918182D01*
X172571129Y-59922301D01*
X172575248Y-59926845D01*
X172578902Y-59931772D01*
X172582055Y-59937033D01*
X172584677Y-59942577D01*
X172586744Y-59948352D01*
X172588234Y-59954302D01*
X172589134Y-59960369D01*
X172589435Y-59966495D01*
X172589435Y-60891495D01*
X172589134Y-60897621D01*
X172588234Y-60903688D01*
X172586744Y-60909638D01*
X172584677Y-60915413D01*
X172582055Y-60920957D01*
X172578902Y-60926218D01*
X172575248Y-60931145D01*
X172571129Y-60935689D01*
X172566585Y-60939808D01*
X172561658Y-60943462D01*
X172556397Y-60946615D01*
X172550853Y-60949237D01*
X172545078Y-60951304D01*
X172539128Y-60952794D01*
X172533061Y-60953694D01*
X172526935Y-60953995D01*
X172401935Y-60953995D01*
X172395809Y-60953694D01*
X172389742Y-60952794D01*
X172383792Y-60951304D01*
X172378017Y-60949237D01*
X172372473Y-60946615D01*
X172367212Y-60943462D01*
X172362285Y-60939808D01*
X172357741Y-60935689D01*
X172353622Y-60931145D01*
X172349968Y-60926218D01*
X172346815Y-60920957D01*
X172344193Y-60915413D01*
X172342126Y-60909638D01*
X172340636Y-60903688D01*
X172339736Y-60897621D01*
X172339435Y-60891495D01*
X172339435Y-59966495D01*
X172339736Y-59960369D01*
X172340636Y-59954302D01*
X172342126Y-59948352D01*
X172344193Y-59942577D01*
X172346815Y-59937033D01*
X172349968Y-59931772D01*
X172353622Y-59926845D01*
X172357741Y-59922301D01*
X172362285Y-59918182D01*
X172367212Y-59914528D01*
X172372473Y-59911375D01*
X172378017Y-59908753D01*
X172383792Y-59906686D01*
X172389742Y-59905196D01*
X172395809Y-59904296D01*
X172401935Y-59903995D01*
X172526935Y-59903995D01*
X172533061Y-59904296D01*
X172533061Y-59904296D01*
G37*
D18*
X172464435Y-60428995D03*
D10*
G36*
X173033061Y-59904296D02*
X173039128Y-59905196D01*
X173045078Y-59906686D01*
X173050853Y-59908753D01*
X173056397Y-59911375D01*
X173061658Y-59914528D01*
X173066585Y-59918182D01*
X173071129Y-59922301D01*
X173075248Y-59926845D01*
X173078902Y-59931772D01*
X173082055Y-59937033D01*
X173084677Y-59942577D01*
X173086744Y-59948352D01*
X173088234Y-59954302D01*
X173089134Y-59960369D01*
X173089435Y-59966495D01*
X173089435Y-60891495D01*
X173089134Y-60897621D01*
X173088234Y-60903688D01*
X173086744Y-60909638D01*
X173084677Y-60915413D01*
X173082055Y-60920957D01*
X173078902Y-60926218D01*
X173075248Y-60931145D01*
X173071129Y-60935689D01*
X173066585Y-60939808D01*
X173061658Y-60943462D01*
X173056397Y-60946615D01*
X173050853Y-60949237D01*
X173045078Y-60951304D01*
X173039128Y-60952794D01*
X173033061Y-60953694D01*
X173026935Y-60953995D01*
X172901935Y-60953995D01*
X172895809Y-60953694D01*
X172889742Y-60952794D01*
X172883792Y-60951304D01*
X172878017Y-60949237D01*
X172872473Y-60946615D01*
X172867212Y-60943462D01*
X172862285Y-60939808D01*
X172857741Y-60935689D01*
X172853622Y-60931145D01*
X172849968Y-60926218D01*
X172846815Y-60920957D01*
X172844193Y-60915413D01*
X172842126Y-60909638D01*
X172840636Y-60903688D01*
X172839736Y-60897621D01*
X172839435Y-60891495D01*
X172839435Y-59966495D01*
X172839736Y-59960369D01*
X172840636Y-59954302D01*
X172842126Y-59948352D01*
X172844193Y-59942577D01*
X172846815Y-59937033D01*
X172849968Y-59931772D01*
X172853622Y-59926845D01*
X172857741Y-59922301D01*
X172862285Y-59918182D01*
X172867212Y-59914528D01*
X172872473Y-59911375D01*
X172878017Y-59908753D01*
X172883792Y-59906686D01*
X172889742Y-59905196D01*
X172895809Y-59904296D01*
X172901935Y-59903995D01*
X173026935Y-59903995D01*
X173033061Y-59904296D01*
X173033061Y-59904296D01*
G37*
D18*
X172964435Y-60428995D03*
D10*
G36*
X173533061Y-59904296D02*
X173539128Y-59905196D01*
X173545078Y-59906686D01*
X173550853Y-59908753D01*
X173556397Y-59911375D01*
X173561658Y-59914528D01*
X173566585Y-59918182D01*
X173571129Y-59922301D01*
X173575248Y-59926845D01*
X173578902Y-59931772D01*
X173582055Y-59937033D01*
X173584677Y-59942577D01*
X173586744Y-59948352D01*
X173588234Y-59954302D01*
X173589134Y-59960369D01*
X173589435Y-59966495D01*
X173589435Y-60891495D01*
X173589134Y-60897621D01*
X173588234Y-60903688D01*
X173586744Y-60909638D01*
X173584677Y-60915413D01*
X173582055Y-60920957D01*
X173578902Y-60926218D01*
X173575248Y-60931145D01*
X173571129Y-60935689D01*
X173566585Y-60939808D01*
X173561658Y-60943462D01*
X173556397Y-60946615D01*
X173550853Y-60949237D01*
X173545078Y-60951304D01*
X173539128Y-60952794D01*
X173533061Y-60953694D01*
X173526935Y-60953995D01*
X173401935Y-60953995D01*
X173395809Y-60953694D01*
X173389742Y-60952794D01*
X173383792Y-60951304D01*
X173378017Y-60949237D01*
X173372473Y-60946615D01*
X173367212Y-60943462D01*
X173362285Y-60939808D01*
X173357741Y-60935689D01*
X173353622Y-60931145D01*
X173349968Y-60926218D01*
X173346815Y-60920957D01*
X173344193Y-60915413D01*
X173342126Y-60909638D01*
X173340636Y-60903688D01*
X173339736Y-60897621D01*
X173339435Y-60891495D01*
X173339435Y-59966495D01*
X173339736Y-59960369D01*
X173340636Y-59954302D01*
X173342126Y-59948352D01*
X173344193Y-59942577D01*
X173346815Y-59937033D01*
X173349968Y-59931772D01*
X173353622Y-59926845D01*
X173357741Y-59922301D01*
X173362285Y-59918182D01*
X173367212Y-59914528D01*
X173372473Y-59911375D01*
X173378017Y-59908753D01*
X173383792Y-59906686D01*
X173389742Y-59905196D01*
X173395809Y-59904296D01*
X173401935Y-59903995D01*
X173526935Y-59903995D01*
X173533061Y-59904296D01*
X173533061Y-59904296D01*
G37*
D18*
X173464435Y-60428995D03*
D10*
G36*
X174033061Y-59904296D02*
X174039128Y-59905196D01*
X174045078Y-59906686D01*
X174050853Y-59908753D01*
X174056397Y-59911375D01*
X174061658Y-59914528D01*
X174066585Y-59918182D01*
X174071129Y-59922301D01*
X174075248Y-59926845D01*
X174078902Y-59931772D01*
X174082055Y-59937033D01*
X174084677Y-59942577D01*
X174086744Y-59948352D01*
X174088234Y-59954302D01*
X174089134Y-59960369D01*
X174089435Y-59966495D01*
X174089435Y-60891495D01*
X174089134Y-60897621D01*
X174088234Y-60903688D01*
X174086744Y-60909638D01*
X174084677Y-60915413D01*
X174082055Y-60920957D01*
X174078902Y-60926218D01*
X174075248Y-60931145D01*
X174071129Y-60935689D01*
X174066585Y-60939808D01*
X174061658Y-60943462D01*
X174056397Y-60946615D01*
X174050853Y-60949237D01*
X174045078Y-60951304D01*
X174039128Y-60952794D01*
X174033061Y-60953694D01*
X174026935Y-60953995D01*
X173901935Y-60953995D01*
X173895809Y-60953694D01*
X173889742Y-60952794D01*
X173883792Y-60951304D01*
X173878017Y-60949237D01*
X173872473Y-60946615D01*
X173867212Y-60943462D01*
X173862285Y-60939808D01*
X173857741Y-60935689D01*
X173853622Y-60931145D01*
X173849968Y-60926218D01*
X173846815Y-60920957D01*
X173844193Y-60915413D01*
X173842126Y-60909638D01*
X173840636Y-60903688D01*
X173839736Y-60897621D01*
X173839435Y-60891495D01*
X173839435Y-59966495D01*
X173839736Y-59960369D01*
X173840636Y-59954302D01*
X173842126Y-59948352D01*
X173844193Y-59942577D01*
X173846815Y-59937033D01*
X173849968Y-59931772D01*
X173853622Y-59926845D01*
X173857741Y-59922301D01*
X173862285Y-59918182D01*
X173867212Y-59914528D01*
X173872473Y-59911375D01*
X173878017Y-59908753D01*
X173883792Y-59906686D01*
X173889742Y-59905196D01*
X173895809Y-59904296D01*
X173901935Y-59903995D01*
X174026935Y-59903995D01*
X174033061Y-59904296D01*
X174033061Y-59904296D01*
G37*
D18*
X173964435Y-60428995D03*
D10*
G36*
X174533061Y-59904296D02*
X174539128Y-59905196D01*
X174545078Y-59906686D01*
X174550853Y-59908753D01*
X174556397Y-59911375D01*
X174561658Y-59914528D01*
X174566585Y-59918182D01*
X174571129Y-59922301D01*
X174575248Y-59926845D01*
X174578902Y-59931772D01*
X174582055Y-59937033D01*
X174584677Y-59942577D01*
X174586744Y-59948352D01*
X174588234Y-59954302D01*
X174589134Y-59960369D01*
X174589435Y-59966495D01*
X174589435Y-60891495D01*
X174589134Y-60897621D01*
X174588234Y-60903688D01*
X174586744Y-60909638D01*
X174584677Y-60915413D01*
X174582055Y-60920957D01*
X174578902Y-60926218D01*
X174575248Y-60931145D01*
X174571129Y-60935689D01*
X174566585Y-60939808D01*
X174561658Y-60943462D01*
X174556397Y-60946615D01*
X174550853Y-60949237D01*
X174545078Y-60951304D01*
X174539128Y-60952794D01*
X174533061Y-60953694D01*
X174526935Y-60953995D01*
X174401935Y-60953995D01*
X174395809Y-60953694D01*
X174389742Y-60952794D01*
X174383792Y-60951304D01*
X174378017Y-60949237D01*
X174372473Y-60946615D01*
X174367212Y-60943462D01*
X174362285Y-60939808D01*
X174357741Y-60935689D01*
X174353622Y-60931145D01*
X174349968Y-60926218D01*
X174346815Y-60920957D01*
X174344193Y-60915413D01*
X174342126Y-60909638D01*
X174340636Y-60903688D01*
X174339736Y-60897621D01*
X174339435Y-60891495D01*
X174339435Y-59966495D01*
X174339736Y-59960369D01*
X174340636Y-59954302D01*
X174342126Y-59948352D01*
X174344193Y-59942577D01*
X174346815Y-59937033D01*
X174349968Y-59931772D01*
X174353622Y-59926845D01*
X174357741Y-59922301D01*
X174362285Y-59918182D01*
X174367212Y-59914528D01*
X174372473Y-59911375D01*
X174378017Y-59908753D01*
X174383792Y-59906686D01*
X174389742Y-59905196D01*
X174395809Y-59904296D01*
X174401935Y-59903995D01*
X174526935Y-59903995D01*
X174533061Y-59904296D01*
X174533061Y-59904296D01*
G37*
D18*
X174464435Y-60428995D03*
D10*
G36*
X175033061Y-59904296D02*
X175039128Y-59905196D01*
X175045078Y-59906686D01*
X175050853Y-59908753D01*
X175056397Y-59911375D01*
X175061658Y-59914528D01*
X175066585Y-59918182D01*
X175071129Y-59922301D01*
X175075248Y-59926845D01*
X175078902Y-59931772D01*
X175082055Y-59937033D01*
X175084677Y-59942577D01*
X175086744Y-59948352D01*
X175088234Y-59954302D01*
X175089134Y-59960369D01*
X175089435Y-59966495D01*
X175089435Y-60891495D01*
X175089134Y-60897621D01*
X175088234Y-60903688D01*
X175086744Y-60909638D01*
X175084677Y-60915413D01*
X175082055Y-60920957D01*
X175078902Y-60926218D01*
X175075248Y-60931145D01*
X175071129Y-60935689D01*
X175066585Y-60939808D01*
X175061658Y-60943462D01*
X175056397Y-60946615D01*
X175050853Y-60949237D01*
X175045078Y-60951304D01*
X175039128Y-60952794D01*
X175033061Y-60953694D01*
X175026935Y-60953995D01*
X174901935Y-60953995D01*
X174895809Y-60953694D01*
X174889742Y-60952794D01*
X174883792Y-60951304D01*
X174878017Y-60949237D01*
X174872473Y-60946615D01*
X174867212Y-60943462D01*
X174862285Y-60939808D01*
X174857741Y-60935689D01*
X174853622Y-60931145D01*
X174849968Y-60926218D01*
X174846815Y-60920957D01*
X174844193Y-60915413D01*
X174842126Y-60909638D01*
X174840636Y-60903688D01*
X174839736Y-60897621D01*
X174839435Y-60891495D01*
X174839435Y-59966495D01*
X174839736Y-59960369D01*
X174840636Y-59954302D01*
X174842126Y-59948352D01*
X174844193Y-59942577D01*
X174846815Y-59937033D01*
X174849968Y-59931772D01*
X174853622Y-59926845D01*
X174857741Y-59922301D01*
X174862285Y-59918182D01*
X174867212Y-59914528D01*
X174872473Y-59911375D01*
X174878017Y-59908753D01*
X174883792Y-59906686D01*
X174889742Y-59905196D01*
X174895809Y-59904296D01*
X174901935Y-59903995D01*
X175026935Y-59903995D01*
X175033061Y-59904296D01*
X175033061Y-59904296D01*
G37*
D18*
X174964435Y-60428995D03*
D10*
G36*
X175533061Y-59904296D02*
X175539128Y-59905196D01*
X175545078Y-59906686D01*
X175550853Y-59908753D01*
X175556397Y-59911375D01*
X175561658Y-59914528D01*
X175566585Y-59918182D01*
X175571129Y-59922301D01*
X175575248Y-59926845D01*
X175578902Y-59931772D01*
X175582055Y-59937033D01*
X175584677Y-59942577D01*
X175586744Y-59948352D01*
X175588234Y-59954302D01*
X175589134Y-59960369D01*
X175589435Y-59966495D01*
X175589435Y-60891495D01*
X175589134Y-60897621D01*
X175588234Y-60903688D01*
X175586744Y-60909638D01*
X175584677Y-60915413D01*
X175582055Y-60920957D01*
X175578902Y-60926218D01*
X175575248Y-60931145D01*
X175571129Y-60935689D01*
X175566585Y-60939808D01*
X175561658Y-60943462D01*
X175556397Y-60946615D01*
X175550853Y-60949237D01*
X175545078Y-60951304D01*
X175539128Y-60952794D01*
X175533061Y-60953694D01*
X175526935Y-60953995D01*
X175401935Y-60953995D01*
X175395809Y-60953694D01*
X175389742Y-60952794D01*
X175383792Y-60951304D01*
X175378017Y-60949237D01*
X175372473Y-60946615D01*
X175367212Y-60943462D01*
X175362285Y-60939808D01*
X175357741Y-60935689D01*
X175353622Y-60931145D01*
X175349968Y-60926218D01*
X175346815Y-60920957D01*
X175344193Y-60915413D01*
X175342126Y-60909638D01*
X175340636Y-60903688D01*
X175339736Y-60897621D01*
X175339435Y-60891495D01*
X175339435Y-59966495D01*
X175339736Y-59960369D01*
X175340636Y-59954302D01*
X175342126Y-59948352D01*
X175344193Y-59942577D01*
X175346815Y-59937033D01*
X175349968Y-59931772D01*
X175353622Y-59926845D01*
X175357741Y-59922301D01*
X175362285Y-59918182D01*
X175367212Y-59914528D01*
X175372473Y-59911375D01*
X175378017Y-59908753D01*
X175383792Y-59906686D01*
X175389742Y-59905196D01*
X175395809Y-59904296D01*
X175401935Y-59903995D01*
X175526935Y-59903995D01*
X175533061Y-59904296D01*
X175533061Y-59904296D01*
G37*
D18*
X175464435Y-60428995D03*
D10*
G36*
X176783061Y-61154296D02*
X176789128Y-61155196D01*
X176795078Y-61156686D01*
X176800853Y-61158753D01*
X176806397Y-61161375D01*
X176811658Y-61164528D01*
X176816585Y-61168182D01*
X176821129Y-61172301D01*
X176825248Y-61176845D01*
X176828902Y-61181772D01*
X176832055Y-61187033D01*
X176834677Y-61192577D01*
X176836744Y-61198352D01*
X176838234Y-61204302D01*
X176839134Y-61210369D01*
X176839435Y-61216495D01*
X176839435Y-61341495D01*
X176839134Y-61347621D01*
X176838234Y-61353688D01*
X176836744Y-61359638D01*
X176834677Y-61365413D01*
X176832055Y-61370957D01*
X176828902Y-61376218D01*
X176825248Y-61381145D01*
X176821129Y-61385689D01*
X176816585Y-61389808D01*
X176811658Y-61393462D01*
X176806397Y-61396615D01*
X176800853Y-61399237D01*
X176795078Y-61401304D01*
X176789128Y-61402794D01*
X176783061Y-61403694D01*
X176776935Y-61403995D01*
X175851935Y-61403995D01*
X175845809Y-61403694D01*
X175839742Y-61402794D01*
X175833792Y-61401304D01*
X175828017Y-61399237D01*
X175822473Y-61396615D01*
X175817212Y-61393462D01*
X175812285Y-61389808D01*
X175807741Y-61385689D01*
X175803622Y-61381145D01*
X175799968Y-61376218D01*
X175796815Y-61370957D01*
X175794193Y-61365413D01*
X175792126Y-61359638D01*
X175790636Y-61353688D01*
X175789736Y-61347621D01*
X175789435Y-61341495D01*
X175789435Y-61216495D01*
X175789736Y-61210369D01*
X175790636Y-61204302D01*
X175792126Y-61198352D01*
X175794193Y-61192577D01*
X175796815Y-61187033D01*
X175799968Y-61181772D01*
X175803622Y-61176845D01*
X175807741Y-61172301D01*
X175812285Y-61168182D01*
X175817212Y-61164528D01*
X175822473Y-61161375D01*
X175828017Y-61158753D01*
X175833792Y-61156686D01*
X175839742Y-61155196D01*
X175845809Y-61154296D01*
X175851935Y-61153995D01*
X176776935Y-61153995D01*
X176783061Y-61154296D01*
X176783061Y-61154296D01*
G37*
D18*
X176314435Y-61278995D03*
D10*
G36*
X176783061Y-61654296D02*
X176789128Y-61655196D01*
X176795078Y-61656686D01*
X176800853Y-61658753D01*
X176806397Y-61661375D01*
X176811658Y-61664528D01*
X176816585Y-61668182D01*
X176821129Y-61672301D01*
X176825248Y-61676845D01*
X176828902Y-61681772D01*
X176832055Y-61687033D01*
X176834677Y-61692577D01*
X176836744Y-61698352D01*
X176838234Y-61704302D01*
X176839134Y-61710369D01*
X176839435Y-61716495D01*
X176839435Y-61841495D01*
X176839134Y-61847621D01*
X176838234Y-61853688D01*
X176836744Y-61859638D01*
X176834677Y-61865413D01*
X176832055Y-61870957D01*
X176828902Y-61876218D01*
X176825248Y-61881145D01*
X176821129Y-61885689D01*
X176816585Y-61889808D01*
X176811658Y-61893462D01*
X176806397Y-61896615D01*
X176800853Y-61899237D01*
X176795078Y-61901304D01*
X176789128Y-61902794D01*
X176783061Y-61903694D01*
X176776935Y-61903995D01*
X175851935Y-61903995D01*
X175845809Y-61903694D01*
X175839742Y-61902794D01*
X175833792Y-61901304D01*
X175828017Y-61899237D01*
X175822473Y-61896615D01*
X175817212Y-61893462D01*
X175812285Y-61889808D01*
X175807741Y-61885689D01*
X175803622Y-61881145D01*
X175799968Y-61876218D01*
X175796815Y-61870957D01*
X175794193Y-61865413D01*
X175792126Y-61859638D01*
X175790636Y-61853688D01*
X175789736Y-61847621D01*
X175789435Y-61841495D01*
X175789435Y-61716495D01*
X175789736Y-61710369D01*
X175790636Y-61704302D01*
X175792126Y-61698352D01*
X175794193Y-61692577D01*
X175796815Y-61687033D01*
X175799968Y-61681772D01*
X175803622Y-61676845D01*
X175807741Y-61672301D01*
X175812285Y-61668182D01*
X175817212Y-61664528D01*
X175822473Y-61661375D01*
X175828017Y-61658753D01*
X175833792Y-61656686D01*
X175839742Y-61655196D01*
X175845809Y-61654296D01*
X175851935Y-61653995D01*
X176776935Y-61653995D01*
X176783061Y-61654296D01*
X176783061Y-61654296D01*
G37*
D18*
X176314435Y-61778995D03*
D10*
G36*
X176783061Y-62154296D02*
X176789128Y-62155196D01*
X176795078Y-62156686D01*
X176800853Y-62158753D01*
X176806397Y-62161375D01*
X176811658Y-62164528D01*
X176816585Y-62168182D01*
X176821129Y-62172301D01*
X176825248Y-62176845D01*
X176828902Y-62181772D01*
X176832055Y-62187033D01*
X176834677Y-62192577D01*
X176836744Y-62198352D01*
X176838234Y-62204302D01*
X176839134Y-62210369D01*
X176839435Y-62216495D01*
X176839435Y-62341495D01*
X176839134Y-62347621D01*
X176838234Y-62353688D01*
X176836744Y-62359638D01*
X176834677Y-62365413D01*
X176832055Y-62370957D01*
X176828902Y-62376218D01*
X176825248Y-62381145D01*
X176821129Y-62385689D01*
X176816585Y-62389808D01*
X176811658Y-62393462D01*
X176806397Y-62396615D01*
X176800853Y-62399237D01*
X176795078Y-62401304D01*
X176789128Y-62402794D01*
X176783061Y-62403694D01*
X176776935Y-62403995D01*
X175851935Y-62403995D01*
X175845809Y-62403694D01*
X175839742Y-62402794D01*
X175833792Y-62401304D01*
X175828017Y-62399237D01*
X175822473Y-62396615D01*
X175817212Y-62393462D01*
X175812285Y-62389808D01*
X175807741Y-62385689D01*
X175803622Y-62381145D01*
X175799968Y-62376218D01*
X175796815Y-62370957D01*
X175794193Y-62365413D01*
X175792126Y-62359638D01*
X175790636Y-62353688D01*
X175789736Y-62347621D01*
X175789435Y-62341495D01*
X175789435Y-62216495D01*
X175789736Y-62210369D01*
X175790636Y-62204302D01*
X175792126Y-62198352D01*
X175794193Y-62192577D01*
X175796815Y-62187033D01*
X175799968Y-62181772D01*
X175803622Y-62176845D01*
X175807741Y-62172301D01*
X175812285Y-62168182D01*
X175817212Y-62164528D01*
X175822473Y-62161375D01*
X175828017Y-62158753D01*
X175833792Y-62156686D01*
X175839742Y-62155196D01*
X175845809Y-62154296D01*
X175851935Y-62153995D01*
X176776935Y-62153995D01*
X176783061Y-62154296D01*
X176783061Y-62154296D01*
G37*
D18*
X176314435Y-62278995D03*
D10*
G36*
X176783061Y-62654296D02*
X176789128Y-62655196D01*
X176795078Y-62656686D01*
X176800853Y-62658753D01*
X176806397Y-62661375D01*
X176811658Y-62664528D01*
X176816585Y-62668182D01*
X176821129Y-62672301D01*
X176825248Y-62676845D01*
X176828902Y-62681772D01*
X176832055Y-62687033D01*
X176834677Y-62692577D01*
X176836744Y-62698352D01*
X176838234Y-62704302D01*
X176839134Y-62710369D01*
X176839435Y-62716495D01*
X176839435Y-62841495D01*
X176839134Y-62847621D01*
X176838234Y-62853688D01*
X176836744Y-62859638D01*
X176834677Y-62865413D01*
X176832055Y-62870957D01*
X176828902Y-62876218D01*
X176825248Y-62881145D01*
X176821129Y-62885689D01*
X176816585Y-62889808D01*
X176811658Y-62893462D01*
X176806397Y-62896615D01*
X176800853Y-62899237D01*
X176795078Y-62901304D01*
X176789128Y-62902794D01*
X176783061Y-62903694D01*
X176776935Y-62903995D01*
X175851935Y-62903995D01*
X175845809Y-62903694D01*
X175839742Y-62902794D01*
X175833792Y-62901304D01*
X175828017Y-62899237D01*
X175822473Y-62896615D01*
X175817212Y-62893462D01*
X175812285Y-62889808D01*
X175807741Y-62885689D01*
X175803622Y-62881145D01*
X175799968Y-62876218D01*
X175796815Y-62870957D01*
X175794193Y-62865413D01*
X175792126Y-62859638D01*
X175790636Y-62853688D01*
X175789736Y-62847621D01*
X175789435Y-62841495D01*
X175789435Y-62716495D01*
X175789736Y-62710369D01*
X175790636Y-62704302D01*
X175792126Y-62698352D01*
X175794193Y-62692577D01*
X175796815Y-62687033D01*
X175799968Y-62681772D01*
X175803622Y-62676845D01*
X175807741Y-62672301D01*
X175812285Y-62668182D01*
X175817212Y-62664528D01*
X175822473Y-62661375D01*
X175828017Y-62658753D01*
X175833792Y-62656686D01*
X175839742Y-62655196D01*
X175845809Y-62654296D01*
X175851935Y-62653995D01*
X176776935Y-62653995D01*
X176783061Y-62654296D01*
X176783061Y-62654296D01*
G37*
D18*
X176314435Y-62778995D03*
D10*
G36*
X176783061Y-63154296D02*
X176789128Y-63155196D01*
X176795078Y-63156686D01*
X176800853Y-63158753D01*
X176806397Y-63161375D01*
X176811658Y-63164528D01*
X176816585Y-63168182D01*
X176821129Y-63172301D01*
X176825248Y-63176845D01*
X176828902Y-63181772D01*
X176832055Y-63187033D01*
X176834677Y-63192577D01*
X176836744Y-63198352D01*
X176838234Y-63204302D01*
X176839134Y-63210369D01*
X176839435Y-63216495D01*
X176839435Y-63341495D01*
X176839134Y-63347621D01*
X176838234Y-63353688D01*
X176836744Y-63359638D01*
X176834677Y-63365413D01*
X176832055Y-63370957D01*
X176828902Y-63376218D01*
X176825248Y-63381145D01*
X176821129Y-63385689D01*
X176816585Y-63389808D01*
X176811658Y-63393462D01*
X176806397Y-63396615D01*
X176800853Y-63399237D01*
X176795078Y-63401304D01*
X176789128Y-63402794D01*
X176783061Y-63403694D01*
X176776935Y-63403995D01*
X175851935Y-63403995D01*
X175845809Y-63403694D01*
X175839742Y-63402794D01*
X175833792Y-63401304D01*
X175828017Y-63399237D01*
X175822473Y-63396615D01*
X175817212Y-63393462D01*
X175812285Y-63389808D01*
X175807741Y-63385689D01*
X175803622Y-63381145D01*
X175799968Y-63376218D01*
X175796815Y-63370957D01*
X175794193Y-63365413D01*
X175792126Y-63359638D01*
X175790636Y-63353688D01*
X175789736Y-63347621D01*
X175789435Y-63341495D01*
X175789435Y-63216495D01*
X175789736Y-63210369D01*
X175790636Y-63204302D01*
X175792126Y-63198352D01*
X175794193Y-63192577D01*
X175796815Y-63187033D01*
X175799968Y-63181772D01*
X175803622Y-63176845D01*
X175807741Y-63172301D01*
X175812285Y-63168182D01*
X175817212Y-63164528D01*
X175822473Y-63161375D01*
X175828017Y-63158753D01*
X175833792Y-63156686D01*
X175839742Y-63155196D01*
X175845809Y-63154296D01*
X175851935Y-63153995D01*
X176776935Y-63153995D01*
X176783061Y-63154296D01*
X176783061Y-63154296D01*
G37*
D18*
X176314435Y-63278995D03*
D10*
G36*
X176783061Y-63654296D02*
X176789128Y-63655196D01*
X176795078Y-63656686D01*
X176800853Y-63658753D01*
X176806397Y-63661375D01*
X176811658Y-63664528D01*
X176816585Y-63668182D01*
X176821129Y-63672301D01*
X176825248Y-63676845D01*
X176828902Y-63681772D01*
X176832055Y-63687033D01*
X176834677Y-63692577D01*
X176836744Y-63698352D01*
X176838234Y-63704302D01*
X176839134Y-63710369D01*
X176839435Y-63716495D01*
X176839435Y-63841495D01*
X176839134Y-63847621D01*
X176838234Y-63853688D01*
X176836744Y-63859638D01*
X176834677Y-63865413D01*
X176832055Y-63870957D01*
X176828902Y-63876218D01*
X176825248Y-63881145D01*
X176821129Y-63885689D01*
X176816585Y-63889808D01*
X176811658Y-63893462D01*
X176806397Y-63896615D01*
X176800853Y-63899237D01*
X176795078Y-63901304D01*
X176789128Y-63902794D01*
X176783061Y-63903694D01*
X176776935Y-63903995D01*
X175851935Y-63903995D01*
X175845809Y-63903694D01*
X175839742Y-63902794D01*
X175833792Y-63901304D01*
X175828017Y-63899237D01*
X175822473Y-63896615D01*
X175817212Y-63893462D01*
X175812285Y-63889808D01*
X175807741Y-63885689D01*
X175803622Y-63881145D01*
X175799968Y-63876218D01*
X175796815Y-63870957D01*
X175794193Y-63865413D01*
X175792126Y-63859638D01*
X175790636Y-63853688D01*
X175789736Y-63847621D01*
X175789435Y-63841495D01*
X175789435Y-63716495D01*
X175789736Y-63710369D01*
X175790636Y-63704302D01*
X175792126Y-63698352D01*
X175794193Y-63692577D01*
X175796815Y-63687033D01*
X175799968Y-63681772D01*
X175803622Y-63676845D01*
X175807741Y-63672301D01*
X175812285Y-63668182D01*
X175817212Y-63664528D01*
X175822473Y-63661375D01*
X175828017Y-63658753D01*
X175833792Y-63656686D01*
X175839742Y-63655196D01*
X175845809Y-63654296D01*
X175851935Y-63653995D01*
X176776935Y-63653995D01*
X176783061Y-63654296D01*
X176783061Y-63654296D01*
G37*
D18*
X176314435Y-63778995D03*
D10*
G36*
X176783061Y-64154296D02*
X176789128Y-64155196D01*
X176795078Y-64156686D01*
X176800853Y-64158753D01*
X176806397Y-64161375D01*
X176811658Y-64164528D01*
X176816585Y-64168182D01*
X176821129Y-64172301D01*
X176825248Y-64176845D01*
X176828902Y-64181772D01*
X176832055Y-64187033D01*
X176834677Y-64192577D01*
X176836744Y-64198352D01*
X176838234Y-64204302D01*
X176839134Y-64210369D01*
X176839435Y-64216495D01*
X176839435Y-64341495D01*
X176839134Y-64347621D01*
X176838234Y-64353688D01*
X176836744Y-64359638D01*
X176834677Y-64365413D01*
X176832055Y-64370957D01*
X176828902Y-64376218D01*
X176825248Y-64381145D01*
X176821129Y-64385689D01*
X176816585Y-64389808D01*
X176811658Y-64393462D01*
X176806397Y-64396615D01*
X176800853Y-64399237D01*
X176795078Y-64401304D01*
X176789128Y-64402794D01*
X176783061Y-64403694D01*
X176776935Y-64403995D01*
X175851935Y-64403995D01*
X175845809Y-64403694D01*
X175839742Y-64402794D01*
X175833792Y-64401304D01*
X175828017Y-64399237D01*
X175822473Y-64396615D01*
X175817212Y-64393462D01*
X175812285Y-64389808D01*
X175807741Y-64385689D01*
X175803622Y-64381145D01*
X175799968Y-64376218D01*
X175796815Y-64370957D01*
X175794193Y-64365413D01*
X175792126Y-64359638D01*
X175790636Y-64353688D01*
X175789736Y-64347621D01*
X175789435Y-64341495D01*
X175789435Y-64216495D01*
X175789736Y-64210369D01*
X175790636Y-64204302D01*
X175792126Y-64198352D01*
X175794193Y-64192577D01*
X175796815Y-64187033D01*
X175799968Y-64181772D01*
X175803622Y-64176845D01*
X175807741Y-64172301D01*
X175812285Y-64168182D01*
X175817212Y-64164528D01*
X175822473Y-64161375D01*
X175828017Y-64158753D01*
X175833792Y-64156686D01*
X175839742Y-64155196D01*
X175845809Y-64154296D01*
X175851935Y-64153995D01*
X176776935Y-64153995D01*
X176783061Y-64154296D01*
X176783061Y-64154296D01*
G37*
D18*
X176314435Y-64278995D03*
D10*
G36*
X176783061Y-64654296D02*
X176789128Y-64655196D01*
X176795078Y-64656686D01*
X176800853Y-64658753D01*
X176806397Y-64661375D01*
X176811658Y-64664528D01*
X176816585Y-64668182D01*
X176821129Y-64672301D01*
X176825248Y-64676845D01*
X176828902Y-64681772D01*
X176832055Y-64687033D01*
X176834677Y-64692577D01*
X176836744Y-64698352D01*
X176838234Y-64704302D01*
X176839134Y-64710369D01*
X176839435Y-64716495D01*
X176839435Y-64841495D01*
X176839134Y-64847621D01*
X176838234Y-64853688D01*
X176836744Y-64859638D01*
X176834677Y-64865413D01*
X176832055Y-64870957D01*
X176828902Y-64876218D01*
X176825248Y-64881145D01*
X176821129Y-64885689D01*
X176816585Y-64889808D01*
X176811658Y-64893462D01*
X176806397Y-64896615D01*
X176800853Y-64899237D01*
X176795078Y-64901304D01*
X176789128Y-64902794D01*
X176783061Y-64903694D01*
X176776935Y-64903995D01*
X175851935Y-64903995D01*
X175845809Y-64903694D01*
X175839742Y-64902794D01*
X175833792Y-64901304D01*
X175828017Y-64899237D01*
X175822473Y-64896615D01*
X175817212Y-64893462D01*
X175812285Y-64889808D01*
X175807741Y-64885689D01*
X175803622Y-64881145D01*
X175799968Y-64876218D01*
X175796815Y-64870957D01*
X175794193Y-64865413D01*
X175792126Y-64859638D01*
X175790636Y-64853688D01*
X175789736Y-64847621D01*
X175789435Y-64841495D01*
X175789435Y-64716495D01*
X175789736Y-64710369D01*
X175790636Y-64704302D01*
X175792126Y-64698352D01*
X175794193Y-64692577D01*
X175796815Y-64687033D01*
X175799968Y-64681772D01*
X175803622Y-64676845D01*
X175807741Y-64672301D01*
X175812285Y-64668182D01*
X175817212Y-64664528D01*
X175822473Y-64661375D01*
X175828017Y-64658753D01*
X175833792Y-64656686D01*
X175839742Y-64655196D01*
X175845809Y-64654296D01*
X175851935Y-64653995D01*
X176776935Y-64653995D01*
X176783061Y-64654296D01*
X176783061Y-64654296D01*
G37*
D18*
X176314435Y-64778995D03*
D10*
G36*
X176783061Y-65154296D02*
X176789128Y-65155196D01*
X176795078Y-65156686D01*
X176800853Y-65158753D01*
X176806397Y-65161375D01*
X176811658Y-65164528D01*
X176816585Y-65168182D01*
X176821129Y-65172301D01*
X176825248Y-65176845D01*
X176828902Y-65181772D01*
X176832055Y-65187033D01*
X176834677Y-65192577D01*
X176836744Y-65198352D01*
X176838234Y-65204302D01*
X176839134Y-65210369D01*
X176839435Y-65216495D01*
X176839435Y-65341495D01*
X176839134Y-65347621D01*
X176838234Y-65353688D01*
X176836744Y-65359638D01*
X176834677Y-65365413D01*
X176832055Y-65370957D01*
X176828902Y-65376218D01*
X176825248Y-65381145D01*
X176821129Y-65385689D01*
X176816585Y-65389808D01*
X176811658Y-65393462D01*
X176806397Y-65396615D01*
X176800853Y-65399237D01*
X176795078Y-65401304D01*
X176789128Y-65402794D01*
X176783061Y-65403694D01*
X176776935Y-65403995D01*
X175851935Y-65403995D01*
X175845809Y-65403694D01*
X175839742Y-65402794D01*
X175833792Y-65401304D01*
X175828017Y-65399237D01*
X175822473Y-65396615D01*
X175817212Y-65393462D01*
X175812285Y-65389808D01*
X175807741Y-65385689D01*
X175803622Y-65381145D01*
X175799968Y-65376218D01*
X175796815Y-65370957D01*
X175794193Y-65365413D01*
X175792126Y-65359638D01*
X175790636Y-65353688D01*
X175789736Y-65347621D01*
X175789435Y-65341495D01*
X175789435Y-65216495D01*
X175789736Y-65210369D01*
X175790636Y-65204302D01*
X175792126Y-65198352D01*
X175794193Y-65192577D01*
X175796815Y-65187033D01*
X175799968Y-65181772D01*
X175803622Y-65176845D01*
X175807741Y-65172301D01*
X175812285Y-65168182D01*
X175817212Y-65164528D01*
X175822473Y-65161375D01*
X175828017Y-65158753D01*
X175833792Y-65156686D01*
X175839742Y-65155196D01*
X175845809Y-65154296D01*
X175851935Y-65153995D01*
X176776935Y-65153995D01*
X176783061Y-65154296D01*
X176783061Y-65154296D01*
G37*
D18*
X176314435Y-65278995D03*
D10*
G36*
X176783061Y-65654296D02*
X176789128Y-65655196D01*
X176795078Y-65656686D01*
X176800853Y-65658753D01*
X176806397Y-65661375D01*
X176811658Y-65664528D01*
X176816585Y-65668182D01*
X176821129Y-65672301D01*
X176825248Y-65676845D01*
X176828902Y-65681772D01*
X176832055Y-65687033D01*
X176834677Y-65692577D01*
X176836744Y-65698352D01*
X176838234Y-65704302D01*
X176839134Y-65710369D01*
X176839435Y-65716495D01*
X176839435Y-65841495D01*
X176839134Y-65847621D01*
X176838234Y-65853688D01*
X176836744Y-65859638D01*
X176834677Y-65865413D01*
X176832055Y-65870957D01*
X176828902Y-65876218D01*
X176825248Y-65881145D01*
X176821129Y-65885689D01*
X176816585Y-65889808D01*
X176811658Y-65893462D01*
X176806397Y-65896615D01*
X176800853Y-65899237D01*
X176795078Y-65901304D01*
X176789128Y-65902794D01*
X176783061Y-65903694D01*
X176776935Y-65903995D01*
X175851935Y-65903995D01*
X175845809Y-65903694D01*
X175839742Y-65902794D01*
X175833792Y-65901304D01*
X175828017Y-65899237D01*
X175822473Y-65896615D01*
X175817212Y-65893462D01*
X175812285Y-65889808D01*
X175807741Y-65885689D01*
X175803622Y-65881145D01*
X175799968Y-65876218D01*
X175796815Y-65870957D01*
X175794193Y-65865413D01*
X175792126Y-65859638D01*
X175790636Y-65853688D01*
X175789736Y-65847621D01*
X175789435Y-65841495D01*
X175789435Y-65716495D01*
X175789736Y-65710369D01*
X175790636Y-65704302D01*
X175792126Y-65698352D01*
X175794193Y-65692577D01*
X175796815Y-65687033D01*
X175799968Y-65681772D01*
X175803622Y-65676845D01*
X175807741Y-65672301D01*
X175812285Y-65668182D01*
X175817212Y-65664528D01*
X175822473Y-65661375D01*
X175828017Y-65658753D01*
X175833792Y-65656686D01*
X175839742Y-65655196D01*
X175845809Y-65654296D01*
X175851935Y-65653995D01*
X176776935Y-65653995D01*
X176783061Y-65654296D01*
X176783061Y-65654296D01*
G37*
D18*
X176314435Y-65778995D03*
D10*
G36*
X176783061Y-66154296D02*
X176789128Y-66155196D01*
X176795078Y-66156686D01*
X176800853Y-66158753D01*
X176806397Y-66161375D01*
X176811658Y-66164528D01*
X176816585Y-66168182D01*
X176821129Y-66172301D01*
X176825248Y-66176845D01*
X176828902Y-66181772D01*
X176832055Y-66187033D01*
X176834677Y-66192577D01*
X176836744Y-66198352D01*
X176838234Y-66204302D01*
X176839134Y-66210369D01*
X176839435Y-66216495D01*
X176839435Y-66341495D01*
X176839134Y-66347621D01*
X176838234Y-66353688D01*
X176836744Y-66359638D01*
X176834677Y-66365413D01*
X176832055Y-66370957D01*
X176828902Y-66376218D01*
X176825248Y-66381145D01*
X176821129Y-66385689D01*
X176816585Y-66389808D01*
X176811658Y-66393462D01*
X176806397Y-66396615D01*
X176800853Y-66399237D01*
X176795078Y-66401304D01*
X176789128Y-66402794D01*
X176783061Y-66403694D01*
X176776935Y-66403995D01*
X175851935Y-66403995D01*
X175845809Y-66403694D01*
X175839742Y-66402794D01*
X175833792Y-66401304D01*
X175828017Y-66399237D01*
X175822473Y-66396615D01*
X175817212Y-66393462D01*
X175812285Y-66389808D01*
X175807741Y-66385689D01*
X175803622Y-66381145D01*
X175799968Y-66376218D01*
X175796815Y-66370957D01*
X175794193Y-66365413D01*
X175792126Y-66359638D01*
X175790636Y-66353688D01*
X175789736Y-66347621D01*
X175789435Y-66341495D01*
X175789435Y-66216495D01*
X175789736Y-66210369D01*
X175790636Y-66204302D01*
X175792126Y-66198352D01*
X175794193Y-66192577D01*
X175796815Y-66187033D01*
X175799968Y-66181772D01*
X175803622Y-66176845D01*
X175807741Y-66172301D01*
X175812285Y-66168182D01*
X175817212Y-66164528D01*
X175822473Y-66161375D01*
X175828017Y-66158753D01*
X175833792Y-66156686D01*
X175839742Y-66155196D01*
X175845809Y-66154296D01*
X175851935Y-66153995D01*
X176776935Y-66153995D01*
X176783061Y-66154296D01*
X176783061Y-66154296D01*
G37*
D18*
X176314435Y-66278995D03*
D10*
G36*
X175533061Y-66604296D02*
X175539128Y-66605196D01*
X175545078Y-66606686D01*
X175550853Y-66608753D01*
X175556397Y-66611375D01*
X175561658Y-66614528D01*
X175566585Y-66618182D01*
X175571129Y-66622301D01*
X175575248Y-66626845D01*
X175578902Y-66631772D01*
X175582055Y-66637033D01*
X175584677Y-66642577D01*
X175586744Y-66648352D01*
X175588234Y-66654302D01*
X175589134Y-66660369D01*
X175589435Y-66666495D01*
X175589435Y-67591495D01*
X175589134Y-67597621D01*
X175588234Y-67603688D01*
X175586744Y-67609638D01*
X175584677Y-67615413D01*
X175582055Y-67620957D01*
X175578902Y-67626218D01*
X175575248Y-67631145D01*
X175571129Y-67635689D01*
X175566585Y-67639808D01*
X175561658Y-67643462D01*
X175556397Y-67646615D01*
X175550853Y-67649237D01*
X175545078Y-67651304D01*
X175539128Y-67652794D01*
X175533061Y-67653694D01*
X175526935Y-67653995D01*
X175401935Y-67653995D01*
X175395809Y-67653694D01*
X175389742Y-67652794D01*
X175383792Y-67651304D01*
X175378017Y-67649237D01*
X175372473Y-67646615D01*
X175367212Y-67643462D01*
X175362285Y-67639808D01*
X175357741Y-67635689D01*
X175353622Y-67631145D01*
X175349968Y-67626218D01*
X175346815Y-67620957D01*
X175344193Y-67615413D01*
X175342126Y-67609638D01*
X175340636Y-67603688D01*
X175339736Y-67597621D01*
X175339435Y-67591495D01*
X175339435Y-66666495D01*
X175339736Y-66660369D01*
X175340636Y-66654302D01*
X175342126Y-66648352D01*
X175344193Y-66642577D01*
X175346815Y-66637033D01*
X175349968Y-66631772D01*
X175353622Y-66626845D01*
X175357741Y-66622301D01*
X175362285Y-66618182D01*
X175367212Y-66614528D01*
X175372473Y-66611375D01*
X175378017Y-66608753D01*
X175383792Y-66606686D01*
X175389742Y-66605196D01*
X175395809Y-66604296D01*
X175401935Y-66603995D01*
X175526935Y-66603995D01*
X175533061Y-66604296D01*
X175533061Y-66604296D01*
G37*
D18*
X175464435Y-67128995D03*
D10*
G36*
X175033061Y-66604296D02*
X175039128Y-66605196D01*
X175045078Y-66606686D01*
X175050853Y-66608753D01*
X175056397Y-66611375D01*
X175061658Y-66614528D01*
X175066585Y-66618182D01*
X175071129Y-66622301D01*
X175075248Y-66626845D01*
X175078902Y-66631772D01*
X175082055Y-66637033D01*
X175084677Y-66642577D01*
X175086744Y-66648352D01*
X175088234Y-66654302D01*
X175089134Y-66660369D01*
X175089435Y-66666495D01*
X175089435Y-67591495D01*
X175089134Y-67597621D01*
X175088234Y-67603688D01*
X175086744Y-67609638D01*
X175084677Y-67615413D01*
X175082055Y-67620957D01*
X175078902Y-67626218D01*
X175075248Y-67631145D01*
X175071129Y-67635689D01*
X175066585Y-67639808D01*
X175061658Y-67643462D01*
X175056397Y-67646615D01*
X175050853Y-67649237D01*
X175045078Y-67651304D01*
X175039128Y-67652794D01*
X175033061Y-67653694D01*
X175026935Y-67653995D01*
X174901935Y-67653995D01*
X174895809Y-67653694D01*
X174889742Y-67652794D01*
X174883792Y-67651304D01*
X174878017Y-67649237D01*
X174872473Y-67646615D01*
X174867212Y-67643462D01*
X174862285Y-67639808D01*
X174857741Y-67635689D01*
X174853622Y-67631145D01*
X174849968Y-67626218D01*
X174846815Y-67620957D01*
X174844193Y-67615413D01*
X174842126Y-67609638D01*
X174840636Y-67603688D01*
X174839736Y-67597621D01*
X174839435Y-67591495D01*
X174839435Y-66666495D01*
X174839736Y-66660369D01*
X174840636Y-66654302D01*
X174842126Y-66648352D01*
X174844193Y-66642577D01*
X174846815Y-66637033D01*
X174849968Y-66631772D01*
X174853622Y-66626845D01*
X174857741Y-66622301D01*
X174862285Y-66618182D01*
X174867212Y-66614528D01*
X174872473Y-66611375D01*
X174878017Y-66608753D01*
X174883792Y-66606686D01*
X174889742Y-66605196D01*
X174895809Y-66604296D01*
X174901935Y-66603995D01*
X175026935Y-66603995D01*
X175033061Y-66604296D01*
X175033061Y-66604296D01*
G37*
D18*
X174964435Y-67128995D03*
D10*
G36*
X174533061Y-66604296D02*
X174539128Y-66605196D01*
X174545078Y-66606686D01*
X174550853Y-66608753D01*
X174556397Y-66611375D01*
X174561658Y-66614528D01*
X174566585Y-66618182D01*
X174571129Y-66622301D01*
X174575248Y-66626845D01*
X174578902Y-66631772D01*
X174582055Y-66637033D01*
X174584677Y-66642577D01*
X174586744Y-66648352D01*
X174588234Y-66654302D01*
X174589134Y-66660369D01*
X174589435Y-66666495D01*
X174589435Y-67591495D01*
X174589134Y-67597621D01*
X174588234Y-67603688D01*
X174586744Y-67609638D01*
X174584677Y-67615413D01*
X174582055Y-67620957D01*
X174578902Y-67626218D01*
X174575248Y-67631145D01*
X174571129Y-67635689D01*
X174566585Y-67639808D01*
X174561658Y-67643462D01*
X174556397Y-67646615D01*
X174550853Y-67649237D01*
X174545078Y-67651304D01*
X174539128Y-67652794D01*
X174533061Y-67653694D01*
X174526935Y-67653995D01*
X174401935Y-67653995D01*
X174395809Y-67653694D01*
X174389742Y-67652794D01*
X174383792Y-67651304D01*
X174378017Y-67649237D01*
X174372473Y-67646615D01*
X174367212Y-67643462D01*
X174362285Y-67639808D01*
X174357741Y-67635689D01*
X174353622Y-67631145D01*
X174349968Y-67626218D01*
X174346815Y-67620957D01*
X174344193Y-67615413D01*
X174342126Y-67609638D01*
X174340636Y-67603688D01*
X174339736Y-67597621D01*
X174339435Y-67591495D01*
X174339435Y-66666495D01*
X174339736Y-66660369D01*
X174340636Y-66654302D01*
X174342126Y-66648352D01*
X174344193Y-66642577D01*
X174346815Y-66637033D01*
X174349968Y-66631772D01*
X174353622Y-66626845D01*
X174357741Y-66622301D01*
X174362285Y-66618182D01*
X174367212Y-66614528D01*
X174372473Y-66611375D01*
X174378017Y-66608753D01*
X174383792Y-66606686D01*
X174389742Y-66605196D01*
X174395809Y-66604296D01*
X174401935Y-66603995D01*
X174526935Y-66603995D01*
X174533061Y-66604296D01*
X174533061Y-66604296D01*
G37*
D18*
X174464435Y-67128995D03*
D10*
G36*
X174033061Y-66604296D02*
X174039128Y-66605196D01*
X174045078Y-66606686D01*
X174050853Y-66608753D01*
X174056397Y-66611375D01*
X174061658Y-66614528D01*
X174066585Y-66618182D01*
X174071129Y-66622301D01*
X174075248Y-66626845D01*
X174078902Y-66631772D01*
X174082055Y-66637033D01*
X174084677Y-66642577D01*
X174086744Y-66648352D01*
X174088234Y-66654302D01*
X174089134Y-66660369D01*
X174089435Y-66666495D01*
X174089435Y-67591495D01*
X174089134Y-67597621D01*
X174088234Y-67603688D01*
X174086744Y-67609638D01*
X174084677Y-67615413D01*
X174082055Y-67620957D01*
X174078902Y-67626218D01*
X174075248Y-67631145D01*
X174071129Y-67635689D01*
X174066585Y-67639808D01*
X174061658Y-67643462D01*
X174056397Y-67646615D01*
X174050853Y-67649237D01*
X174045078Y-67651304D01*
X174039128Y-67652794D01*
X174033061Y-67653694D01*
X174026935Y-67653995D01*
X173901935Y-67653995D01*
X173895809Y-67653694D01*
X173889742Y-67652794D01*
X173883792Y-67651304D01*
X173878017Y-67649237D01*
X173872473Y-67646615D01*
X173867212Y-67643462D01*
X173862285Y-67639808D01*
X173857741Y-67635689D01*
X173853622Y-67631145D01*
X173849968Y-67626218D01*
X173846815Y-67620957D01*
X173844193Y-67615413D01*
X173842126Y-67609638D01*
X173840636Y-67603688D01*
X173839736Y-67597621D01*
X173839435Y-67591495D01*
X173839435Y-66666495D01*
X173839736Y-66660369D01*
X173840636Y-66654302D01*
X173842126Y-66648352D01*
X173844193Y-66642577D01*
X173846815Y-66637033D01*
X173849968Y-66631772D01*
X173853622Y-66626845D01*
X173857741Y-66622301D01*
X173862285Y-66618182D01*
X173867212Y-66614528D01*
X173872473Y-66611375D01*
X173878017Y-66608753D01*
X173883792Y-66606686D01*
X173889742Y-66605196D01*
X173895809Y-66604296D01*
X173901935Y-66603995D01*
X174026935Y-66603995D01*
X174033061Y-66604296D01*
X174033061Y-66604296D01*
G37*
D18*
X173964435Y-67128995D03*
D10*
G36*
X173533061Y-66604296D02*
X173539128Y-66605196D01*
X173545078Y-66606686D01*
X173550853Y-66608753D01*
X173556397Y-66611375D01*
X173561658Y-66614528D01*
X173566585Y-66618182D01*
X173571129Y-66622301D01*
X173575248Y-66626845D01*
X173578902Y-66631772D01*
X173582055Y-66637033D01*
X173584677Y-66642577D01*
X173586744Y-66648352D01*
X173588234Y-66654302D01*
X173589134Y-66660369D01*
X173589435Y-66666495D01*
X173589435Y-67591495D01*
X173589134Y-67597621D01*
X173588234Y-67603688D01*
X173586744Y-67609638D01*
X173584677Y-67615413D01*
X173582055Y-67620957D01*
X173578902Y-67626218D01*
X173575248Y-67631145D01*
X173571129Y-67635689D01*
X173566585Y-67639808D01*
X173561658Y-67643462D01*
X173556397Y-67646615D01*
X173550853Y-67649237D01*
X173545078Y-67651304D01*
X173539128Y-67652794D01*
X173533061Y-67653694D01*
X173526935Y-67653995D01*
X173401935Y-67653995D01*
X173395809Y-67653694D01*
X173389742Y-67652794D01*
X173383792Y-67651304D01*
X173378017Y-67649237D01*
X173372473Y-67646615D01*
X173367212Y-67643462D01*
X173362285Y-67639808D01*
X173357741Y-67635689D01*
X173353622Y-67631145D01*
X173349968Y-67626218D01*
X173346815Y-67620957D01*
X173344193Y-67615413D01*
X173342126Y-67609638D01*
X173340636Y-67603688D01*
X173339736Y-67597621D01*
X173339435Y-67591495D01*
X173339435Y-66666495D01*
X173339736Y-66660369D01*
X173340636Y-66654302D01*
X173342126Y-66648352D01*
X173344193Y-66642577D01*
X173346815Y-66637033D01*
X173349968Y-66631772D01*
X173353622Y-66626845D01*
X173357741Y-66622301D01*
X173362285Y-66618182D01*
X173367212Y-66614528D01*
X173372473Y-66611375D01*
X173378017Y-66608753D01*
X173383792Y-66606686D01*
X173389742Y-66605196D01*
X173395809Y-66604296D01*
X173401935Y-66603995D01*
X173526935Y-66603995D01*
X173533061Y-66604296D01*
X173533061Y-66604296D01*
G37*
D18*
X173464435Y-67128995D03*
D10*
G36*
X173033061Y-66604296D02*
X173039128Y-66605196D01*
X173045078Y-66606686D01*
X173050853Y-66608753D01*
X173056397Y-66611375D01*
X173061658Y-66614528D01*
X173066585Y-66618182D01*
X173071129Y-66622301D01*
X173075248Y-66626845D01*
X173078902Y-66631772D01*
X173082055Y-66637033D01*
X173084677Y-66642577D01*
X173086744Y-66648352D01*
X173088234Y-66654302D01*
X173089134Y-66660369D01*
X173089435Y-66666495D01*
X173089435Y-67591495D01*
X173089134Y-67597621D01*
X173088234Y-67603688D01*
X173086744Y-67609638D01*
X173084677Y-67615413D01*
X173082055Y-67620957D01*
X173078902Y-67626218D01*
X173075248Y-67631145D01*
X173071129Y-67635689D01*
X173066585Y-67639808D01*
X173061658Y-67643462D01*
X173056397Y-67646615D01*
X173050853Y-67649237D01*
X173045078Y-67651304D01*
X173039128Y-67652794D01*
X173033061Y-67653694D01*
X173026935Y-67653995D01*
X172901935Y-67653995D01*
X172895809Y-67653694D01*
X172889742Y-67652794D01*
X172883792Y-67651304D01*
X172878017Y-67649237D01*
X172872473Y-67646615D01*
X172867212Y-67643462D01*
X172862285Y-67639808D01*
X172857741Y-67635689D01*
X172853622Y-67631145D01*
X172849968Y-67626218D01*
X172846815Y-67620957D01*
X172844193Y-67615413D01*
X172842126Y-67609638D01*
X172840636Y-67603688D01*
X172839736Y-67597621D01*
X172839435Y-67591495D01*
X172839435Y-66666495D01*
X172839736Y-66660369D01*
X172840636Y-66654302D01*
X172842126Y-66648352D01*
X172844193Y-66642577D01*
X172846815Y-66637033D01*
X172849968Y-66631772D01*
X172853622Y-66626845D01*
X172857741Y-66622301D01*
X172862285Y-66618182D01*
X172867212Y-66614528D01*
X172872473Y-66611375D01*
X172878017Y-66608753D01*
X172883792Y-66606686D01*
X172889742Y-66605196D01*
X172895809Y-66604296D01*
X172901935Y-66603995D01*
X173026935Y-66603995D01*
X173033061Y-66604296D01*
X173033061Y-66604296D01*
G37*
D18*
X172964435Y-67128995D03*
D10*
G36*
X172533061Y-66604296D02*
X172539128Y-66605196D01*
X172545078Y-66606686D01*
X172550853Y-66608753D01*
X172556397Y-66611375D01*
X172561658Y-66614528D01*
X172566585Y-66618182D01*
X172571129Y-66622301D01*
X172575248Y-66626845D01*
X172578902Y-66631772D01*
X172582055Y-66637033D01*
X172584677Y-66642577D01*
X172586744Y-66648352D01*
X172588234Y-66654302D01*
X172589134Y-66660369D01*
X172589435Y-66666495D01*
X172589435Y-67591495D01*
X172589134Y-67597621D01*
X172588234Y-67603688D01*
X172586744Y-67609638D01*
X172584677Y-67615413D01*
X172582055Y-67620957D01*
X172578902Y-67626218D01*
X172575248Y-67631145D01*
X172571129Y-67635689D01*
X172566585Y-67639808D01*
X172561658Y-67643462D01*
X172556397Y-67646615D01*
X172550853Y-67649237D01*
X172545078Y-67651304D01*
X172539128Y-67652794D01*
X172533061Y-67653694D01*
X172526935Y-67653995D01*
X172401935Y-67653995D01*
X172395809Y-67653694D01*
X172389742Y-67652794D01*
X172383792Y-67651304D01*
X172378017Y-67649237D01*
X172372473Y-67646615D01*
X172367212Y-67643462D01*
X172362285Y-67639808D01*
X172357741Y-67635689D01*
X172353622Y-67631145D01*
X172349968Y-67626218D01*
X172346815Y-67620957D01*
X172344193Y-67615413D01*
X172342126Y-67609638D01*
X172340636Y-67603688D01*
X172339736Y-67597621D01*
X172339435Y-67591495D01*
X172339435Y-66666495D01*
X172339736Y-66660369D01*
X172340636Y-66654302D01*
X172342126Y-66648352D01*
X172344193Y-66642577D01*
X172346815Y-66637033D01*
X172349968Y-66631772D01*
X172353622Y-66626845D01*
X172357741Y-66622301D01*
X172362285Y-66618182D01*
X172367212Y-66614528D01*
X172372473Y-66611375D01*
X172378017Y-66608753D01*
X172383792Y-66606686D01*
X172389742Y-66605196D01*
X172395809Y-66604296D01*
X172401935Y-66603995D01*
X172526935Y-66603995D01*
X172533061Y-66604296D01*
X172533061Y-66604296D01*
G37*
D18*
X172464435Y-67128995D03*
D10*
G36*
X172033061Y-66604296D02*
X172039128Y-66605196D01*
X172045078Y-66606686D01*
X172050853Y-66608753D01*
X172056397Y-66611375D01*
X172061658Y-66614528D01*
X172066585Y-66618182D01*
X172071129Y-66622301D01*
X172075248Y-66626845D01*
X172078902Y-66631772D01*
X172082055Y-66637033D01*
X172084677Y-66642577D01*
X172086744Y-66648352D01*
X172088234Y-66654302D01*
X172089134Y-66660369D01*
X172089435Y-66666495D01*
X172089435Y-67591495D01*
X172089134Y-67597621D01*
X172088234Y-67603688D01*
X172086744Y-67609638D01*
X172084677Y-67615413D01*
X172082055Y-67620957D01*
X172078902Y-67626218D01*
X172075248Y-67631145D01*
X172071129Y-67635689D01*
X172066585Y-67639808D01*
X172061658Y-67643462D01*
X172056397Y-67646615D01*
X172050853Y-67649237D01*
X172045078Y-67651304D01*
X172039128Y-67652794D01*
X172033061Y-67653694D01*
X172026935Y-67653995D01*
X171901935Y-67653995D01*
X171895809Y-67653694D01*
X171889742Y-67652794D01*
X171883792Y-67651304D01*
X171878017Y-67649237D01*
X171872473Y-67646615D01*
X171867212Y-67643462D01*
X171862285Y-67639808D01*
X171857741Y-67635689D01*
X171853622Y-67631145D01*
X171849968Y-67626218D01*
X171846815Y-67620957D01*
X171844193Y-67615413D01*
X171842126Y-67609638D01*
X171840636Y-67603688D01*
X171839736Y-67597621D01*
X171839435Y-67591495D01*
X171839435Y-66666495D01*
X171839736Y-66660369D01*
X171840636Y-66654302D01*
X171842126Y-66648352D01*
X171844193Y-66642577D01*
X171846815Y-66637033D01*
X171849968Y-66631772D01*
X171853622Y-66626845D01*
X171857741Y-66622301D01*
X171862285Y-66618182D01*
X171867212Y-66614528D01*
X171872473Y-66611375D01*
X171878017Y-66608753D01*
X171883792Y-66606686D01*
X171889742Y-66605196D01*
X171895809Y-66604296D01*
X171901935Y-66603995D01*
X172026935Y-66603995D01*
X172033061Y-66604296D01*
X172033061Y-66604296D01*
G37*
D18*
X171964435Y-67128995D03*
D10*
G36*
X171533061Y-66604296D02*
X171539128Y-66605196D01*
X171545078Y-66606686D01*
X171550853Y-66608753D01*
X171556397Y-66611375D01*
X171561658Y-66614528D01*
X171566585Y-66618182D01*
X171571129Y-66622301D01*
X171575248Y-66626845D01*
X171578902Y-66631772D01*
X171582055Y-66637033D01*
X171584677Y-66642577D01*
X171586744Y-66648352D01*
X171588234Y-66654302D01*
X171589134Y-66660369D01*
X171589435Y-66666495D01*
X171589435Y-67591495D01*
X171589134Y-67597621D01*
X171588234Y-67603688D01*
X171586744Y-67609638D01*
X171584677Y-67615413D01*
X171582055Y-67620957D01*
X171578902Y-67626218D01*
X171575248Y-67631145D01*
X171571129Y-67635689D01*
X171566585Y-67639808D01*
X171561658Y-67643462D01*
X171556397Y-67646615D01*
X171550853Y-67649237D01*
X171545078Y-67651304D01*
X171539128Y-67652794D01*
X171533061Y-67653694D01*
X171526935Y-67653995D01*
X171401935Y-67653995D01*
X171395809Y-67653694D01*
X171389742Y-67652794D01*
X171383792Y-67651304D01*
X171378017Y-67649237D01*
X171372473Y-67646615D01*
X171367212Y-67643462D01*
X171362285Y-67639808D01*
X171357741Y-67635689D01*
X171353622Y-67631145D01*
X171349968Y-67626218D01*
X171346815Y-67620957D01*
X171344193Y-67615413D01*
X171342126Y-67609638D01*
X171340636Y-67603688D01*
X171339736Y-67597621D01*
X171339435Y-67591495D01*
X171339435Y-66666495D01*
X171339736Y-66660369D01*
X171340636Y-66654302D01*
X171342126Y-66648352D01*
X171344193Y-66642577D01*
X171346815Y-66637033D01*
X171349968Y-66631772D01*
X171353622Y-66626845D01*
X171357741Y-66622301D01*
X171362285Y-66618182D01*
X171367212Y-66614528D01*
X171372473Y-66611375D01*
X171378017Y-66608753D01*
X171383792Y-66606686D01*
X171389742Y-66605196D01*
X171395809Y-66604296D01*
X171401935Y-66603995D01*
X171526935Y-66603995D01*
X171533061Y-66604296D01*
X171533061Y-66604296D01*
G37*
D18*
X171464435Y-67128995D03*
D10*
G36*
X171033061Y-66604296D02*
X171039128Y-66605196D01*
X171045078Y-66606686D01*
X171050853Y-66608753D01*
X171056397Y-66611375D01*
X171061658Y-66614528D01*
X171066585Y-66618182D01*
X171071129Y-66622301D01*
X171075248Y-66626845D01*
X171078902Y-66631772D01*
X171082055Y-66637033D01*
X171084677Y-66642577D01*
X171086744Y-66648352D01*
X171088234Y-66654302D01*
X171089134Y-66660369D01*
X171089435Y-66666495D01*
X171089435Y-67591495D01*
X171089134Y-67597621D01*
X171088234Y-67603688D01*
X171086744Y-67609638D01*
X171084677Y-67615413D01*
X171082055Y-67620957D01*
X171078902Y-67626218D01*
X171075248Y-67631145D01*
X171071129Y-67635689D01*
X171066585Y-67639808D01*
X171061658Y-67643462D01*
X171056397Y-67646615D01*
X171050853Y-67649237D01*
X171045078Y-67651304D01*
X171039128Y-67652794D01*
X171033061Y-67653694D01*
X171026935Y-67653995D01*
X170901935Y-67653995D01*
X170895809Y-67653694D01*
X170889742Y-67652794D01*
X170883792Y-67651304D01*
X170878017Y-67649237D01*
X170872473Y-67646615D01*
X170867212Y-67643462D01*
X170862285Y-67639808D01*
X170857741Y-67635689D01*
X170853622Y-67631145D01*
X170849968Y-67626218D01*
X170846815Y-67620957D01*
X170844193Y-67615413D01*
X170842126Y-67609638D01*
X170840636Y-67603688D01*
X170839736Y-67597621D01*
X170839435Y-67591495D01*
X170839435Y-66666495D01*
X170839736Y-66660369D01*
X170840636Y-66654302D01*
X170842126Y-66648352D01*
X170844193Y-66642577D01*
X170846815Y-66637033D01*
X170849968Y-66631772D01*
X170853622Y-66626845D01*
X170857741Y-66622301D01*
X170862285Y-66618182D01*
X170867212Y-66614528D01*
X170872473Y-66611375D01*
X170878017Y-66608753D01*
X170883792Y-66606686D01*
X170889742Y-66605196D01*
X170895809Y-66604296D01*
X170901935Y-66603995D01*
X171026935Y-66603995D01*
X171033061Y-66604296D01*
X171033061Y-66604296D01*
G37*
D18*
X170964435Y-67128995D03*
D10*
G36*
X170533061Y-66604296D02*
X170539128Y-66605196D01*
X170545078Y-66606686D01*
X170550853Y-66608753D01*
X170556397Y-66611375D01*
X170561658Y-66614528D01*
X170566585Y-66618182D01*
X170571129Y-66622301D01*
X170575248Y-66626845D01*
X170578902Y-66631772D01*
X170582055Y-66637033D01*
X170584677Y-66642577D01*
X170586744Y-66648352D01*
X170588234Y-66654302D01*
X170589134Y-66660369D01*
X170589435Y-66666495D01*
X170589435Y-67591495D01*
X170589134Y-67597621D01*
X170588234Y-67603688D01*
X170586744Y-67609638D01*
X170584677Y-67615413D01*
X170582055Y-67620957D01*
X170578902Y-67626218D01*
X170575248Y-67631145D01*
X170571129Y-67635689D01*
X170566585Y-67639808D01*
X170561658Y-67643462D01*
X170556397Y-67646615D01*
X170550853Y-67649237D01*
X170545078Y-67651304D01*
X170539128Y-67652794D01*
X170533061Y-67653694D01*
X170526935Y-67653995D01*
X170401935Y-67653995D01*
X170395809Y-67653694D01*
X170389742Y-67652794D01*
X170383792Y-67651304D01*
X170378017Y-67649237D01*
X170372473Y-67646615D01*
X170367212Y-67643462D01*
X170362285Y-67639808D01*
X170357741Y-67635689D01*
X170353622Y-67631145D01*
X170349968Y-67626218D01*
X170346815Y-67620957D01*
X170344193Y-67615413D01*
X170342126Y-67609638D01*
X170340636Y-67603688D01*
X170339736Y-67597621D01*
X170339435Y-67591495D01*
X170339435Y-66666495D01*
X170339736Y-66660369D01*
X170340636Y-66654302D01*
X170342126Y-66648352D01*
X170344193Y-66642577D01*
X170346815Y-66637033D01*
X170349968Y-66631772D01*
X170353622Y-66626845D01*
X170357741Y-66622301D01*
X170362285Y-66618182D01*
X170367212Y-66614528D01*
X170372473Y-66611375D01*
X170378017Y-66608753D01*
X170383792Y-66606686D01*
X170389742Y-66605196D01*
X170395809Y-66604296D01*
X170401935Y-66603995D01*
X170526935Y-66603995D01*
X170533061Y-66604296D01*
X170533061Y-66604296D01*
G37*
D18*
X170464435Y-67128995D03*
G04 #@! TD*
D19*
G04 #@! TO.C,USB1*
X161681549Y-45126319D03*
X162181549Y-45126319D03*
X162681549Y-45126319D03*
X161181549Y-45126319D03*
X163181549Y-45126319D03*
X160681549Y-45126319D03*
X163681549Y-45126319D03*
X160181549Y-45126319D03*
D20*
X159481549Y-45126319D03*
X164381549Y-45126319D03*
X158706549Y-45126319D03*
X165156549Y-45126319D03*
G04 #@! TD*
D10*
G04 #@! TO.C,R5*
G36*
X161693666Y-52896336D02*
X161714901Y-52899486D01*
X161735725Y-52904702D01*
X161755937Y-52911934D01*
X161775343Y-52921113D01*
X161793756Y-52932149D01*
X161810999Y-52944937D01*
X161826905Y-52959353D01*
X161841321Y-52975259D01*
X161854109Y-52992502D01*
X161865145Y-53010915D01*
X161874324Y-53030321D01*
X161881556Y-53050533D01*
X161886772Y-53071357D01*
X161889922Y-53092592D01*
X161890975Y-53114033D01*
X161890975Y-53551533D01*
X161889922Y-53572974D01*
X161886772Y-53594209D01*
X161881556Y-53615033D01*
X161874324Y-53635245D01*
X161865145Y-53654651D01*
X161854109Y-53673064D01*
X161841321Y-53690307D01*
X161826905Y-53706213D01*
X161810999Y-53720629D01*
X161793756Y-53733417D01*
X161775343Y-53744453D01*
X161755937Y-53753632D01*
X161735725Y-53760864D01*
X161714901Y-53766080D01*
X161693666Y-53769230D01*
X161672225Y-53770283D01*
X161159725Y-53770283D01*
X161138284Y-53769230D01*
X161117049Y-53766080D01*
X161096225Y-53760864D01*
X161076013Y-53753632D01*
X161056607Y-53744453D01*
X161038194Y-53733417D01*
X161020951Y-53720629D01*
X161005045Y-53706213D01*
X160990629Y-53690307D01*
X160977841Y-53673064D01*
X160966805Y-53654651D01*
X160957626Y-53635245D01*
X160950394Y-53615033D01*
X160945178Y-53594209D01*
X160942028Y-53572974D01*
X160940975Y-53551533D01*
X160940975Y-53114033D01*
X160942028Y-53092592D01*
X160945178Y-53071357D01*
X160950394Y-53050533D01*
X160957626Y-53030321D01*
X160966805Y-53010915D01*
X160977841Y-52992502D01*
X160990629Y-52975259D01*
X161005045Y-52959353D01*
X161020951Y-52944937D01*
X161038194Y-52932149D01*
X161056607Y-52921113D01*
X161076013Y-52911934D01*
X161096225Y-52904702D01*
X161117049Y-52899486D01*
X161138284Y-52896336D01*
X161159725Y-52895283D01*
X161672225Y-52895283D01*
X161693666Y-52896336D01*
X161693666Y-52896336D01*
G37*
D11*
X161415975Y-53332783D03*
D10*
G36*
X161693666Y-54471336D02*
X161714901Y-54474486D01*
X161735725Y-54479702D01*
X161755937Y-54486934D01*
X161775343Y-54496113D01*
X161793756Y-54507149D01*
X161810999Y-54519937D01*
X161826905Y-54534353D01*
X161841321Y-54550259D01*
X161854109Y-54567502D01*
X161865145Y-54585915D01*
X161874324Y-54605321D01*
X161881556Y-54625533D01*
X161886772Y-54646357D01*
X161889922Y-54667592D01*
X161890975Y-54689033D01*
X161890975Y-55126533D01*
X161889922Y-55147974D01*
X161886772Y-55169209D01*
X161881556Y-55190033D01*
X161874324Y-55210245D01*
X161865145Y-55229651D01*
X161854109Y-55248064D01*
X161841321Y-55265307D01*
X161826905Y-55281213D01*
X161810999Y-55295629D01*
X161793756Y-55308417D01*
X161775343Y-55319453D01*
X161755937Y-55328632D01*
X161735725Y-55335864D01*
X161714901Y-55341080D01*
X161693666Y-55344230D01*
X161672225Y-55345283D01*
X161159725Y-55345283D01*
X161138284Y-55344230D01*
X161117049Y-55341080D01*
X161096225Y-55335864D01*
X161076013Y-55328632D01*
X161056607Y-55319453D01*
X161038194Y-55308417D01*
X161020951Y-55295629D01*
X161005045Y-55281213D01*
X160990629Y-55265307D01*
X160977841Y-55248064D01*
X160966805Y-55229651D01*
X160957626Y-55210245D01*
X160950394Y-55190033D01*
X160945178Y-55169209D01*
X160942028Y-55147974D01*
X160940975Y-55126533D01*
X160940975Y-54689033D01*
X160942028Y-54667592D01*
X160945178Y-54646357D01*
X160950394Y-54625533D01*
X160957626Y-54605321D01*
X160966805Y-54585915D01*
X160977841Y-54567502D01*
X160990629Y-54550259D01*
X161005045Y-54534353D01*
X161020951Y-54519937D01*
X161038194Y-54507149D01*
X161056607Y-54496113D01*
X161076013Y-54486934D01*
X161096225Y-54479702D01*
X161117049Y-54474486D01*
X161138284Y-54471336D01*
X161159725Y-54470283D01*
X161672225Y-54470283D01*
X161693666Y-54471336D01*
X161693666Y-54471336D01*
G37*
D11*
X161415975Y-54907783D03*
G04 #@! TD*
D10*
G04 #@! TO.C,R6*
G36*
X163793386Y-54471336D02*
X163814621Y-54474486D01*
X163835445Y-54479702D01*
X163855657Y-54486934D01*
X163875063Y-54496113D01*
X163893476Y-54507149D01*
X163910719Y-54519937D01*
X163926625Y-54534353D01*
X163941041Y-54550259D01*
X163953829Y-54567502D01*
X163964865Y-54585915D01*
X163974044Y-54605321D01*
X163981276Y-54625533D01*
X163986492Y-54646357D01*
X163989642Y-54667592D01*
X163990695Y-54689033D01*
X163990695Y-55126533D01*
X163989642Y-55147974D01*
X163986492Y-55169209D01*
X163981276Y-55190033D01*
X163974044Y-55210245D01*
X163964865Y-55229651D01*
X163953829Y-55248064D01*
X163941041Y-55265307D01*
X163926625Y-55281213D01*
X163910719Y-55295629D01*
X163893476Y-55308417D01*
X163875063Y-55319453D01*
X163855657Y-55328632D01*
X163835445Y-55335864D01*
X163814621Y-55341080D01*
X163793386Y-55344230D01*
X163771945Y-55345283D01*
X163259445Y-55345283D01*
X163238004Y-55344230D01*
X163216769Y-55341080D01*
X163195945Y-55335864D01*
X163175733Y-55328632D01*
X163156327Y-55319453D01*
X163137914Y-55308417D01*
X163120671Y-55295629D01*
X163104765Y-55281213D01*
X163090349Y-55265307D01*
X163077561Y-55248064D01*
X163066525Y-55229651D01*
X163057346Y-55210245D01*
X163050114Y-55190033D01*
X163044898Y-55169209D01*
X163041748Y-55147974D01*
X163040695Y-55126533D01*
X163040695Y-54689033D01*
X163041748Y-54667592D01*
X163044898Y-54646357D01*
X163050114Y-54625533D01*
X163057346Y-54605321D01*
X163066525Y-54585915D01*
X163077561Y-54567502D01*
X163090349Y-54550259D01*
X163104765Y-54534353D01*
X163120671Y-54519937D01*
X163137914Y-54507149D01*
X163156327Y-54496113D01*
X163175733Y-54486934D01*
X163195945Y-54479702D01*
X163216769Y-54474486D01*
X163238004Y-54471336D01*
X163259445Y-54470283D01*
X163771945Y-54470283D01*
X163793386Y-54471336D01*
X163793386Y-54471336D01*
G37*
D11*
X163515695Y-54907783D03*
D10*
G36*
X163793386Y-52896336D02*
X163814621Y-52899486D01*
X163835445Y-52904702D01*
X163855657Y-52911934D01*
X163875063Y-52921113D01*
X163893476Y-52932149D01*
X163910719Y-52944937D01*
X163926625Y-52959353D01*
X163941041Y-52975259D01*
X163953829Y-52992502D01*
X163964865Y-53010915D01*
X163974044Y-53030321D01*
X163981276Y-53050533D01*
X163986492Y-53071357D01*
X163989642Y-53092592D01*
X163990695Y-53114033D01*
X163990695Y-53551533D01*
X163989642Y-53572974D01*
X163986492Y-53594209D01*
X163981276Y-53615033D01*
X163974044Y-53635245D01*
X163964865Y-53654651D01*
X163953829Y-53673064D01*
X163941041Y-53690307D01*
X163926625Y-53706213D01*
X163910719Y-53720629D01*
X163893476Y-53733417D01*
X163875063Y-53744453D01*
X163855657Y-53753632D01*
X163835445Y-53760864D01*
X163814621Y-53766080D01*
X163793386Y-53769230D01*
X163771945Y-53770283D01*
X163259445Y-53770283D01*
X163238004Y-53769230D01*
X163216769Y-53766080D01*
X163195945Y-53760864D01*
X163175733Y-53753632D01*
X163156327Y-53744453D01*
X163137914Y-53733417D01*
X163120671Y-53720629D01*
X163104765Y-53706213D01*
X163090349Y-53690307D01*
X163077561Y-53673064D01*
X163066525Y-53654651D01*
X163057346Y-53635245D01*
X163050114Y-53615033D01*
X163044898Y-53594209D01*
X163041748Y-53572974D01*
X163040695Y-53551533D01*
X163040695Y-53114033D01*
X163041748Y-53092592D01*
X163044898Y-53071357D01*
X163050114Y-53050533D01*
X163057346Y-53030321D01*
X163066525Y-53010915D01*
X163077561Y-52992502D01*
X163090349Y-52975259D01*
X163104765Y-52959353D01*
X163120671Y-52944937D01*
X163137914Y-52932149D01*
X163156327Y-52921113D01*
X163175733Y-52911934D01*
X163195945Y-52904702D01*
X163216769Y-52899486D01*
X163238004Y-52896336D01*
X163259445Y-52895283D01*
X163771945Y-52895283D01*
X163793386Y-52896336D01*
X163793386Y-52896336D01*
G37*
D11*
X163515695Y-53332783D03*
G04 #@! TD*
D10*
G04 #@! TO.C,C1*
G36*
X165593035Y-62727625D02*
X165614270Y-62730775D01*
X165635094Y-62735991D01*
X165655306Y-62743223D01*
X165674712Y-62752402D01*
X165693125Y-62763438D01*
X165710368Y-62776226D01*
X165726274Y-62790642D01*
X165740690Y-62806548D01*
X165753478Y-62823791D01*
X165764514Y-62842204D01*
X165773693Y-62861610D01*
X165780925Y-62881822D01*
X165786141Y-62902646D01*
X165789291Y-62923881D01*
X165790344Y-62945322D01*
X165790344Y-63457822D01*
X165789291Y-63479263D01*
X165786141Y-63500498D01*
X165780925Y-63521322D01*
X165773693Y-63541534D01*
X165764514Y-63560940D01*
X165753478Y-63579353D01*
X165740690Y-63596596D01*
X165726274Y-63612502D01*
X165710368Y-63626918D01*
X165693125Y-63639706D01*
X165674712Y-63650742D01*
X165655306Y-63659921D01*
X165635094Y-63667153D01*
X165614270Y-63672369D01*
X165593035Y-63675519D01*
X165571594Y-63676572D01*
X165134094Y-63676572D01*
X165112653Y-63675519D01*
X165091418Y-63672369D01*
X165070594Y-63667153D01*
X165050382Y-63659921D01*
X165030976Y-63650742D01*
X165012563Y-63639706D01*
X164995320Y-63626918D01*
X164979414Y-63612502D01*
X164964998Y-63596596D01*
X164952210Y-63579353D01*
X164941174Y-63560940D01*
X164931995Y-63541534D01*
X164924763Y-63521322D01*
X164919547Y-63500498D01*
X164916397Y-63479263D01*
X164915344Y-63457822D01*
X164915344Y-62945322D01*
X164916397Y-62923881D01*
X164919547Y-62902646D01*
X164924763Y-62881822D01*
X164931995Y-62861610D01*
X164941174Y-62842204D01*
X164952210Y-62823791D01*
X164964998Y-62806548D01*
X164979414Y-62790642D01*
X164995320Y-62776226D01*
X165012563Y-62763438D01*
X165030976Y-62752402D01*
X165050382Y-62743223D01*
X165070594Y-62735991D01*
X165091418Y-62730775D01*
X165112653Y-62727625D01*
X165134094Y-62726572D01*
X165571594Y-62726572D01*
X165593035Y-62727625D01*
X165593035Y-62727625D01*
G37*
D11*
X165352844Y-63201572D03*
D10*
G36*
X167168037Y-62727625D02*
X167189272Y-62730775D01*
X167210096Y-62735991D01*
X167230308Y-62743223D01*
X167249714Y-62752402D01*
X167268127Y-62763438D01*
X167285370Y-62776226D01*
X167301276Y-62790642D01*
X167315692Y-62806548D01*
X167328480Y-62823791D01*
X167339516Y-62842204D01*
X167348695Y-62861610D01*
X167355927Y-62881822D01*
X167361143Y-62902646D01*
X167364293Y-62923881D01*
X167365346Y-62945322D01*
X167365346Y-63457822D01*
X167364293Y-63479263D01*
X167361143Y-63500498D01*
X167355927Y-63521322D01*
X167348695Y-63541534D01*
X167339516Y-63560940D01*
X167328480Y-63579353D01*
X167315692Y-63596596D01*
X167301276Y-63612502D01*
X167285370Y-63626918D01*
X167268127Y-63639706D01*
X167249714Y-63650742D01*
X167230308Y-63659921D01*
X167210096Y-63667153D01*
X167189272Y-63672369D01*
X167168037Y-63675519D01*
X167146596Y-63676572D01*
X166709096Y-63676572D01*
X166687655Y-63675519D01*
X166666420Y-63672369D01*
X166645596Y-63667153D01*
X166625384Y-63659921D01*
X166605978Y-63650742D01*
X166587565Y-63639706D01*
X166570322Y-63626918D01*
X166554416Y-63612502D01*
X166540000Y-63596596D01*
X166527212Y-63579353D01*
X166516176Y-63560940D01*
X166506997Y-63541534D01*
X166499765Y-63521322D01*
X166494549Y-63500498D01*
X166491399Y-63479263D01*
X166490346Y-63457822D01*
X166490346Y-62945322D01*
X166491399Y-62923881D01*
X166494549Y-62902646D01*
X166499765Y-62881822D01*
X166506997Y-62861610D01*
X166516176Y-62842204D01*
X166527212Y-62823791D01*
X166540000Y-62806548D01*
X166554416Y-62790642D01*
X166570322Y-62776226D01*
X166587565Y-62763438D01*
X166605978Y-62752402D01*
X166625384Y-62743223D01*
X166645596Y-62735991D01*
X166666420Y-62730775D01*
X166687655Y-62727625D01*
X166709096Y-62726572D01*
X167146596Y-62726572D01*
X167168037Y-62727625D01*
X167168037Y-62727625D01*
G37*
D11*
X166927846Y-63201572D03*
G04 #@! TD*
D10*
G04 #@! TO.C,C3*
G36*
X178491426Y-56256099D02*
X178512661Y-56259249D01*
X178533485Y-56264465D01*
X178553697Y-56271697D01*
X178573103Y-56280876D01*
X178591516Y-56291912D01*
X178608759Y-56304700D01*
X178624665Y-56319116D01*
X178639081Y-56335022D01*
X178651869Y-56352265D01*
X178662905Y-56370678D01*
X178672084Y-56390084D01*
X178679316Y-56410296D01*
X178684532Y-56431120D01*
X178687682Y-56452355D01*
X178688735Y-56473796D01*
X178688735Y-56911296D01*
X178687682Y-56932737D01*
X178684532Y-56953972D01*
X178679316Y-56974796D01*
X178672084Y-56995008D01*
X178662905Y-57014414D01*
X178651869Y-57032827D01*
X178639081Y-57050070D01*
X178624665Y-57065976D01*
X178608759Y-57080392D01*
X178591516Y-57093180D01*
X178573103Y-57104216D01*
X178553697Y-57113395D01*
X178533485Y-57120627D01*
X178512661Y-57125843D01*
X178491426Y-57128993D01*
X178469985Y-57130046D01*
X177957485Y-57130046D01*
X177936044Y-57128993D01*
X177914809Y-57125843D01*
X177893985Y-57120627D01*
X177873773Y-57113395D01*
X177854367Y-57104216D01*
X177835954Y-57093180D01*
X177818711Y-57080392D01*
X177802805Y-57065976D01*
X177788389Y-57050070D01*
X177775601Y-57032827D01*
X177764565Y-57014414D01*
X177755386Y-56995008D01*
X177748154Y-56974796D01*
X177742938Y-56953972D01*
X177739788Y-56932737D01*
X177738735Y-56911296D01*
X177738735Y-56473796D01*
X177739788Y-56452355D01*
X177742938Y-56431120D01*
X177748154Y-56410296D01*
X177755386Y-56390084D01*
X177764565Y-56370678D01*
X177775601Y-56352265D01*
X177788389Y-56335022D01*
X177802805Y-56319116D01*
X177818711Y-56304700D01*
X177835954Y-56291912D01*
X177854367Y-56280876D01*
X177873773Y-56271697D01*
X177893985Y-56264465D01*
X177914809Y-56259249D01*
X177936044Y-56256099D01*
X177957485Y-56255046D01*
X178469985Y-56255046D01*
X178491426Y-56256099D01*
X178491426Y-56256099D01*
G37*
D11*
X178213735Y-56692546D03*
D10*
G36*
X178491426Y-54681097D02*
X178512661Y-54684247D01*
X178533485Y-54689463D01*
X178553697Y-54696695D01*
X178573103Y-54705874D01*
X178591516Y-54716910D01*
X178608759Y-54729698D01*
X178624665Y-54744114D01*
X178639081Y-54760020D01*
X178651869Y-54777263D01*
X178662905Y-54795676D01*
X178672084Y-54815082D01*
X178679316Y-54835294D01*
X178684532Y-54856118D01*
X178687682Y-54877353D01*
X178688735Y-54898794D01*
X178688735Y-55336294D01*
X178687682Y-55357735D01*
X178684532Y-55378970D01*
X178679316Y-55399794D01*
X178672084Y-55420006D01*
X178662905Y-55439412D01*
X178651869Y-55457825D01*
X178639081Y-55475068D01*
X178624665Y-55490974D01*
X178608759Y-55505390D01*
X178591516Y-55518178D01*
X178573103Y-55529214D01*
X178553697Y-55538393D01*
X178533485Y-55545625D01*
X178512661Y-55550841D01*
X178491426Y-55553991D01*
X178469985Y-55555044D01*
X177957485Y-55555044D01*
X177936044Y-55553991D01*
X177914809Y-55550841D01*
X177893985Y-55545625D01*
X177873773Y-55538393D01*
X177854367Y-55529214D01*
X177835954Y-55518178D01*
X177818711Y-55505390D01*
X177802805Y-55490974D01*
X177788389Y-55475068D01*
X177775601Y-55457825D01*
X177764565Y-55439412D01*
X177755386Y-55420006D01*
X177748154Y-55399794D01*
X177742938Y-55378970D01*
X177739788Y-55357735D01*
X177738735Y-55336294D01*
X177738735Y-54898794D01*
X177739788Y-54877353D01*
X177742938Y-54856118D01*
X177748154Y-54835294D01*
X177755386Y-54815082D01*
X177764565Y-54795676D01*
X177775601Y-54777263D01*
X177788389Y-54760020D01*
X177802805Y-54744114D01*
X177818711Y-54729698D01*
X177835954Y-54716910D01*
X177854367Y-54705874D01*
X177873773Y-54696695D01*
X177893985Y-54689463D01*
X177914809Y-54684247D01*
X177936044Y-54681097D01*
X177957485Y-54680044D01*
X178469985Y-54680044D01*
X178491426Y-54681097D01*
X178491426Y-54681097D01*
G37*
D11*
X178213735Y-55117544D03*
G04 #@! TD*
D10*
G04 #@! TO.C,C4*
G36*
X165593035Y-60942863D02*
X165614270Y-60946013D01*
X165635094Y-60951229D01*
X165655306Y-60958461D01*
X165674712Y-60967640D01*
X165693125Y-60978676D01*
X165710368Y-60991464D01*
X165726274Y-61005880D01*
X165740690Y-61021786D01*
X165753478Y-61039029D01*
X165764514Y-61057442D01*
X165773693Y-61076848D01*
X165780925Y-61097060D01*
X165786141Y-61117884D01*
X165789291Y-61139119D01*
X165790344Y-61160560D01*
X165790344Y-61673060D01*
X165789291Y-61694501D01*
X165786141Y-61715736D01*
X165780925Y-61736560D01*
X165773693Y-61756772D01*
X165764514Y-61776178D01*
X165753478Y-61794591D01*
X165740690Y-61811834D01*
X165726274Y-61827740D01*
X165710368Y-61842156D01*
X165693125Y-61854944D01*
X165674712Y-61865980D01*
X165655306Y-61875159D01*
X165635094Y-61882391D01*
X165614270Y-61887607D01*
X165593035Y-61890757D01*
X165571594Y-61891810D01*
X165134094Y-61891810D01*
X165112653Y-61890757D01*
X165091418Y-61887607D01*
X165070594Y-61882391D01*
X165050382Y-61875159D01*
X165030976Y-61865980D01*
X165012563Y-61854944D01*
X164995320Y-61842156D01*
X164979414Y-61827740D01*
X164964998Y-61811834D01*
X164952210Y-61794591D01*
X164941174Y-61776178D01*
X164931995Y-61756772D01*
X164924763Y-61736560D01*
X164919547Y-61715736D01*
X164916397Y-61694501D01*
X164915344Y-61673060D01*
X164915344Y-61160560D01*
X164916397Y-61139119D01*
X164919547Y-61117884D01*
X164924763Y-61097060D01*
X164931995Y-61076848D01*
X164941174Y-61057442D01*
X164952210Y-61039029D01*
X164964998Y-61021786D01*
X164979414Y-61005880D01*
X164995320Y-60991464D01*
X165012563Y-60978676D01*
X165030976Y-60967640D01*
X165050382Y-60958461D01*
X165070594Y-60951229D01*
X165091418Y-60946013D01*
X165112653Y-60942863D01*
X165134094Y-60941810D01*
X165571594Y-60941810D01*
X165593035Y-60942863D01*
X165593035Y-60942863D01*
G37*
D11*
X165352844Y-61416810D03*
D10*
G36*
X167168037Y-60942863D02*
X167189272Y-60946013D01*
X167210096Y-60951229D01*
X167230308Y-60958461D01*
X167249714Y-60967640D01*
X167268127Y-60978676D01*
X167285370Y-60991464D01*
X167301276Y-61005880D01*
X167315692Y-61021786D01*
X167328480Y-61039029D01*
X167339516Y-61057442D01*
X167348695Y-61076848D01*
X167355927Y-61097060D01*
X167361143Y-61117884D01*
X167364293Y-61139119D01*
X167365346Y-61160560D01*
X167365346Y-61673060D01*
X167364293Y-61694501D01*
X167361143Y-61715736D01*
X167355927Y-61736560D01*
X167348695Y-61756772D01*
X167339516Y-61776178D01*
X167328480Y-61794591D01*
X167315692Y-61811834D01*
X167301276Y-61827740D01*
X167285370Y-61842156D01*
X167268127Y-61854944D01*
X167249714Y-61865980D01*
X167230308Y-61875159D01*
X167210096Y-61882391D01*
X167189272Y-61887607D01*
X167168037Y-61890757D01*
X167146596Y-61891810D01*
X166709096Y-61891810D01*
X166687655Y-61890757D01*
X166666420Y-61887607D01*
X166645596Y-61882391D01*
X166625384Y-61875159D01*
X166605978Y-61865980D01*
X166587565Y-61854944D01*
X166570322Y-61842156D01*
X166554416Y-61827740D01*
X166540000Y-61811834D01*
X166527212Y-61794591D01*
X166516176Y-61776178D01*
X166506997Y-61756772D01*
X166499765Y-61736560D01*
X166494549Y-61715736D01*
X166491399Y-61694501D01*
X166490346Y-61673060D01*
X166490346Y-61160560D01*
X166491399Y-61139119D01*
X166494549Y-61117884D01*
X166499765Y-61097060D01*
X166506997Y-61076848D01*
X166516176Y-61057442D01*
X166527212Y-61039029D01*
X166540000Y-61021786D01*
X166554416Y-61005880D01*
X166570322Y-60991464D01*
X166587565Y-60978676D01*
X166605978Y-60967640D01*
X166625384Y-60958461D01*
X166645596Y-60951229D01*
X166666420Y-60946013D01*
X166687655Y-60942863D01*
X166709096Y-60941810D01*
X167146596Y-60941810D01*
X167168037Y-60942863D01*
X167168037Y-60942863D01*
G37*
D11*
X166927846Y-61416810D03*
G04 #@! TD*
D10*
G04 #@! TO.C,C5*
G36*
X165593035Y-57005888D02*
X165614270Y-57009038D01*
X165635094Y-57014254D01*
X165655306Y-57021486D01*
X165674712Y-57030665D01*
X165693125Y-57041701D01*
X165710368Y-57054489D01*
X165726274Y-57068905D01*
X165740690Y-57084811D01*
X165753478Y-57102054D01*
X165764514Y-57120467D01*
X165773693Y-57139873D01*
X165780925Y-57160085D01*
X165786141Y-57180909D01*
X165789291Y-57202144D01*
X165790344Y-57223585D01*
X165790344Y-57736085D01*
X165789291Y-57757526D01*
X165786141Y-57778761D01*
X165780925Y-57799585D01*
X165773693Y-57819797D01*
X165764514Y-57839203D01*
X165753478Y-57857616D01*
X165740690Y-57874859D01*
X165726274Y-57890765D01*
X165710368Y-57905181D01*
X165693125Y-57917969D01*
X165674712Y-57929005D01*
X165655306Y-57938184D01*
X165635094Y-57945416D01*
X165614270Y-57950632D01*
X165593035Y-57953782D01*
X165571594Y-57954835D01*
X165134094Y-57954835D01*
X165112653Y-57953782D01*
X165091418Y-57950632D01*
X165070594Y-57945416D01*
X165050382Y-57938184D01*
X165030976Y-57929005D01*
X165012563Y-57917969D01*
X164995320Y-57905181D01*
X164979414Y-57890765D01*
X164964998Y-57874859D01*
X164952210Y-57857616D01*
X164941174Y-57839203D01*
X164931995Y-57819797D01*
X164924763Y-57799585D01*
X164919547Y-57778761D01*
X164916397Y-57757526D01*
X164915344Y-57736085D01*
X164915344Y-57223585D01*
X164916397Y-57202144D01*
X164919547Y-57180909D01*
X164924763Y-57160085D01*
X164931995Y-57139873D01*
X164941174Y-57120467D01*
X164952210Y-57102054D01*
X164964998Y-57084811D01*
X164979414Y-57068905D01*
X164995320Y-57054489D01*
X165012563Y-57041701D01*
X165030976Y-57030665D01*
X165050382Y-57021486D01*
X165070594Y-57014254D01*
X165091418Y-57009038D01*
X165112653Y-57005888D01*
X165134094Y-57004835D01*
X165571594Y-57004835D01*
X165593035Y-57005888D01*
X165593035Y-57005888D01*
G37*
D11*
X165352844Y-57479835D03*
D10*
G36*
X167168037Y-57005888D02*
X167189272Y-57009038D01*
X167210096Y-57014254D01*
X167230308Y-57021486D01*
X167249714Y-57030665D01*
X167268127Y-57041701D01*
X167285370Y-57054489D01*
X167301276Y-57068905D01*
X167315692Y-57084811D01*
X167328480Y-57102054D01*
X167339516Y-57120467D01*
X167348695Y-57139873D01*
X167355927Y-57160085D01*
X167361143Y-57180909D01*
X167364293Y-57202144D01*
X167365346Y-57223585D01*
X167365346Y-57736085D01*
X167364293Y-57757526D01*
X167361143Y-57778761D01*
X167355927Y-57799585D01*
X167348695Y-57819797D01*
X167339516Y-57839203D01*
X167328480Y-57857616D01*
X167315692Y-57874859D01*
X167301276Y-57890765D01*
X167285370Y-57905181D01*
X167268127Y-57917969D01*
X167249714Y-57929005D01*
X167230308Y-57938184D01*
X167210096Y-57945416D01*
X167189272Y-57950632D01*
X167168037Y-57953782D01*
X167146596Y-57954835D01*
X166709096Y-57954835D01*
X166687655Y-57953782D01*
X166666420Y-57950632D01*
X166645596Y-57945416D01*
X166625384Y-57938184D01*
X166605978Y-57929005D01*
X166587565Y-57917969D01*
X166570322Y-57905181D01*
X166554416Y-57890765D01*
X166540000Y-57874859D01*
X166527212Y-57857616D01*
X166516176Y-57839203D01*
X166506997Y-57819797D01*
X166499765Y-57799585D01*
X166494549Y-57778761D01*
X166491399Y-57757526D01*
X166490346Y-57736085D01*
X166490346Y-57223585D01*
X166491399Y-57202144D01*
X166494549Y-57180909D01*
X166499765Y-57160085D01*
X166506997Y-57139873D01*
X166516176Y-57120467D01*
X166527212Y-57102054D01*
X166540000Y-57084811D01*
X166554416Y-57068905D01*
X166570322Y-57054489D01*
X166587565Y-57041701D01*
X166605978Y-57030665D01*
X166625384Y-57021486D01*
X166645596Y-57014254D01*
X166666420Y-57009038D01*
X166687655Y-57005888D01*
X166709096Y-57004835D01*
X167146596Y-57004835D01*
X167168037Y-57005888D01*
X167168037Y-57005888D01*
G37*
D11*
X166927846Y-57479835D03*
G04 #@! TD*
D10*
G04 #@! TO.C,C6*
G36*
X178191355Y-59000622D02*
X178212590Y-59003772D01*
X178233414Y-59008988D01*
X178253626Y-59016220D01*
X178273032Y-59025399D01*
X178291445Y-59036435D01*
X178308688Y-59049223D01*
X178324594Y-59063639D01*
X178339010Y-59079545D01*
X178351798Y-59096788D01*
X178362834Y-59115201D01*
X178372013Y-59134607D01*
X178379245Y-59154819D01*
X178384461Y-59175643D01*
X178387611Y-59196878D01*
X178388664Y-59218319D01*
X178388664Y-59730819D01*
X178387611Y-59752260D01*
X178384461Y-59773495D01*
X178379245Y-59794319D01*
X178372013Y-59814531D01*
X178362834Y-59833937D01*
X178351798Y-59852350D01*
X178339010Y-59869593D01*
X178324594Y-59885499D01*
X178308688Y-59899915D01*
X178291445Y-59912703D01*
X178273032Y-59923739D01*
X178253626Y-59932918D01*
X178233414Y-59940150D01*
X178212590Y-59945366D01*
X178191355Y-59948516D01*
X178169914Y-59949569D01*
X177732414Y-59949569D01*
X177710973Y-59948516D01*
X177689738Y-59945366D01*
X177668914Y-59940150D01*
X177648702Y-59932918D01*
X177629296Y-59923739D01*
X177610883Y-59912703D01*
X177593640Y-59899915D01*
X177577734Y-59885499D01*
X177563318Y-59869593D01*
X177550530Y-59852350D01*
X177539494Y-59833937D01*
X177530315Y-59814531D01*
X177523083Y-59794319D01*
X177517867Y-59773495D01*
X177514717Y-59752260D01*
X177513664Y-59730819D01*
X177513664Y-59218319D01*
X177514717Y-59196878D01*
X177517867Y-59175643D01*
X177523083Y-59154819D01*
X177530315Y-59134607D01*
X177539494Y-59115201D01*
X177550530Y-59096788D01*
X177563318Y-59079545D01*
X177577734Y-59063639D01*
X177593640Y-59049223D01*
X177610883Y-59036435D01*
X177629296Y-59025399D01*
X177648702Y-59016220D01*
X177668914Y-59008988D01*
X177689738Y-59003772D01*
X177710973Y-59000622D01*
X177732414Y-58999569D01*
X178169914Y-58999569D01*
X178191355Y-59000622D01*
X178191355Y-59000622D01*
G37*
D11*
X177951164Y-59474569D03*
D10*
G36*
X179766357Y-59000622D02*
X179787592Y-59003772D01*
X179808416Y-59008988D01*
X179828628Y-59016220D01*
X179848034Y-59025399D01*
X179866447Y-59036435D01*
X179883690Y-59049223D01*
X179899596Y-59063639D01*
X179914012Y-59079545D01*
X179926800Y-59096788D01*
X179937836Y-59115201D01*
X179947015Y-59134607D01*
X179954247Y-59154819D01*
X179959463Y-59175643D01*
X179962613Y-59196878D01*
X179963666Y-59218319D01*
X179963666Y-59730819D01*
X179962613Y-59752260D01*
X179959463Y-59773495D01*
X179954247Y-59794319D01*
X179947015Y-59814531D01*
X179937836Y-59833937D01*
X179926800Y-59852350D01*
X179914012Y-59869593D01*
X179899596Y-59885499D01*
X179883690Y-59899915D01*
X179866447Y-59912703D01*
X179848034Y-59923739D01*
X179828628Y-59932918D01*
X179808416Y-59940150D01*
X179787592Y-59945366D01*
X179766357Y-59948516D01*
X179744916Y-59949569D01*
X179307416Y-59949569D01*
X179285975Y-59948516D01*
X179264740Y-59945366D01*
X179243916Y-59940150D01*
X179223704Y-59932918D01*
X179204298Y-59923739D01*
X179185885Y-59912703D01*
X179168642Y-59899915D01*
X179152736Y-59885499D01*
X179138320Y-59869593D01*
X179125532Y-59852350D01*
X179114496Y-59833937D01*
X179105317Y-59814531D01*
X179098085Y-59794319D01*
X179092869Y-59773495D01*
X179089719Y-59752260D01*
X179088666Y-59730819D01*
X179088666Y-59218319D01*
X179089719Y-59196878D01*
X179092869Y-59175643D01*
X179098085Y-59154819D01*
X179105317Y-59134607D01*
X179114496Y-59115201D01*
X179125532Y-59096788D01*
X179138320Y-59079545D01*
X179152736Y-59063639D01*
X179168642Y-59049223D01*
X179185885Y-59036435D01*
X179204298Y-59025399D01*
X179223704Y-59016220D01*
X179243916Y-59008988D01*
X179264740Y-59003772D01*
X179285975Y-59000622D01*
X179307416Y-58999569D01*
X179744916Y-58999569D01*
X179766357Y-59000622D01*
X179766357Y-59000622D01*
G37*
D11*
X179526166Y-59474569D03*
G04 #@! TD*
D10*
G04 #@! TO.C,C7*
G36*
X175814283Y-70691674D02*
X175835518Y-70694824D01*
X175856342Y-70700040D01*
X175876554Y-70707272D01*
X175895960Y-70716451D01*
X175914373Y-70727487D01*
X175931616Y-70740275D01*
X175947522Y-70754691D01*
X175961938Y-70770597D01*
X175974726Y-70787840D01*
X175985762Y-70806253D01*
X175994941Y-70825659D01*
X176002173Y-70845871D01*
X176007389Y-70866695D01*
X176010539Y-70887930D01*
X176011592Y-70909371D01*
X176011592Y-71346871D01*
X176010539Y-71368312D01*
X176007389Y-71389547D01*
X176002173Y-71410371D01*
X175994941Y-71430583D01*
X175985762Y-71449989D01*
X175974726Y-71468402D01*
X175961938Y-71485645D01*
X175947522Y-71501551D01*
X175931616Y-71515967D01*
X175914373Y-71528755D01*
X175895960Y-71539791D01*
X175876554Y-71548970D01*
X175856342Y-71556202D01*
X175835518Y-71561418D01*
X175814283Y-71564568D01*
X175792842Y-71565621D01*
X175280342Y-71565621D01*
X175258901Y-71564568D01*
X175237666Y-71561418D01*
X175216842Y-71556202D01*
X175196630Y-71548970D01*
X175177224Y-71539791D01*
X175158811Y-71528755D01*
X175141568Y-71515967D01*
X175125662Y-71501551D01*
X175111246Y-71485645D01*
X175098458Y-71468402D01*
X175087422Y-71449989D01*
X175078243Y-71430583D01*
X175071011Y-71410371D01*
X175065795Y-71389547D01*
X175062645Y-71368312D01*
X175061592Y-71346871D01*
X175061592Y-70909371D01*
X175062645Y-70887930D01*
X175065795Y-70866695D01*
X175071011Y-70845871D01*
X175078243Y-70825659D01*
X175087422Y-70806253D01*
X175098458Y-70787840D01*
X175111246Y-70770597D01*
X175125662Y-70754691D01*
X175141568Y-70740275D01*
X175158811Y-70727487D01*
X175177224Y-70716451D01*
X175196630Y-70707272D01*
X175216842Y-70700040D01*
X175237666Y-70694824D01*
X175258901Y-70691674D01*
X175280342Y-70690621D01*
X175792842Y-70690621D01*
X175814283Y-70691674D01*
X175814283Y-70691674D01*
G37*
D11*
X175536592Y-71128121D03*
D10*
G36*
X175814283Y-69116672D02*
X175835518Y-69119822D01*
X175856342Y-69125038D01*
X175876554Y-69132270D01*
X175895960Y-69141449D01*
X175914373Y-69152485D01*
X175931616Y-69165273D01*
X175947522Y-69179689D01*
X175961938Y-69195595D01*
X175974726Y-69212838D01*
X175985762Y-69231251D01*
X175994941Y-69250657D01*
X176002173Y-69270869D01*
X176007389Y-69291693D01*
X176010539Y-69312928D01*
X176011592Y-69334369D01*
X176011592Y-69771869D01*
X176010539Y-69793310D01*
X176007389Y-69814545D01*
X176002173Y-69835369D01*
X175994941Y-69855581D01*
X175985762Y-69874987D01*
X175974726Y-69893400D01*
X175961938Y-69910643D01*
X175947522Y-69926549D01*
X175931616Y-69940965D01*
X175914373Y-69953753D01*
X175895960Y-69964789D01*
X175876554Y-69973968D01*
X175856342Y-69981200D01*
X175835518Y-69986416D01*
X175814283Y-69989566D01*
X175792842Y-69990619D01*
X175280342Y-69990619D01*
X175258901Y-69989566D01*
X175237666Y-69986416D01*
X175216842Y-69981200D01*
X175196630Y-69973968D01*
X175177224Y-69964789D01*
X175158811Y-69953753D01*
X175141568Y-69940965D01*
X175125662Y-69926549D01*
X175111246Y-69910643D01*
X175098458Y-69893400D01*
X175087422Y-69874987D01*
X175078243Y-69855581D01*
X175071011Y-69835369D01*
X175065795Y-69814545D01*
X175062645Y-69793310D01*
X175061592Y-69771869D01*
X175061592Y-69334369D01*
X175062645Y-69312928D01*
X175065795Y-69291693D01*
X175071011Y-69270869D01*
X175078243Y-69250657D01*
X175087422Y-69231251D01*
X175098458Y-69212838D01*
X175111246Y-69195595D01*
X175125662Y-69179689D01*
X175141568Y-69165273D01*
X175158811Y-69152485D01*
X175177224Y-69141449D01*
X175196630Y-69132270D01*
X175216842Y-69125038D01*
X175237666Y-69119822D01*
X175258901Y-69116672D01*
X175280342Y-69115619D01*
X175792842Y-69115619D01*
X175814283Y-69116672D01*
X175814283Y-69116672D01*
G37*
D11*
X175536592Y-69553119D03*
G04 #@! TD*
D10*
G04 #@! TO.C,C8*
G36*
X168097812Y-68172010D02*
X168119047Y-68175160D01*
X168139871Y-68180376D01*
X168160083Y-68187608D01*
X168179489Y-68196787D01*
X168197902Y-68207823D01*
X168215145Y-68220611D01*
X168231051Y-68235027D01*
X168245467Y-68250933D01*
X168258255Y-68268176D01*
X168269291Y-68286589D01*
X168278470Y-68305995D01*
X168285702Y-68326207D01*
X168290918Y-68347031D01*
X168294068Y-68368266D01*
X168295121Y-68389707D01*
X168295121Y-68827207D01*
X168294068Y-68848648D01*
X168290918Y-68869883D01*
X168285702Y-68890707D01*
X168278470Y-68910919D01*
X168269291Y-68930325D01*
X168258255Y-68948738D01*
X168245467Y-68965981D01*
X168231051Y-68981887D01*
X168215145Y-68996303D01*
X168197902Y-69009091D01*
X168179489Y-69020127D01*
X168160083Y-69029306D01*
X168139871Y-69036538D01*
X168119047Y-69041754D01*
X168097812Y-69044904D01*
X168076371Y-69045957D01*
X167563871Y-69045957D01*
X167542430Y-69044904D01*
X167521195Y-69041754D01*
X167500371Y-69036538D01*
X167480159Y-69029306D01*
X167460753Y-69020127D01*
X167442340Y-69009091D01*
X167425097Y-68996303D01*
X167409191Y-68981887D01*
X167394775Y-68965981D01*
X167381987Y-68948738D01*
X167370951Y-68930325D01*
X167361772Y-68910919D01*
X167354540Y-68890707D01*
X167349324Y-68869883D01*
X167346174Y-68848648D01*
X167345121Y-68827207D01*
X167345121Y-68389707D01*
X167346174Y-68368266D01*
X167349324Y-68347031D01*
X167354540Y-68326207D01*
X167361772Y-68305995D01*
X167370951Y-68286589D01*
X167381987Y-68268176D01*
X167394775Y-68250933D01*
X167409191Y-68235027D01*
X167425097Y-68220611D01*
X167442340Y-68207823D01*
X167460753Y-68196787D01*
X167480159Y-68187608D01*
X167500371Y-68180376D01*
X167521195Y-68175160D01*
X167542430Y-68172010D01*
X167563871Y-68170957D01*
X168076371Y-68170957D01*
X168097812Y-68172010D01*
X168097812Y-68172010D01*
G37*
D11*
X167820121Y-68608457D03*
D10*
G36*
X168097812Y-66597008D02*
X168119047Y-66600158D01*
X168139871Y-66605374D01*
X168160083Y-66612606D01*
X168179489Y-66621785D01*
X168197902Y-66632821D01*
X168215145Y-66645609D01*
X168231051Y-66660025D01*
X168245467Y-66675931D01*
X168258255Y-66693174D01*
X168269291Y-66711587D01*
X168278470Y-66730993D01*
X168285702Y-66751205D01*
X168290918Y-66772029D01*
X168294068Y-66793264D01*
X168295121Y-66814705D01*
X168295121Y-67252205D01*
X168294068Y-67273646D01*
X168290918Y-67294881D01*
X168285702Y-67315705D01*
X168278470Y-67335917D01*
X168269291Y-67355323D01*
X168258255Y-67373736D01*
X168245467Y-67390979D01*
X168231051Y-67406885D01*
X168215145Y-67421301D01*
X168197902Y-67434089D01*
X168179489Y-67445125D01*
X168160083Y-67454304D01*
X168139871Y-67461536D01*
X168119047Y-67466752D01*
X168097812Y-67469902D01*
X168076371Y-67470955D01*
X167563871Y-67470955D01*
X167542430Y-67469902D01*
X167521195Y-67466752D01*
X167500371Y-67461536D01*
X167480159Y-67454304D01*
X167460753Y-67445125D01*
X167442340Y-67434089D01*
X167425097Y-67421301D01*
X167409191Y-67406885D01*
X167394775Y-67390979D01*
X167381987Y-67373736D01*
X167370951Y-67355323D01*
X167361772Y-67335917D01*
X167354540Y-67315705D01*
X167349324Y-67294881D01*
X167346174Y-67273646D01*
X167345121Y-67252205D01*
X167345121Y-66814705D01*
X167346174Y-66793264D01*
X167349324Y-66772029D01*
X167354540Y-66751205D01*
X167361772Y-66730993D01*
X167370951Y-66711587D01*
X167381987Y-66693174D01*
X167394775Y-66675931D01*
X167409191Y-66660025D01*
X167425097Y-66645609D01*
X167442340Y-66632821D01*
X167460753Y-66621785D01*
X167480159Y-66612606D01*
X167500371Y-66605374D01*
X167521195Y-66600158D01*
X167542430Y-66597008D01*
X167563871Y-66595955D01*
X168076371Y-66595955D01*
X168097812Y-66597008D01*
X168097812Y-66597008D01*
G37*
D11*
X167820121Y-67033455D03*
G04 #@! TD*
D10*
G04 #@! TO.C,R3*
G36*
X167168037Y-58948129D02*
X167189272Y-58951279D01*
X167210096Y-58956495D01*
X167230308Y-58963727D01*
X167249714Y-58972906D01*
X167268127Y-58983942D01*
X167285370Y-58996730D01*
X167301276Y-59011146D01*
X167315692Y-59027052D01*
X167328480Y-59044295D01*
X167339516Y-59062708D01*
X167348695Y-59082114D01*
X167355927Y-59102326D01*
X167361143Y-59123150D01*
X167364293Y-59144385D01*
X167365346Y-59165826D01*
X167365346Y-59678326D01*
X167364293Y-59699767D01*
X167361143Y-59721002D01*
X167355927Y-59741826D01*
X167348695Y-59762038D01*
X167339516Y-59781444D01*
X167328480Y-59799857D01*
X167315692Y-59817100D01*
X167301276Y-59833006D01*
X167285370Y-59847422D01*
X167268127Y-59860210D01*
X167249714Y-59871246D01*
X167230308Y-59880425D01*
X167210096Y-59887657D01*
X167189272Y-59892873D01*
X167168037Y-59896023D01*
X167146596Y-59897076D01*
X166709096Y-59897076D01*
X166687655Y-59896023D01*
X166666420Y-59892873D01*
X166645596Y-59887657D01*
X166625384Y-59880425D01*
X166605978Y-59871246D01*
X166587565Y-59860210D01*
X166570322Y-59847422D01*
X166554416Y-59833006D01*
X166540000Y-59817100D01*
X166527212Y-59799857D01*
X166516176Y-59781444D01*
X166506997Y-59762038D01*
X166499765Y-59741826D01*
X166494549Y-59721002D01*
X166491399Y-59699767D01*
X166490346Y-59678326D01*
X166490346Y-59165826D01*
X166491399Y-59144385D01*
X166494549Y-59123150D01*
X166499765Y-59102326D01*
X166506997Y-59082114D01*
X166516176Y-59062708D01*
X166527212Y-59044295D01*
X166540000Y-59027052D01*
X166554416Y-59011146D01*
X166570322Y-58996730D01*
X166587565Y-58983942D01*
X166605978Y-58972906D01*
X166625384Y-58963727D01*
X166645596Y-58956495D01*
X166666420Y-58951279D01*
X166687655Y-58948129D01*
X166709096Y-58947076D01*
X167146596Y-58947076D01*
X167168037Y-58948129D01*
X167168037Y-58948129D01*
G37*
D11*
X166927846Y-59422076D03*
D10*
G36*
X165593035Y-58948129D02*
X165614270Y-58951279D01*
X165635094Y-58956495D01*
X165655306Y-58963727D01*
X165674712Y-58972906D01*
X165693125Y-58983942D01*
X165710368Y-58996730D01*
X165726274Y-59011146D01*
X165740690Y-59027052D01*
X165753478Y-59044295D01*
X165764514Y-59062708D01*
X165773693Y-59082114D01*
X165780925Y-59102326D01*
X165786141Y-59123150D01*
X165789291Y-59144385D01*
X165790344Y-59165826D01*
X165790344Y-59678326D01*
X165789291Y-59699767D01*
X165786141Y-59721002D01*
X165780925Y-59741826D01*
X165773693Y-59762038D01*
X165764514Y-59781444D01*
X165753478Y-59799857D01*
X165740690Y-59817100D01*
X165726274Y-59833006D01*
X165710368Y-59847422D01*
X165693125Y-59860210D01*
X165674712Y-59871246D01*
X165655306Y-59880425D01*
X165635094Y-59887657D01*
X165614270Y-59892873D01*
X165593035Y-59896023D01*
X165571594Y-59897076D01*
X165134094Y-59897076D01*
X165112653Y-59896023D01*
X165091418Y-59892873D01*
X165070594Y-59887657D01*
X165050382Y-59880425D01*
X165030976Y-59871246D01*
X165012563Y-59860210D01*
X164995320Y-59847422D01*
X164979414Y-59833006D01*
X164964998Y-59817100D01*
X164952210Y-59799857D01*
X164941174Y-59781444D01*
X164931995Y-59762038D01*
X164924763Y-59741826D01*
X164919547Y-59721002D01*
X164916397Y-59699767D01*
X164915344Y-59678326D01*
X164915344Y-59165826D01*
X164916397Y-59144385D01*
X164919547Y-59123150D01*
X164924763Y-59102326D01*
X164931995Y-59082114D01*
X164941174Y-59062708D01*
X164952210Y-59044295D01*
X164964998Y-59027052D01*
X164979414Y-59011146D01*
X164995320Y-58996730D01*
X165012563Y-58983942D01*
X165030976Y-58972906D01*
X165050382Y-58963727D01*
X165070594Y-58956495D01*
X165091418Y-58951279D01*
X165112653Y-58948129D01*
X165134094Y-58947076D01*
X165571594Y-58947076D01*
X165593035Y-58948129D01*
X165593035Y-58948129D01*
G37*
D11*
X165352844Y-59422076D03*
G04 #@! TD*
D10*
G04 #@! TO.C,R4*
G36*
X177546552Y-70848941D02*
X177567787Y-70852091D01*
X177588611Y-70857307D01*
X177608823Y-70864539D01*
X177628229Y-70873718D01*
X177646642Y-70884754D01*
X177663885Y-70897542D01*
X177679791Y-70911958D01*
X177694207Y-70927864D01*
X177706995Y-70945107D01*
X177718031Y-70963520D01*
X177727210Y-70982926D01*
X177734442Y-71003138D01*
X177739658Y-71023962D01*
X177742808Y-71045197D01*
X177743861Y-71066638D01*
X177743861Y-71504138D01*
X177742808Y-71525579D01*
X177739658Y-71546814D01*
X177734442Y-71567638D01*
X177727210Y-71587850D01*
X177718031Y-71607256D01*
X177706995Y-71625669D01*
X177694207Y-71642912D01*
X177679791Y-71658818D01*
X177663885Y-71673234D01*
X177646642Y-71686022D01*
X177628229Y-71697058D01*
X177608823Y-71706237D01*
X177588611Y-71713469D01*
X177567787Y-71718685D01*
X177546552Y-71721835D01*
X177525111Y-71722888D01*
X177012611Y-71722888D01*
X176991170Y-71721835D01*
X176969935Y-71718685D01*
X176949111Y-71713469D01*
X176928899Y-71706237D01*
X176909493Y-71697058D01*
X176891080Y-71686022D01*
X176873837Y-71673234D01*
X176857931Y-71658818D01*
X176843515Y-71642912D01*
X176830727Y-71625669D01*
X176819691Y-71607256D01*
X176810512Y-71587850D01*
X176803280Y-71567638D01*
X176798064Y-71546814D01*
X176794914Y-71525579D01*
X176793861Y-71504138D01*
X176793861Y-71066638D01*
X176794914Y-71045197D01*
X176798064Y-71023962D01*
X176803280Y-71003138D01*
X176810512Y-70982926D01*
X176819691Y-70963520D01*
X176830727Y-70945107D01*
X176843515Y-70927864D01*
X176857931Y-70911958D01*
X176873837Y-70897542D01*
X176891080Y-70884754D01*
X176909493Y-70873718D01*
X176928899Y-70864539D01*
X176949111Y-70857307D01*
X176969935Y-70852091D01*
X176991170Y-70848941D01*
X177012611Y-70847888D01*
X177525111Y-70847888D01*
X177546552Y-70848941D01*
X177546552Y-70848941D01*
G37*
D11*
X177268861Y-71285388D03*
D10*
G36*
X177546552Y-72423943D02*
X177567787Y-72427093D01*
X177588611Y-72432309D01*
X177608823Y-72439541D01*
X177628229Y-72448720D01*
X177646642Y-72459756D01*
X177663885Y-72472544D01*
X177679791Y-72486960D01*
X177694207Y-72502866D01*
X177706995Y-72520109D01*
X177718031Y-72538522D01*
X177727210Y-72557928D01*
X177734442Y-72578140D01*
X177739658Y-72598964D01*
X177742808Y-72620199D01*
X177743861Y-72641640D01*
X177743861Y-73079140D01*
X177742808Y-73100581D01*
X177739658Y-73121816D01*
X177734442Y-73142640D01*
X177727210Y-73162852D01*
X177718031Y-73182258D01*
X177706995Y-73200671D01*
X177694207Y-73217914D01*
X177679791Y-73233820D01*
X177663885Y-73248236D01*
X177646642Y-73261024D01*
X177628229Y-73272060D01*
X177608823Y-73281239D01*
X177588611Y-73288471D01*
X177567787Y-73293687D01*
X177546552Y-73296837D01*
X177525111Y-73297890D01*
X177012611Y-73297890D01*
X176991170Y-73296837D01*
X176969935Y-73293687D01*
X176949111Y-73288471D01*
X176928899Y-73281239D01*
X176909493Y-73272060D01*
X176891080Y-73261024D01*
X176873837Y-73248236D01*
X176857931Y-73233820D01*
X176843515Y-73217914D01*
X176830727Y-73200671D01*
X176819691Y-73182258D01*
X176810512Y-73162852D01*
X176803280Y-73142640D01*
X176798064Y-73121816D01*
X176794914Y-73100581D01*
X176793861Y-73079140D01*
X176793861Y-72641640D01*
X176794914Y-72620199D01*
X176798064Y-72598964D01*
X176803280Y-72578140D01*
X176810512Y-72557928D01*
X176819691Y-72538522D01*
X176830727Y-72520109D01*
X176843515Y-72502866D01*
X176857931Y-72486960D01*
X176873837Y-72472544D01*
X176891080Y-72459756D01*
X176909493Y-72448720D01*
X176928899Y-72439541D01*
X176949111Y-72432309D01*
X176969935Y-72427093D01*
X176991170Y-72423943D01*
X177012611Y-72422890D01*
X177525111Y-72422890D01*
X177546552Y-72423943D01*
X177546552Y-72423943D01*
G37*
D11*
X177268861Y-72860390D03*
G04 #@! TD*
D10*
G04 #@! TO.C,F1*
G36*
X159271467Y-56093754D02*
X159295128Y-56097264D01*
X159318332Y-56103076D01*
X159340854Y-56111134D01*
X159362478Y-56121362D01*
X159382995Y-56133659D01*
X159402208Y-56147909D01*
X159419932Y-56163973D01*
X159435996Y-56181697D01*
X159450246Y-56200910D01*
X159462543Y-56221427D01*
X159472771Y-56243051D01*
X159480829Y-56265573D01*
X159486641Y-56288777D01*
X159490151Y-56312438D01*
X159491325Y-56336330D01*
X159491325Y-56823830D01*
X159490151Y-56847722D01*
X159486641Y-56871383D01*
X159480829Y-56894587D01*
X159472771Y-56917109D01*
X159462543Y-56938733D01*
X159450246Y-56959250D01*
X159435996Y-56978463D01*
X159419932Y-56996187D01*
X159402208Y-57012251D01*
X159382995Y-57026501D01*
X159362478Y-57038798D01*
X159340854Y-57049026D01*
X159318332Y-57057084D01*
X159295128Y-57062896D01*
X159271467Y-57066406D01*
X159247575Y-57067580D01*
X158335075Y-57067580D01*
X158311183Y-57066406D01*
X158287522Y-57062896D01*
X158264318Y-57057084D01*
X158241796Y-57049026D01*
X158220172Y-57038798D01*
X158199655Y-57026501D01*
X158180442Y-57012251D01*
X158162718Y-56996187D01*
X158146654Y-56978463D01*
X158132404Y-56959250D01*
X158120107Y-56938733D01*
X158109879Y-56917109D01*
X158101821Y-56894587D01*
X158096009Y-56871383D01*
X158092499Y-56847722D01*
X158091325Y-56823830D01*
X158091325Y-56336330D01*
X158092499Y-56312438D01*
X158096009Y-56288777D01*
X158101821Y-56265573D01*
X158109879Y-56243051D01*
X158120107Y-56221427D01*
X158132404Y-56200910D01*
X158146654Y-56181697D01*
X158162718Y-56163973D01*
X158180442Y-56147909D01*
X158199655Y-56133659D01*
X158220172Y-56121362D01*
X158241796Y-56111134D01*
X158264318Y-56103076D01*
X158287522Y-56097264D01*
X158311183Y-56093754D01*
X158335075Y-56092580D01*
X159247575Y-56092580D01*
X159271467Y-56093754D01*
X159271467Y-56093754D01*
G37*
D21*
X158791325Y-56580080D03*
D10*
G36*
X159271467Y-54218754D02*
X159295128Y-54222264D01*
X159318332Y-54228076D01*
X159340854Y-54236134D01*
X159362478Y-54246362D01*
X159382995Y-54258659D01*
X159402208Y-54272909D01*
X159419932Y-54288973D01*
X159435996Y-54306697D01*
X159450246Y-54325910D01*
X159462543Y-54346427D01*
X159472771Y-54368051D01*
X159480829Y-54390573D01*
X159486641Y-54413777D01*
X159490151Y-54437438D01*
X159491325Y-54461330D01*
X159491325Y-54948830D01*
X159490151Y-54972722D01*
X159486641Y-54996383D01*
X159480829Y-55019587D01*
X159472771Y-55042109D01*
X159462543Y-55063733D01*
X159450246Y-55084250D01*
X159435996Y-55103463D01*
X159419932Y-55121187D01*
X159402208Y-55137251D01*
X159382995Y-55151501D01*
X159362478Y-55163798D01*
X159340854Y-55174026D01*
X159318332Y-55182084D01*
X159295128Y-55187896D01*
X159271467Y-55191406D01*
X159247575Y-55192580D01*
X158335075Y-55192580D01*
X158311183Y-55191406D01*
X158287522Y-55187896D01*
X158264318Y-55182084D01*
X158241796Y-55174026D01*
X158220172Y-55163798D01*
X158199655Y-55151501D01*
X158180442Y-55137251D01*
X158162718Y-55121187D01*
X158146654Y-55103463D01*
X158132404Y-55084250D01*
X158120107Y-55063733D01*
X158109879Y-55042109D01*
X158101821Y-55019587D01*
X158096009Y-54996383D01*
X158092499Y-54972722D01*
X158091325Y-54948830D01*
X158091325Y-54461330D01*
X158092499Y-54437438D01*
X158096009Y-54413777D01*
X158101821Y-54390573D01*
X158109879Y-54368051D01*
X158120107Y-54346427D01*
X158132404Y-54325910D01*
X158146654Y-54306697D01*
X158162718Y-54288973D01*
X158180442Y-54272909D01*
X158199655Y-54258659D01*
X158220172Y-54246362D01*
X158241796Y-54236134D01*
X158264318Y-54228076D01*
X158287522Y-54222264D01*
X158311183Y-54218754D01*
X158335075Y-54217580D01*
X159247575Y-54217580D01*
X159271467Y-54218754D01*
X159271467Y-54218754D01*
G37*
D21*
X158791325Y-54705080D03*
G04 #@! TD*
M02*
