G04 #@! TF.GenerationSoftware,KiCad,Pcbnew,(5.0.1)-3*
G04 #@! TF.CreationDate,2019-05-14T07:32:29-04:00*
G04 #@! TF.ProjectId,mulletpad-pcb,6D756C6C65747061642D7063622E6B69,rev?*
G04 #@! TF.SameCoordinates,Original*
G04 #@! TF.FileFunction,Copper,L1,Top,Signal*
G04 #@! TF.FilePolarity,Positive*
%FSLAX46Y46*%
G04 Gerber Fmt 4.6, Leading zero omitted, Abs format (unit mm)*
G04 Created by KiCad (PCBNEW (5.0.1)-3) date 5/14/2019 7:32:29 AM*
%MOMM*%
%LPD*%
G01*
G04 APERTURE LIST*
G04 #@! TA.AperFunction,ComponentPad*
%ADD10C,2.200000*%
G04 #@! TD*
G04 #@! TA.AperFunction,ComponentPad*
%ADD11O,1.000000X1.600000*%
G04 #@! TD*
G04 #@! TA.AperFunction,ComponentPad*
%ADD12O,1.000000X2.100000*%
G04 #@! TD*
G04 #@! TA.AperFunction,ViaPad*
%ADD13C,0.800000*%
G04 #@! TD*
G04 #@! TA.AperFunction,Conductor*
%ADD14C,0.250000*%
G04 #@! TD*
G04 APERTURE END LIST*
D10*
G04 #@! TO.P,SW14,2*
G04 #@! TO.N,Net-(D17-Pad2)*
X169926000Y-122682000D03*
G04 #@! TO.P,SW14,1*
G04 #@! TO.N,col3*
X167386000Y-116332000D03*
G04 #@! TD*
G04 #@! TO.P,SW7,2*
G04 #@! TO.N,Net-(D16-Pad2)*
X169926000Y-84582000D03*
G04 #@! TO.P,SW7,1*
G04 #@! TO.N,col3*
X167386000Y-78232000D03*
G04 #@! TD*
G04 #@! TO.P,SW3,2*
G04 #@! TO.N,Net-(D15-Pad2)*
X168529000Y-49657000D03*
G04 #@! TO.P,SW3,1*
G04 #@! TO.N,col3*
X174879000Y-47117000D03*
G04 #@! TD*
G04 #@! TO.P,SW12,1*
G04 #@! TO.N,col1*
X136779000Y-104267000D03*
G04 #@! TO.P,SW12,2*
G04 #@! TO.N,Net-(D9-Pad2)*
X130429000Y-106807000D03*
G04 #@! TD*
G04 #@! TO.P,SW0,2*
G04 #@! TO.N,Net-(D1-Pad2)*
X111379000Y-49657000D03*
G04 #@! TO.P,SW0,1*
G04 #@! TO.N,col0*
X117729000Y-47117000D03*
G04 #@! TD*
G04 #@! TO.P,SW1,2*
G04 #@! TO.N,Net-(D6-Pad2)*
X130429000Y-49657000D03*
G04 #@! TO.P,SW1,1*
G04 #@! TO.N,col1*
X136779000Y-47117000D03*
G04 #@! TD*
G04 #@! TO.P,SW2,2*
G04 #@! TO.N,Net-(D10-Pad2)*
X149479000Y-49657000D03*
G04 #@! TO.P,SW2,1*
G04 #@! TO.N,col2*
X155829000Y-47117000D03*
G04 #@! TD*
G04 #@! TO.P,SW4,1*
G04 #@! TO.N,col0*
X117729000Y-66167000D03*
G04 #@! TO.P,SW4,2*
G04 #@! TO.N,Net-(D2-Pad2)*
X111379000Y-68707000D03*
G04 #@! TD*
G04 #@! TO.P,SW5,2*
G04 #@! TO.N,Net-(D7-Pad2)*
X130429000Y-68707000D03*
G04 #@! TO.P,SW5,1*
G04 #@! TO.N,col1*
X136779000Y-66167000D03*
G04 #@! TD*
G04 #@! TO.P,SW6,1*
G04 #@! TO.N,col2*
X155829000Y-66167000D03*
G04 #@! TO.P,SW6,2*
G04 #@! TO.N,Net-(D11-Pad2)*
X149479000Y-68707000D03*
G04 #@! TD*
G04 #@! TO.P,SW8,1*
G04 #@! TO.N,col0*
X117729000Y-85217000D03*
G04 #@! TO.P,SW8,2*
G04 #@! TO.N,Net-(D3-Pad2)*
X111379000Y-87757000D03*
G04 #@! TD*
G04 #@! TO.P,SW9,2*
G04 #@! TO.N,Net-(D8-Pad2)*
X130429000Y-87757000D03*
G04 #@! TO.P,SW9,1*
G04 #@! TO.N,col1*
X136779000Y-85217000D03*
G04 #@! TD*
G04 #@! TO.P,SW10,1*
G04 #@! TO.N,col2*
X155829000Y-85217000D03*
G04 #@! TO.P,SW10,2*
G04 #@! TO.N,Net-(D12-Pad2)*
X149479000Y-87757000D03*
G04 #@! TD*
G04 #@! TO.P,SW11,2*
G04 #@! TO.N,Net-(D4-Pad2)*
X111379000Y-106807000D03*
G04 #@! TO.P,SW11,1*
G04 #@! TO.N,col0*
X117729000Y-104267000D03*
G04 #@! TD*
G04 #@! TO.P,SW13,1*
G04 #@! TO.N,col2*
X155829000Y-104267000D03*
G04 #@! TO.P,SW13,2*
G04 #@! TO.N,Net-(D13-Pad2)*
X149479000Y-106807000D03*
G04 #@! TD*
G04 #@! TO.P,SW16,1*
G04 #@! TO.N,col2*
X155829000Y-123317000D03*
G04 #@! TO.P,SW16,2*
G04 #@! TO.N,Net-(D14-Pad2)*
X149479000Y-125857000D03*
G04 #@! TD*
D11*
G04 #@! TO.P,USB1,13*
G04 #@! TO.N,GND*
X166251549Y-39531319D03*
X157611549Y-39531319D03*
D12*
X166251549Y-43711319D03*
X157611549Y-43711319D03*
G04 #@! TD*
D10*
G04 #@! TO.P,SW15,1*
G04 #@! TO.N,col0*
X127306000Y-123242000D03*
G04 #@! TO.P,SW15,2*
G04 #@! TO.N,Net-(D5-Pad2)*
X120956000Y-125782000D03*
G04 #@! TD*
D13*
G04 #@! TO.N,GND*
X164054601Y-63397568D03*
X166884174Y-69778810D03*
X177478833Y-74645046D03*
X173331886Y-100629081D03*
G04 #@! TO.N,row0*
X151862249Y-59054625D03*
X178128939Y-48111367D03*
G04 #@! TO.N,row1*
X118844152Y-72965270D03*
X121416309Y-72597819D03*
G04 #@! TO.N,Net-(D2-Pad2)*
X124775861Y-72755298D03*
X118896645Y-74172609D03*
G04 #@! TO.N,row2*
X107820622Y-97951938D03*
X114067289Y-97689473D03*
G04 #@! TO.N,row3*
X107768129Y-115904544D03*
X113909810Y-115852051D03*
G04 #@! TO.N,Net-(R3-Pad1)*
X174119281Y-101468969D03*
X167836858Y-60569118D03*
G04 #@! TO.N,col1*
X177688805Y-65983701D03*
X174081470Y-69982472D03*
G04 #@! TO.N,col2*
X177751184Y-64985636D03*
X173968277Y-70976057D03*
G04 #@! TO.N,col3*
X177681398Y-63988062D03*
X174011572Y-72274584D03*
G04 #@! TO.N,Net-(R1-Pad2)*
X157216535Y-48503532D03*
X160608877Y-47663644D03*
G04 #@! TO.N,Net-(R2-Pad2)*
X163568188Y-47663644D03*
X166980233Y-48398546D03*
G04 #@! TO.N,+5V*
X164198104Y-60419443D03*
X165562922Y-66456138D03*
X178003763Y-60629415D03*
X175760540Y-72135380D03*
G04 #@! TD*
D14*
G04 #@! TO.N,GND*
X164054601Y-63397568D02*
X166884174Y-66227141D01*
X166884174Y-66227141D02*
X166884174Y-69213125D01*
X166884174Y-69213125D02*
X166884174Y-69778810D01*
X173331886Y-95274795D02*
X173331886Y-100629081D01*
X177793791Y-90812890D02*
X173331886Y-95274795D01*
X177793791Y-74907511D02*
X177793791Y-90812890D01*
X177478833Y-74645046D02*
X177531326Y-74645046D01*
X177531326Y-74645046D02*
X177793791Y-74907511D01*
X177321354Y-74487567D02*
X177478833Y-74645046D01*
X166884174Y-69778810D02*
X171592931Y-74487567D01*
X171592931Y-74487567D02*
X177321354Y-74487567D01*
G04 #@! TO.N,row0*
X177728940Y-48511366D02*
X178128939Y-48111367D01*
X175851550Y-50388756D02*
X177728940Y-48511366D01*
X175851550Y-53595353D02*
X175851550Y-50388756D01*
X170392278Y-59054625D02*
X175851550Y-53595353D01*
X151862249Y-59054625D02*
X170392278Y-59054625D01*
G04 #@! TO.N,row1*
X118844152Y-72965270D02*
X121048858Y-72965270D01*
X121048858Y-72965270D02*
X121416309Y-72597819D01*
G04 #@! TO.N,Net-(D2-Pad2)*
X124775861Y-72755298D02*
X122781127Y-72755298D01*
X122781127Y-72755298D02*
X121363816Y-74172609D01*
X121363816Y-74172609D02*
X118896645Y-74172609D01*
G04 #@! TO.N,row2*
X107820622Y-97951938D02*
X113804824Y-97951938D01*
X113804824Y-97951938D02*
X114067289Y-97689473D01*
G04 #@! TO.N,row3*
X107768129Y-115904544D02*
X113857317Y-115904544D01*
X113857317Y-115904544D02*
X113909810Y-115852051D01*
G04 #@! TO.N,Net-(R3-Pad1)*
X177793791Y-73805158D02*
X171967068Y-73805158D01*
X167836858Y-69674948D02*
X167836858Y-61134803D01*
X171967068Y-73805158D02*
X167836858Y-69674948D01*
X167836858Y-61134803D02*
X167836858Y-60569118D01*
X178266228Y-74277595D02*
X177793791Y-73805158D01*
X178266228Y-91133770D02*
X178266228Y-74277595D01*
X174119281Y-95280717D02*
X178266228Y-91133770D01*
X174119281Y-101468969D02*
X174119281Y-95280717D01*
G04 #@! TO.N,col0*
X117729000Y-48672634D02*
X117729000Y-66167000D01*
X117729000Y-47117000D02*
X117729000Y-48672634D01*
X117729000Y-67722634D02*
X117729000Y-85217000D01*
X117729000Y-66167000D02*
X117729000Y-67722634D01*
X117729000Y-85217000D02*
X117729000Y-104267000D01*
X117729000Y-113665000D02*
X127306000Y-123242000D01*
X117729000Y-104267000D02*
X117729000Y-113665000D01*
G04 #@! TO.N,col1*
X137878999Y-65067001D02*
X136779000Y-66167000D01*
X137878999Y-48216999D02*
X137878999Y-65067001D01*
X136779000Y-47117000D02*
X137878999Y-48216999D01*
X136779000Y-67722634D02*
X136779000Y-85217000D01*
X136779000Y-66167000D02*
X136779000Y-67722634D01*
X136779000Y-85217000D02*
X136779000Y-104267000D01*
X177688805Y-65983701D02*
X174081470Y-69591036D01*
X174081470Y-69591036D02*
X174081470Y-69982472D01*
G04 #@! TO.N,col2*
X155829000Y-47117000D02*
X155829000Y-52988154D01*
X155829000Y-52988154D02*
X150969868Y-57847286D01*
X150969868Y-61307868D02*
X155829000Y-66167000D01*
X150969868Y-57847286D02*
X150969868Y-61307868D01*
X155829000Y-67722634D02*
X155829000Y-85217000D01*
X155829000Y-66167000D02*
X155829000Y-67722634D01*
X155829000Y-85217000D02*
X155829000Y-104267000D01*
X155829000Y-105822634D02*
X155829000Y-123317000D01*
X155829000Y-104267000D02*
X155829000Y-105822634D01*
X177898777Y-66823589D02*
X177531326Y-66823589D01*
X177531326Y-66823589D02*
X174959169Y-69395746D01*
X174959169Y-69395746D02*
X174959169Y-70550850D01*
X174533962Y-70976057D02*
X173968277Y-70976057D01*
X174959169Y-70550850D02*
X174533962Y-70976057D01*
X178476200Y-66246166D02*
X177898777Y-66823589D01*
X178476200Y-65710652D02*
X178476200Y-66246166D01*
X177751184Y-64985636D02*
X178476200Y-65710652D01*
G04 #@! TO.N,col3*
X175978999Y-46017001D02*
X177879417Y-46017001D01*
X174879000Y-47117000D02*
X175978999Y-46017001D01*
X177879417Y-46017001D02*
X179526060Y-47663644D01*
X179526060Y-62143400D02*
X177681398Y-63988062D01*
X179526060Y-47663644D02*
X179526060Y-62143400D01*
X167386000Y-78232000D02*
X167386000Y-116332000D01*
X175431606Y-70854550D02*
X174411571Y-71874585D01*
X178247083Y-63988062D02*
X178948637Y-64689616D01*
X178948637Y-64689616D02*
X178948637Y-66456138D01*
X175431606Y-69973169D02*
X175431606Y-70854550D01*
X178948637Y-66456138D02*
X175431606Y-69973169D01*
X174411571Y-71874585D02*
X174011572Y-72274584D01*
X177681398Y-63988062D02*
X178247083Y-63988062D01*
G04 #@! TO.N,Net-(R1-Pad2)*
X160043192Y-47663644D02*
X160608877Y-47663644D01*
X158056423Y-47663644D02*
X160043192Y-47663644D01*
X157216535Y-48503532D02*
X158056423Y-47663644D01*
G04 #@! TO.N,Net-(R2-Pad2)*
X163568188Y-47663644D02*
X164303090Y-48398546D01*
X164303090Y-48398546D02*
X166980233Y-48398546D01*
G04 #@! TO.N,+5V*
X163798105Y-60819442D02*
X163798105Y-62499218D01*
X164198104Y-60419443D02*
X163798105Y-60819442D01*
X163798105Y-62499218D02*
X163305723Y-62991600D01*
X163305723Y-62991600D02*
X163305723Y-63674009D01*
X163305723Y-63674009D02*
X163935639Y-64303925D01*
X163935639Y-64303925D02*
X164250597Y-64303925D01*
X165562922Y-65616250D02*
X165562922Y-66456138D01*
X164250597Y-64303925D02*
X165562922Y-65616250D01*
X164198104Y-60419443D02*
X165090485Y-59527062D01*
X171494631Y-60629415D02*
X178003763Y-60629415D01*
X170392278Y-59527062D02*
X171494631Y-60629415D01*
X167820121Y-59527062D02*
X170392278Y-59527062D01*
X165090485Y-59527062D02*
X167820121Y-59527062D01*
X167820121Y-59527062D02*
X168712502Y-60419443D01*
X175360541Y-72535379D02*
X175760540Y-72135380D01*
X174615692Y-73280228D02*
X175360541Y-72535379D01*
X172177040Y-73280228D02*
X174615692Y-73280228D01*
X168712502Y-69815690D02*
X172177040Y-73280228D01*
X168712502Y-60419443D02*
X168712502Y-69815690D01*
G04 #@! TD*
M02*
