M48
;DRILL file {KiCad (5.0.1)-3} date 5/14/2019 7:32:32 AM
;FORMAT={-:-/ absolute / inch / decimal}
FMAT,2
INCH,TZ
T1C0.0157
T2C0.0236
T3C0.0591
%
G90
G05
M72
T1
X4.2428Y-4.5632
X4.2449Y-3.8564
X4.4846Y-4.5611
X4.4908Y-3.846
X4.6789Y-2.8726
X4.681Y-2.9202
X4.7802Y-2.8582
X4.9124Y-2.8644
X5.9788Y-2.325
X6.1896Y-1.9096
X6.3232Y-1.8765
X6.4397Y-1.8765
X6.4588Y-2.496
X6.4645Y-2.3787
X6.5182Y-2.6164
X6.5702Y-2.7472
X6.574Y-1.9055
X6.6078Y-2.3846
X6.8241Y-3.9618
X6.8491Y-2.7943
X6.8508Y-2.8455
X6.8536Y-2.7552
X6.8551Y-3.9948
X6.9197Y-2.84
X6.9874Y-2.9388
X6.9953Y-2.5192
X6.9956Y-2.5978
X6.9981Y-2.5585
X7.008Y-2.387
X7.013Y-1.8941
T3
X5.885Y-2.705
X6.135Y-2.605
X5.135Y-3.455
X5.385Y-3.355
X6.59Y-4.58
X6.69Y-4.83
X5.885Y-3.455
X6.135Y-3.355
X5.135Y-2.705
X5.385Y-2.605
X4.385Y-1.955
X4.635Y-1.855
X5.135Y-1.955
X5.385Y-1.855
X4.385Y-2.705
X4.635Y-2.605
X5.885Y-4.955
X6.135Y-4.855
X4.762Y-4.952
X5.012Y-4.852
X6.59Y-3.08
X6.69Y-3.33
X5.885Y-1.955
X6.135Y-1.855
X5.135Y-4.205
X5.385Y-4.105
X4.385Y-4.205
X4.635Y-4.105
X5.885Y-4.205
X6.135Y-4.105
X4.385Y-3.455
X4.635Y-3.355
X6.635Y-1.955
X6.885Y-1.855
T2
X6.2052Y-1.5445G85X6.2052Y-1.5682
G05
X6.2052Y-1.6993G85X6.2052Y-1.7426
G05
X6.5453Y-1.5445G85X6.5453Y-1.5682
G05
X6.5453Y-1.6993G85X6.5453Y-1.7426
G05
T0
M30
