G04 #@! TF.GenerationSoftware,KiCad,Pcbnew,(5.0.1)-3*
G04 #@! TF.CreationDate,2019-05-09T01:11:10-04:00*
G04 #@! TF.ProjectId,mulletpad-pcb,6D756C6C65747061642D7063622E6B69,rev?*
G04 #@! TF.SameCoordinates,Original*
G04 #@! TF.FileFunction,Legend,Bot*
G04 #@! TF.FilePolarity,Positive*
%FSLAX46Y46*%
G04 Gerber Fmt 4.6, Leading zero omitted, Abs format (unit mm)*
G04 Created by KiCad (PCBNEW (5.0.1)-3) date 5/9/2019 1:11:10 AM*
%MOMM*%
%LPD*%
G01*
G04 APERTURE LIST*
%ADD10C,0.120000*%
%ADD11C,0.150000*%
%ADD12C,0.200000*%
G04 APERTURE END LIST*
D10*
G04 #@! TO.C,C2*
X171952138Y-55952238D02*
X171952138Y-56277796D01*
X170932138Y-55952238D02*
X170932138Y-56277796D01*
D11*
G04 #@! TO.C,U2*
X163115835Y-51685801D02*
X161815835Y-51685801D01*
X163115835Y-48785801D02*
X163115835Y-51685801D01*
X161815835Y-48785801D02*
X163115835Y-48785801D01*
X161815835Y-48785801D02*
X161815835Y-51685801D01*
D10*
G04 #@! TO.C,D1*
X113066000Y-59706500D02*
X111066000Y-59706500D01*
X111066000Y-59706500D02*
X111066000Y-55806500D01*
X113066000Y-59706500D02*
X113066000Y-55806500D01*
G04 #@! TO.C,D2*
X124253564Y-72800592D02*
X122253564Y-72800592D01*
X122253564Y-72800592D02*
X122253564Y-68900592D01*
X124253564Y-72800592D02*
X124253564Y-68900592D01*
G04 #@! TO.C,D3*
X112812000Y-98188500D02*
X110812000Y-98188500D01*
X110812000Y-98188500D02*
X110812000Y-94288500D01*
X112812000Y-98188500D02*
X112812000Y-94288500D01*
G04 #@! TO.C,D4*
X113066000Y-116348000D02*
X113066000Y-112448000D01*
X111066000Y-116348000D02*
X111066000Y-112448000D01*
X113066000Y-116348000D02*
X111066000Y-116348000D01*
G04 #@! TO.C,D5*
X122521295Y-135529727D02*
X120521295Y-135529727D01*
X120521295Y-135529727D02*
X120521295Y-131629727D01*
X122521295Y-135529727D02*
X122521295Y-131629727D01*
G04 #@! TO.C,D6*
X132116000Y-59706500D02*
X132116000Y-55806500D01*
X130116000Y-59706500D02*
X130116000Y-55806500D01*
X132116000Y-59706500D02*
X130116000Y-59706500D01*
G04 #@! TO.C,D7*
X143361016Y-72958071D02*
X143361016Y-69058071D01*
X141361016Y-72958071D02*
X141361016Y-69058071D01*
X143361016Y-72958071D02*
X141361016Y-72958071D01*
G04 #@! TO.C,D8*
X132370000Y-98314500D02*
X132370000Y-94414500D01*
X130370000Y-98314500D02*
X130370000Y-94414500D01*
X132370000Y-98314500D02*
X130370000Y-98314500D01*
G04 #@! TO.C,D9*
X132116000Y-116602000D02*
X130116000Y-116602000D01*
X130116000Y-116602000D02*
X130116000Y-112702000D01*
X132116000Y-116602000D02*
X132116000Y-112702000D01*
G04 #@! TO.C,D10*
X151166000Y-59706500D02*
X149166000Y-59706500D01*
X149166000Y-59706500D02*
X149166000Y-55806500D01*
X151166000Y-59706500D02*
X151166000Y-55806500D01*
G04 #@! TO.C,D11*
X146353117Y-73010564D02*
X146353117Y-69110564D01*
X144353117Y-73010564D02*
X144353117Y-69110564D01*
X146353117Y-73010564D02*
X144353117Y-73010564D01*
G04 #@! TO.C,D12*
X151166000Y-98314500D02*
X149166000Y-98314500D01*
X149166000Y-98314500D02*
X149166000Y-94414500D01*
X151166000Y-98314500D02*
X151166000Y-94414500D01*
G04 #@! TO.C,D13*
X151166000Y-116602000D02*
X151166000Y-112702000D01*
X149166000Y-116602000D02*
X149166000Y-112702000D01*
X151166000Y-116602000D02*
X149166000Y-116602000D01*
G04 #@! TO.C,D14*
X150912000Y-135398000D02*
X148912000Y-135398000D01*
X148912000Y-135398000D02*
X148912000Y-131498000D01*
X150912000Y-135398000D02*
X150912000Y-131498000D01*
G04 #@! TO.C,D15*
X179106493Y-50308493D02*
X179106493Y-46408493D01*
X177106493Y-50308493D02*
X177106493Y-46408493D01*
X179106493Y-50308493D02*
X177106493Y-50308493D01*
G04 #@! TO.C,D16*
X177074493Y-92218493D02*
X175074493Y-92218493D01*
X175074493Y-92218493D02*
X175074493Y-88318493D01*
X177074493Y-92218493D02*
X177074493Y-88318493D01*
G04 #@! TO.C,D17*
X178216368Y-126133480D02*
X178216368Y-122233480D01*
X176216368Y-126133480D02*
X176216368Y-122233480D01*
X178216368Y-126133480D02*
X176216368Y-126133480D01*
G04 #@! TO.C,R1*
X158123846Y-49506199D02*
X158123846Y-49180641D01*
X159143846Y-49506199D02*
X159143846Y-49180641D01*
G04 #@! TO.C,R2*
X166020429Y-49506199D02*
X166020429Y-49180641D01*
X165000429Y-49506199D02*
X165000429Y-49180641D01*
G04 #@! TO.C,RESET1*
X171001970Y-99378941D02*
X171451970Y-98928941D01*
X174401970Y-99378941D02*
X173951970Y-98928941D01*
X174401970Y-103978941D02*
X173951970Y-104428941D01*
X171001970Y-103978941D02*
X171451970Y-104428941D01*
X175451970Y-102678941D02*
X175451970Y-100678941D01*
X171451970Y-98928941D02*
X173951970Y-98928941D01*
X169951970Y-102678941D02*
X169951970Y-100678941D01*
X171451970Y-104428941D02*
X173951970Y-104428941D01*
D12*
G04 #@! TO.C,X1*
X172479183Y-54397496D02*
X172479183Y-58147496D01*
X172479183Y-58147496D02*
X177229183Y-58147496D01*
X177229183Y-58147496D02*
X177229183Y-54397496D01*
X177229183Y-54397496D02*
X172479183Y-54397496D01*
D10*
G04 #@! TO.C,U1*
X175849435Y-67388995D02*
X176574435Y-67388995D01*
X176574435Y-67388995D02*
X176574435Y-66663995D01*
X170079435Y-60168995D02*
X169354435Y-60168995D01*
X169354435Y-60168995D02*
X169354435Y-60893995D01*
X175849435Y-60168995D02*
X176574435Y-60168995D01*
X176574435Y-60168995D02*
X176574435Y-60893995D01*
X170079435Y-67388995D02*
X169354435Y-67388995D01*
G04 #@! TO.C,R5*
X160905975Y-54283062D02*
X160905975Y-53957504D01*
X161925975Y-54283062D02*
X161925975Y-53957504D01*
G04 #@! TO.C,R6*
X164025695Y-54283062D02*
X164025695Y-53957504D01*
X163005695Y-54283062D02*
X163005695Y-53957504D01*
G04 #@! TO.C,C1*
X166303125Y-63711572D02*
X165977565Y-63711572D01*
X166303125Y-62691572D02*
X165977565Y-62691572D01*
G04 #@! TO.C,C3*
X178723735Y-56067824D02*
X178723735Y-55742266D01*
X177703735Y-56067824D02*
X177703735Y-55742266D01*
G04 #@! TO.C,C4*
X166303124Y-61926810D02*
X165977566Y-61926810D01*
X166303124Y-60906810D02*
X165977566Y-60906810D01*
G04 #@! TO.C,C5*
X165977566Y-57989835D02*
X166303124Y-57989835D01*
X165977566Y-56969835D02*
X166303124Y-56969835D01*
G04 #@! TO.C,C6*
X178575886Y-59984569D02*
X178901444Y-59984569D01*
X178575886Y-58964569D02*
X178901444Y-58964569D01*
G04 #@! TO.C,C7*
X176046592Y-70503399D02*
X176046592Y-70177841D01*
X175026592Y-70503399D02*
X175026592Y-70177841D01*
G04 #@! TO.C,C8*
X168330121Y-67658177D02*
X168330121Y-67983735D01*
X167310121Y-67658177D02*
X167310121Y-67983735D01*
G04 #@! TO.C,R3*
X166303124Y-58912076D02*
X165977566Y-58912076D01*
X166303124Y-59932076D02*
X165977566Y-59932076D01*
G04 #@! TO.C,R4*
X176758861Y-72235668D02*
X176758861Y-71910110D01*
X177778861Y-72235668D02*
X177778861Y-71910110D01*
G04 #@! TO.C,F1*
X159501325Y-55901158D02*
X159501325Y-55384002D01*
X158081325Y-55901158D02*
X158081325Y-55384002D01*
G04 #@! TO.C,C2*
D11*
X170369280Y-55948350D02*
X170416899Y-55900731D01*
X170464518Y-55757874D01*
X170464518Y-55662636D01*
X170416899Y-55519778D01*
X170321661Y-55424540D01*
X170226423Y-55376921D01*
X170035947Y-55329302D01*
X169893090Y-55329302D01*
X169702614Y-55376921D01*
X169607376Y-55424540D01*
X169512138Y-55519778D01*
X169464518Y-55662636D01*
X169464518Y-55757874D01*
X169512138Y-55900731D01*
X169559757Y-55948350D01*
X169559757Y-56329302D02*
X169512138Y-56376921D01*
X169464518Y-56472159D01*
X169464518Y-56710255D01*
X169512138Y-56805493D01*
X169559757Y-56853112D01*
X169654995Y-56900731D01*
X169750233Y-56900731D01*
X169893090Y-56853112D01*
X170464518Y-56281683D01*
X170464518Y-56900731D01*
G04 #@! TO.C,U2*
X163280232Y-49635688D02*
X163280232Y-50445212D01*
X163232613Y-50540450D01*
X163184994Y-50588069D01*
X163089756Y-50635688D01*
X162899280Y-50635688D01*
X162804042Y-50588069D01*
X162756423Y-50540450D01*
X162708804Y-50445212D01*
X162708804Y-49635688D01*
X162280232Y-49730927D02*
X162232613Y-49683308D01*
X162137375Y-49635688D01*
X161899280Y-49635688D01*
X161804042Y-49683308D01*
X161756423Y-49730927D01*
X161708804Y-49826165D01*
X161708804Y-49921403D01*
X161756423Y-50064260D01*
X162327851Y-50635688D01*
X161708804Y-50635688D01*
G04 #@! TO.C,D1*
X114518380Y-56718404D02*
X113518380Y-56718404D01*
X113518380Y-56956500D01*
X113566000Y-57099357D01*
X113661238Y-57194595D01*
X113756476Y-57242214D01*
X113946952Y-57289833D01*
X114089809Y-57289833D01*
X114280285Y-57242214D01*
X114375523Y-57194595D01*
X114470761Y-57099357D01*
X114518380Y-56956500D01*
X114518380Y-56718404D01*
X114518380Y-58242214D02*
X114518380Y-57670785D01*
X114518380Y-57956500D02*
X113518380Y-57956500D01*
X113661238Y-57861261D01*
X113756476Y-57766023D01*
X113804095Y-57670785D01*
G04 #@! TO.C,D2*
X125705944Y-69812496D02*
X124705944Y-69812496D01*
X124705944Y-70050592D01*
X124753564Y-70193449D01*
X124848802Y-70288687D01*
X124944040Y-70336306D01*
X125134516Y-70383925D01*
X125277373Y-70383925D01*
X125467849Y-70336306D01*
X125563087Y-70288687D01*
X125658325Y-70193449D01*
X125705944Y-70050592D01*
X125705944Y-69812496D01*
X124801183Y-70764877D02*
X124753564Y-70812496D01*
X124705944Y-70907734D01*
X124705944Y-71145830D01*
X124753564Y-71241068D01*
X124801183Y-71288687D01*
X124896421Y-71336306D01*
X124991659Y-71336306D01*
X125134516Y-71288687D01*
X125705944Y-70717258D01*
X125705944Y-71336306D01*
G04 #@! TO.C,D3*
X114264380Y-95200404D02*
X113264380Y-95200404D01*
X113264380Y-95438500D01*
X113312000Y-95581357D01*
X113407238Y-95676595D01*
X113502476Y-95724214D01*
X113692952Y-95771833D01*
X113835809Y-95771833D01*
X114026285Y-95724214D01*
X114121523Y-95676595D01*
X114216761Y-95581357D01*
X114264380Y-95438500D01*
X114264380Y-95200404D01*
X113264380Y-96105166D02*
X113264380Y-96724214D01*
X113645333Y-96390880D01*
X113645333Y-96533738D01*
X113692952Y-96628976D01*
X113740571Y-96676595D01*
X113835809Y-96724214D01*
X114073904Y-96724214D01*
X114169142Y-96676595D01*
X114216761Y-96628976D01*
X114264380Y-96533738D01*
X114264380Y-96248023D01*
X114216761Y-96152785D01*
X114169142Y-96105166D01*
G04 #@! TO.C,D4*
X114518380Y-113359904D02*
X113518380Y-113359904D01*
X113518380Y-113598000D01*
X113566000Y-113740857D01*
X113661238Y-113836095D01*
X113756476Y-113883714D01*
X113946952Y-113931333D01*
X114089809Y-113931333D01*
X114280285Y-113883714D01*
X114375523Y-113836095D01*
X114470761Y-113740857D01*
X114518380Y-113598000D01*
X114518380Y-113359904D01*
X113851714Y-114788476D02*
X114518380Y-114788476D01*
X113470761Y-114550380D02*
X114185047Y-114312285D01*
X114185047Y-114931333D01*
G04 #@! TO.C,D5*
X123973675Y-132541631D02*
X122973675Y-132541631D01*
X122973675Y-132779727D01*
X123021295Y-132922584D01*
X123116533Y-133017822D01*
X123211771Y-133065441D01*
X123402247Y-133113060D01*
X123545104Y-133113060D01*
X123735580Y-133065441D01*
X123830818Y-133017822D01*
X123926056Y-132922584D01*
X123973675Y-132779727D01*
X123973675Y-132541631D01*
X122973675Y-134017822D02*
X122973675Y-133541631D01*
X123449866Y-133494012D01*
X123402247Y-133541631D01*
X123354628Y-133636869D01*
X123354628Y-133874965D01*
X123402247Y-133970203D01*
X123449866Y-134017822D01*
X123545104Y-134065441D01*
X123783199Y-134065441D01*
X123878437Y-134017822D01*
X123926056Y-133970203D01*
X123973675Y-133874965D01*
X123973675Y-133636869D01*
X123926056Y-133541631D01*
X123878437Y-133494012D01*
G04 #@! TO.C,D6*
X133568380Y-56718404D02*
X132568380Y-56718404D01*
X132568380Y-56956500D01*
X132616000Y-57099357D01*
X132711238Y-57194595D01*
X132806476Y-57242214D01*
X132996952Y-57289833D01*
X133139809Y-57289833D01*
X133330285Y-57242214D01*
X133425523Y-57194595D01*
X133520761Y-57099357D01*
X133568380Y-56956500D01*
X133568380Y-56718404D01*
X132568380Y-58146976D02*
X132568380Y-57956500D01*
X132616000Y-57861261D01*
X132663619Y-57813642D01*
X132806476Y-57718404D01*
X132996952Y-57670785D01*
X133377904Y-57670785D01*
X133473142Y-57718404D01*
X133520761Y-57766023D01*
X133568380Y-57861261D01*
X133568380Y-58051738D01*
X133520761Y-58146976D01*
X133473142Y-58194595D01*
X133377904Y-58242214D01*
X133139809Y-58242214D01*
X133044571Y-58194595D01*
X132996952Y-58146976D01*
X132949333Y-58051738D01*
X132949333Y-57861261D01*
X132996952Y-57766023D01*
X133044571Y-57718404D01*
X133139809Y-57670785D01*
G04 #@! TO.C,D7*
X144813396Y-69969975D02*
X143813396Y-69969975D01*
X143813396Y-70208071D01*
X143861016Y-70350928D01*
X143956254Y-70446166D01*
X144051492Y-70493785D01*
X144241968Y-70541404D01*
X144384825Y-70541404D01*
X144575301Y-70493785D01*
X144670539Y-70446166D01*
X144765777Y-70350928D01*
X144813396Y-70208071D01*
X144813396Y-69969975D01*
X143813396Y-70874737D02*
X143813396Y-71541404D01*
X144813396Y-71112832D01*
G04 #@! TO.C,D8*
X133822380Y-95326404D02*
X132822380Y-95326404D01*
X132822380Y-95564500D01*
X132870000Y-95707357D01*
X132965238Y-95802595D01*
X133060476Y-95850214D01*
X133250952Y-95897833D01*
X133393809Y-95897833D01*
X133584285Y-95850214D01*
X133679523Y-95802595D01*
X133774761Y-95707357D01*
X133822380Y-95564500D01*
X133822380Y-95326404D01*
X133250952Y-96469261D02*
X133203333Y-96374023D01*
X133155714Y-96326404D01*
X133060476Y-96278785D01*
X133012857Y-96278785D01*
X132917619Y-96326404D01*
X132870000Y-96374023D01*
X132822380Y-96469261D01*
X132822380Y-96659738D01*
X132870000Y-96754976D01*
X132917619Y-96802595D01*
X133012857Y-96850214D01*
X133060476Y-96850214D01*
X133155714Y-96802595D01*
X133203333Y-96754976D01*
X133250952Y-96659738D01*
X133250952Y-96469261D01*
X133298571Y-96374023D01*
X133346190Y-96326404D01*
X133441428Y-96278785D01*
X133631904Y-96278785D01*
X133727142Y-96326404D01*
X133774761Y-96374023D01*
X133822380Y-96469261D01*
X133822380Y-96659738D01*
X133774761Y-96754976D01*
X133727142Y-96802595D01*
X133631904Y-96850214D01*
X133441428Y-96850214D01*
X133346190Y-96802595D01*
X133298571Y-96754976D01*
X133250952Y-96659738D01*
G04 #@! TO.C,D9*
X133568380Y-113613904D02*
X132568380Y-113613904D01*
X132568380Y-113852000D01*
X132616000Y-113994857D01*
X132711238Y-114090095D01*
X132806476Y-114137714D01*
X132996952Y-114185333D01*
X133139809Y-114185333D01*
X133330285Y-114137714D01*
X133425523Y-114090095D01*
X133520761Y-113994857D01*
X133568380Y-113852000D01*
X133568380Y-113613904D01*
X133568380Y-114661523D02*
X133568380Y-114852000D01*
X133520761Y-114947238D01*
X133473142Y-114994857D01*
X133330285Y-115090095D01*
X133139809Y-115137714D01*
X132758857Y-115137714D01*
X132663619Y-115090095D01*
X132616000Y-115042476D01*
X132568380Y-114947238D01*
X132568380Y-114756761D01*
X132616000Y-114661523D01*
X132663619Y-114613904D01*
X132758857Y-114566285D01*
X132996952Y-114566285D01*
X133092190Y-114613904D01*
X133139809Y-114661523D01*
X133187428Y-114756761D01*
X133187428Y-114947238D01*
X133139809Y-115042476D01*
X133092190Y-115090095D01*
X132996952Y-115137714D01*
G04 #@! TO.C,D10*
X152618380Y-56242214D02*
X151618380Y-56242214D01*
X151618380Y-56480309D01*
X151666000Y-56623166D01*
X151761238Y-56718404D01*
X151856476Y-56766023D01*
X152046952Y-56813642D01*
X152189809Y-56813642D01*
X152380285Y-56766023D01*
X152475523Y-56718404D01*
X152570761Y-56623166D01*
X152618380Y-56480309D01*
X152618380Y-56242214D01*
X152618380Y-57766023D02*
X152618380Y-57194595D01*
X152618380Y-57480309D02*
X151618380Y-57480309D01*
X151761238Y-57385071D01*
X151856476Y-57289833D01*
X151904095Y-57194595D01*
X151618380Y-58385071D02*
X151618380Y-58480309D01*
X151666000Y-58575547D01*
X151713619Y-58623166D01*
X151808857Y-58670785D01*
X151999333Y-58718404D01*
X152237428Y-58718404D01*
X152427904Y-58670785D01*
X152523142Y-58623166D01*
X152570761Y-58575547D01*
X152618380Y-58480309D01*
X152618380Y-58385071D01*
X152570761Y-58289833D01*
X152523142Y-58242214D01*
X152427904Y-58194595D01*
X152237428Y-58146976D01*
X151999333Y-58146976D01*
X151808857Y-58194595D01*
X151713619Y-58242214D01*
X151666000Y-58289833D01*
X151618380Y-58385071D01*
G04 #@! TO.C,D11*
X147805497Y-69546278D02*
X146805497Y-69546278D01*
X146805497Y-69784373D01*
X146853117Y-69927230D01*
X146948355Y-70022468D01*
X147043593Y-70070087D01*
X147234069Y-70117706D01*
X147376926Y-70117706D01*
X147567402Y-70070087D01*
X147662640Y-70022468D01*
X147757878Y-69927230D01*
X147805497Y-69784373D01*
X147805497Y-69546278D01*
X147805497Y-71070087D02*
X147805497Y-70498659D01*
X147805497Y-70784373D02*
X146805497Y-70784373D01*
X146948355Y-70689135D01*
X147043593Y-70593897D01*
X147091212Y-70498659D01*
X147805497Y-72022468D02*
X147805497Y-71451040D01*
X147805497Y-71736754D02*
X146805497Y-71736754D01*
X146948355Y-71641516D01*
X147043593Y-71546278D01*
X147091212Y-71451040D01*
G04 #@! TO.C,D12*
X152618380Y-94850214D02*
X151618380Y-94850214D01*
X151618380Y-95088309D01*
X151666000Y-95231166D01*
X151761238Y-95326404D01*
X151856476Y-95374023D01*
X152046952Y-95421642D01*
X152189809Y-95421642D01*
X152380285Y-95374023D01*
X152475523Y-95326404D01*
X152570761Y-95231166D01*
X152618380Y-95088309D01*
X152618380Y-94850214D01*
X152618380Y-96374023D02*
X152618380Y-95802595D01*
X152618380Y-96088309D02*
X151618380Y-96088309D01*
X151761238Y-95993071D01*
X151856476Y-95897833D01*
X151904095Y-95802595D01*
X151713619Y-96754976D02*
X151666000Y-96802595D01*
X151618380Y-96897833D01*
X151618380Y-97135928D01*
X151666000Y-97231166D01*
X151713619Y-97278785D01*
X151808857Y-97326404D01*
X151904095Y-97326404D01*
X152046952Y-97278785D01*
X152618380Y-96707357D01*
X152618380Y-97326404D01*
G04 #@! TO.C,D13*
X152618380Y-113137714D02*
X151618380Y-113137714D01*
X151618380Y-113375809D01*
X151666000Y-113518666D01*
X151761238Y-113613904D01*
X151856476Y-113661523D01*
X152046952Y-113709142D01*
X152189809Y-113709142D01*
X152380285Y-113661523D01*
X152475523Y-113613904D01*
X152570761Y-113518666D01*
X152618380Y-113375809D01*
X152618380Y-113137714D01*
X152618380Y-114661523D02*
X152618380Y-114090095D01*
X152618380Y-114375809D02*
X151618380Y-114375809D01*
X151761238Y-114280571D01*
X151856476Y-114185333D01*
X151904095Y-114090095D01*
X151618380Y-114994857D02*
X151618380Y-115613904D01*
X151999333Y-115280571D01*
X151999333Y-115423428D01*
X152046952Y-115518666D01*
X152094571Y-115566285D01*
X152189809Y-115613904D01*
X152427904Y-115613904D01*
X152523142Y-115566285D01*
X152570761Y-115518666D01*
X152618380Y-115423428D01*
X152618380Y-115137714D01*
X152570761Y-115042476D01*
X152523142Y-114994857D01*
G04 #@! TO.C,D14*
X152364380Y-131933714D02*
X151364380Y-131933714D01*
X151364380Y-132171809D01*
X151412000Y-132314666D01*
X151507238Y-132409904D01*
X151602476Y-132457523D01*
X151792952Y-132505142D01*
X151935809Y-132505142D01*
X152126285Y-132457523D01*
X152221523Y-132409904D01*
X152316761Y-132314666D01*
X152364380Y-132171809D01*
X152364380Y-131933714D01*
X152364380Y-133457523D02*
X152364380Y-132886095D01*
X152364380Y-133171809D02*
X151364380Y-133171809D01*
X151507238Y-133076571D01*
X151602476Y-132981333D01*
X151650095Y-132886095D01*
X151697714Y-134314666D02*
X152364380Y-134314666D01*
X151316761Y-134076571D02*
X152031047Y-133838476D01*
X152031047Y-134457523D01*
G04 #@! TO.C,D15*
X180558873Y-46844207D02*
X179558873Y-46844207D01*
X179558873Y-47082302D01*
X179606493Y-47225159D01*
X179701731Y-47320397D01*
X179796969Y-47368016D01*
X179987445Y-47415635D01*
X180130302Y-47415635D01*
X180320778Y-47368016D01*
X180416016Y-47320397D01*
X180511254Y-47225159D01*
X180558873Y-47082302D01*
X180558873Y-46844207D01*
X180558873Y-48368016D02*
X180558873Y-47796588D01*
X180558873Y-48082302D02*
X179558873Y-48082302D01*
X179701731Y-47987064D01*
X179796969Y-47891826D01*
X179844588Y-47796588D01*
X179558873Y-49272778D02*
X179558873Y-48796588D01*
X180035064Y-48748969D01*
X179987445Y-48796588D01*
X179939826Y-48891826D01*
X179939826Y-49129921D01*
X179987445Y-49225159D01*
X180035064Y-49272778D01*
X180130302Y-49320397D01*
X180368397Y-49320397D01*
X180463635Y-49272778D01*
X180511254Y-49225159D01*
X180558873Y-49129921D01*
X180558873Y-48891826D01*
X180511254Y-48796588D01*
X180463635Y-48748969D01*
G04 #@! TO.C,D16*
X178526873Y-88754207D02*
X177526873Y-88754207D01*
X177526873Y-88992302D01*
X177574493Y-89135159D01*
X177669731Y-89230397D01*
X177764969Y-89278016D01*
X177955445Y-89325635D01*
X178098302Y-89325635D01*
X178288778Y-89278016D01*
X178384016Y-89230397D01*
X178479254Y-89135159D01*
X178526873Y-88992302D01*
X178526873Y-88754207D01*
X178526873Y-90278016D02*
X178526873Y-89706588D01*
X178526873Y-89992302D02*
X177526873Y-89992302D01*
X177669731Y-89897064D01*
X177764969Y-89801826D01*
X177812588Y-89706588D01*
X177526873Y-91135159D02*
X177526873Y-90944683D01*
X177574493Y-90849445D01*
X177622112Y-90801826D01*
X177764969Y-90706588D01*
X177955445Y-90658969D01*
X178336397Y-90658969D01*
X178431635Y-90706588D01*
X178479254Y-90754207D01*
X178526873Y-90849445D01*
X178526873Y-91039921D01*
X178479254Y-91135159D01*
X178431635Y-91182778D01*
X178336397Y-91230397D01*
X178098302Y-91230397D01*
X178003064Y-91182778D01*
X177955445Y-91135159D01*
X177907826Y-91039921D01*
X177907826Y-90849445D01*
X177955445Y-90754207D01*
X178003064Y-90706588D01*
X178098302Y-90658969D01*
G04 #@! TO.C,D17*
X179668748Y-122669194D02*
X178668748Y-122669194D01*
X178668748Y-122907289D01*
X178716368Y-123050146D01*
X178811606Y-123145384D01*
X178906844Y-123193003D01*
X179097320Y-123240622D01*
X179240177Y-123240622D01*
X179430653Y-123193003D01*
X179525891Y-123145384D01*
X179621129Y-123050146D01*
X179668748Y-122907289D01*
X179668748Y-122669194D01*
X179668748Y-124193003D02*
X179668748Y-123621575D01*
X179668748Y-123907289D02*
X178668748Y-123907289D01*
X178811606Y-123812051D01*
X178906844Y-123716813D01*
X178954463Y-123621575D01*
X178668748Y-124526337D02*
X178668748Y-125193003D01*
X179668748Y-124764432D01*
G04 #@! TO.C,R1*
X158170596Y-47748573D02*
X158503930Y-47272383D01*
X158742025Y-47748573D02*
X158742025Y-46748573D01*
X158361072Y-46748573D01*
X158265834Y-46796193D01*
X158218215Y-46843812D01*
X158170596Y-46939050D01*
X158170596Y-47081907D01*
X158218215Y-47177145D01*
X158265834Y-47224764D01*
X158361072Y-47272383D01*
X158742025Y-47272383D01*
X157218215Y-47748573D02*
X157789644Y-47748573D01*
X157503930Y-47748573D02*
X157503930Y-46748573D01*
X157599168Y-46891431D01*
X157694406Y-46986669D01*
X157789644Y-47034288D01*
X157152613Y-49425716D02*
X157628803Y-49425716D01*
X157676422Y-49901907D01*
X157628803Y-49854288D01*
X157533565Y-49806669D01*
X157295470Y-49806669D01*
X157200232Y-49854288D01*
X157152613Y-49901907D01*
X157104994Y-49997145D01*
X157104994Y-50235240D01*
X157152613Y-50330478D01*
X157200232Y-50378097D01*
X157295470Y-50425716D01*
X157533565Y-50425716D01*
X157628803Y-50378097D01*
X157676422Y-50330478D01*
X156676422Y-50330478D02*
X156628803Y-50378097D01*
X156676422Y-50425716D01*
X156724041Y-50378097D01*
X156676422Y-50330478D01*
X156676422Y-50425716D01*
X155676422Y-50425716D02*
X156247851Y-50425716D01*
X155962137Y-50425716D02*
X155962137Y-49425716D01*
X156057375Y-49568574D01*
X156152613Y-49663812D01*
X156247851Y-49711431D01*
X155247851Y-50425716D02*
X155247851Y-49425716D01*
X155152613Y-50044764D02*
X154866899Y-50425716D01*
X154866899Y-49759050D02*
X155247851Y-50140002D01*
G04 #@! TO.C,R2*
X166044546Y-47538601D02*
X166377880Y-47062411D01*
X166615975Y-47538601D02*
X166615975Y-46538601D01*
X166235022Y-46538601D01*
X166139784Y-46586221D01*
X166092165Y-46633840D01*
X166044546Y-46729078D01*
X166044546Y-46871935D01*
X166092165Y-46967173D01*
X166139784Y-47014792D01*
X166235022Y-47062411D01*
X166615975Y-47062411D01*
X165663594Y-46633840D02*
X165615975Y-46586221D01*
X165520737Y-46538601D01*
X165282641Y-46538601D01*
X165187403Y-46586221D01*
X165139784Y-46633840D01*
X165092165Y-46729078D01*
X165092165Y-46824316D01*
X165139784Y-46967173D01*
X165711213Y-47538601D01*
X165092165Y-47538601D01*
X165656479Y-51157985D02*
X166132669Y-51157985D01*
X166180288Y-51634176D01*
X166132669Y-51586557D01*
X166037431Y-51538938D01*
X165799336Y-51538938D01*
X165704098Y-51586557D01*
X165656479Y-51634176D01*
X165608860Y-51729414D01*
X165608860Y-51967509D01*
X165656479Y-52062747D01*
X165704098Y-52110366D01*
X165799336Y-52157985D01*
X166037431Y-52157985D01*
X166132669Y-52110366D01*
X166180288Y-52062747D01*
X165180288Y-52062747D02*
X165132669Y-52110366D01*
X165180288Y-52157985D01*
X165227907Y-52110366D01*
X165180288Y-52062747D01*
X165180288Y-52157985D01*
X164180288Y-52157985D02*
X164751717Y-52157985D01*
X164466003Y-52157985D02*
X164466003Y-51157985D01*
X164561241Y-51300843D01*
X164656479Y-51396081D01*
X164751717Y-51443700D01*
X163751717Y-52157985D02*
X163751717Y-51157985D01*
X163656479Y-51777033D02*
X163370765Y-52157985D01*
X163370765Y-51491319D02*
X163751717Y-51872271D01*
G04 #@! TO.C,RESET1*
X174630541Y-105881321D02*
X174963874Y-105405131D01*
X175201970Y-105881321D02*
X175201970Y-104881321D01*
X174821017Y-104881321D01*
X174725779Y-104928941D01*
X174678160Y-104976560D01*
X174630541Y-105071798D01*
X174630541Y-105214655D01*
X174678160Y-105309893D01*
X174725779Y-105357512D01*
X174821017Y-105405131D01*
X175201970Y-105405131D01*
X174201970Y-105357512D02*
X173868636Y-105357512D01*
X173725779Y-105881321D02*
X174201970Y-105881321D01*
X174201970Y-104881321D01*
X173725779Y-104881321D01*
X173344827Y-105833702D02*
X173201970Y-105881321D01*
X172963874Y-105881321D01*
X172868636Y-105833702D01*
X172821017Y-105786083D01*
X172773398Y-105690845D01*
X172773398Y-105595607D01*
X172821017Y-105500369D01*
X172868636Y-105452750D01*
X172963874Y-105405131D01*
X173154350Y-105357512D01*
X173249589Y-105309893D01*
X173297208Y-105262274D01*
X173344827Y-105167036D01*
X173344827Y-105071798D01*
X173297208Y-104976560D01*
X173249589Y-104928941D01*
X173154350Y-104881321D01*
X172916255Y-104881321D01*
X172773398Y-104928941D01*
X172344827Y-105357512D02*
X172011493Y-105357512D01*
X171868636Y-105881321D02*
X172344827Y-105881321D01*
X172344827Y-104881321D01*
X171868636Y-104881321D01*
X171582922Y-104881321D02*
X171011493Y-104881321D01*
X171297208Y-105881321D02*
X171297208Y-104881321D01*
X170154350Y-105881321D02*
X170725779Y-105881321D01*
X170440065Y-105881321D02*
X170440065Y-104881321D01*
X170535303Y-105024179D01*
X170630541Y-105119417D01*
X170725779Y-105167036D01*
G04 #@! TO.C,U1*
X173726339Y-68051375D02*
X173726339Y-68860899D01*
X173678720Y-68956137D01*
X173631101Y-69003756D01*
X173535863Y-69051375D01*
X173345387Y-69051375D01*
X173250149Y-69003756D01*
X173202530Y-68956137D01*
X173154911Y-68860899D01*
X173154911Y-68051375D01*
X172154911Y-69051375D02*
X172726339Y-69051375D01*
X172440625Y-69051375D02*
X172440625Y-68051375D01*
X172535863Y-68194233D01*
X172631101Y-68289471D01*
X172726339Y-68337090D01*
G04 #@! TO.C,USB1*
X163669644Y-46583699D02*
X163669644Y-47393223D01*
X163622025Y-47488461D01*
X163574406Y-47536080D01*
X163479168Y-47583699D01*
X163288691Y-47583699D01*
X163193453Y-47536080D01*
X163145834Y-47488461D01*
X163098215Y-47393223D01*
X163098215Y-46583699D01*
X162669644Y-47536080D02*
X162526787Y-47583699D01*
X162288691Y-47583699D01*
X162193453Y-47536080D01*
X162145834Y-47488461D01*
X162098215Y-47393223D01*
X162098215Y-47297985D01*
X162145834Y-47202747D01*
X162193453Y-47155128D01*
X162288691Y-47107509D01*
X162479168Y-47059890D01*
X162574406Y-47012271D01*
X162622025Y-46964652D01*
X162669644Y-46869414D01*
X162669644Y-46774176D01*
X162622025Y-46678938D01*
X162574406Y-46631319D01*
X162479168Y-46583699D01*
X162241072Y-46583699D01*
X162098215Y-46631319D01*
X161336310Y-47059890D02*
X161193453Y-47107509D01*
X161145834Y-47155128D01*
X161098215Y-47250366D01*
X161098215Y-47393223D01*
X161145834Y-47488461D01*
X161193453Y-47536080D01*
X161288691Y-47583699D01*
X161669644Y-47583699D01*
X161669644Y-46583699D01*
X161336310Y-46583699D01*
X161241072Y-46631319D01*
X161193453Y-46678938D01*
X161145834Y-46774176D01*
X161145834Y-46869414D01*
X161193453Y-46964652D01*
X161241072Y-47012271D01*
X161336310Y-47059890D01*
X161669644Y-47059890D01*
X160145834Y-47583699D02*
X160717263Y-47583699D01*
X160431549Y-47583699D02*
X160431549Y-46583699D01*
X160526787Y-46726557D01*
X160622025Y-46821795D01*
X160717263Y-46869414D01*
G04 #@! TO.C,R5*
X161477655Y-56882355D02*
X161810989Y-56406165D01*
X162049084Y-56882355D02*
X162049084Y-55882355D01*
X161668131Y-55882355D01*
X161572893Y-55929975D01*
X161525274Y-55977594D01*
X161477655Y-56072832D01*
X161477655Y-56215689D01*
X161525274Y-56310927D01*
X161572893Y-56358546D01*
X161668131Y-56406165D01*
X162049084Y-56406165D01*
X160572893Y-55882355D02*
X161049084Y-55882355D01*
X161096703Y-56358546D01*
X161049084Y-56310927D01*
X160953846Y-56263308D01*
X160715750Y-56263308D01*
X160620512Y-56310927D01*
X160572893Y-56358546D01*
X160525274Y-56453784D01*
X160525274Y-56691879D01*
X160572893Y-56787117D01*
X160620512Y-56834736D01*
X160715750Y-56882355D01*
X160953846Y-56882355D01*
X161049084Y-56834736D01*
X161096703Y-56787117D01*
G04 #@! TO.C,R6*
X163629868Y-56934848D02*
X163963202Y-56458658D01*
X164201297Y-56934848D02*
X164201297Y-55934848D01*
X163820344Y-55934848D01*
X163725106Y-55982468D01*
X163677487Y-56030087D01*
X163629868Y-56125325D01*
X163629868Y-56268182D01*
X163677487Y-56363420D01*
X163725106Y-56411039D01*
X163820344Y-56458658D01*
X164201297Y-56458658D01*
X162772725Y-55934848D02*
X162963202Y-55934848D01*
X163058440Y-55982468D01*
X163106059Y-56030087D01*
X163201297Y-56172944D01*
X163248916Y-56363420D01*
X163248916Y-56744372D01*
X163201297Y-56839610D01*
X163153678Y-56887229D01*
X163058440Y-56934848D01*
X162867963Y-56934848D01*
X162772725Y-56887229D01*
X162725106Y-56839610D01*
X162677487Y-56744372D01*
X162677487Y-56506277D01*
X162725106Y-56411039D01*
X162772725Y-56363420D01*
X162867963Y-56315801D01*
X163058440Y-56315801D01*
X163153678Y-56363420D01*
X163201297Y-56411039D01*
X163248916Y-56506277D01*
X162072893Y-57289919D02*
X162025274Y-57242300D01*
X161930036Y-57194680D01*
X161691941Y-57194680D01*
X161596703Y-57242300D01*
X161549084Y-57289919D01*
X161501465Y-57385157D01*
X161501465Y-57480395D01*
X161549084Y-57623252D01*
X162120512Y-58194680D01*
X161501465Y-58194680D01*
X161120512Y-57289919D02*
X161072893Y-57242300D01*
X160977655Y-57194680D01*
X160739560Y-57194680D01*
X160644322Y-57242300D01*
X160596703Y-57289919D01*
X160549084Y-57385157D01*
X160549084Y-57480395D01*
X160596703Y-57623252D01*
X161168131Y-58194680D01*
X160549084Y-58194680D01*
G04 #@! TO.C,C1*
X166307011Y-62128714D02*
X166354630Y-62176333D01*
X166497487Y-62223952D01*
X166592725Y-62223952D01*
X166735583Y-62176333D01*
X166830821Y-62081095D01*
X166878440Y-61985857D01*
X166926059Y-61795381D01*
X166926059Y-61652524D01*
X166878440Y-61462048D01*
X166830821Y-61366810D01*
X166735583Y-61271572D01*
X166592725Y-61223952D01*
X166497487Y-61223952D01*
X166354630Y-61271572D01*
X166307011Y-61319191D01*
X165354630Y-62223952D02*
X165926059Y-62223952D01*
X165640345Y-62223952D02*
X165640345Y-61223952D01*
X165735583Y-61366810D01*
X165830821Y-61462048D01*
X165926059Y-61509667D01*
G04 #@! TO.C,C3*
X180000877Y-55738378D02*
X180048496Y-55690759D01*
X180096115Y-55547902D01*
X180096115Y-55452664D01*
X180048496Y-55309806D01*
X179953258Y-55214568D01*
X179858020Y-55166949D01*
X179667544Y-55119330D01*
X179524687Y-55119330D01*
X179334211Y-55166949D01*
X179238973Y-55214568D01*
X179143735Y-55309806D01*
X179096115Y-55452664D01*
X179096115Y-55547902D01*
X179143735Y-55690759D01*
X179191354Y-55738378D01*
X179096115Y-56071711D02*
X179096115Y-56690759D01*
X179477068Y-56357425D01*
X179477068Y-56500283D01*
X179524687Y-56595521D01*
X179572306Y-56643140D01*
X179667544Y-56690759D01*
X179905639Y-56690759D01*
X180000877Y-56643140D01*
X180048496Y-56595521D01*
X180096115Y-56500283D01*
X180096115Y-56214568D01*
X180048496Y-56119330D01*
X180000877Y-56071711D01*
G04 #@! TO.C,C4*
X166307011Y-60343952D02*
X166354630Y-60391571D01*
X166497487Y-60439190D01*
X166592725Y-60439190D01*
X166735583Y-60391571D01*
X166830821Y-60296333D01*
X166878440Y-60201095D01*
X166926059Y-60010619D01*
X166926059Y-59867762D01*
X166878440Y-59677286D01*
X166830821Y-59582048D01*
X166735583Y-59486810D01*
X166592725Y-59439190D01*
X166497487Y-59439190D01*
X166354630Y-59486810D01*
X166307011Y-59534429D01*
X165449868Y-59772524D02*
X165449868Y-60439190D01*
X165687964Y-59391571D02*
X165926059Y-60105857D01*
X165307011Y-60105857D01*
G04 #@! TO.C,C5*
X166307011Y-59266977D02*
X166354630Y-59314596D01*
X166497487Y-59362215D01*
X166592725Y-59362215D01*
X166735583Y-59314596D01*
X166830821Y-59219358D01*
X166878440Y-59124120D01*
X166926059Y-58933644D01*
X166926059Y-58790787D01*
X166878440Y-58600311D01*
X166830821Y-58505073D01*
X166735583Y-58409835D01*
X166592725Y-58362215D01*
X166497487Y-58362215D01*
X166354630Y-58409835D01*
X166307011Y-58457454D01*
X165402249Y-58362215D02*
X165878440Y-58362215D01*
X165926059Y-58838406D01*
X165878440Y-58790787D01*
X165783202Y-58743168D01*
X165545106Y-58743168D01*
X165449868Y-58790787D01*
X165402249Y-58838406D01*
X165354630Y-58933644D01*
X165354630Y-59171739D01*
X165402249Y-59266977D01*
X165449868Y-59314596D01*
X165545106Y-59362215D01*
X165783202Y-59362215D01*
X165878440Y-59314596D01*
X165926059Y-59266977D01*
G04 #@! TO.C,C6*
X178905331Y-61261711D02*
X178952950Y-61309330D01*
X179095807Y-61356949D01*
X179191045Y-61356949D01*
X179333903Y-61309330D01*
X179429141Y-61214092D01*
X179476760Y-61118854D01*
X179524379Y-60928378D01*
X179524379Y-60785521D01*
X179476760Y-60595045D01*
X179429141Y-60499807D01*
X179333903Y-60404569D01*
X179191045Y-60356949D01*
X179095807Y-60356949D01*
X178952950Y-60404569D01*
X178905331Y-60452188D01*
X178048188Y-60356949D02*
X178238665Y-60356949D01*
X178333903Y-60404569D01*
X178381522Y-60452188D01*
X178476760Y-60595045D01*
X178524379Y-60785521D01*
X178524379Y-61166473D01*
X178476760Y-61261711D01*
X178429141Y-61309330D01*
X178333903Y-61356949D01*
X178143426Y-61356949D01*
X178048188Y-61309330D01*
X178000569Y-61261711D01*
X177952950Y-61166473D01*
X177952950Y-60928378D01*
X178000569Y-60833140D01*
X178048188Y-60785521D01*
X178143426Y-60737902D01*
X178333903Y-60737902D01*
X178429141Y-60785521D01*
X178476760Y-60833140D01*
X178524379Y-60928378D01*
G04 #@! TO.C,C7*
X177323734Y-70173953D02*
X177371353Y-70126334D01*
X177418972Y-69983477D01*
X177418972Y-69888239D01*
X177371353Y-69745381D01*
X177276115Y-69650143D01*
X177180877Y-69602524D01*
X176990401Y-69554905D01*
X176847544Y-69554905D01*
X176657068Y-69602524D01*
X176561830Y-69650143D01*
X176466592Y-69745381D01*
X176418972Y-69888239D01*
X176418972Y-69983477D01*
X176466592Y-70126334D01*
X176514211Y-70173953D01*
X176418972Y-70507286D02*
X176418972Y-71173953D01*
X177418972Y-70745381D01*
G04 #@! TO.C,C8*
X166747263Y-67654289D02*
X166794882Y-67606670D01*
X166842501Y-67463813D01*
X166842501Y-67368575D01*
X166794882Y-67225717D01*
X166699644Y-67130479D01*
X166604406Y-67082860D01*
X166413930Y-67035241D01*
X166271073Y-67035241D01*
X166080597Y-67082860D01*
X165985359Y-67130479D01*
X165890121Y-67225717D01*
X165842501Y-67368575D01*
X165842501Y-67463813D01*
X165890121Y-67606670D01*
X165937740Y-67654289D01*
X166271073Y-68225717D02*
X166223454Y-68130479D01*
X166175835Y-68082860D01*
X166080597Y-68035241D01*
X166032978Y-68035241D01*
X165937740Y-68082860D01*
X165890121Y-68130479D01*
X165842501Y-68225717D01*
X165842501Y-68416194D01*
X165890121Y-68511432D01*
X165937740Y-68559051D01*
X166032978Y-68606670D01*
X166080597Y-68606670D01*
X166175835Y-68559051D01*
X166223454Y-68511432D01*
X166271073Y-68416194D01*
X166271073Y-68225717D01*
X166318692Y-68130479D01*
X166366311Y-68082860D01*
X166461549Y-68035241D01*
X166652025Y-68035241D01*
X166747263Y-68082860D01*
X166794882Y-68130479D01*
X166842501Y-68225717D01*
X166842501Y-68416194D01*
X166794882Y-68511432D01*
X166747263Y-68559051D01*
X166652025Y-68606670D01*
X166461549Y-68606670D01*
X166366311Y-68559051D01*
X166318692Y-68511432D01*
X166271073Y-68416194D01*
G04 #@! TO.C,R3*
X166307011Y-58444456D02*
X166640345Y-57968266D01*
X166878440Y-58444456D02*
X166878440Y-57444456D01*
X166497487Y-57444456D01*
X166402249Y-57492076D01*
X166354630Y-57539695D01*
X166307011Y-57634933D01*
X166307011Y-57777790D01*
X166354630Y-57873028D01*
X166402249Y-57920647D01*
X166497487Y-57968266D01*
X166878440Y-57968266D01*
X165973678Y-57444456D02*
X165354630Y-57444456D01*
X165687964Y-57825409D01*
X165545106Y-57825409D01*
X165449868Y-57873028D01*
X165402249Y-57920647D01*
X165354630Y-58015885D01*
X165354630Y-58253980D01*
X165402249Y-58349218D01*
X165449868Y-58396837D01*
X165545106Y-58444456D01*
X165830821Y-58444456D01*
X165926059Y-58396837D01*
X165973678Y-58349218D01*
G04 #@! TO.C,R4*
X179151241Y-71906222D02*
X178675051Y-71572889D01*
X179151241Y-71334793D02*
X178151241Y-71334793D01*
X178151241Y-71715746D01*
X178198861Y-71810984D01*
X178246480Y-71858603D01*
X178341718Y-71906222D01*
X178484575Y-71906222D01*
X178579813Y-71858603D01*
X178627432Y-71810984D01*
X178675051Y-71715746D01*
X178675051Y-71334793D01*
X178484575Y-72763365D02*
X179151241Y-72763365D01*
X178103622Y-72525269D02*
X178817908Y-72287174D01*
X178817908Y-72906222D01*
G04 #@! TO.C,F1*
X160369896Y-55309246D02*
X160369896Y-54975913D01*
X160893705Y-54975913D02*
X159893705Y-54975913D01*
X159893705Y-55452103D01*
X160893705Y-56356865D02*
X160893705Y-55785437D01*
X160893705Y-56071151D02*
X159893705Y-56071151D01*
X160036563Y-55975913D01*
X160131801Y-55880675D01*
X160179420Y-55785437D01*
G04 #@! TD*
M02*
