G04 #@! TF.GenerationSoftware,KiCad,Pcbnew,(5.0.1)-3*
G04 #@! TF.CreationDate,2019-05-09T01:11:10-04:00*
G04 #@! TF.ProjectId,mulletpad-pcb,6D756C6C65747061642D7063622E6B69,rev?*
G04 #@! TF.SameCoordinates,Original*
G04 #@! TF.FileFunction,Legend,Top*
G04 #@! TF.FilePolarity,Positive*
%FSLAX46Y46*%
G04 Gerber Fmt 4.6, Leading zero omitted, Abs format (unit mm)*
G04 Created by KiCad (PCBNEW (5.0.1)-3) date 5/9/2019 1:11:10 AM*
%MOMM*%
%LPD*%
G01*
G04 APERTURE LIST*
%ADD10C,0.120000*%
G04 APERTURE END LIST*
D10*
G04 #@! TO.C,SW14*
X179451000Y-125857000D02*
X165481000Y-125857000D01*
X165481000Y-111887000D02*
X179451000Y-111887000D01*
X179451000Y-111887000D02*
X179451000Y-125857000D01*
X165481000Y-125857000D02*
X165481000Y-111887000D01*
X179451000Y-125857000D02*
X165481000Y-125857000D01*
X165481000Y-125857000D02*
X165481000Y-111887000D01*
X165481000Y-111887000D02*
X179451000Y-111887000D01*
X179451000Y-111887000D02*
X179451000Y-125857000D01*
G04 #@! TO.C,SW7*
X179451000Y-87757000D02*
X165481000Y-87757000D01*
X165481000Y-73787000D02*
X179451000Y-73787000D01*
X179451000Y-73787000D02*
X179451000Y-87757000D01*
X165481000Y-87757000D02*
X165481000Y-73787000D01*
X179451000Y-87757000D02*
X165481000Y-87757000D01*
X165481000Y-87757000D02*
X165481000Y-73787000D01*
X165481000Y-73787000D02*
X179451000Y-73787000D01*
X179451000Y-73787000D02*
X179451000Y-87757000D01*
G04 #@! TO.C,SW3*
X165354000Y-59182000D02*
X165354000Y-45212000D01*
X179324000Y-59182000D02*
X165354000Y-59182000D01*
X179324000Y-45212000D02*
X179324000Y-59182000D01*
X165354000Y-45212000D02*
X179324000Y-45212000D01*
G04 #@! TO.C,SW12*
X127254000Y-102362000D02*
X141224000Y-102362000D01*
X141224000Y-102362000D02*
X141224000Y-116332000D01*
X141224000Y-116332000D02*
X127254000Y-116332000D01*
X127254000Y-116332000D02*
X127254000Y-102362000D01*
G04 #@! TO.C,SW0*
X108204000Y-59182000D02*
X108204000Y-45212000D01*
X122174000Y-59182000D02*
X108204000Y-59182000D01*
X122174000Y-45212000D02*
X122174000Y-59182000D01*
X108204000Y-45212000D02*
X122174000Y-45212000D01*
G04 #@! TO.C,SW1*
X127254000Y-59182000D02*
X127254000Y-45212000D01*
X141224000Y-59182000D02*
X127254000Y-59182000D01*
X141224000Y-45212000D02*
X141224000Y-59182000D01*
X127254000Y-45212000D02*
X141224000Y-45212000D01*
G04 #@! TO.C,SW2*
X146304000Y-59182000D02*
X146304000Y-45212000D01*
X160274000Y-59182000D02*
X146304000Y-59182000D01*
X160274000Y-45212000D02*
X160274000Y-59182000D01*
X146304000Y-45212000D02*
X160274000Y-45212000D01*
G04 #@! TO.C,SW4*
X108204000Y-64262000D02*
X122174000Y-64262000D01*
X122174000Y-64262000D02*
X122174000Y-78232000D01*
X122174000Y-78232000D02*
X108204000Y-78232000D01*
X108204000Y-78232000D02*
X108204000Y-64262000D01*
G04 #@! TO.C,SW5*
X127254000Y-78232000D02*
X127254000Y-64262000D01*
X141224000Y-78232000D02*
X127254000Y-78232000D01*
X141224000Y-64262000D02*
X141224000Y-78232000D01*
X127254000Y-64262000D02*
X141224000Y-64262000D01*
G04 #@! TO.C,SW6*
X146304000Y-64262000D02*
X160274000Y-64262000D01*
X160274000Y-64262000D02*
X160274000Y-78232000D01*
X160274000Y-78232000D02*
X146304000Y-78232000D01*
X146304000Y-78232000D02*
X146304000Y-64262000D01*
G04 #@! TO.C,SW8*
X108204000Y-83312000D02*
X122174000Y-83312000D01*
X122174000Y-83312000D02*
X122174000Y-97282000D01*
X122174000Y-97282000D02*
X108204000Y-97282000D01*
X108204000Y-97282000D02*
X108204000Y-83312000D01*
G04 #@! TO.C,SW9*
X127254000Y-97282000D02*
X127254000Y-83312000D01*
X141224000Y-97282000D02*
X127254000Y-97282000D01*
X141224000Y-83312000D02*
X141224000Y-97282000D01*
X127254000Y-83312000D02*
X141224000Y-83312000D01*
G04 #@! TO.C,SW10*
X146304000Y-83312000D02*
X160274000Y-83312000D01*
X160274000Y-83312000D02*
X160274000Y-97282000D01*
X160274000Y-97282000D02*
X146304000Y-97282000D01*
X146304000Y-97282000D02*
X146304000Y-83312000D01*
G04 #@! TO.C,SW11*
X108204000Y-116332000D02*
X108204000Y-102362000D01*
X122174000Y-116332000D02*
X108204000Y-116332000D01*
X122174000Y-102362000D02*
X122174000Y-116332000D01*
X108204000Y-102362000D02*
X122174000Y-102362000D01*
G04 #@! TO.C,SW13*
X146304000Y-102362000D02*
X160274000Y-102362000D01*
X160274000Y-102362000D02*
X160274000Y-116332000D01*
X160274000Y-116332000D02*
X146304000Y-116332000D01*
X146304000Y-116332000D02*
X146304000Y-102362000D01*
G04 #@! TO.C,SW16*
X146304000Y-121412000D02*
X160274000Y-121412000D01*
X160274000Y-121412000D02*
X160274000Y-135382000D01*
X160274000Y-135382000D02*
X146304000Y-135382000D01*
X146304000Y-135382000D02*
X146304000Y-121412000D01*
G04 #@! TO.C,SW15*
X131751000Y-135307000D02*
X117781000Y-135307000D01*
X117781000Y-135307000D02*
X117781000Y-121337000D01*
X117781000Y-121337000D02*
X131751000Y-121337000D01*
X131751000Y-121337000D02*
X131751000Y-135307000D01*
X131751000Y-135307000D02*
X117781000Y-135307000D01*
X117781000Y-135307000D02*
X117781000Y-121337000D01*
X117781000Y-121337000D02*
X131751000Y-121337000D01*
X131751000Y-121337000D02*
X131751000Y-135307000D01*
G04 #@! TD*
M02*
