  0
SECTION
  2
HEADER
  9
$ACADVER
  1
AC1009
  9
$EXTMIN
 10
0.0
 20
0.0
 30
0.0
  9
$EXTMAX
 10
1000.0
 20
1000.0
 30
0.0
  9
$FILLMODE
 70
 0
  9
$SPLFRAME
 70
 1
  0
ENDSEC
  0
SECTION
  2
TABLES
  0
TABLE
  2
LAYER
 70
1
  0
LAYER
  2
0
 70
     0
 62
     7
  6
CONTINUOUS
  0
ENDTAB
  0
ENDSEC
  0
SECTION
  2
ENTITIES
  0
LINE
  8
0
 62
     0
 10
87.2959
 20
111.343
 30
0.0
 11
87.6875
 21
111.327
 31
0.0
  0
LINE
  8
0
 62
     0
 10
87.6875
 20
111.327
 30
0.0
 11
88.0773
 21
111.282
 31
0.0
  0
LINE
  8
0
 62
     0
 10
88.0773
 20
111.282
 30
0.0
 11
88.4633
 21
111.205
 31
0.0
  0
LINE
  8
0
 62
     0
 10
88.4633
 20
111.205
 30
0.0
 11
88.8407
 21
111.099
 31
0.0
  0
LINE
  8
0
 62
     0
 10
88.8407
 20
111.099
 30
0.0
 11
89.2087
 21
110.962
 31
0.0
  0
LINE
  8
0
 62
     0
 10
89.2087
 20
110.962
 30
0.0
 11
89.5643
 21
110.798
 31
0.0
  0
LINE
  8
0
 62
     0
 10
89.5643
 20
110.798
 30
0.0
 11
89.9072
 21
110.607
 31
0.0
  0
LINE
  8
0
 62
     0
 10
89.9072
 20
110.607
 30
0.0
 11
90.2339
 21
110.389
 31
0.0
  0
LINE
  8
0
 62
     0
 10
90.2339
 20
110.389
 30
0.0
 11
90.5425
 21
110.147
 31
0.0
  0
LINE
  8
0
 62
     0
 10
90.5425
 20
110.147
 30
0.0
 11
90.8308
 21
109.879
 31
0.0
  0
LINE
  8
0
 62
     0
 10
90.8308
 20
109.879
 30
0.0
 11
91.0978
 21
109.591
 31
0.0
  0
LINE
  8
0
 62
     0
 10
91.0978
 20
109.591
 30
0.0
 11
91.3405
 21
109.282
 31
0.0
  0
LINE
  8
0
 62
     0
 10
91.3405
 20
109.282
 30
0.0
 11
91.5582
 21
108.956
 31
0.0
  0
LINE
  8
0
 62
     0
 10
91.5582
 20
108.956
 30
0.0
 11
91.7512
 21
108.613
 31
0.0
  0
LINE
  8
0
 62
     0
 10
91.7512
 20
108.613
 30
0.0
 11
91.9152
 21
108.257
 31
0.0
  0
LINE
  8
0
 62
     0
 10
91.9152
 20
108.257
 30
0.0
 11
92.0503
 21
107.889
 31
0.0
  0
LINE
  8
0
 62
     0
 10
92.0503
 20
107.889
 30
0.0
 11
92.1561
 21
107.51
 31
0.0
  0
LINE
  8
0
 62
     0
 10
92.1561
 20
107.51
 30
0.0
 11
92.2334
 21
107.126
 31
0.0
  0
LINE
  8
0
 62
     0
 10
92.2334
 20
107.126
 30
0.0
 11
92.2803
 21
106.736
 31
0.0
  0
LINE
  8
0
 62
     0
 10
92.2803
 20
106.736
 30
0.0
 11
92.2955
 21
106.343
 31
0.0
  0
LINE
  8
0
 62
     0
 10
92.2955
 20
106.343
 30
0.0
 11
92.2955
 21
5.09185
 31
0.0
  0
LINE
  8
0
 62
     0
 10
92.2955
 20
5.09185
 30
0.0
 11
92.2803
 21
4.70048
 31
0.0
  0
LINE
  8
0
 62
     0
 10
92.2803
 20
4.70048
 30
0.0
 11
92.2334
 21
4.31052
 31
0.0
  0
LINE
  8
0
 62
     0
 10
92.2334
 20
4.31052
 30
0.0
 11
92.1561
 21
3.92465
 31
0.0
  0
LINE
  8
0
 62
     0
 10
92.1561
 20
3.92465
 30
0.0
 11
92.0503
 21
3.54707
 31
0.0
  0
LINE
  8
0
 62
     0
 10
92.0503
 20
3.54707
 30
0.0
 11
91.9152
 21
3.17913
 31
0.0
  0
LINE
  8
0
 62
     0
 10
91.9152
 20
3.17913
 30
0.0
 11
91.7512
 21
2.8236
 31
0.0
  0
LINE
  8
0
 62
     0
 10
91.7512
 20
2.8236
 30
0.0
 11
91.5582
 21
2.48047
 31
0.0
  0
LINE
  8
0
 62
     0
 10
91.5582
 20
2.48047
 30
0.0
 11
91.3405
 21
2.15387
 31
0.0
  0
LINE
  8
0
 62
     0
 10
91.3405
 20
2.15387
 30
0.0
 11
91.0978
 21
1.84519
 31
0.0
  0
LINE
  8
0
 62
     0
 10
91.0978
 20
1.84519
 30
0.0
 11
90.8308
 21
1.55718
 31
0.0
  0
LINE
  8
0
 62
     0
 10
90.8308
 20
1.55718
 30
0.0
 11
90.5425
 21
1.28984
 31
0.0
  0
LINE
  8
0
 62
     0
 10
90.5425
 20
1.28984
 30
0.0
 11
90.2339
 21
1.04731
 31
0.0
  0
LINE
  8
0
 62
     0
 10
90.2339
 20
1.04731
 30
0.0
 11
89.9072
 21
0.829578
 31
0.0
  0
LINE
  8
0
 62
     0
 10
89.9072
 20
0.829578
 30
0.0
 11
89.5643
 21
0.636655
 31
0.0
  0
LINE
  8
0
 62
     0
 10
89.5643
 20
0.636655
 30
0.0
 11
89.2087
 21
0.472666
 31
0.0
  0
LINE
  8
0
 62
     0
 10
89.2087
 20
0.472666
 30
0.0
 11
88.8407
 21
0.337619
 31
0.0
  0
LINE
  8
0
 62
     0
 10
88.8407
 20
0.337619
 30
0.0
 11
88.4633
 21
0.23151
 31
0.0
  0
LINE
  8
0
 62
     0
 10
88.4633
 20
0.23151
 30
0.0
 11
88.0773
 21
0.15434
 31
0.0
  0
LINE
  8
0
 62
     0
 10
88.0773
 20
0.15434
 30
0.0
 11
87.6875
 21
0.107487
 31
0.0
  0
LINE
  8
0
 62
     0
 10
87.6875
 20
0.107487
 30
0.0
 11
87.2945
 21
0.0923286
 31
0.0
  0
LINE
  8
0
 62
     0
 10
87.2945
 20
0.0923286
 30
0.0
 11
5.0946
 21
0.0923286
 31
0.0
  0
LINE
  8
0
 62
     0
 10
5.0946
 20
0.0923286
 30
0.0
 11
4.70186
 21
0.107487
 31
0.0
  0
LINE
  8
0
 62
     0
 10
4.70186
 20
0.107487
 30
0.0
 11
4.3119
 21
0.15434
 31
0.0
  0
LINE
  8
0
 62
     0
 10
4.3119
 20
0.15434
 30
0.0
 11
3.9274
 21
0.23151
 31
0.0
  0
LINE
  8
0
 62
     0
 10
3.9274
 20
0.23151
 30
0.0
 11
3.54845
 21
0.337619
 31
0.0
  0
LINE
  8
0
 62
     0
 10
3.54845
 20
0.337619
 30
0.0
 11
3.18051
 21
0.472666
 31
0.0
  0
LINE
  8
0
 62
     0
 10
3.18051
 20
0.472666
 30
0.0
 11
2.82498
 21
0.636655
 31
0.0
  0
LINE
  8
0
 62
     0
 10
2.82498
 20
0.636655
 30
0.0
 11
2.48185
 21
0.829578
 31
0.0
  0
LINE
  8
0
 62
     0
 10
2.48185
 20
0.829578
 30
0.0
 11
2.15525
 21
1.04731
 31
0.0
  0
LINE
  8
0
 62
     0
 10
2.15525
 20
1.04731
 30
0.0
 11
1.84657
 21
1.28984
 31
0.0
  0
LINE
  8
0
 62
     0
 10
1.84657
 20
1.28984
 30
0.0
 11
1.55856
 21
1.55718
 31
0.0
  0
LINE
  8
0
 62
     0
 10
1.55856
 20
1.55718
 30
0.0
 11
1.29122
 21
1.84519
 31
0.0
  0
LINE
  8
0
 62
     0
 10
1.29122
 20
1.84519
 30
0.0
 11
1.04869
 21
2.15387
 31
0.0
  0
LINE
  8
0
 62
     0
 10
1.04869
 20
2.15387
 30
0.0
 11
0.830957
 21
2.48047
 31
0.0
  0
LINE
  8
0
 62
     0
 10
0.830957
 20
2.48047
 30
0.0
 11
0.63941
 21
2.8236
 31
0.0
  0
LINE
  8
0
 62
     0
 10
0.63941
 20
2.8236
 30
0.0
 11
0.475424
 21
3.17913
 31
0.0
  0
LINE
  8
0
 62
     0
 10
0.475424
 20
3.17913
 30
0.0
 11
0.338998
 21
3.54707
 31
0.0
  0
LINE
  8
0
 62
     0
 10
0.338998
 20
3.54707
 30
0.0
 11
0.232888
 21
3.92465
 31
0.0
  0
LINE
  8
0
 62
     0
 10
0.232888
 20
3.92465
 30
0.0
 11
0.155718
 21
4.31052
 31
0.0
  0
LINE
  8
0
 62
     0
 10
0.155718
 20
4.31052
 30
0.0
 11
0.110243
 21
4.70048
 31
0.0
  0
LINE
  8
0
 62
     0
 10
0.110243
 20
4.70048
 30
0.0
 11
0.0937066
 21
5.09323
 31
0.0
  0
LINE
  8
0
 62
     0
 10
0.0937066
 20
5.09323
 30
0.0
 11
0.0950846
 21
106.343
 31
0.0
  0
LINE
  8
0
 62
     0
 10
0.0950846
 20
106.343
 30
0.0
 11
0.110243
 21
106.736
 31
0.0
  0
LINE
  8
0
 62
     0
 10
0.110243
 20
106.736
 30
0.0
 11
0.155718
 21
107.126
 31
0.0
  0
LINE
  8
0
 62
     0
 10
0.155718
 20
107.126
 30
0.0
 11
0.232888
 21
107.51
 31
0.0
  0
LINE
  8
0
 62
     0
 10
0.232888
 20
107.51
 30
0.0
 11
0.338998
 21
107.889
 31
0.0
  0
LINE
  8
0
 62
     0
 10
0.338998
 20
107.889
 30
0.0
 11
0.475424
 21
108.257
 31
0.0
  0
LINE
  8
0
 62
     0
 10
0.475424
 20
108.257
 30
0.0
 11
0.63941
 21
108.613
 31
0.0
  0
LINE
  8
0
 62
     0
 10
0.63941
 20
108.613
 30
0.0
 11
0.830957
 21
108.956
 31
0.0
  0
LINE
  8
0
 62
     0
 10
0.830957
 20
108.956
 30
0.0
 11
1.04869
 21
109.282
 31
0.0
  0
LINE
  8
0
 62
     0
 10
1.04869
 20
109.282
 30
0.0
 11
1.29122
 21
109.591
 31
0.0
  0
LINE
  8
0
 62
     0
 10
1.29122
 20
109.591
 30
0.0
 11
1.55856
 21
109.879
 31
0.0
  0
LINE
  8
0
 62
     0
 10
1.55856
 20
109.879
 30
0.0
 11
1.84657
 21
110.147
 31
0.0
  0
LINE
  8
0
 62
     0
 10
1.84657
 20
110.147
 30
0.0
 11
2.15525
 21
110.389
 31
0.0
  0
LINE
  8
0
 62
     0
 10
2.15525
 20
110.389
 30
0.0
 11
2.48185
 21
110.607
 31
0.0
  0
LINE
  8
0
 62
     0
 10
2.48185
 20
110.607
 30
0.0
 11
2.82498
 21
110.798
 31
0.0
  0
LINE
  8
0
 62
     0
 10
2.82498
 20
110.798
 30
0.0
 11
3.18051
 21
110.962
 31
0.0
  0
LINE
  8
0
 62
     0
 10
3.18051
 20
110.962
 30
0.0
 11
3.54845
 21
111.099
 31
0.0
  0
LINE
  8
0
 62
     0
 10
3.54845
 20
111.099
 30
0.0
 11
3.9274
 21
111.205
 31
0.0
  0
LINE
  8
0
 62
     0
 10
3.9274
 20
111.205
 30
0.0
 11
4.3119
 21
111.282
 31
0.0
  0
LINE
  8
0
 62
     0
 10
4.3119
 20
111.282
 30
0.0
 11
4.70186
 21
111.327
 31
0.0
  0
LINE
  8
0
 62
     0
 10
4.70186
 20
111.327
 30
0.0
 11
5.0946
 21
111.344
 31
0.0
  0
LINE
  8
0
 62
     0
 10
5.0946
 20
111.344
 30
0.0
 11
87.2959
 21
111.343
 31
0.0
  0
LINE
  8
0
 62
     0
 10
87.7549
 20
5.75744
 30
0.0
 11
87.267
 21
5.50803
 31
0.0
  0
LINE
  8
0
 62
     0
 10
87.267
 20
5.50803
 30
0.0
 11
86.8796
 21
5.12078
 31
0.0
  0
LINE
  8
0
 62
     0
 10
86.8796
 20
5.12078
 30
0.0
 11
86.6302
 21
4.63296
 31
0.0
  0
LINE
  8
0
 62
     0
 10
86.6302
 20
4.63296
 30
0.0
 11
86.5463
 21
4.09141
 31
0.0
  0
LINE
  8
0
 62
     0
 10
86.5463
 20
4.09141
 30
0.0
 11
86.6302
 21
3.55258
 31
0.0
  0
LINE
  8
0
 62
     0
 10
86.6302
 20
3.55258
 30
0.0
 11
86.8796
 21
3.06476
 31
0.0
  0
LINE
  8
0
 62
     0
 10
86.8796
 20
3.06476
 30
0.0
 11
87.267
 21
2.67753
 31
0.0
  0
LINE
  8
0
 62
     0
 10
87.267
 20
2.67753
 30
0.0
 11
87.7549
 21
2.4281
 31
0.0
  0
LINE
  8
0
 62
     0
 10
87.7549
 20
2.4281
 30
0.0
 11
88.2964
 21
2.34267
 31
0.0
  0
LINE
  8
0
 62
     0
 10
88.2964
 20
2.34267
 30
0.0
 11
88.8351
 21
2.4281
 31
0.0
  0
LINE
  8
0
 62
     0
 10
88.8351
 20
2.4281
 30
0.0
 11
89.3244
 21
2.67753
 31
0.0
  0
LINE
  8
0
 62
     0
 10
89.3244
 20
2.67753
 30
0.0
 11
89.7103
 21
3.06476
 31
0.0
  0
LINE
  8
0
 62
     0
 10
89.7103
 20
3.06476
 30
0.0
 11
89.9597
 21
3.55258
 31
0.0
  0
LINE
  8
0
 62
     0
 10
89.9597
 20
3.55258
 30
0.0
 11
90.0451
 21
4.09141
 31
0.0
  0
LINE
  8
0
 62
     0
 10
90.0451
 20
4.09141
 30
0.0
 11
89.9597
 21
4.63296
 31
0.0
  0
LINE
  8
0
 62
     0
 10
89.9597
 20
4.63296
 30
0.0
 11
89.7103
 21
5.12078
 31
0.0
  0
LINE
  8
0
 62
     0
 10
89.7103
 20
5.12078
 30
0.0
 11
89.3244
 21
5.50803
 31
0.0
  0
LINE
  8
0
 62
     0
 10
89.3244
 20
5.50803
 30
0.0
 11
88.8351
 21
5.75744
 31
0.0
  0
LINE
  8
0
 62
     0
 10
88.8351
 20
5.75744
 30
0.0
 11
88.2964
 21
5.84151
 31
0.0
  0
LINE
  8
0
 62
     0
 10
88.2964
 20
5.84151
 30
0.0
 11
87.7549
 21
5.75744
 31
0.0
  0
LINE
  8
0
 62
     0
 10
3.55395
 20
5.75744
 30
0.0
 11
3.06614
 21
5.50803
 31
0.0
  0
LINE
  8
0
 62
     0
 10
3.06614
 20
5.50803
 30
0.0
 11
2.67891
 21
5.12078
 31
0.0
  0
LINE
  8
0
 62
     0
 10
2.67891
 20
5.12078
 30
0.0
 11
2.42948
 21
4.63296
 31
0.0
  0
LINE
  8
0
 62
     0
 10
2.42948
 20
4.63296
 30
0.0
 11
2.34542
 21
4.09141
 31
0.0
  0
LINE
  8
0
 62
     0
 10
2.34542
 20
4.09141
 30
0.0
 11
2.42948
 21
3.55258
 31
0.0
  0
LINE
  8
0
 62
     0
 10
2.42948
 20
3.55258
 30
0.0
 11
2.67891
 21
3.06476
 31
0.0
  0
LINE
  8
0
 62
     0
 10
2.67891
 20
3.06476
 30
0.0
 11
3.06614
 21
2.67753
 31
0.0
  0
LINE
  8
0
 62
     0
 10
3.06614
 20
2.67753
 30
0.0
 11
3.55395
 21
2.4281
 31
0.0
  0
LINE
  8
0
 62
     0
 10
3.55395
 20
2.4281
 30
0.0
 11
4.09416
 21
2.34267
 31
0.0
  0
LINE
  8
0
 62
     0
 10
4.09416
 20
2.34267
 30
0.0
 11
4.63434
 21
2.4281
 31
0.0
  0
LINE
  8
0
 62
     0
 10
4.63434
 20
2.4281
 30
0.0
 11
5.12216
 21
2.67753
 31
0.0
  0
LINE
  8
0
 62
     0
 10
5.12216
 20
2.67753
 30
0.0
 11
5.5094
 21
3.06476
 31
0.0
  0
LINE
  8
0
 62
     0
 10
5.5094
 20
3.06476
 30
0.0
 11
5.75881
 21
3.55258
 31
0.0
  0
LINE
  8
0
 62
     0
 10
5.75881
 20
3.55258
 30
0.0
 11
5.84426
 21
4.09141
 31
0.0
  0
LINE
  8
0
 62
     0
 10
5.84426
 20
4.09141
 30
0.0
 11
5.75881
 21
4.63296
 31
0.0
  0
LINE
  8
0
 62
     0
 10
5.75881
 20
4.63296
 30
0.0
 11
5.5094
 21
5.12078
 31
0.0
  0
LINE
  8
0
 62
     0
 10
5.5094
 20
5.12078
 30
0.0
 11
5.12216
 21
5.50803
 31
0.0
  0
LINE
  8
0
 62
     0
 10
5.12216
 20
5.50803
 30
0.0
 11
4.63434
 21
5.75744
 31
0.0
  0
LINE
  8
0
 62
     0
 10
4.63434
 20
5.75744
 30
0.0
 11
4.09416
 21
5.84151
 31
0.0
  0
LINE
  8
0
 62
     0
 10
4.09416
 20
5.84151
 30
0.0
 11
3.55395
 21
5.75744
 31
0.0
  0
LINE
  8
0
 62
     0
 10
20.1442
 20
24.6187
 30
0.0
 11
20.1442
 21
23.6182
 31
0.0
  0
LINE
  8
0
 62
     0
 10
20.1442
 20
23.6182
 30
0.0
 11
19.3435
 21
23.6182
 31
0.0
  0
LINE
  8
0
 62
     0
 10
19.3435
 20
23.6182
 30
0.0
 11
19.3435
 21
20.5176
 31
0.0
  0
LINE
  8
0
 62
     0
 10
19.3435
 20
20.5176
 30
0.0
 11
20.1442
 21
20.5176
 31
0.0
  0
LINE
  8
0
 62
     0
 10
20.1442
 20
20.5176
 30
0.0
 11
20.1442
 21
19.9182
 31
0.0
  0
LINE
  8
0
 62
     0
 10
20.1442
 20
19.9182
 30
0.0
 11
18.6201
 21
19.9182
 31
0.0
  0
LINE
  8
0
 62
     0
 10
18.6201
 20
19.9182
 30
0.0
 11
18.6201
 21
23.1483
 31
0.0
  0
LINE
  8
0
 62
     0
 10
18.6201
 20
23.1483
 30
0.0
 11
11.8704
 21
23.1483
 31
0.0
  0
LINE
  8
0
 62
     0
 10
11.8704
 20
23.1483
 30
0.0
 11
11.8704
 21
19.9182
 31
0.0
  0
LINE
  8
0
 62
     0
 10
11.8704
 20
19.9182
 30
0.0
 11
11.0436
 21
19.9182
 31
0.0
  0
LINE
  8
0
 62
     0
 10
11.0436
 20
19.9182
 30
0.0
 11
11.0436
 21
17.118
 31
0.0
  0
LINE
  8
0
 62
     0
 10
11.0436
 20
17.118
 30
0.0
 11
11.8704
 21
17.118
 31
0.0
  0
LINE
  8
0
 62
     0
 10
11.8704
 20
17.118
 30
0.0
 11
11.8704
 21
10.8479
 31
0.0
  0
LINE
  8
0
 62
     0
 10
11.8704
 20
10.8479
 30
0.0
 11
13.5944
 21
10.8479
 31
0.0
  0
LINE
  8
0
 62
     0
 10
13.5944
 20
10.8479
 30
0.0
 11
13.5944
 21
9.64766
 31
0.0
  0
LINE
  8
0
 62
     0
 10
13.5944
 20
9.64766
 30
0.0
 11
16.8934
 21
9.64766
 31
0.0
  0
LINE
  8
0
 62
     0
 10
16.8934
 20
9.64766
 30
0.0
 11
16.8934
 21
10.8479
 31
0.0
  0
LINE
  8
0
 62
     0
 10
16.8934
 20
10.8479
 30
0.0
 11
18.6201
 21
10.8479
 31
0.0
  0
LINE
  8
0
 62
     0
 10
18.6201
 20
10.8479
 30
0.0
 11
18.6201
 21
15.3183
 31
0.0
  0
LINE
  8
0
 62
     0
 10
18.6201
 20
15.3183
 30
0.0
 11
20.1442
 21
15.3183
 31
0.0
  0
LINE
  8
0
 62
     0
 10
20.1442
 20
15.3183
 30
0.0
 11
20.1442
 21
14.7175
 31
0.0
  0
LINE
  8
0
 62
     0
 10
20.1442
 20
14.7175
 30
0.0
 11
19.3435
 21
14.7175
 31
0.0
  0
LINE
  8
0
 62
     0
 10
19.3435
 20
14.7175
 30
0.0
 11
19.3435
 21
11.6182
 31
0.0
  0
LINE
  8
0
 62
     0
 10
19.3435
 20
11.6182
 30
0.0
 11
20.1442
 21
11.6182
 31
0.0
  0
LINE
  8
0
 62
     0
 10
20.1442
 20
11.6182
 30
0.0
 11
20.1442
 21
10.6178
 31
0.0
  0
LINE
  8
0
 62
     0
 10
20.1442
 20
10.6178
 30
0.0
 11
34.145
 21
10.6178
 31
0.0
  0
LINE
  8
0
 62
     0
 10
34.145
 20
10.6178
 30
0.0
 11
34.145
 21
11.6182
 31
0.0
  0
LINE
  8
0
 62
     0
 10
34.145
 20
11.6182
 30
0.0
 11
34.9443
 21
11.6182
 31
0.0
  0
LINE
  8
0
 62
     0
 10
34.9443
 20
11.6182
 30
0.0
 11
34.9443
 21
14.7175
 31
0.0
  0
LINE
  8
0
 62
     0
 10
34.9443
 20
14.7175
 30
0.0
 11
34.145
 21
14.7175
 31
0.0
  0
LINE
  8
0
 62
     0
 10
34.145
 20
14.7175
 30
0.0
 11
34.145
 21
15.3183
 31
0.0
  0
LINE
  8
0
 62
     0
 10
34.145
 20
15.3183
 30
0.0
 11
35.669
 21
15.3183
 31
0.0
  0
LINE
  8
0
 62
     0
 10
35.669
 20
15.3183
 30
0.0
 11
35.669
 21
10.8479
 31
0.0
  0
LINE
  8
0
 62
     0
 10
35.669
 20
10.8479
 30
0.0
 11
37.3944
 21
10.8479
 31
0.0
  0
LINE
  8
0
 62
     0
 10
37.3944
 20
10.8479
 30
0.0
 11
37.3944
 21
9.64766
 31
0.0
  0
LINE
  8
0
 62
     0
 10
37.3944
 20
9.64766
 30
0.0
 11
40.6936
 21
9.64766
 31
0.0
  0
LINE
  8
0
 62
     0
 10
40.6936
 20
9.64766
 30
0.0
 11
40.6936
 21
10.8479
 31
0.0
  0
LINE
  8
0
 62
     0
 10
40.6936
 20
10.8479
 30
0.0
 11
42.4187
 21
10.8479
 31
0.0
  0
LINE
  8
0
 62
     0
 10
42.4187
 20
10.8479
 30
0.0
 11
42.4187
 21
17.118
 31
0.0
  0
LINE
  8
0
 62
     0
 10
42.4187
 20
17.118
 30
0.0
 11
43.2442
 21
17.118
 31
0.0
  0
LINE
  8
0
 62
     0
 10
43.2442
 20
17.118
 30
0.0
 11
43.2442
 21
19.9182
 31
0.0
  0
LINE
  8
0
 62
     0
 10
43.2442
 20
19.9182
 30
0.0
 11
42.4187
 21
19.9182
 31
0.0
  0
LINE
  8
0
 62
     0
 10
42.4187
 20
19.9182
 30
0.0
 11
42.4187
 21
23.1483
 31
0.0
  0
LINE
  8
0
 62
     0
 10
42.4187
 20
23.1483
 30
0.0
 11
35.669
 21
23.1483
 31
0.0
  0
LINE
  8
0
 62
     0
 10
35.669
 20
23.1483
 30
0.0
 11
35.669
 21
19.9182
 31
0.0
  0
LINE
  8
0
 62
     0
 10
35.669
 20
19.9182
 30
0.0
 11
34.145
 21
19.9182
 31
0.0
  0
LINE
  8
0
 62
     0
 10
34.145
 20
19.9182
 30
0.0
 11
34.145
 21
20.5176
 31
0.0
  0
LINE
  8
0
 62
     0
 10
34.145
 20
20.5176
 30
0.0
 11
34.9443
 21
20.5176
 31
0.0
  0
LINE
  8
0
 62
     0
 10
34.9443
 20
20.5176
 30
0.0
 11
34.9443
 21
23.6182
 31
0.0
  0
LINE
  8
0
 62
     0
 10
34.9443
 20
23.6182
 30
0.0
 11
34.145
 21
23.6182
 31
0.0
  0
LINE
  8
0
 62
     0
 10
34.145
 20
23.6182
 30
0.0
 11
34.145
 21
24.6187
 31
0.0
  0
LINE
  8
0
 62
     0
 10
34.145
 20
24.6187
 30
0.0
 11
20.1442
 21
24.6187
 31
0.0
  0
LINE
  8
0
 62
     0
 10
48.7193
 20
24.6187
 30
0.0
 11
48.7193
 21
23.6182
 31
0.0
  0
LINE
  8
0
 62
     0
 10
48.7193
 20
23.6182
 30
0.0
 11
47.9199
 21
23.6182
 31
0.0
  0
LINE
  8
0
 62
     0
 10
47.9199
 20
23.6182
 30
0.0
 11
47.9199
 21
20.5176
 31
0.0
  0
LINE
  8
0
 62
     0
 10
47.9199
 20
20.5176
 30
0.0
 11
48.7193
 21
20.5176
 31
0.0
  0
LINE
  8
0
 62
     0
 10
48.7193
 20
20.5176
 30
0.0
 11
48.7193
 21
14.7175
 31
0.0
  0
LINE
  8
0
 62
     0
 10
48.7193
 20
14.7175
 30
0.0
 11
47.9199
 21
14.7175
 31
0.0
  0
LINE
  8
0
 62
     0
 10
47.9199
 20
14.7175
 30
0.0
 11
47.9199
 21
11.6182
 31
0.0
  0
LINE
  8
0
 62
     0
 10
47.9199
 20
11.6182
 30
0.0
 11
48.7193
 21
11.6182
 31
0.0
  0
LINE
  8
0
 62
     0
 10
48.7193
 20
11.6182
 30
0.0
 11
48.7193
 21
10.6178
 31
0.0
  0
LINE
  8
0
 62
     0
 10
48.7193
 20
10.6178
 30
0.0
 11
62.72
 21
10.6178
 31
0.0
  0
LINE
  8
0
 62
     0
 10
62.72
 20
10.6178
 30
0.0
 11
62.72
 21
11.6182
 31
0.0
  0
LINE
  8
0
 62
     0
 10
62.72
 20
11.6182
 30
0.0
 11
63.5194
 21
11.6182
 31
0.0
  0
LINE
  8
0
 62
     0
 10
63.5194
 20
11.6182
 30
0.0
 11
63.5194
 21
14.7175
 31
0.0
  0
LINE
  8
0
 62
     0
 10
63.5194
 20
14.7175
 30
0.0
 11
62.72
 21
14.7175
 31
0.0
  0
LINE
  8
0
 62
     0
 10
62.72
 20
14.7175
 30
0.0
 11
62.72
 21
20.5176
 31
0.0
  0
LINE
  8
0
 62
     0
 10
62.72
 20
20.5176
 30
0.0
 11
63.5194
 21
20.5176
 31
0.0
  0
LINE
  8
0
 62
     0
 10
63.5194
 20
20.5176
 30
0.0
 11
63.5194
 21
23.6182
 31
0.0
  0
LINE
  8
0
 62
     0
 10
63.5194
 20
23.6182
 30
0.0
 11
62.72
 21
23.6182
 31
0.0
  0
LINE
  8
0
 62
     0
 10
62.72
 20
23.6182
 30
0.0
 11
62.72
 21
24.6187
 31
0.0
  0
LINE
  8
0
 62
     0
 10
62.72
 20
24.6187
 30
0.0
 11
48.7193
 21
24.6187
 31
0.0
  0
LINE
  8
0
 62
     0
 10
74.2692
 20
43.2428
 30
0.0
 11
74.2692
 21
42.4173
 31
0.0
  0
LINE
  8
0
 62
     0
 10
74.2692
 20
42.4173
 30
0.0
 11
67.9993
 21
42.4173
 31
0.0
  0
LINE
  8
0
 62
     0
 10
67.9993
 20
42.4173
 30
0.0
 11
67.9993
 21
40.6936
 31
0.0
  0
LINE
  8
0
 62
     0
 10
67.9993
 20
40.6936
 30
0.0
 11
66.8002
 21
40.6936
 31
0.0
  0
LINE
  8
0
 62
     0
 10
66.8002
 20
40.6936
 30
0.0
 11
66.8002
 21
37.393
 31
0.0
  0
LINE
  8
0
 62
     0
 10
66.8002
 20
37.393
 30
0.0
 11
67.9993
 21
37.393
 31
0.0
  0
LINE
  8
0
 62
     0
 10
67.9993
 20
37.393
 30
0.0
 11
67.9993
 21
35.6676
 31
0.0
  0
LINE
  8
0
 62
     0
 10
67.9993
 20
35.6676
 30
0.0
 11
72.4697
 21
35.6676
 31
0.0
  0
LINE
  8
0
 62
     0
 10
72.4697
 20
35.6676
 30
0.0
 11
72.4697
 21
34.1437
 31
0.0
  0
LINE
  8
0
 62
     0
 10
72.4697
 20
34.1437
 30
0.0
 11
71.869
 21
34.1437
 31
0.0
  0
LINE
  8
0
 62
     0
 10
71.869
 20
34.1437
 30
0.0
 11
71.869
 21
34.9429
 31
0.0
  0
LINE
  8
0
 62
     0
 10
71.869
 20
34.9429
 30
0.0
 11
68.7698
 21
34.9429
 31
0.0
  0
LINE
  8
0
 62
     0
 10
68.7698
 20
34.9429
 30
0.0
 11
68.7698
 21
34.1437
 31
0.0
  0
LINE
  8
0
 62
     0
 10
68.7698
 20
34.1437
 30
0.0
 11
67.7693
 21
34.1437
 31
0.0
  0
LINE
  8
0
 62
     0
 10
67.7693
 20
34.1437
 30
0.0
 11
67.7693
 21
20.1428
 31
0.0
  0
LINE
  8
0
 62
     0
 10
67.7693
 20
20.1428
 30
0.0
 11
68.7698
 21
20.1428
 31
0.0
  0
LINE
  8
0
 62
     0
 10
68.7698
 20
20.1428
 30
0.0
 11
68.7698
 21
19.3435
 31
0.0
  0
LINE
  8
0
 62
     0
 10
68.7698
 20
19.3435
 30
0.0
 11
71.869
 21
19.3435
 31
0.0
  0
LINE
  8
0
 62
     0
 10
71.869
 20
19.3435
 30
0.0
 11
71.869
 21
20.1428
 31
0.0
  0
LINE
  8
0
 62
     0
 10
71.869
 20
20.1428
 30
0.0
 11
72.4697
 21
20.1428
 31
0.0
  0
LINE
  8
0
 62
     0
 10
72.4697
 20
20.1428
 30
0.0
 11
72.4697
 21
18.6187
 31
0.0
  0
LINE
  8
0
 62
     0
 10
72.4697
 20
18.6187
 30
0.0
 11
67.9993
 21
18.6187
 31
0.0
  0
LINE
  8
0
 62
     0
 10
67.9993
 20
18.6187
 30
0.0
 11
67.9993
 21
16.8934
 31
0.0
  0
LINE
  8
0
 62
     0
 10
67.9993
 20
16.8934
 30
0.0
 11
66.8002
 21
16.8934
 31
0.0
  0
LINE
  8
0
 62
     0
 10
66.8002
 20
16.8934
 30
0.0
 11
66.8002
 21
13.593
 31
0.0
  0
LINE
  8
0
 62
     0
 10
66.8002
 20
13.593
 30
0.0
 11
67.9993
 21
13.593
 31
0.0
  0
LINE
  8
0
 62
     0
 10
67.9993
 20
13.593
 30
0.0
 11
67.9993
 21
11.8677
 31
0.0
  0
LINE
  8
0
 62
     0
 10
67.9993
 20
11.8677
 30
0.0
 11
74.2692
 21
11.8677
 31
0.0
  0
LINE
  8
0
 62
     0
 10
74.2692
 20
11.8677
 30
0.0
 11
74.2692
 21
11.0436
 31
0.0
  0
LINE
  8
0
 62
     0
 10
74.2692
 20
11.0436
 30
0.0
 11
77.0696
 21
11.0436
 31
0.0
  0
LINE
  8
0
 62
     0
 10
77.0696
 20
11.0436
 30
0.0
 11
77.0696
 21
11.8677
 31
0.0
  0
LINE
  8
0
 62
     0
 10
77.0696
 20
11.8677
 30
0.0
 11
80.2996
 21
11.8677
 31
0.0
  0
LINE
  8
0
 62
     0
 10
80.2996
 20
11.8677
 30
0.0
 11
80.2996
 21
18.6187
 31
0.0
  0
LINE
  8
0
 62
     0
 10
80.2996
 20
18.6187
 30
0.0
 11
77.0696
 21
18.6187
 31
0.0
  0
LINE
  8
0
 62
     0
 10
77.0696
 20
18.6187
 30
0.0
 11
77.0696
 21
20.1428
 31
0.0
  0
LINE
  8
0
 62
     0
 10
77.0696
 20
20.1428
 30
0.0
 11
77.6704
 21
20.1428
 31
0.0
  0
LINE
  8
0
 62
     0
 10
77.6704
 20
20.1428
 30
0.0
 11
77.6704
 21
19.3435
 31
0.0
  0
LINE
  8
0
 62
     0
 10
77.6704
 20
19.3435
 30
0.0
 11
80.7695
 21
19.3435
 31
0.0
  0
LINE
  8
0
 62
     0
 10
80.7695
 20
19.3435
 30
0.0
 11
80.7695
 21
20.1428
 31
0.0
  0
LINE
  8
0
 62
     0
 10
80.7695
 20
20.1428
 30
0.0
 11
81.77
 21
20.1428
 31
0.0
  0
LINE
  8
0
 62
     0
 10
81.77
 20
20.1428
 30
0.0
 11
81.77
 21
34.1437
 31
0.0
  0
LINE
  8
0
 62
     0
 10
81.77
 20
34.1437
 30
0.0
 11
80.7695
 21
34.1437
 31
0.0
  0
LINE
  8
0
 62
     0
 10
80.7695
 20
34.1437
 30
0.0
 11
80.7695
 21
34.9429
 31
0.0
  0
LINE
  8
0
 62
     0
 10
80.7695
 20
34.9429
 30
0.0
 11
77.6704
 21
34.9429
 31
0.0
  0
LINE
  8
0
 62
     0
 10
77.6704
 20
34.9429
 30
0.0
 11
77.6704
 21
34.1437
 31
0.0
  0
LINE
  8
0
 62
     0
 10
77.6704
 20
34.1437
 30
0.0
 11
77.0696
 21
34.1437
 31
0.0
  0
LINE
  8
0
 62
     0
 10
77.0696
 20
34.1437
 30
0.0
 11
77.0696
 21
35.6676
 31
0.0
  0
LINE
  8
0
 62
     0
 10
77.0696
 20
35.6676
 30
0.0
 11
80.2996
 21
35.6676
 31
0.0
  0
LINE
  8
0
 62
     0
 10
80.2996
 20
35.6676
 30
0.0
 11
80.2996
 21
42.4173
 31
0.0
  0
LINE
  8
0
 62
     0
 10
80.2996
 20
42.4173
 30
0.0
 11
77.0696
 21
42.4173
 31
0.0
  0
LINE
  8
0
 62
     0
 10
77.0696
 20
42.4173
 30
0.0
 11
77.0696
 21
43.2428
 31
0.0
  0
LINE
  8
0
 62
     0
 10
77.0696
 20
43.2428
 30
0.0
 11
74.2692
 21
43.2428
 31
0.0
  0
LINE
  8
0
 62
     0
 10
10.6192
 20
43.6686
 30
0.0
 11
10.6192
 21
42.6681
 31
0.0
  0
LINE
  8
0
 62
     0
 10
10.6192
 20
42.6681
 30
0.0
 11
9.81851
 21
42.6681
 31
0.0
  0
LINE
  8
0
 62
     0
 10
9.81851
 20
42.6681
 30
0.0
 11
9.81851
 21
39.5676
 31
0.0
  0
LINE
  8
0
 62
     0
 10
9.81851
 20
39.5676
 30
0.0
 11
10.6192
 21
39.5676
 31
0.0
  0
LINE
  8
0
 62
     0
 10
10.6192
 20
39.5676
 30
0.0
 11
10.6192
 21
33.7675
 31
0.0
  0
LINE
  8
0
 62
     0
 10
10.6192
 20
33.7675
 30
0.0
 11
9.81851
 21
33.7675
 31
0.0
  0
LINE
  8
0
 62
     0
 10
9.81851
 20
33.7675
 30
0.0
 11
9.81851
 21
30.6682
 31
0.0
  0
LINE
  8
0
 62
     0
 10
9.81851
 20
30.6682
 30
0.0
 11
10.6192
 21
30.6682
 31
0.0
  0
LINE
  8
0
 62
     0
 10
10.6192
 20
30.6682
 30
0.0
 11
10.6192
 21
29.6678
 31
0.0
  0
LINE
  8
0
 62
     0
 10
10.6192
 20
29.6678
 30
0.0
 11
24.62
 21
29.6678
 31
0.0
  0
LINE
  8
0
 62
     0
 10
24.62
 20
29.6678
 30
0.0
 11
24.62
 21
30.6682
 31
0.0
  0
LINE
  8
0
 62
     0
 10
24.62
 20
30.6682
 30
0.0
 11
25.4193
 21
30.6682
 31
0.0
  0
LINE
  8
0
 62
     0
 10
25.4193
 20
30.6682
 30
0.0
 11
25.4193
 21
33.7675
 31
0.0
  0
LINE
  8
0
 62
     0
 10
25.4193
 20
33.7675
 30
0.0
 11
24.62
 21
33.7675
 31
0.0
  0
LINE
  8
0
 62
     0
 10
24.62
 20
33.7675
 30
0.0
 11
24.62
 21
39.5676
 31
0.0
  0
LINE
  8
0
 62
     0
 10
24.62
 20
39.5676
 30
0.0
 11
25.4193
 21
39.5676
 31
0.0
  0
LINE
  8
0
 62
     0
 10
25.4193
 20
39.5676
 30
0.0
 11
25.4193
 21
42.6681
 31
0.0
  0
LINE
  8
0
 62
     0
 10
25.4193
 20
42.6681
 30
0.0
 11
24.62
 21
42.6681
 31
0.0
  0
LINE
  8
0
 62
     0
 10
24.62
 20
42.6681
 30
0.0
 11
24.62
 21
43.6686
 31
0.0
  0
LINE
  8
0
 62
     0
 10
24.62
 20
43.6686
 30
0.0
 11
10.6192
 21
43.6686
 31
0.0
  0
LINE
  8
0
 62
     0
 10
29.6692
 20
43.6686
 30
0.0
 11
29.6692
 21
42.6681
 31
0.0
  0
LINE
  8
0
 62
     0
 10
29.6692
 20
42.6681
 30
0.0
 11
28.8699
 21
42.6681
 31
0.0
  0
LINE
  8
0
 62
     0
 10
28.8699
 20
42.6681
 30
0.0
 11
28.8699
 21
39.5676
 31
0.0
  0
LINE
  8
0
 62
     0
 10
28.8699
 20
39.5676
 30
0.0
 11
29.6692
 21
39.5676
 31
0.0
  0
LINE
  8
0
 62
     0
 10
29.6692
 20
39.5676
 30
0.0
 11
29.6692
 21
33.7675
 31
0.0
  0
LINE
  8
0
 62
     0
 10
29.6692
 20
33.7675
 30
0.0
 11
28.8699
 21
33.7675
 31
0.0
  0
LINE
  8
0
 62
     0
 10
28.8699
 20
33.7675
 30
0.0
 11
28.8699
 21
30.6682
 31
0.0
  0
LINE
  8
0
 62
     0
 10
28.8699
 20
30.6682
 30
0.0
 11
29.6692
 21
30.6682
 31
0.0
  0
LINE
  8
0
 62
     0
 10
29.6692
 20
30.6682
 30
0.0
 11
29.6692
 21
29.6678
 31
0.0
  0
LINE
  8
0
 62
     0
 10
29.6692
 20
29.6678
 30
0.0
 11
43.67
 21
29.6678
 31
0.0
  0
LINE
  8
0
 62
     0
 10
43.67
 20
29.6678
 30
0.0
 11
43.67
 21
30.6682
 31
0.0
  0
LINE
  8
0
 62
     0
 10
43.67
 20
30.6682
 30
0.0
 11
44.4694
 21
30.6682
 31
0.0
  0
LINE
  8
0
 62
     0
 10
44.4694
 20
30.6682
 30
0.0
 11
44.4694
 21
33.7675
 31
0.0
  0
LINE
  8
0
 62
     0
 10
44.4694
 20
33.7675
 30
0.0
 11
43.67
 21
33.7675
 31
0.0
  0
LINE
  8
0
 62
     0
 10
43.67
 20
33.7675
 30
0.0
 11
43.67
 21
39.5676
 31
0.0
  0
LINE
  8
0
 62
     0
 10
43.67
 20
39.5676
 30
0.0
 11
44.4694
 21
39.5676
 31
0.0
  0
LINE
  8
0
 62
     0
 10
44.4694
 20
39.5676
 30
0.0
 11
44.4694
 21
42.6681
 31
0.0
  0
LINE
  8
0
 62
     0
 10
44.4694
 20
42.6681
 30
0.0
 11
43.67
 21
42.6681
 31
0.0
  0
LINE
  8
0
 62
     0
 10
43.67
 20
42.6681
 30
0.0
 11
43.67
 21
43.6686
 31
0.0
  0
LINE
  8
0
 62
     0
 10
43.67
 20
43.6686
 30
0.0
 11
29.6692
 21
43.6686
 31
0.0
  0
LINE
  8
0
 62
     0
 10
48.7193
 20
43.6686
 30
0.0
 11
48.7193
 21
42.6681
 31
0.0
  0
LINE
  8
0
 62
     0
 10
48.7193
 20
42.6681
 30
0.0
 11
47.9199
 21
42.6681
 31
0.0
  0
LINE
  8
0
 62
     0
 10
47.9199
 20
42.6681
 30
0.0
 11
47.9199
 21
39.5676
 31
0.0
  0
LINE
  8
0
 62
     0
 10
47.9199
 20
39.5676
 30
0.0
 11
48.7193
 21
39.5676
 31
0.0
  0
LINE
  8
0
 62
     0
 10
48.7193
 20
39.5676
 30
0.0
 11
48.7193
 21
33.7675
 31
0.0
  0
LINE
  8
0
 62
     0
 10
48.7193
 20
33.7675
 30
0.0
 11
47.9199
 21
33.7675
 31
0.0
  0
LINE
  8
0
 62
     0
 10
47.9199
 20
33.7675
 30
0.0
 11
47.9199
 21
30.6682
 31
0.0
  0
LINE
  8
0
 62
     0
 10
47.9199
 20
30.6682
 30
0.0
 11
48.7193
 21
30.6682
 31
0.0
  0
LINE
  8
0
 62
     0
 10
48.7193
 20
30.6682
 30
0.0
 11
48.7193
 21
29.6678
 31
0.0
  0
LINE
  8
0
 62
     0
 10
48.7193
 20
29.6678
 30
0.0
 11
62.72
 21
29.6678
 31
0.0
  0
LINE
  8
0
 62
     0
 10
62.72
 20
29.6678
 30
0.0
 11
62.72
 21
30.6682
 31
0.0
  0
LINE
  8
0
 62
     0
 10
62.72
 20
30.6682
 30
0.0
 11
63.5194
 21
30.6682
 31
0.0
  0
LINE
  8
0
 62
     0
 10
63.5194
 20
30.6682
 30
0.0
 11
63.5194
 21
33.7675
 31
0.0
  0
LINE
  8
0
 62
     0
 10
63.5194
 20
33.7675
 30
0.0
 11
62.72
 21
33.7675
 31
0.0
  0
LINE
  8
0
 62
     0
 10
62.72
 20
33.7675
 30
0.0
 11
62.72
 21
39.5676
 31
0.0
  0
LINE
  8
0
 62
     0
 10
62.72
 20
39.5676
 30
0.0
 11
63.5194
 21
39.5676
 31
0.0
  0
LINE
  8
0
 62
     0
 10
63.5194
 20
39.5676
 30
0.0
 11
63.5194
 21
42.6681
 31
0.0
  0
LINE
  8
0
 62
     0
 10
63.5194
 20
42.6681
 30
0.0
 11
62.72
 21
42.6681
 31
0.0
  0
LINE
  8
0
 62
     0
 10
62.72
 20
42.6681
 30
0.0
 11
62.72
 21
43.6686
 31
0.0
  0
LINE
  8
0
 62
     0
 10
62.72
 20
43.6686
 30
0.0
 11
48.7193
 21
43.6686
 31
0.0
  0
LINE
  8
0
 62
     0
 10
10.6192
 20
62.7186
 30
0.0
 11
10.6192
 21
61.7181
 31
0.0
  0
LINE
  8
0
 62
     0
 10
10.6192
 20
61.7181
 30
0.0
 11
9.81851
 21
61.7181
 31
0.0
  0
LINE
  8
0
 62
     0
 10
9.81851
 20
61.7181
 30
0.0
 11
9.81851
 21
58.6176
 31
0.0
  0
LINE
  8
0
 62
     0
 10
9.81851
 20
58.6176
 30
0.0
 11
10.6192
 21
58.6176
 31
0.0
  0
LINE
  8
0
 62
     0
 10
10.6192
 20
58.6176
 30
0.0
 11
10.6192
 21
52.8175
 31
0.0
  0
LINE
  8
0
 62
     0
 10
10.6192
 20
52.8175
 30
0.0
 11
9.81851
 21
52.8175
 31
0.0
  0
LINE
  8
0
 62
     0
 10
9.81851
 20
52.8175
 30
0.0
 11
9.81851
 21
49.7184
 31
0.0
  0
LINE
  8
0
 62
     0
 10
9.81851
 20
49.7184
 30
0.0
 11
10.6192
 21
49.7184
 31
0.0
  0
LINE
  8
0
 62
     0
 10
10.6192
 20
49.7184
 30
0.0
 11
10.6192
 21
48.7179
 31
0.0
  0
LINE
  8
0
 62
     0
 10
10.6192
 20
48.7179
 30
0.0
 11
24.62
 21
48.7179
 31
0.0
  0
LINE
  8
0
 62
     0
 10
24.62
 20
48.7179
 30
0.0
 11
24.62
 21
49.7184
 31
0.0
  0
LINE
  8
0
 62
     0
 10
24.62
 20
49.7184
 30
0.0
 11
25.4193
 21
49.7184
 31
0.0
  0
LINE
  8
0
 62
     0
 10
25.4193
 20
49.7184
 30
0.0
 11
25.4193
 21
52.8175
 31
0.0
  0
LINE
  8
0
 62
     0
 10
25.4193
 20
52.8175
 30
0.0
 11
24.62
 21
52.8175
 31
0.0
  0
LINE
  8
0
 62
     0
 10
24.62
 20
52.8175
 30
0.0
 11
24.62
 21
58.6176
 31
0.0
  0
LINE
  8
0
 62
     0
 10
24.62
 20
58.6176
 30
0.0
 11
25.4193
 21
58.6176
 31
0.0
  0
LINE
  8
0
 62
     0
 10
25.4193
 20
58.6176
 30
0.0
 11
25.4193
 21
61.7181
 31
0.0
  0
LINE
  8
0
 62
     0
 10
25.4193
 20
61.7181
 30
0.0
 11
24.62
 21
61.7181
 31
0.0
  0
LINE
  8
0
 62
     0
 10
24.62
 20
61.7181
 30
0.0
 11
24.62
 21
62.7186
 31
0.0
  0
LINE
  8
0
 62
     0
 10
24.62
 20
62.7186
 30
0.0
 11
10.6192
 21
62.7186
 31
0.0
  0
LINE
  8
0
 62
     0
 10
29.6692
 20
62.7186
 30
0.0
 11
29.6692
 21
61.7181
 31
0.0
  0
LINE
  8
0
 62
     0
 10
29.6692
 20
61.7181
 30
0.0
 11
28.8699
 21
61.7181
 31
0.0
  0
LINE
  8
0
 62
     0
 10
28.8699
 20
61.7181
 30
0.0
 11
28.8699
 21
58.6176
 31
0.0
  0
LINE
  8
0
 62
     0
 10
28.8699
 20
58.6176
 30
0.0
 11
29.6692
 21
58.6176
 31
0.0
  0
LINE
  8
0
 62
     0
 10
29.6692
 20
58.6176
 30
0.0
 11
29.6692
 21
52.8175
 31
0.0
  0
LINE
  8
0
 62
     0
 10
29.6692
 20
52.8175
 30
0.0
 11
28.8699
 21
52.8175
 31
0.0
  0
LINE
  8
0
 62
     0
 10
28.8699
 20
52.8175
 30
0.0
 11
28.8699
 21
49.7184
 31
0.0
  0
LINE
  8
0
 62
     0
 10
28.8699
 20
49.7184
 30
0.0
 11
29.6692
 21
49.7184
 31
0.0
  0
LINE
  8
0
 62
     0
 10
29.6692
 20
49.7184
 30
0.0
 11
29.6692
 21
48.7179
 31
0.0
  0
LINE
  8
0
 62
     0
 10
29.6692
 20
48.7179
 30
0.0
 11
43.67
 21
48.7179
 31
0.0
  0
LINE
  8
0
 62
     0
 10
43.67
 20
48.7179
 30
0.0
 11
43.67
 21
49.7184
 31
0.0
  0
LINE
  8
0
 62
     0
 10
43.67
 20
49.7184
 30
0.0
 11
44.4694
 21
49.7184
 31
0.0
  0
LINE
  8
0
 62
     0
 10
44.4694
 20
49.7184
 30
0.0
 11
44.4694
 21
52.8175
 31
0.0
  0
LINE
  8
0
 62
     0
 10
44.4694
 20
52.8175
 30
0.0
 11
43.67
 21
52.8175
 31
0.0
  0
LINE
  8
0
 62
     0
 10
43.67
 20
52.8175
 30
0.0
 11
43.67
 21
58.6176
 31
0.0
  0
LINE
  8
0
 62
     0
 10
43.67
 20
58.6176
 30
0.0
 11
44.4694
 21
58.6176
 31
0.0
  0
LINE
  8
0
 62
     0
 10
44.4694
 20
58.6176
 30
0.0
 11
44.4694
 21
61.7181
 31
0.0
  0
LINE
  8
0
 62
     0
 10
44.4694
 20
61.7181
 30
0.0
 11
43.67
 21
61.7181
 31
0.0
  0
LINE
  8
0
 62
     0
 10
43.67
 20
61.7181
 30
0.0
 11
43.67
 21
62.7186
 31
0.0
  0
LINE
  8
0
 62
     0
 10
43.67
 20
62.7186
 30
0.0
 11
29.6692
 21
62.7186
 31
0.0
  0
LINE
  8
0
 62
     0
 10
48.7193
 20
62.7186
 30
0.0
 11
48.7193
 21
61.7181
 31
0.0
  0
LINE
  8
0
 62
     0
 10
48.7193
 20
61.7181
 30
0.0
 11
47.9199
 21
61.7181
 31
0.0
  0
LINE
  8
0
 62
     0
 10
47.9199
 20
61.7181
 30
0.0
 11
47.9199
 21
58.6176
 31
0.0
  0
LINE
  8
0
 62
     0
 10
47.9199
 20
58.6176
 30
0.0
 11
48.7193
 21
58.6176
 31
0.0
  0
LINE
  8
0
 62
     0
 10
48.7193
 20
58.6176
 30
0.0
 11
48.7193
 21
52.8175
 31
0.0
  0
LINE
  8
0
 62
     0
 10
48.7193
 20
52.8175
 30
0.0
 11
47.9199
 21
52.8175
 31
0.0
  0
LINE
  8
0
 62
     0
 10
47.9199
 20
52.8175
 30
0.0
 11
47.9199
 21
49.7184
 31
0.0
  0
LINE
  8
0
 62
     0
 10
47.9199
 20
49.7184
 30
0.0
 11
48.7193
 21
49.7184
 31
0.0
  0
LINE
  8
0
 62
     0
 10
48.7193
 20
49.7184
 30
0.0
 11
48.7193
 21
48.7179
 31
0.0
  0
LINE
  8
0
 62
     0
 10
48.7193
 20
48.7179
 30
0.0
 11
62.72
 21
48.7179
 31
0.0
  0
LINE
  8
0
 62
     0
 10
62.72
 20
48.7179
 30
0.0
 11
62.72
 21
49.7184
 31
0.0
  0
LINE
  8
0
 62
     0
 10
62.72
 20
49.7184
 30
0.0
 11
63.5194
 21
49.7184
 31
0.0
  0
LINE
  8
0
 62
     0
 10
63.5194
 20
49.7184
 30
0.0
 11
63.5194
 21
52.8175
 31
0.0
  0
LINE
  8
0
 62
     0
 10
63.5194
 20
52.8175
 30
0.0
 11
62.72
 21
52.8175
 31
0.0
  0
LINE
  8
0
 62
     0
 10
62.72
 20
52.8175
 30
0.0
 11
62.72
 21
58.6176
 31
0.0
  0
LINE
  8
0
 62
     0
 10
62.72
 20
58.6176
 30
0.0
 11
63.5194
 21
58.6176
 31
0.0
  0
LINE
  8
0
 62
     0
 10
63.5194
 20
58.6176
 30
0.0
 11
63.5194
 21
61.7181
 31
0.0
  0
LINE
  8
0
 62
     0
 10
63.5194
 20
61.7181
 30
0.0
 11
62.72
 21
61.7181
 31
0.0
  0
LINE
  8
0
 62
     0
 10
62.72
 20
61.7181
 30
0.0
 11
62.72
 21
62.7186
 31
0.0
  0
LINE
  8
0
 62
     0
 10
62.72
 20
62.7186
 30
0.0
 11
48.7193
 21
62.7186
 31
0.0
  0
LINE
  8
0
 62
     0
 10
74.2692
 20
81.3428
 30
0.0
 11
74.2692
 21
80.5173
 31
0.0
  0
LINE
  8
0
 62
     0
 10
74.2692
 20
80.5173
 30
0.0
 11
67.9993
 21
80.5173
 31
0.0
  0
LINE
  8
0
 62
     0
 10
67.9993
 20
80.5173
 30
0.0
 11
67.9993
 21
78.7936
 31
0.0
  0
LINE
  8
0
 62
     0
 10
67.9993
 20
78.7936
 30
0.0
 11
66.8002
 21
78.7936
 31
0.0
  0
LINE
  8
0
 62
     0
 10
66.8002
 20
78.7936
 30
0.0
 11
66.8002
 21
75.493
 31
0.0
  0
LINE
  8
0
 62
     0
 10
66.8002
 20
75.493
 30
0.0
 11
67.9993
 21
75.493
 31
0.0
  0
LINE
  8
0
 62
     0
 10
67.9993
 20
75.493
 30
0.0
 11
67.9993
 21
73.7676
 31
0.0
  0
LINE
  8
0
 62
     0
 10
67.9993
 20
73.7676
 30
0.0
 11
72.4697
 21
73.7676
 31
0.0
  0
LINE
  8
0
 62
     0
 10
72.4697
 20
73.7676
 30
0.0
 11
72.4697
 21
72.2436
 31
0.0
  0
LINE
  8
0
 62
     0
 10
72.4697
 20
72.2436
 30
0.0
 11
71.869
 21
72.2436
 31
0.0
  0
LINE
  8
0
 62
     0
 10
71.869
 20
72.2436
 30
0.0
 11
71.869
 21
73.043
 31
0.0
  0
LINE
  8
0
 62
     0
 10
71.869
 20
73.043
 30
0.0
 11
68.7698
 21
73.043
 31
0.0
  0
LINE
  8
0
 62
     0
 10
68.7698
 20
73.043
 30
0.0
 11
68.7698
 21
72.2436
 31
0.0
  0
LINE
  8
0
 62
     0
 10
68.7698
 20
72.2436
 30
0.0
 11
67.7693
 21
72.2436
 31
0.0
  0
LINE
  8
0
 62
     0
 10
67.7693
 20
72.2436
 30
0.0
 11
67.7693
 21
58.2429
 31
0.0
  0
LINE
  8
0
 62
     0
 10
67.7693
 20
58.2429
 30
0.0
 11
68.7698
 21
58.2429
 31
0.0
  0
LINE
  8
0
 62
     0
 10
68.7698
 20
58.2429
 30
0.0
 11
68.7698
 21
57.4435
 31
0.0
  0
LINE
  8
0
 62
     0
 10
68.7698
 20
57.4435
 30
0.0
 11
71.869
 21
57.4435
 31
0.0
  0
LINE
  8
0
 62
     0
 10
71.869
 20
57.4435
 30
0.0
 11
71.869
 21
58.2429
 31
0.0
  0
LINE
  8
0
 62
     0
 10
71.869
 20
58.2429
 30
0.0
 11
72.4697
 21
58.2429
 31
0.0
  0
LINE
  8
0
 62
     0
 10
72.4697
 20
58.2429
 30
0.0
 11
72.4697
 21
56.7186
 31
0.0
  0
LINE
  8
0
 62
     0
 10
72.4697
 20
56.7186
 30
0.0
 11
67.9993
 21
56.7186
 31
0.0
  0
LINE
  8
0
 62
     0
 10
67.9993
 20
56.7186
 30
0.0
 11
67.9993
 21
54.9935
 31
0.0
  0
LINE
  8
0
 62
     0
 10
67.9993
 20
54.9935
 30
0.0
 11
66.8002
 21
54.9935
 31
0.0
  0
LINE
  8
0
 62
     0
 10
66.8002
 20
54.9935
 30
0.0
 11
66.8002
 21
51.6929
 31
0.0
  0
LINE
  8
0
 62
     0
 10
66.8002
 20
51.6929
 30
0.0
 11
67.9993
 21
51.6929
 31
0.0
  0
LINE
  8
0
 62
     0
 10
67.9993
 20
51.6929
 30
0.0
 11
67.9993
 21
49.9678
 31
0.0
  0
LINE
  8
0
 62
     0
 10
67.9993
 20
49.9678
 30
0.0
 11
74.2692
 21
49.9678
 31
0.0
  0
LINE
  8
0
 62
     0
 10
74.2692
 20
49.9678
 30
0.0
 11
74.2692
 21
49.1437
 31
0.0
  0
LINE
  8
0
 62
     0
 10
74.2692
 20
49.1437
 30
0.0
 11
77.0696
 21
49.1437
 31
0.0
  0
LINE
  8
0
 62
     0
 10
77.0696
 20
49.1437
 30
0.0
 11
77.0696
 21
49.9678
 31
0.0
  0
LINE
  8
0
 62
     0
 10
77.0696
 20
49.9678
 30
0.0
 11
80.2996
 21
49.9678
 31
0.0
  0
LINE
  8
0
 62
     0
 10
80.2996
 20
49.9678
 30
0.0
 11
80.2996
 21
56.7186
 31
0.0
  0
LINE
  8
0
 62
     0
 10
80.2996
 20
56.7186
 30
0.0
 11
77.0696
 21
56.7186
 31
0.0
  0
LINE
  8
0
 62
     0
 10
77.0696
 20
56.7186
 30
0.0
 11
77.0696
 21
58.2429
 31
0.0
  0
LINE
  8
0
 62
     0
 10
77.0696
 20
58.2429
 30
0.0
 11
77.6704
 21
58.2429
 31
0.0
  0
LINE
  8
0
 62
     0
 10
77.6704
 20
58.2429
 30
0.0
 11
77.6704
 21
57.4435
 31
0.0
  0
LINE
  8
0
 62
     0
 10
77.6704
 20
57.4435
 30
0.0
 11
80.7695
 21
57.4435
 31
0.0
  0
LINE
  8
0
 62
     0
 10
80.7695
 20
57.4435
 30
0.0
 11
80.7695
 21
58.2429
 31
0.0
  0
LINE
  8
0
 62
     0
 10
80.7695
 20
58.2429
 30
0.0
 11
81.77
 21
58.2429
 31
0.0
  0
LINE
  8
0
 62
     0
 10
81.77
 20
58.2429
 30
0.0
 11
81.77
 21
72.2436
 31
0.0
  0
LINE
  8
0
 62
     0
 10
81.77
 20
72.2436
 30
0.0
 11
80.7695
 21
72.2436
 31
0.0
  0
LINE
  8
0
 62
     0
 10
80.7695
 20
72.2436
 30
0.0
 11
80.7695
 21
73.043
 31
0.0
  0
LINE
  8
0
 62
     0
 10
80.7695
 20
73.043
 30
0.0
 11
77.6704
 21
73.043
 31
0.0
  0
LINE
  8
0
 62
     0
 10
77.6704
 20
73.043
 30
0.0
 11
77.6704
 21
72.2436
 31
0.0
  0
LINE
  8
0
 62
     0
 10
77.6704
 20
72.2436
 30
0.0
 11
77.0696
 21
72.2436
 31
0.0
  0
LINE
  8
0
 62
     0
 10
77.0696
 20
72.2436
 30
0.0
 11
77.0696
 21
73.7676
 31
0.0
  0
LINE
  8
0
 62
     0
 10
77.0696
 20
73.7676
 30
0.0
 11
80.2996
 21
73.7676
 31
0.0
  0
LINE
  8
0
 62
     0
 10
80.2996
 20
73.7676
 30
0.0
 11
80.2996
 21
80.5173
 31
0.0
  0
LINE
  8
0
 62
     0
 10
80.2996
 20
80.5173
 30
0.0
 11
77.0696
 21
80.5173
 31
0.0
  0
LINE
  8
0
 62
     0
 10
77.0696
 20
80.5173
 30
0.0
 11
77.0696
 21
81.3428
 31
0.0
  0
LINE
  8
0
 62
     0
 10
77.0696
 20
81.3428
 30
0.0
 11
74.2692
 21
81.3428
 31
0.0
  0
LINE
  8
0
 62
     0
 10
10.6192
 20
81.7686
 30
0.0
 11
10.6192
 21
80.7681
 31
0.0
  0
LINE
  8
0
 62
     0
 10
10.6192
 20
80.7681
 30
0.0
 11
9.81851
 21
80.7681
 31
0.0
  0
LINE
  8
0
 62
     0
 10
9.81851
 20
80.7681
 30
0.0
 11
9.81851
 21
77.6676
 31
0.0
  0
LINE
  8
0
 62
     0
 10
9.81851
 20
77.6676
 30
0.0
 11
10.6192
 21
77.6676
 31
0.0
  0
LINE
  8
0
 62
     0
 10
10.6192
 20
77.6676
 30
0.0
 11
10.6192
 21
71.8675
 31
0.0
  0
LINE
  8
0
 62
     0
 10
10.6192
 20
71.8675
 30
0.0
 11
9.81851
 21
71.8675
 31
0.0
  0
LINE
  8
0
 62
     0
 10
9.81851
 20
71.8675
 30
0.0
 11
9.81851
 21
68.7684
 31
0.0
  0
LINE
  8
0
 62
     0
 10
9.81851
 20
68.7684
 30
0.0
 11
10.6192
 21
68.7684
 31
0.0
  0
LINE
  8
0
 62
     0
 10
10.6192
 20
68.7684
 30
0.0
 11
10.6192
 21
67.7679
 31
0.0
  0
LINE
  8
0
 62
     0
 10
10.6192
 20
67.7679
 30
0.0
 11
24.62
 21
67.7679
 31
0.0
  0
LINE
  8
0
 62
     0
 10
24.62
 20
67.7679
 30
0.0
 11
24.62
 21
68.7684
 31
0.0
  0
LINE
  8
0
 62
     0
 10
24.62
 20
68.7684
 30
0.0
 11
25.4193
 21
68.7684
 31
0.0
  0
LINE
  8
0
 62
     0
 10
25.4193
 20
68.7684
 30
0.0
 11
25.4193
 21
71.8675
 31
0.0
  0
LINE
  8
0
 62
     0
 10
25.4193
 20
71.8675
 30
0.0
 11
24.62
 21
71.8675
 31
0.0
  0
LINE
  8
0
 62
     0
 10
24.62
 20
71.8675
 30
0.0
 11
24.62
 21
77.6676
 31
0.0
  0
LINE
  8
0
 62
     0
 10
24.62
 20
77.6676
 30
0.0
 11
25.4193
 21
77.6676
 31
0.0
  0
LINE
  8
0
 62
     0
 10
25.4193
 20
77.6676
 30
0.0
 11
25.4193
 21
80.7681
 31
0.0
  0
LINE
  8
0
 62
     0
 10
25.4193
 20
80.7681
 30
0.0
 11
24.62
 21
80.7681
 31
0.0
  0
LINE
  8
0
 62
     0
 10
24.62
 20
80.7681
 30
0.0
 11
24.62
 21
81.7686
 31
0.0
  0
LINE
  8
0
 62
     0
 10
24.62
 20
81.7686
 30
0.0
 11
10.6192
 21
81.7686
 31
0.0
  0
LINE
  8
0
 62
     0
 10
29.6692
 20
81.7686
 30
0.0
 11
29.6692
 21
80.7681
 31
0.0
  0
LINE
  8
0
 62
     0
 10
29.6692
 20
80.7681
 30
0.0
 11
28.8699
 21
80.7681
 31
0.0
  0
LINE
  8
0
 62
     0
 10
28.8699
 20
80.7681
 30
0.0
 11
28.8699
 21
77.6676
 31
0.0
  0
LINE
  8
0
 62
     0
 10
28.8699
 20
77.6676
 30
0.0
 11
29.6692
 21
77.6676
 31
0.0
  0
LINE
  8
0
 62
     0
 10
29.6692
 20
77.6676
 30
0.0
 11
29.6692
 21
71.8675
 31
0.0
  0
LINE
  8
0
 62
     0
 10
29.6692
 20
71.8675
 30
0.0
 11
28.8699
 21
71.8675
 31
0.0
  0
LINE
  8
0
 62
     0
 10
28.8699
 20
71.8675
 30
0.0
 11
28.8699
 21
68.7684
 31
0.0
  0
LINE
  8
0
 62
     0
 10
28.8699
 20
68.7684
 30
0.0
 11
29.6692
 21
68.7684
 31
0.0
  0
LINE
  8
0
 62
     0
 10
29.6692
 20
68.7684
 30
0.0
 11
29.6692
 21
67.7679
 31
0.0
  0
LINE
  8
0
 62
     0
 10
29.6692
 20
67.7679
 30
0.0
 11
43.67
 21
67.7679
 31
0.0
  0
LINE
  8
0
 62
     0
 10
43.67
 20
67.7679
 30
0.0
 11
43.67
 21
68.7684
 31
0.0
  0
LINE
  8
0
 62
     0
 10
43.67
 20
68.7684
 30
0.0
 11
44.4694
 21
68.7684
 31
0.0
  0
LINE
  8
0
 62
     0
 10
44.4694
 20
68.7684
 30
0.0
 11
44.4694
 21
71.8675
 31
0.0
  0
LINE
  8
0
 62
     0
 10
44.4694
 20
71.8675
 30
0.0
 11
43.67
 21
71.8675
 31
0.0
  0
LINE
  8
0
 62
     0
 10
43.67
 20
71.8675
 30
0.0
 11
43.67
 21
77.6676
 31
0.0
  0
LINE
  8
0
 62
     0
 10
43.67
 20
77.6676
 30
0.0
 11
44.4694
 21
77.6676
 31
0.0
  0
LINE
  8
0
 62
     0
 10
44.4694
 20
77.6676
 30
0.0
 11
44.4694
 21
80.7681
 31
0.0
  0
LINE
  8
0
 62
     0
 10
44.4694
 20
80.7681
 30
0.0
 11
43.67
 21
80.7681
 31
0.0
  0
LINE
  8
0
 62
     0
 10
43.67
 20
80.7681
 30
0.0
 11
43.67
 21
81.7686
 31
0.0
  0
LINE
  8
0
 62
     0
 10
43.67
 20
81.7686
 30
0.0
 11
29.6692
 21
81.7686
 31
0.0
  0
LINE
  8
0
 62
     0
 10
48.7193
 20
81.7686
 30
0.0
 11
48.7193
 21
80.7681
 31
0.0
  0
LINE
  8
0
 62
     0
 10
48.7193
 20
80.7681
 30
0.0
 11
47.9199
 21
80.7681
 31
0.0
  0
LINE
  8
0
 62
     0
 10
47.9199
 20
80.7681
 30
0.0
 11
47.9199
 21
77.6676
 31
0.0
  0
LINE
  8
0
 62
     0
 10
47.9199
 20
77.6676
 30
0.0
 11
48.7193
 21
77.6676
 31
0.0
  0
LINE
  8
0
 62
     0
 10
48.7193
 20
77.6676
 30
0.0
 11
48.7193
 21
71.8675
 31
0.0
  0
LINE
  8
0
 62
     0
 10
48.7193
 20
71.8675
 30
0.0
 11
47.9199
 21
71.8675
 31
0.0
  0
LINE
  8
0
 62
     0
 10
47.9199
 20
71.8675
 30
0.0
 11
47.9199
 21
68.7684
 31
0.0
  0
LINE
  8
0
 62
     0
 10
47.9199
 20
68.7684
 30
0.0
 11
48.7193
 21
68.7684
 31
0.0
  0
LINE
  8
0
 62
     0
 10
48.7193
 20
68.7684
 30
0.0
 11
48.7193
 21
67.7679
 31
0.0
  0
LINE
  8
0
 62
     0
 10
48.7193
 20
67.7679
 30
0.0
 11
62.72
 21
67.7679
 31
0.0
  0
LINE
  8
0
 62
     0
 10
62.72
 20
67.7679
 30
0.0
 11
62.72
 21
68.7684
 31
0.0
  0
LINE
  8
0
 62
     0
 10
62.72
 20
68.7684
 30
0.0
 11
63.5194
 21
68.7684
 31
0.0
  0
LINE
  8
0
 62
     0
 10
63.5194
 20
68.7684
 30
0.0
 11
63.5194
 21
71.8675
 31
0.0
  0
LINE
  8
0
 62
     0
 10
63.5194
 20
71.8675
 30
0.0
 11
62.72
 21
71.8675
 31
0.0
  0
LINE
  8
0
 62
     0
 10
62.72
 20
71.8675
 30
0.0
 11
62.72
 21
77.6676
 31
0.0
  0
LINE
  8
0
 62
     0
 10
62.72
 20
77.6676
 30
0.0
 11
63.5194
 21
77.6676
 31
0.0
  0
LINE
  8
0
 62
     0
 10
63.5194
 20
77.6676
 30
0.0
 11
63.5194
 21
80.7681
 31
0.0
  0
LINE
  8
0
 62
     0
 10
63.5194
 20
80.7681
 30
0.0
 11
62.72
 21
80.7681
 31
0.0
  0
LINE
  8
0
 62
     0
 10
62.72
 20
80.7681
 30
0.0
 11
62.72
 21
81.7686
 31
0.0
  0
LINE
  8
0
 62
     0
 10
62.72
 20
81.7686
 30
0.0
 11
48.7193
 21
81.7686
 31
0.0
  0
LINE
  8
0
 62
     0
 10
10.6192
 20
100.819
 30
0.0
 11
10.6192
 21
99.8181
 31
0.0
  0
LINE
  8
0
 62
     0
 10
10.6192
 20
99.8181
 30
0.0
 11
9.81851
 21
99.8181
 31
0.0
  0
LINE
  8
0
 62
     0
 10
9.81851
 20
99.8181
 30
0.0
 11
9.81851
 21
96.7176
 31
0.0
  0
LINE
  8
0
 62
     0
 10
9.81851
 20
96.7176
 30
0.0
 11
10.6192
 21
96.7176
 31
0.0
  0
LINE
  8
0
 62
     0
 10
10.6192
 20
96.7176
 30
0.0
 11
10.6192
 21
90.9189
 31
0.0
  0
LINE
  8
0
 62
     0
 10
10.6192
 20
90.9189
 30
0.0
 11
9.81851
 21
90.9189
 31
0.0
  0
LINE
  8
0
 62
     0
 10
9.81851
 20
90.9189
 30
0.0
 11
9.81851
 21
87.8184
 31
0.0
  0
LINE
  8
0
 62
     0
 10
9.81851
 20
87.8184
 30
0.0
 11
10.6192
 21
87.8184
 31
0.0
  0
LINE
  8
0
 62
     0
 10
10.6192
 20
87.8184
 30
0.0
 11
10.6192
 21
86.8179
 31
0.0
  0
LINE
  8
0
 62
     0
 10
10.6192
 20
86.8179
 30
0.0
 11
24.62
 21
86.8179
 31
0.0
  0
LINE
  8
0
 62
     0
 10
24.62
 20
86.8179
 30
0.0
 11
24.62
 21
87.8184
 31
0.0
  0
LINE
  8
0
 62
     0
 10
24.62
 20
87.8184
 30
0.0
 11
25.4193
 21
87.8184
 31
0.0
  0
LINE
  8
0
 62
     0
 10
25.4193
 20
87.8184
 30
0.0
 11
25.4193
 21
90.9189
 31
0.0
  0
LINE
  8
0
 62
     0
 10
25.4193
 20
90.9189
 30
0.0
 11
24.62
 21
90.9189
 31
0.0
  0
LINE
  8
0
 62
     0
 10
24.62
 20
90.9189
 30
0.0
 11
24.62
 21
96.7176
 31
0.0
  0
LINE
  8
0
 62
     0
 10
24.62
 20
96.7176
 30
0.0
 11
25.4193
 21
96.7176
 31
0.0
  0
LINE
  8
0
 62
     0
 10
25.4193
 20
96.7176
 30
0.0
 11
25.4193
 21
99.8181
 31
0.0
  0
LINE
  8
0
 62
     0
 10
25.4193
 20
99.8181
 30
0.0
 11
24.62
 21
99.8181
 31
0.0
  0
LINE
  8
0
 62
     0
 10
24.62
 20
99.8181
 30
0.0
 11
24.62
 21
100.819
 31
0.0
  0
LINE
  8
0
 62
     0
 10
24.62
 20
100.819
 30
0.0
 11
10.6192
 21
100.819
 31
0.0
  0
LINE
  8
0
 62
     0
 10
29.6692
 20
100.819
 30
0.0
 11
29.6692
 21
99.8181
 31
0.0
  0
LINE
  8
0
 62
     0
 10
29.6692
 20
99.8181
 30
0.0
 11
28.8699
 21
99.8181
 31
0.0
  0
LINE
  8
0
 62
     0
 10
28.8699
 20
99.8181
 30
0.0
 11
28.8699
 21
96.7176
 31
0.0
  0
LINE
  8
0
 62
     0
 10
28.8699
 20
96.7176
 30
0.0
 11
29.6692
 21
96.7176
 31
0.0
  0
LINE
  8
0
 62
     0
 10
29.6692
 20
96.7176
 30
0.0
 11
29.6692
 21
90.9189
 31
0.0
  0
LINE
  8
0
 62
     0
 10
29.6692
 20
90.9189
 30
0.0
 11
28.8699
 21
90.9189
 31
0.0
  0
LINE
  8
0
 62
     0
 10
28.8699
 20
90.9189
 30
0.0
 11
28.8699
 21
87.8184
 31
0.0
  0
LINE
  8
0
 62
     0
 10
28.8699
 20
87.8184
 30
0.0
 11
29.6692
 21
87.8184
 31
0.0
  0
LINE
  8
0
 62
     0
 10
29.6692
 20
87.8184
 30
0.0
 11
29.6692
 21
86.8179
 31
0.0
  0
LINE
  8
0
 62
     0
 10
29.6692
 20
86.8179
 30
0.0
 11
43.67
 21
86.8179
 31
0.0
  0
LINE
  8
0
 62
     0
 10
43.67
 20
86.8179
 30
0.0
 11
43.67
 21
87.8184
 31
0.0
  0
LINE
  8
0
 62
     0
 10
43.67
 20
87.8184
 30
0.0
 11
44.4694
 21
87.8184
 31
0.0
  0
LINE
  8
0
 62
     0
 10
44.4694
 20
87.8184
 30
0.0
 11
44.4694
 21
90.9189
 31
0.0
  0
LINE
  8
0
 62
     0
 10
44.4694
 20
90.9189
 30
0.0
 11
43.67
 21
90.9189
 31
0.0
  0
LINE
  8
0
 62
     0
 10
43.67
 20
90.9189
 30
0.0
 11
43.67
 21
96.7176
 31
0.0
  0
LINE
  8
0
 62
     0
 10
43.67
 20
96.7176
 30
0.0
 11
44.4694
 21
96.7176
 31
0.0
  0
LINE
  8
0
 62
     0
 10
44.4694
 20
96.7176
 30
0.0
 11
44.4694
 21
99.8181
 31
0.0
  0
LINE
  8
0
 62
     0
 10
44.4694
 20
99.8181
 30
0.0
 11
43.67
 21
99.8181
 31
0.0
  0
LINE
  8
0
 62
     0
 10
43.67
 20
99.8181
 30
0.0
 11
43.67
 21
100.819
 31
0.0
  0
LINE
  8
0
 62
     0
 10
43.67
 20
100.819
 30
0.0
 11
29.6692
 21
100.819
 31
0.0
  0
LINE
  8
0
 62
     0
 10
48.7193
 20
100.819
 30
0.0
 11
48.7193
 21
99.8181
 31
0.0
  0
LINE
  8
0
 62
     0
 10
48.7193
 20
99.8181
 30
0.0
 11
47.9199
 21
99.8181
 31
0.0
  0
LINE
  8
0
 62
     0
 10
47.9199
 20
99.8181
 30
0.0
 11
47.9199
 21
96.7176
 31
0.0
  0
LINE
  8
0
 62
     0
 10
47.9199
 20
96.7176
 30
0.0
 11
48.7193
 21
96.7176
 31
0.0
  0
LINE
  8
0
 62
     0
 10
48.7193
 20
96.7176
 30
0.0
 11
48.7193
 21
90.9189
 31
0.0
  0
LINE
  8
0
 62
     0
 10
48.7193
 20
90.9189
 30
0.0
 11
47.9199
 21
90.9189
 31
0.0
  0
LINE
  8
0
 62
     0
 10
47.9199
 20
90.9189
 30
0.0
 11
47.9199
 21
87.8184
 31
0.0
  0
LINE
  8
0
 62
     0
 10
47.9199
 20
87.8184
 30
0.0
 11
48.7193
 21
87.8184
 31
0.0
  0
LINE
  8
0
 62
     0
 10
48.7193
 20
87.8184
 30
0.0
 11
48.7193
 21
86.8179
 31
0.0
  0
LINE
  8
0
 62
     0
 10
48.7193
 20
86.8179
 30
0.0
 11
62.72
 21
86.8179
 31
0.0
  0
LINE
  8
0
 62
     0
 10
62.72
 20
86.8179
 30
0.0
 11
62.72
 21
87.8184
 31
0.0
  0
LINE
  8
0
 62
     0
 10
62.72
 20
87.8184
 30
0.0
 11
63.5194
 21
87.8184
 31
0.0
  0
LINE
  8
0
 62
     0
 10
63.5194
 20
87.8184
 30
0.0
 11
63.5194
 21
90.9189
 31
0.0
  0
LINE
  8
0
 62
     0
 10
63.5194
 20
90.9189
 30
0.0
 11
62.72
 21
90.9189
 31
0.0
  0
LINE
  8
0
 62
     0
 10
62.72
 20
90.9189
 30
0.0
 11
62.72
 21
96.7176
 31
0.0
  0
LINE
  8
0
 62
     0
 10
62.72
 20
96.7176
 30
0.0
 11
63.5194
 21
96.7176
 31
0.0
  0
LINE
  8
0
 62
     0
 10
63.5194
 20
96.7176
 30
0.0
 11
63.5194
 21
99.8181
 31
0.0
  0
LINE
  8
0
 62
     0
 10
63.5194
 20
99.8181
 30
0.0
 11
62.72
 21
99.8181
 31
0.0
  0
LINE
  8
0
 62
     0
 10
62.72
 20
99.8181
 30
0.0
 11
62.72
 21
100.819
 31
0.0
  0
LINE
  8
0
 62
     0
 10
62.72
 20
100.819
 30
0.0
 11
48.7193
 21
100.819
 31
0.0
  0
LINE
  8
0
 62
     0
 10
67.7693
 20
100.819
 30
0.0
 11
67.7693
 21
99.8181
 31
0.0
  0
LINE
  8
0
 62
     0
 10
67.7693
 20
99.8181
 30
0.0
 11
66.9699
 21
99.8181
 31
0.0
  0
LINE
  8
0
 62
     0
 10
66.9699
 20
99.8181
 30
0.0
 11
66.9699
 21
96.7176
 31
0.0
  0
LINE
  8
0
 62
     0
 10
66.9699
 20
96.7176
 30
0.0
 11
67.7693
 21
96.7176
 31
0.0
  0
LINE
  8
0
 62
     0
 10
67.7693
 20
96.7176
 30
0.0
 11
67.7693
 21
90.9189
 31
0.0
  0
LINE
  8
0
 62
     0
 10
67.7693
 20
90.9189
 30
0.0
 11
66.9699
 21
90.9189
 31
0.0
  0
LINE
  8
0
 62
     0
 10
66.9699
 20
90.9189
 30
0.0
 11
66.9699
 21
87.8184
 31
0.0
  0
LINE
  8
0
 62
     0
 10
66.9699
 20
87.8184
 30
0.0
 11
67.7693
 21
87.8184
 31
0.0
  0
LINE
  8
0
 62
     0
 10
67.7693
 20
87.8184
 30
0.0
 11
67.7693
 21
86.8179
 31
0.0
  0
LINE
  8
0
 62
     0
 10
67.7693
 20
86.8179
 30
0.0
 11
81.77
 21
86.8179
 31
0.0
  0
LINE
  8
0
 62
     0
 10
81.77
 20
86.8179
 30
0.0
 11
81.77
 21
87.8184
 31
0.0
  0
LINE
  8
0
 62
     0
 10
81.77
 20
87.8184
 30
0.0
 11
82.5694
 21
87.8184
 31
0.0
  0
LINE
  8
0
 62
     0
 10
82.5694
 20
87.8184
 30
0.0
 11
82.5694
 21
90.9189
 31
0.0
  0
LINE
  8
0
 62
     0
 10
82.5694
 20
90.9189
 30
0.0
 11
81.77
 21
90.9189
 31
0.0
  0
LINE
  8
0
 62
     0
 10
81.77
 20
90.9189
 30
0.0
 11
81.77
 21
96.7176
 31
0.0
  0
LINE
  8
0
 62
     0
 10
81.77
 20
96.7176
 30
0.0
 11
82.5694
 21
96.7176
 31
0.0
  0
LINE
  8
0
 62
     0
 10
82.5694
 20
96.7176
 30
0.0
 11
82.5694
 21
99.8181
 31
0.0
  0
LINE
  8
0
 62
     0
 10
82.5694
 20
99.8181
 30
0.0
 11
81.77
 21
99.8181
 31
0.0
  0
LINE
  8
0
 62
     0
 10
81.77
 20
99.8181
 30
0.0
 11
81.77
 21
100.819
 31
0.0
  0
LINE
  8
0
 62
     0
 10
81.77
 20
100.819
 30
0.0
 11
67.7693
 21
100.819
 31
0.0
  0
LINE
  8
0
 62
     0
 10
87.7549
 20
109.008
 30
0.0
 11
87.267
 21
108.759
 31
0.0
  0
LINE
  8
0
 62
     0
 10
87.267
 20
108.759
 30
0.0
 11
86.8796
 21
108.372
 31
0.0
  0
LINE
  8
0
 62
     0
 10
86.8796
 20
108.372
 30
0.0
 11
86.6302
 21
107.884
 31
0.0
  0
LINE
  8
0
 62
     0
 10
86.6302
 20
107.884
 30
0.0
 11
86.5463
 21
107.344
 31
0.0
  0
LINE
  8
0
 62
     0
 10
86.5463
 20
107.344
 30
0.0
 11
86.6302
 21
106.803
 31
0.0
  0
LINE
  8
0
 62
     0
 10
86.6302
 20
106.803
 30
0.0
 11
86.8796
 21
106.316
 31
0.0
  0
LINE
  8
0
 62
     0
 10
86.8796
 20
106.316
 30
0.0
 11
87.267
 21
105.929
 31
0.0
  0
LINE
  8
0
 62
     0
 10
87.267
 20
105.929
 30
0.0
 11
87.7549
 21
105.679
 31
0.0
  0
LINE
  8
0
 62
     0
 10
87.7549
 20
105.679
 30
0.0
 11
88.2964
 21
105.593
 31
0.0
  0
LINE
  8
0
 62
     0
 10
88.2964
 20
105.593
 30
0.0
 11
88.8351
 21
105.679
 31
0.0
  0
LINE
  8
0
 62
     0
 10
88.8351
 20
105.679
 30
0.0
 11
89.3244
 21
105.929
 31
0.0
  0
LINE
  8
0
 62
     0
 10
89.3244
 20
105.929
 30
0.0
 11
89.7103
 21
106.316
 31
0.0
  0
LINE
  8
0
 62
     0
 10
89.7103
 20
106.316
 30
0.0
 11
89.9597
 21
106.803
 31
0.0
  0
LINE
  8
0
 62
     0
 10
89.9597
 20
106.803
 30
0.0
 11
90.0451
 21
107.344
 31
0.0
  0
LINE
  8
0
 62
     0
 10
90.0451
 20
107.344
 30
0.0
 11
89.9597
 21
107.884
 31
0.0
  0
LINE
  8
0
 62
     0
 10
89.9597
 20
107.884
 30
0.0
 11
89.7103
 21
108.372
 31
0.0
  0
LINE
  8
0
 62
     0
 10
89.7103
 20
108.372
 30
0.0
 11
89.3244
 21
108.759
 31
0.0
  0
LINE
  8
0
 62
     0
 10
89.3244
 20
108.759
 30
0.0
 11
88.8351
 21
109.008
 31
0.0
  0
LINE
  8
0
 62
     0
 10
88.8351
 20
109.008
 30
0.0
 11
88.2964
 21
109.092
 31
0.0
  0
LINE
  8
0
 62
     0
 10
88.2964
 20
109.092
 30
0.0
 11
87.7549
 21
109.008
 31
0.0
  0
LINE
  8
0
 62
     0
 10
3.55395
 20
109.008
 30
0.0
 11
3.06614
 21
108.759
 31
0.0
  0
LINE
  8
0
 62
     0
 10
3.06614
 20
108.759
 30
0.0
 11
2.67891
 21
108.372
 31
0.0
  0
LINE
  8
0
 62
     0
 10
2.67891
 20
108.372
 30
0.0
 11
2.42948
 21
107.884
 31
0.0
  0
LINE
  8
0
 62
     0
 10
2.42948
 20
107.884
 30
0.0
 11
2.34542
 21
107.344
 31
0.0
  0
LINE
  8
0
 62
     0
 10
2.34542
 20
107.344
 30
0.0
 11
2.42948
 21
106.803
 31
0.0
  0
LINE
  8
0
 62
     0
 10
2.42948
 20
106.803
 30
0.0
 11
2.67891
 21
106.316
 31
0.0
  0
LINE
  8
0
 62
     0
 10
2.67891
 20
106.316
 30
0.0
 11
3.06614
 21
105.929
 31
0.0
  0
LINE
  8
0
 62
     0
 10
3.06614
 20
105.929
 30
0.0
 11
3.55395
 21
105.679
 31
0.0
  0
LINE
  8
0
 62
     0
 10
3.55395
 20
105.679
 30
0.0
 11
4.09416
 21
105.593
 31
0.0
  0
LINE
  8
0
 62
     0
 10
4.09416
 20
105.593
 30
0.0
 11
4.63434
 21
105.679
 31
0.0
  0
LINE
  8
0
 62
     0
 10
4.63434
 20
105.679
 30
0.0
 11
5.12216
 21
105.929
 31
0.0
  0
LINE
  8
0
 62
     0
 10
5.12216
 20
105.929
 30
0.0
 11
5.5094
 21
106.316
 31
0.0
  0
LINE
  8
0
 62
     0
 10
5.5094
 20
106.316
 30
0.0
 11
5.75881
 21
106.803
 31
0.0
  0
LINE
  8
0
 62
     0
 10
5.75881
 20
106.803
 30
0.0
 11
5.84426
 21
107.344
 31
0.0
  0
LINE
  8
0
 62
     0
 10
5.84426
 20
107.344
 30
0.0
 11
5.75881
 21
107.884
 31
0.0
  0
LINE
  8
0
 62
     0
 10
5.75881
 20
107.884
 30
0.0
 11
5.5094
 21
108.372
 31
0.0
  0
LINE
  8
0
 62
     0
 10
5.5094
 20
108.372
 30
0.0
 11
5.12216
 21
108.759
 31
0.0
  0
LINE
  8
0
 62
     0
 10
5.12216
 20
108.759
 30
0.0
 11
4.63434
 21
109.008
 31
0.0
  0
LINE
  8
0
 62
     0
 10
4.63434
 20
109.008
 30
0.0
 11
4.09416
 21
109.092
 31
0.0
  0
LINE
  8
0
 62
     0
 10
4.09416
 20
109.092
 30
0.0
 11
3.55395
 21
109.008
 31
0.0
  0
ENDSEC
  0
EOF
